<?xml version="1.0" encoding="utf-8"?>
<!-- Generator: Adobe Illustrator 16.0.0, SVG Export Plug-In . SVG Version: 6.00 Build 0)  -->
<!DOCTYPE svg PUBLIC "-//W3C//DTD SVG 1.1//EN" "http://www.w3.org/Graphics/SVG/1.1/DTD/svg11.dtd">
<svg version="1.1" id="Vrstva_1" xmlns="http://www.w3.org/2000/svg" xmlns:xlink="http://www.w3.org/1999/xlink" x="0px" y="0px"
	 width="283.46px" height="105.125px" viewBox="0 0 283.46 105.125" enable-background="new 0 0 283.46 105.125"
	 xml:space="preserve">
<path fill="#00B2EF" d="M130.686,67.278c2.161-4.414,5.744-7.563,9.81-10.097c2.249-1.396,4.673-2.577,7.031-3.799
	c0.306-0.131,0.964-0.085,1.225,0.133c1.877,1.793,3.733,3.667,5.699,5.638c-0.63,0.351-1.2,0.653-1.769,0.961
	c-2.839,1.572-5.59,3.314-7.71,5.854c-0.501,0.61-0.985,1.312-1.355,2.007c-1.244,2.183-0.851,4.282,0.522,6.247
	c2.077,2.973,4.94,4.981,8.042,6.644c1.792,0.959,3.668,1.786,5.657,2.747c-3.407,3.806-6.838,7.562-10.264,11.354
	c-5.224-2.439-10.094-5.278-13.94-9.609c-2.401-2.661-4.381-5.692-4.587-9.387C128.838,72.179,129.836,69.02,130.686,67.278"/>
<path fill-rule="evenodd" clip-rule="evenodd" fill="#00B2EF" d="M239.619,80.467c-1.308,3.143-3.561,5.594-6.113,7.777
	c-3.322,2.797-7.059,4.89-11.052,6.724c-3.41-3.753-6.819-7.51-10.314-11.396c1.007-0.438,1.879-0.788,2.773-1.226
	c3.52-1.615,6.928-3.495,9.569-6.418c0.961-1.054,1.816-2.318,2.339-3.673c1.046-2.536-0.305-4.633-1.946-6.381
	c-0.918-1.003-1.288-1.965-1.247-3.315c0.09-2.8,0.025-5.638,0.025-8.648c1.265,0.648,2.422,1.171,3.56,1.833
	c4.148,2.442,7.993,5.243,10.811,9.258c1.51,2.139,2.575,4.498,2.925,7.12C241.387,75.389,240.294,78.852,239.619,80.467"/>
<path fill-rule="evenodd" clip-rule="evenodd" fill="#00B2EF" d="M202.528,59.587c0,1.396,0.021,2.615,0,3.801
	c-0.043,2.184-1.572,3.753-3.535,3.712c-1.924-0.046-3.408-1.575-3.408-3.712c0-8.65-0.047-17.299,0-25.955
	c0.063-6.592,4.674-11.673,11.227-12.305c4.278-0.393,7.818,1.31,10.526,4.576c-1.725,1.488-3.43,2.927-5.088,4.368
	c-0.765-0.523-1.572-1.225-2.513-1.615c-3.188-1.397-6.856,0.872-7.188,4.327c-0.281,3.188-0.281,3.145,2.71,4.193
	c2.577,0.917,5.134,1.833,7.862,2.836c0.109-0.652,0.154-1.221,0.288-1.787c1.176-5.896,6.463-10.139,12.319-9.92
	c5.982,0.174,10.877,4.547,11.706,10.528c0.175,1.138,0.219,2.27,0.175,3.408c-0.045,2.009-1.596,3.494-3.492,3.494
	c-1.882,0-3.345-1.528-3.452-3.537c-0.045-1.048,0-2.142-0.241-3.146c-0.676-2.578-3.125-4.107-5.788-3.799
	c-2.514,0.347-4.499,2.53-4.546,5.154c-0.02,8.603,0,17.253,0,25.862c0,1.966-0.808,3.275-2.339,3.846
	c-2.269,0.789-4.542-0.827-4.604-3.37c-0.046-2.044-0.046-4.148,0-6.245c0-0.695-0.221-1-0.875-1.219
	C209.081,61.944,205.894,60.806,202.528,59.587 M213.121,57.14c0-2.317,0.025-4.455-0.021-6.599c0-0.261-0.436-0.611-0.743-0.741
	c-1.441-0.568-2.926-1.094-4.412-1.615c-1.77-0.614-3.536-1.269-5.417-1.923c0,2.269,0,4.412,0.044,6.511
	c0,0.258,0.393,0.694,0.674,0.781"/>
<path fill-rule="evenodd" clip-rule="evenodd" fill="#EC1B2E" d="M153.248,97.328c0.353-0.434,0.528-0.693,0.725-0.915
	c3.08-3.404,6.139-6.772,9.195-10.137c0.481-0.522,0.874-0.74,1.617-0.522c7.293,1.88,14.764,2.622,22.321,2.443
	c6.162-0.125,12.234-0.912,18.195-2.443c0.394-0.09,1.05,0.043,1.311,0.307c3.301,3.538,6.534,7.12,9.767,10.705
	c0.087,0.081,0.151,0.213,0.394,0.563C195.538,103.842,174.525,103.842,153.248,97.328"/>
<path fill-rule="evenodd" clip-rule="evenodd" fill="#EC1B2E" d="M192.004,46.347v6.162c0,0.218-0.025,0.437-0.047,0.742
	c-0.547,0-1.048,0.046-1.527,0c-10.466-0.702-20.711,0.436-30.67,3.803c-0.26,0.087-0.741,0.041-0.959-0.131
	c-1.925-1.839-3.802-3.713-5.879-5.724C165.746,46.873,178.677,45.605,192.004,46.347"/>
<path fill="#00B2EF" d="M184.618,64.083c-1.134,3.367-4.98,6.161-8.521,6.338c-2.575,0.127-4.999-0.483-7.337-1.442
	c-2.096-0.829-4.237-1.396-6.467-1.396c-2.84,0-5.396,0.828-7.773,2.315c-0.2,0.132-0.438,0.26-0.68,0.392
	c0.522-2.363,3.735-5.593,7.054-6.207c2.842-0.563,5.55,0.046,8.236,0.965c2.161,0.742,4.392,1.353,6.663,1.616
	c2.884,0.304,5.592-0.697,8.08-2.227c0.179-0.136,0.352-0.224,0.57-0.354H184.618z"/>
<path fill-rule="evenodd" clip-rule="evenodd" fill="#EC1B2E" d="M167.819,80.817c1.134-3.456,4.784-6.162,8.455-6.418
	c2.184-0.141,4.322,0.172,6.333,1.001c5.723,2.405,10.268,2.797,16.034-0.876c-0.48,2.316-3.758,5.554-6.902,6.207
	c-2.71,0.522-5.287,0.086-7.866-0.787c-1.939-0.656-3.927-1.311-5.961-1.662c-3.278-0.613-6.292,0.352-9.109,1.965
	C168.499,80.424,168.191,80.601,167.819,80.817"/>
<path fill="#00B2EF" d="M48.226,10.355c4.788,0,7.542,2.626,7.542,7.246c0,2.372-0.848,4.279-2.289,5.253
	c-0.593,0.381-1.101,0.592-2.499,1.059c3.601,0.804,5.253,2.923,5.253,6.778c0,4.915-3.008,7.924-7.924,7.924H33.565
	c0.254-0.466,0.296-0.764,0.296-1.398V11.795c0-0.762-0.042-1.017-0.296-1.44H48.226z M44.157,22.558
	c1.779,0,2.416-1.102,2.416-4.195c0-2.753-0.763-3.94-2.457-3.94h-0.721v8.135H44.157z M44.413,34.675
	c1.567,0,2.245-1.144,2.245-3.771c0-3.135-0.636-4.364-2.203-4.364h-1.06v8.135H44.413z"/>
<path fill="#00B2EF" d="M61.87,37.217c-0.169,0.466-0.254,0.847-0.254,1.059c0,0.042,0.042,0.17,0.085,0.339h-5.127
	c0.382-0.381,0.55-0.678,0.804-1.398l8.898-25.465c0.168-0.508,0.256-0.89,0.256-1.102c0-0.041,0-0.126-0.044-0.295h8.008
	c0,0.422,0.041,0.803,0.254,1.397l9.11,25.465c0.254,0.72,0.466,1.017,0.846,1.398H73.86c0.042-0.168,0.042-0.297,0.042-0.339
	c0-0.254-0.085-0.635-0.211-1.059l-1.863-5.763h-7.966L61.87,37.217z M70.428,27.176l-2.5-8.179l-2.585,8.179H70.428z"/>
<path fill="#00B2EF" d="M84.581,34.124l11.398-19.49h-9.323c-1.101,0-1.397,0.042-2.076,0.254v-4.533h22.33v4.576L95.64,34.335
	h9.491c1.144,0,1.27,0,1.779-0.211v4.491h-22.33V34.124z"/>
<path fill="#00B2EF" d="M127.716,10.355v4.11c-0.595-0.127-0.891-0.171-1.442-0.171h-6.822v8.137h6.738c0.932,0,1.017,0,1.526-0.17
	v4.28c-0.51-0.127-0.72-0.169-1.483-0.169h-6.781v7.964h6.568c1.145,0,1.145,0,1.696-0.169v4.449h-18.093
	c0.254-0.465,0.296-0.762,0.296-1.396V11.753c0-0.678-0.042-0.974-0.296-1.398H127.716z M118.478,0.567h6.144l-5.17,7.67h-3.94
	L118.478,0.567z"/>
<path fill="#00B2EF" d="M135.766,37.217c0,0.679,0.042,0.975,0.296,1.396h-4.872c0.253-0.464,0.296-0.762,0.296-1.396V11.753
	c0-0.72-0.042-0.974-0.296-1.398h8.177c0.127,0.424,0.254,0.678,0.806,1.441l11.906,15.634V11.796c0-0.678-0.043-0.976-0.298-1.441
	h4.83c-0.252,0.338-0.295,0.466-0.295,1.398v25.464c0,0.466,0.082,0.806,0.295,1.396h-8.306c-0.125-0.422-0.252-0.676-0.846-1.396
	l-11.694-15.338V37.217z"/>
<path fill="#00B2EF" d="M158.18,11.752c-0.338-0.721-0.507-0.974-0.846-1.397h10.889c-0.041,0.169-0.086,0.296-0.086,0.338
	c0,0.254,0.086,0.593,0.3,1.059l3.642,9.194l3.941-9.194c0.21-0.422,0.34-0.931,0.34-1.228v-0.169h5.167
	c-0.34,0.423-0.466,0.676-0.804,1.397l-6.568,14.958v10.507c0,0.678,0.041,0.974,0.295,1.398h-10.124
	c0.254-0.466,0.297-0.764,0.297-1.398V26.921L158.18,11.752z"/>
<path fill="#00B2EF" d="M0.529,90.831c0.427-0.781,0.498-1.278,0.498-2.414V45.769c0-1.138-0.071-1.636-0.498-2.347h16.988
	c-0.426,0.711-0.497,1.209-0.497,2.347v37.884h9.879c1.99,0,2.346-0.071,3.341-0.498v7.676H0.529z"/>
<path fill="#00B2EF" d="M50.429,43.422c-0.428,0.711-0.498,1.209-0.498,2.347v42.718c0,1.065,0.069,1.564,0.498,2.346H33.44
	c0.425-0.781,0.499-1.28,0.499-2.346V45.769c0-1.138-0.074-1.636-0.499-2.347H50.429z"/>
<path fill="#00B2EF" d="M74.025,88.487c0,0.711,0.144,1.278,0.642,2.344H57.536c0.356-0.781,0.498-1.349,0.498-2.344V45.839
	c0-1.209-0.071-1.707-0.498-2.417h21.395c5.402,0,8.388,0.711,11.302,2.773c3.625,2.558,5.331,6.397,5.331,12.226
	c0,5.399-1.848,9.453-5.402,12.013c-3.412,2.417-6.753,3.269-12.864,3.269h-3.272V88.487z M75.235,66.522
	c3.27,0,4.193-1.847,4.193-8.243c0-5.9-1.138-8.104-4.051-8.104h-1.352v16.348H75.235z"/>
<path fill="#00B2EF" d="M133.224,43.197v8.173c-1.065-0.285-1.633-0.354-2.559-0.354h-8.529v37.246c0,1.065,0.072,1.563,0.498,2.347
	h-16.987c0.425-0.713,0.497-1.211,0.497-2.347V51.016h-7.819c-1.066,0-1.777,0.069-3.128,0.354v-8.173H133.224z"/>
<path fill="#00B2EF" d="M11.637,96.419h2.421v0.703l-0.807-0.023l0.976,5.273l0.092,0.474c0.093,0.544,0.147,0.938,0.168,1.179
	c0.026-0.347,0.104-0.9,0.236-1.658l1.075-5.947h1.187l1.118,5.922c0.132,0.719,0.215,1.278,0.248,1.684
	c0.045-0.476,0.125-1.04,0.243-1.69l0.956-5.235l-0.808,0.023v-0.703h2.41v0.703l-0.807-0.023l-1.43,7.803h-1.135l-1.169-6.152
	c-0.115-0.636-0.187-1.136-0.217-1.489c-0.029,0.367-0.103,0.865-0.218,1.489l-1.131,6.152h-1.143l-1.46-7.803l-0.807,0.023V96.419z
	"/>
<path fill="#00B2EF" d="M21.329,96.419h2.421v0.703l-0.806-0.023l0.975,5.273l0.093,0.474c0.092,0.544,0.147,0.938,0.168,1.179
	c0.025-0.347,0.104-0.9,0.236-1.658l1.075-5.947h1.187l1.118,5.922c0.133,0.719,0.215,1.278,0.249,1.684
	c0.046-0.476,0.125-1.04,0.241-1.69l0.958-5.235l-0.808,0.023v-0.703h2.41v0.703l-0.806-0.023l-1.43,7.803h-1.136l-1.169-6.152
	c-0.116-0.636-0.188-1.136-0.217-1.489c-0.03,0.367-0.103,0.865-0.219,1.489l-1.13,6.152h-1.143l-1.46-7.803l-0.807,0.023V96.419z"
	/>
<path fill="#00B2EF" d="M31.019,96.419h2.423v0.703l-0.808-0.023l0.975,5.273l0.094,0.474c0.09,0.544,0.146,0.938,0.167,1.179
	c0.025-0.347,0.104-0.9,0.235-1.658l1.075-5.947h1.188l1.116,5.922c0.133,0.719,0.216,1.278,0.25,1.684
	c0.045-0.476,0.125-1.04,0.241-1.69l0.957-5.235l-0.807,0.023v-0.703h2.411v0.703l-0.808-0.023l-1.43,7.803h-1.136l-1.168-6.152
	c-0.116-0.636-0.188-1.136-0.218-1.489c-0.028,0.367-0.101,0.865-0.218,1.489l-1.131,6.152h-1.142l-1.46-7.803l-0.808,0.023V96.419z
	"/>
<path fill="#00B2EF" d="M40.946,103.97c0.133,0,0.249,0.049,0.349,0.148c0.099,0.104,0.148,0.223,0.148,0.36
	c0,0.14-0.049,0.26-0.148,0.358c-0.1,0.1-0.22,0.15-0.361,0.15c-0.135,0-0.257-0.051-0.361-0.15
	c-0.098-0.099-0.148-0.217-0.148-0.353c0-0.146,0.05-0.269,0.148-0.366C40.672,104.019,40.798,103.97,40.946,103.97"/>
<path fill="#00B2EF" d="M42.375,104.901v-1.126h0.679v-6.23h-0.679v-1.126h4.05c0.291,0,0.528,0.029,0.712,0.088
	c0.184,0.058,0.366,0.161,0.544,0.313c0.362,0.303,0.547,0.702,0.553,1.189v0.952c0.004,0.7-0.316,1.188-0.958,1.467
	c0.334,0.128,0.58,0.318,0.729,0.576c0.152,0.252,0.228,0.6,0.228,1.047v0.936c0,0.374-0.038,0.666-0.112,0.879
	c-0.076,0.214-0.208,0.411-0.399,0.594c-0.177,0.171-0.364,0.285-0.561,0.349c-0.196,0.061-0.48,0.094-0.849,0.094H42.375z
	 M44.407,99.863h1.628c0.326,0,0.554-0.066,0.684-0.193c0.128-0.13,0.19-0.356,0.19-0.686v-0.593c0-0.316-0.07-0.537-0.21-0.66
	c-0.14-0.126-0.386-0.187-0.738-0.187h-1.554V99.863z M44.407,103.775h1.504c0.368,0,0.626-0.063,0.775-0.186
	c0.15-0.125,0.224-0.343,0.224-0.658v-1.012c0-0.366-0.07-0.613-0.21-0.745c-0.14-0.128-0.408-0.195-0.808-0.195h-1.484V103.775z"/>
<path fill="#00B2EF" d="M56.117,104.901h-1.908l-0.526-2.696h-1.925l-0.542,2.696H49.29v-1.126h0.695l1.677-7.356h2.119l1.653,7.356
	h0.682V104.901z M53.452,101.079l-0.722-3.8l-0.745,3.8H53.452z"/>
<polygon fill="#00B2EF" points="62.249,104.901 56.683,104.901 56.683,103.775 60.584,97.545 57.962,97.545 57.962,99.012 
	56.683,99.012 56.683,96.419 62.137,96.419 62.137,97.496 58.205,103.775 60.943,103.775 60.943,102.264 62.249,102.264 "/>
<polygon fill="#00B2EF" points="68.634,104.901 62.926,104.901 62.926,103.775 63.628,103.775 63.628,97.545 62.926,97.545 
	62.926,96.419 68.553,96.419 68.553,99.012 67.28,99.012 67.28,97.545 64.995,97.545 64.995,99.995 67.499,99.995 67.499,101.147 
	64.995,101.147 64.995,103.775 67.349,103.775 67.349,102.209 68.634,102.209 "/>
<polygon fill="#00B2EF" points="75.872,104.901 74.587,104.901 71.487,98.789 71.487,104.901 69.505,104.901 69.505,103.775 
	70.212,103.775 70.212,97.545 69.505,97.545 69.505,96.419 71.69,96.419 74.587,102.086 74.587,96.419 76.575,96.419 76.575,97.613 
	75.872,97.613 "/>
<polygon fill="#00B2EF" points="81.649,104.901 78.928,104.901 78.928,103.775 79.618,103.775 79.618,101.103 77.642,97.545 
	76.978,97.545 76.978,96.419 78.556,96.419 80.282,99.931 81.973,96.419 83.507,96.419 83.507,97.545 82.868,97.545 80.973,101.103 
	80.973,103.775 81.649,103.775 "/>
<polygon fill="#00B2EF" points="89.142,104.901 84.073,104.901 84.073,103.775 84.78,103.775 84.78,97.545 84.073,97.545 
	84.073,96.419 86.837,96.419 86.837,97.545 86.123,97.545 86.123,103.775 87.836,103.775 87.836,102.051 89.142,102.051 "/>
<polygon fill="#00B2EF" points="92.614,104.901 89.894,104.901 89.894,103.775 90.576,103.775 90.576,97.545 89.894,97.545 
	89.894,96.419 92.614,96.419 92.614,97.545 91.938,97.545 91.938,103.775 92.614,103.775 "/>
<path fill="#00B2EF" d="M95.485,101.26v2.516h0.707v1.126h-2.732v-1.126h0.695v-6.23h-0.695v-1.126h3.889
	c0.598,0.008,1.042,0.169,1.336,0.479c0.282,0.29,0.424,0.68,0.428,1.169v1.44c-0.009,0.578-0.198,1.029-0.572,1.347
	c-0.326,0.27-0.725,0.405-1.192,0.405H95.485z M95.485,100.116h1.311c0.385,0,0.646-0.06,0.783-0.176
	c0.137-0.118,0.203-0.342,0.203-0.668v-0.82c0-0.341-0.055-0.576-0.17-0.707c-0.115-0.134-0.318-0.2-0.612-0.2h-1.515V100.116z"/>
<polygon fill="#00B2EF" points="104.337,104.901 101.566,104.901 101.566,103.775 102.312,103.775 102.312,97.545 101.095,97.545 
	101.095,98.781 99.815,98.781 99.815,96.419 106.119,96.419 106.119,98.781 104.864,98.781 104.864,97.545 103.654,97.545 
	103.654,103.775 104.337,103.775 "/>
<path fill="#00B2EF" d="M112.68,98.071v5.295c0,0.472-0.149,0.855-0.451,1.153c-0.3,0.294-0.688,0.442-1.164,0.442h-2.157
	c-0.533-0.008-0.937-0.162-1.205-0.466c-0.274-0.309-0.411-0.715-0.417-1.216v-5.089c0-0.576,0.153-1.026,0.456-1.351
	c0.306-0.326,0.727-0.489,1.265-0.489h2.02c0.535,0,0.959,0.188,1.274,0.564C112.554,97.229,112.68,97.613,112.68,98.071
	 M110.531,97.477h-1.05c-0.312,0-0.529,0.064-0.653,0.192c-0.125,0.127-0.186,0.354-0.186,0.678v4.591
	c0,0.339,0.046,0.576,0.14,0.703c0.092,0.131,0.262,0.197,0.506,0.197h1.286c0.286,0,0.484-0.063,0.596-0.193
	c0.113-0.127,0.168-0.351,0.168-0.672v-4.626c0-0.307-0.064-0.527-0.19-0.664C111.022,97.545,110.816,97.477,110.531,97.477"/>
<polygon fill="#00B2EF" points="118.073,104.901 115.991,104.901 114.463,97.545 113.756,97.545 113.756,96.419 115.588,96.419 
	117.065,103.73 118.558,96.419 120.39,96.419 120.39,97.545 119.645,97.545 "/>
<path fill="#00B2EF" d="M121.135,103.403c0.202,0,0.378,0.075,0.525,0.224c0.146,0.148,0.221,0.329,0.221,0.535
	c0,0.211-0.077,0.391-0.224,0.54c-0.149,0.148-0.328,0.223-0.535,0.223c-0.211,0-0.393-0.074-0.541-0.223
	c-0.148-0.149-0.224-0.329-0.224-0.54c0-0.212,0.076-0.393,0.224-0.537C120.729,103.479,120.916,103.403,121.135,103.403"/>
<path fill="#00B2EF" d="M122.93,104.901v-2.424h1.286v1.298h1.752c0.286,0,0.485-0.063,0.6-0.186
	c0.115-0.123,0.171-0.341,0.171-0.646v-0.777c0-0.268-0.008-0.44-0.022-0.516c-0.014-0.073-0.055-0.144-0.122-0.211
	c-0.073-0.078-0.158-0.127-0.254-0.146c-0.096-0.023-0.29-0.033-0.584-0.033h-1.006c-0.588-0.008-1.032-0.165-1.33-0.466
	c-0.323-0.319-0.487-0.765-0.491-1.335v-1.281c0-0.563,0.162-0.995,0.484-1.302c0.324-0.304,0.783-0.457,1.375-0.457h3.148v2.344
	h-1.312v-1.218h-1.527c-0.307,0-0.517,0.059-0.634,0.179c-0.116,0.117-0.173,0.33-0.173,0.641v0.757c0,0.208,0.01,0.355,0.034,0.438
	c0.024,0.084,0.074,0.165,0.152,0.233c0.12,0.112,0.329,0.173,0.622,0.175h1.348c0.538,0,0.952,0.166,1.24,0.495
	c0.286,0.329,0.431,0.799,0.431,1.411v1.354c0,0.539-0.187,0.969-0.564,1.285c-0.187,0.153-0.376,0.256-0.57,0.308
	c-0.192,0.053-0.486,0.08-0.884,0.08H122.93z"/>
<path fill="#00B2EF" d="M135.125,104.901h-2.005v-2.839c0-0.362-0.038-0.587-0.113-0.68c-0.073-0.09-0.258-0.135-0.553-0.135h-1.584
	v3.653h-2.031v-1.126h0.695v-6.23h-0.695v-1.126h2.031v3.797l2.25-3.797h1.689v1.126h-0.881l-1.642,2.585h0.834
	c0.417,0,0.742,0.123,0.969,0.37c0.227,0.244,0.34,0.593,0.34,1.046v2.229h0.696V104.901z"/>
<path fill="#00B2EF" d="M256.781,43.292c-0.143,0.5-0.214,0.925-0.214,1.138c0,0.285,0.071,0.711,0.214,1.209l8.527,28.929
	l9.242-28.859c0.141-0.497,0.211-0.921,0.211-1.207c0-0.285-0.07-0.71-0.211-1.209h8.67c-0.566,0.64-0.852,1.138-1.279,2.347
	l-13.436,42.72c-0.211,0.639-0.353,1.351-0.353,1.918v0.427h-15.068c0.07-0.285,0.14-0.569,0.14-0.64
	c0-0.354-0.14-0.925-0.355-1.705l-13.007-42.65c-0.354-1.207-0.641-1.705-1.207-2.417H256.781z"/>
</svg>
