<svg id="Capa_1" enable-background="new 0 0 512 512" height="512" viewBox="0 0 512 512" width="512" xmlns="http://www.w3.org/2000/svg"><g><g><g><path d="m151 30h5c8.284 0 15-6.716 15-15s-6.716-15-15-15h-80c-8.284 0-15 6.716-15 15s6.716 15 15 15h5v63.528l70-46.667z"/><path d="m280.961 29.557c-15.163-10.108-34.759-10.108-49.922 0l-215.559 143.706c-9.046 6.031-14.48 16.184-14.48 27.057 0 25.972 28.946 41.464 50.556 27.057l204.444-136.295 204.444 136.295c21.61 14.407 50.556-1.085 50.556-27.057 0-10.873-5.431-21.024-14.478-27.055-50.482-33.655-215.561-143.708-215.561-143.708z"/></g><path d="m497 512h-482c-8.284 0-15-6.716-15-15v-30c0-8.284 6.716-15 15-15h482c8.284 0 15 6.716 15 15v30c0 8.284-6.716 15-15 15z"/></g><g><path d="m266.606 241.559c-5.857 5.858-15.355 5.858-21.213 0-7.694-7.693-17.8-11.54-27.906-11.54-10.105 0-20.211 3.847-27.905 11.54-15.387 15.387-15.387 40.424 0 55.811l66.418 66.417 66.417-66.417c15.387-15.387 15.387-40.424 0-55.811-15.388-15.388-40.423-15.387-55.811 0z"/><path d="m256 127.137-195 129.999v164.864h390v-164.864zm87.63 191.446-77.024 77.024c-2.928 2.929-6.767 4.393-10.606 4.393s-7.678-1.464-10.606-4.394l-77.024-77.024c-27.084-27.084-27.084-71.153 0-98.237 23.781-23.781 60.655-26.683 87.63-8.702 26.976-17.98 63.85-15.079 87.63 8.702 27.085 27.085 27.085 71.154 0 98.238z"/></g></g></svg>