<svg enable-background="new 0 0 24 24" height="512" viewBox="0 0 24 24" width="512" xmlns="http://www.w3.org/2000/svg"><path d="m20 22h-1v-3.719c0-1.415-.604-2.769-1.655-3.716l-1.611-1.45c-.32-.289-.496-.685-.496-1.115s.176-.827.496-1.115l1.611-1.45c1.051-.947 1.655-2.302 1.655-3.716v-3.719h1c.553 0 1-.448 1-1s-.447-1-1-1h-16c-.553 0-1 .448-1 1s.447 1 1 1h1v3.719c0 1.415.604 2.769 1.655 3.716l1.611 1.45c.32.289.496.685.496 1.115s-.176.827-.496 1.115l-1.611 1.45c-1.051.947-1.655 2.302-1.655 3.716v3.719h-1c-.553 0-1 .448-1 1s.447 1 1 1h16c.553 0 1-.448 1-1s-.447-1-1-1z"/></svg>