<svg height="512" viewBox="0 0 64 64" width="512" xmlns="http://www.w3.org/2000/svg"><g id="man-boy-avatar-person-male"><g fill="#bddbff"><path d="m55 52.17v8.83h-15l3.98-17.9 5.06 1.33a8 8 0 0 1 5.96 7.74z"/><path d="m20 18 18-5 6 5a4 4 0 0 1 4 4v-9a8 8 0 0 0 -8-8h-3.54a5.947 5.947 0 0 0 -4.46-2h-8a8 8 0 0 0 -8 8v11a4 4 0 0 1 4-4z"/><path d="m34 47.33-2-1.33-2 1.33v3.67l-1 10h6l-1-10z"/><path d="m24 61h-15v-8.83a8 8 0 0 1 5.96-7.74l5.06-1.33z"/></g><path d="m29 23a3 3 0 0 0 -6 0h2a1 1 0 0 1 2 0z" fill="#57a4ff"/><path d="m38 22a1 1 0 0 1 1 1h2a3 3 0 0 0 -6 0h2a1 1 0 0 1 1-1z" fill="#57a4ff"/><path d="m49.29 43.46-12.29-3.23v-3.24a13.05 13.05 0 0 0 7.86-10.06 5.093 5.093 0 0 0 2.68-1.4 5.005 5.005 0 0 0 1.46-3.53v-9a9.014 9.014 0 0 0 -9-9h-3.11a6.952 6.952 0 0 0 -4.89-2h-8a9.014 9.014 0 0 0 -9 9v11a4.982 4.982 0 0 0 4.16 4.92 13.037 13.037 0 0 0 7.84 10.08v3.23l-12.3 3.23a9.03 9.03 0 0 0 -6.7 8.71v8.83a1 1 0 0 0 1 1h46a1 1 0 0 0 1-1v-8.83a9.028 9.028 0 0 0 -6.71-8.71zm-3.16-19.34a3.131 3.131 0 0 1 -1.13.71v-5.66a3.008 3.008 0 0 1 1.13 4.95zm-6.13-18.12a7.008 7.008 0 0 1 7 7v5.01a5.008 5.008 0 0 0 -2.62-1l-5.38-4.48v-3.53a6.884 6.884 0 0 0 -.69-3zm-21 18.82a3.179 3.179 0 0 1 -1.12-.69 3 3 0 0 1 1.12-4.95zm-2-6.79v-7.03a7.008 7.008 0 0 1 7-7h8a5 5 0 0 1 5 5v3.24l-17.22 4.78a4.927 4.927 0 0 0 -2.78 1.01zm4 6.97v-6.24l16.76-4.66 5.24 4.37v6.53a11 11 0 0 1 -22 0zm11 19.4-3-3.75v-3.01a12.68 12.68 0 0 0 6 0v3.01zm1 3.47v2.13h-2v-2.13l1-.67zm-6-5.57.63-.17 2.91 3.64-3.54 2.36zm-9 17.7v-4h-2v4h-6v-7.83a7.019 7.019 0 0 1 5.21-6.77l4.06-1.07 3.48 15.67zm11-9.1-.91 9.1h-3.29l-3.6-16.18 3.8-1v7.18a1 1 0 0 0 1.55.83l2.45-1.63zm1.1 9.1.8-8h2.19l.81 8zm3.36-14.23 2.91-3.64.63.17v5.83zm2.44 14.23-.9-9v-1.8l2.45 1.63a1 1 0 0 0 1.55-.83v-7.18l3.8 1-3.6 16.18zm18.1 0h-5v-4h-2v4h-5.75l3.48-15.67 4.05 1.07a7.017 7.017 0 0 1 5.22 6.77z" fill="#57a4ff"/><path d="m37 29h-2c0 .249-1.064 1-3 1s-3-.751-3-1h-2c0 1.71 2.149 3 5 3s5-1.29 5-3z" fill="#57a4ff"/></g></svg>