<?xml version="1.0" encoding="utf-8"?>
<!-- Generator: Adobe Illustrator 17.0.0, SVG Export Plug-In . SVG Version: 6.00 Build 0)  -->
<!DOCTYPE svg PUBLIC "-//W3C//DTD SVG 1.1//EN" "http://www.w3.org/Graphics/SVG/1.1/DTD/svg11.dtd">
<svg version="1.1" id="Layer_1" xmlns="http://www.w3.org/2000/svg" xmlns:xlink="http://www.w3.org/1999/xlink" x="0px" y="0px"
	 width="141.73px" height="67px" viewBox="0 0 141.73 67" enable-background="new 0 0 141.73 67" xml:space="preserve">
<ellipse fill="#EBA802" cx="70.539" cy="32.486" rx="67.981" ry="29.243"/>
<g>
	<path fill="#6F252D" d="M39.989,34.55c0.268-1.087,0.52-2.176,0.806-3.259c0.777-2.943,1.253-5.957,2.389-8.814
		c0.764-1.925,2.285-3.328,4.275-4.292c0.777-0.376,1.664-0.216,2.507-0.247c0.244-0.009,0.273,0.13,0.196,0.293
		c-0.366,0.77-0.743,1.536-1.108,2.306c-0.097,0.204-0.285,0.163-0.456,0.165c-0.603,0.007-1.204-0.024-1.795,0.146
		c-0.512,0.147-0.894,0.404-1.125,0.844c-0.576,1.098-0.873,2.274-1.169,3.448c-1.017,4.025-2.02,8.053-3.032,12.079
		c-0.058,0.233-0.096,0.449,0.03,0.683c0.719,1.336,1.697,2.474,3.127,3.245c1.143,0.616,2.2,0.398,3-0.564
		c0.362-0.435,0.728-0.867,1.085-1.306c0.151-0.186,0.282-0.207,0.46-0.023c0.185,0.19,0.368,0.374,0.401,0.639
		c0.091,0.715,0.168,1.433,0.284,2.145c0.057,0.351-0.233,0.391-0.456,0.468c-3.813,1.32-7.949,0.758-10.575-2.597
		c-1.16-1.482-1.906-3.138-2.52-4.85c-0.859-2.394-1.436-4.853-2.097-7.293c-0.036-0.132-0.023-0.291-0.229-0.431
		c-0.09,0.338-0.166,0.645-0.253,0.95c-0.467,1.636-0.734,3.322-1.364,4.915c-0.706,1.786-1.876,3.352-3.436,4.599
		c-1.506,1.204-3.386,1.329-5.311,0.969c-0.334-0.063-0.408-0.196-0.22-0.488c0.458-0.712,0.89-1.437,1.307-2.169
		c0.134-0.234,0.267-0.299,0.568-0.27c0.746,0.071,1.499,0.094,2.249,0.023c1.41-0.134,2.039-1.037,2.502-2.092
		c0.724-1.648,1.059-3.392,1.54-5.099c0.389-1.381,0.73-2.772,1.114-4.154c0.095-0.341,0.043-0.474-0.386-0.473
		c-1.19,0.001-2.387-0.085-3.525,0.344c-1.052,0.397-1.476,1.133-1.214,2.128c0.235,0.891,0.606,1.739,1.092,2.542
		c0.161,0.266,0.113,0.417-0.166,0.569c-0.795,0.433-1.59,0.868-2.366,1.328c-0.271,0.161-0.364,0.099-0.511-0.128
		c-1.358-2.096-1.218-4.235,0.426-6.176c0.584-0.689,1.183-1.366,1.831-2.008c1.192-1.18,2.751-1.503,4.425-1.57
		c0.228-0.009,0.459-0.024,0.685-0.004c0.679,0.061,1.287-0.042,1.781-0.514c0.259-0.248,0.4-0.174,0.502,0.157
		c1.089,3.539,2.199,7.073,3.39,10.585c0.37,1.093,0.799,2.169,1.201,3.253C39.895,34.553,39.942,34.551,39.989,34.55z"/>
	<path fill="#6F252D" d="M69.175,36.408c-0.704,0.423-1.319,0.799-1.941,1.167c-0.654,0.387-1.301,0.786-1.975,1.143
		c-0.819,0.433-1.623,0.15-1.962-0.659c-0.18-0.429-0.299-0.873-0.327-1.329c-0.02-0.327-0.143-0.333-0.415-0.179
		c-1.134,0.638-2.275,1.267-3.414,1.897c-0.389,0.216-0.773,0.434-1.261,0.434c-0.738,0-1.241-0.308-1.463-0.949
		c-0.295-0.855-0.234-1.711,0.018-2.565c1.247-4.215,2.507-8.426,3.73-12.647c0.326-1.124,0.88-2.067,1.954-2.752
		c0.85-0.542,1.643-1.157,2.529-1.656c0.91-0.513,1.887-0.703,2.949-0.546c0.418,0.062,0.839,0.112,1.26,0.16
		c0.287,0.032,0.378,0.114,0.183,0.359c-0.503,0.633-0.997,1.273-1.479,1.919c-0.141,0.189-0.29,0.228-0.534,0.188
		c-0.578-0.093-1.162-0.144-1.752-0.153c-0.647-0.01-1.092,0.234-1.327,0.784c-0.41,0.962-0.677,1.963-0.985,2.951
		c-1.007,3.223-2.1,6.425-3.002,9.675c-0.153,0.552-0.252,1.121-0.206,1.698c0.025,0.307,0.184,0.417,0.52,0.303
		c0.887-0.301,1.722-0.704,2.578-1.065c0.308-0.13,0.237-0.426,0.275-0.665c0.324-2.04,1.014-3.951,2.486-5.571
		c1.075-1.183,2.484-1.991,3.98-2.654c1.05-0.466,2.213-0.343,3.324-0.174c0.978,0.148,1.932,0.422,2.899,0.626
		c0.264,0.056,0.293,0.144,0.124,0.317c-0.043,0.044-0.082,0.093-0.129,0.132c-1.027,0.863-1.462,1.978-1.738,3.182
		c-0.376,1.64-0.81,3.268-1.219,4.902c-0.032,0.129-0.07,0.257-0.094,0.388c-0.073,0.401-0.005,0.463,0.402,0.302
		c0.821-0.324,1.635-0.662,2.442-1.013c0.359-0.156,0.508-0.109,0.469,0.272c-0.025,0.248-0.008,0.5-0.024,0.749
		c-0.015,0.248-0.127,0.454-0.368,0.591c-1.532,0.868-3.004,1.821-4.578,2.629c-0.497,0.256-1.04,0.546-1.594,0.171
		c-0.544-0.368-0.552-0.93-0.469-1.488C69.083,37.023,69.122,36.765,69.175,36.408z M66.263,34.609
		c0.021,0.197,0.027,0.433,0.074,0.663c0.093,0.452,0.194,0.491,0.647,0.295c0.903-0.391,1.692-0.93,2.454-1.508
		c0.197-0.15,0.311-0.316,0.376-0.541c0.448-1.546,0.911-3.089,1.366-4.634c0.276-0.936,0.269-0.917-0.79-1.099
		c-0.987-0.17-1.727,0.104-2.234,0.882C66.968,30.489,66.418,32.477,66.263,34.609z"/>
	<path fill="#6F252D" d="M117.09,40.123c0.238,1.051,0.455,2.014,0.676,2.975c0.06,0.26-0.15,0.301-0.34,0.334
		c-2.966,0.516-5.616,0.014-7.765-2.01c-1.439-1.355-2.297-3.02-3.033-4.744c-0.474-1.111-0.946-2.223-1.43-3.33
		c-0.067-0.154-0.062-0.427-0.275-0.421c-0.261,0.008-0.291,0.283-0.352,0.477c-0.36,1.16-0.713,2.322-1.074,3.482
		c-0.438,1.408-0.441,1.407-2.008,1.778c-0.362,0.086-0.725,0.171-1.085,0.265c-0.563,0.146-0.575,0.146-0.424-0.382
		c0.447-1.565,0.904-3.128,1.36-4.691c1.01-3.467,2.021-6.934,3.034-10.4c0.33-1.128,0.973-2.059,2.016-2.787
		c1.108-0.774,2.165-1.605,3.307-2.341c1.254-0.809,2.609-0.73,3.981-0.344c0.551,0.155,0.598,0.382,0.259,0.791
		c-0.41,0.494-0.839,0.976-1.226,1.485c-0.186,0.244-0.381,0.321-0.694,0.259c-0.626-0.124-1.262-0.131-1.9-0.087
		c-0.778,0.053-1.349,0.362-1.714,1.003c-0.548,0.963-0.879,1.991-1.195,3.026c-0.493,1.615-0.977,3.231-1.464,4.848
		c-0.059,0.195-0.147,0.386-0.125,0.632c0.3-0.108,0.495-0.306,0.71-0.474c1.38-1.079,2.748-2.17,4.136-3.24
		c1.416-1.092,3.378-1.057,4.79,0.049c0.198,0.155,0.201,0.253,0.045,0.43c-0.546,0.622-1.084,1.251-1.607,1.889
		c-0.199,0.243-0.369,0.268-0.644,0.092c-0.927-0.596-1.823-0.561-2.741,0.073c-0.91,0.628-1.712,1.36-2.572,2.035
		c-0.146,0.115-0.151,0.248-0.083,0.399c1.268,2.799,2.23,5.717,3.977,8.33c0.456,0.683,0.972,1.325,1.664,1.835
		c0.808,0.595,1.597,0.567,2.367-0.071C116.112,40.915,116.57,40.547,117.09,40.123z"/>
	<path fill="#6F252D" d="M82.138,27.596c0.744-0.459,1.383-0.861,2.031-1.251c0.586-0.353,1.192-0.673,1.919-0.72
		c1.099-0.072,1.838,0.403,2.148,1.359c0.29,0.896,0.244,1.81,0.121,2.713c-0.193,1.421-0.696,2.774-1.23,4.119
		c-0.673,1.694-2.098,2.802-3.616,3.836c-1.148,0.782-2.439,1.175-3.898,0.976c-0.312-0.043-0.436,0.069-0.501,0.332
		c-0.489,1.978-0.985,3.955-1.49,5.93c-0.086,0.337-0.043,0.509,0.409,0.536c0.551,0.033,1.096,0.147,1.643,0.225
		c0.146,0.021,0.286,0.046,0.41,0.129c0.437,0.291,0.419,0.387,0.053,0.74c-0.583,0.562-1.241,0.781-2.117,0.748
		c-1.776-0.067-3.557-0.021-5.336-0.022c-0.114,0-0.231,0.012-0.342-0.006c-0.287-0.048-0.54-0.207-0.667-0.411
		c-0.137-0.221,0.171-0.351,0.32-0.48c0.575-0.498,1.138-1.028,2.01-1.078c0.299-0.017,0.295-0.231,0.344-0.409
		c0.563-2.068,1.127-4.136,1.686-6.204c0.748-2.767,1.496-5.535,2.236-8.304c0.103-0.385,0.19-0.776,0.241-1.169
		c0.049-0.374-0.101-0.471-0.484-0.318c-0.581,0.231-1.15,0.489-1.722,0.739c-0.116,0.051-0.234,0.146-0.355,0.052
		c-0.1-0.077-0.01-0.194-0.011-0.293c-0.007-0.912,0.401-1.54,1.344-1.985c1.092-0.516,2.062-1.236,3.224-1.65
		c0.447-0.159,0.885-0.189,1.303,0.08c0.365,0.235,0.536,0.538,0.453,0.949C82.214,26.997,82.189,27.244,82.138,27.596z
		 M85.064,29.887c-0.002-0.356-0.003-0.649-0.07-0.94c-0.128-0.559-0.282-0.647-0.872-0.435c-0.869,0.313-1.636,0.788-2.39,1.277
		c-0.176,0.115-0.293,0.277-0.351,0.466c-0.52,1.714-0.937,3.449-1.326,5.19c-0.054,0.244,0.012,0.438,0.277,0.548
		c1.292,0.54,2.304,0.443,2.979-0.675C84.343,33.611,84.983,31.786,85.064,29.887z"/>
	<path fill="#6F252D" d="M89.53,35.098c0.14-2.381,0.776-4.659,2.392-6.56c1.344-1.581,3.116-2.8,5.405-3.08
		c2.162-0.265,3.276,0.911,2.902,2.861c-0.245,1.28-1.137,2.109-2.254,2.802c-1.532,0.951-3.165,1.756-4.75,2.631
		c-0.353,0.195-0.515,0.41-0.559,0.79c-0.161,1.385,0.597,2.06,2.149,1.834c1.237-0.18,2.368-0.646,3.49-1.122
		c0.59-0.25,1.169-0.52,1.75-0.787c0.255-0.117,0.363-0.084,0.309,0.196c-0.079,0.405-0.148,0.812-0.215,1.219
		c-0.022,0.131-0.114,0.207-0.224,0.274c-1.901,1.157-3.867,2.189-6.145,2.631c-0.63,0.122-1.27,0.144-1.897,0.037
		c-1.285-0.219-2.105-1.03-2.285-2.229C89.523,36.101,89.479,35.601,89.53,35.098z M93.478,31.62
		c0.995-0.54,2.049-0.987,2.736-1.869c0.348-0.448,0.523-0.944,0.478-1.491c-0.02-0.243,0-0.531-0.308-0.649
		c-0.321-0.123-0.602,0.023-0.859,0.192c-0.078,0.052-0.153,0.111-0.219,0.175C94.246,29.006,93.938,30.337,93.478,31.62z"/>
	<path fill="#6F252D" d="M45.032,35.491c0.061-2.351,0.658-4.585,2.089-6.563c1.222-1.689,3.013-2.786,5.14-3.397
		c0.685-0.197,1.429-0.212,2.119,0.03c1.16,0.408,1.618,1.369,1.373,2.715c-0.185,1.013-0.768,1.792-1.641,2.421
		c-1.176,0.848-2.503,1.483-3.781,2.187c-0.445,0.245-0.897,0.479-1.343,0.724c-0.736,0.404-0.98,0.906-0.822,1.678
		c0.142,0.694,0.656,1.092,1.47,1.119c1.005,0.033,1.92-0.291,2.831-0.614c1.033-0.367,2.019-0.824,3.004-1.282
		c0.112-0.052,0.245-0.156,0.359-0.081c0.111,0.074,0.053,0.221,0.034,0.334c-0.061,0.363-0.136,0.724-0.198,1.087
		c-0.021,0.126-0.084,0.219-0.198,0.288c-1.995,1.217-4.054,2.324-6.475,2.688c-1.063,0.16-2.132,0.11-2.994-0.608
		c-0.736-0.613-0.904-1.435-0.966-2.285C45.023,35.786,45.032,35.638,45.032,35.491z M48.985,31.618
		c1.006-0.549,2.072-0.992,2.749-1.884c0.381-0.502,0.569-1.053,0.454-1.663c-0.094-0.499-0.404-0.635-0.913-0.409
		c-0.299,0.133-0.524,0.349-0.722,0.582C49.707,29.242,49.404,30.449,48.985,31.618z"/>
</g>
<path fill="#EBA802" d="M70.475,49.729c0.125,0.094,0.254,0.189,0.188,0.359c-0.008,0.021-0.089,0.044-0.114,0.031
	c-0.146-0.075-0.155-0.207-0.152-0.339C70.424,49.763,70.45,49.747,70.475,49.729z"/>
</svg>
