<svg height="512" viewBox="0 0 60 60" width="512" xmlns="http://www.w3.org/2000/svg"><g id="Page-1" fill="none" fill-rule="evenodd"><g id="person" fill-rule="nonzero" transform="translate(0 -1)"><path id="Shape" d="m54.39 46.68c-2.67 2.83-8.51 6.9-20.36 7.9.04-1.21.05-2.52-.01-3.81 11.43-1.08 16.58-5.76 18.68-8.58.1470007 1.5610332.6909107 3.058507 1.58 4.35.03.04.07.09.11.14z" fill="#a4c2f7"/><path id="Shape" d="m54.28 46.54c-.8890893-1.291493-1.4329993-2.7889668-1.58-4.35-.7007116.927744-1.499318 1.777311-2.382 2.534.2288495.649684.5530638 1.2617143.962 1.816.03.04.07.09.11.14-2.432 2.578-7.512 6.178-17.354 7.555 0 .113 0 .234-.006.345 11.85-1 17.69-5.07 20.36-7.9-.04-.05-.08-.1-.11-.14z" fill="#7facfa"/><path id="Shape" d="m53.46 31.67c-1.0287529 2.3643283-1.4117837 4.959276-1.11 7.52.12.99.2 2.01.35 3-2.1 2.82-7.25 7.5-18.68 8.58-.15-3.59-.8-7.09-2.64-8.11-2.2987392.8367107-4.6423834 1.5444779-7.02 2.12-1.1555848.245832-2.2990173-.4649504-2.59-1.61-.69-1.99.26-2.53-.04-3.72-.21-.82-.99-1.02-1.6-1.46-.49-.35.87-1.99.87-1.99-.610477-.0732581-1.2049351-.2455158-1.76-.51-.35-.3.14-.8.59-1.74.1837697-.4107842.2361579-.868308.15-1.31-.16-.87-1.48-1.2-2.12-1.68-1.35-1.01-1.42-1.24 2.1-5.05.78-.83 1.79-1.71 1.79-3.3 0-1.41-1.75-1.41-1.75-3.41s1.69-6.26 2.04-7.19c.6706949-1.859753 1.7116866-3.56412177 3.06-5.01 1.98-2.1 4.72-3.01 7.5-3.65 10.16-2.35 15.26-1.06 21.05 3.5 2.1806676 1.62747272 3.773893 3.9190503 4.54 6.53.5789337 2.1646125.8515864 4.3996916.81 6.64-.09 5.93-3.86 8.01-5.54 11.85z" fill="#e8edfc"/><path id="Shape" d="m59 19.82c.0415864-2.2403084-.2310663-4.4753875-.81-6.64-.766107-2.6109497-2.3593324-4.90252728-4.54-6.53-4.283-3.373-8.193-4.95-14.05-4.596 4.279.28 7.54 1.834 11.047 4.6 2.1806676 1.62747272 3.773893 3.9190503 4.54 6.53.5795745 2.163178.8532342 4.396887.813 6.636-.09 5.93-3.86 8.01-5.54 11.85-1.0287529 2.3643283-1.4117837 4.959276-1.11 7.52.12.99.2 2.01.35 3-1.907 2.561-6.346 6.646-15.7 8.186.007.131.015.262.02.394 11.43-1.08 16.58-5.76 18.68-8.58-.15-.99-.23-2.01-.35-3-.3017837-2.560724.0812471-5.1556717 1.11-7.52 1.68-3.84 5.45-5.92 5.54-11.85z" fill="#cad9fc"/><path id="Shape" d="m58.99 58.91c.0290238.2795555-.0623885.558241-.2513536.7662935s-.457596.325778-.7386464.3237065h-23.28c-.2817463-.0014049-.5498273-.1215999-.738308-.3310228-.1884806-.209423-.2798705-.4886401-.251692-.7689772.1-.99.23-2.54.3-4.32 11.85-1 17.69-5.07 20.36-7.9 2.331756 3.7300135 3.8956329 7.887886 4.6 12.23z" fill="#e8edfc"/><path id="Shape" d="m54.39 46.68c-.6022862.6328198-1.2503734 1.2204099-1.939 1.758 1.7476558 3.2722381 2.943384 6.8104314 3.539 10.472.0290238.2795555-.0623885.558241-.2513536.7662935s-.457596.325778-.7386464.3237065h3c.2810504.0020715.5496813-.115654.7386464-.3237065s.2803774-.486738.2513536-.7662935c-.7043671-4.342114-2.268244-8.4999865-4.6-12.23z" fill="#cad9fc"/><path id="Shape" d="m36.73 58.9c.39-3.86 1.073-14.342-2.35-16.24-.686.24-1.428.491-2.178.737 2.469 3.028 1.883 11.993 1.528 15.5-.0281785.2803371.0632114.5595542.251692.7689772.1884807.2094229.4565617.3296179.738308.3310228h3c-.2811696-.0014854-.548723-.1212735-.7371019-.3300124-.1883788-.208739-.2801759-.4871404-.2528981-.7669876z" fill="#fff"/><path id="Shape" d="m21.73 39.45c.3 1.19-.65 1.73.04 3.72.2909827 1.1450496 1.4344152 1.855832 2.59 1.61.4-.082.853-.2 1.333-.322-.4341879-.3228374-.7568436-.7730872-.923-1.288-.69-1.99.26-2.53-.04-3.72-.21-.82-.99-1.02-1.6-1.46-.49-.35.87-1.99.87-1.99-.610477-.0732581-1.2049351-.2455158-1.76-.51-.557-.477 1.029-1.5.74-3.05-.16-.87-1.48-1.2-2.12-1.68-1.35-1.01-1.42-1.24 2.1-5.05.78-.83 1.79-1.71 1.79-3.3 0-1.41-1.75-1.41-1.75-3.41s1.69-6.26 2.04-7.19c.6706949-1.859753 1.7116866-3.56412177 3.06-5.01 1.98-2.1 4.72-3.01 7.5-3.65 2.2906786-.55590919 4.6237898-.91950657 6.975-1.087-3.3601165-.12322647-6.7202911.24293992-9.975 1.087-2.78.64-5.52 1.55-7.5 3.65-1.3483134 1.44587823-2.3893051 3.150247-3.06 5.01-.35.93-2.04 5.19-2.04 7.19s1.75 2 1.75 3.41c0 1.59-1.01 2.47-1.79 3.3-3.52 3.81-3.45 4.04-2.1 5.05.64.48 1.96.81 2.12 1.68.289 1.554-1.3 2.573-.74 3.05.5550649.2644842 1.149523.4367419 1.76.51 0 0-1.36 1.64-.87 1.99.61.44 1.39.64 1.6 1.46z" fill="#fff"/><path id="Shape" d="m21.29 10.97 1.854.749c-.465 1.209-.938 2.464-1.335 3.694-.4174192 1.1574783-.6891741 2.3624035-.809 3.587h-2c.1124452-1.4342712.4171736-2.8469196.906-4.2.423-1.309.894-2.55 1.384-3.83z" fill="#fff"/><g fill="#428dff"><path id="Shape" d="m14.081 34.149c-.4700026-.2898982-1.0860201-.1439522-1.376.326-.9400496 1.5520918-.9400496 3.4979082 0 5.05.1794485.3208266.5204516.5173326.8880112.5117242s.7024085-.2124268.8719852-.538579c.1695766-.3261522.1465375-.7190478-.0599964-1.0231452-.5414079-.9088107-.5414079-2.0411893 0-2.95.2902588-.4694816.1452422-1.0853544-.324-1.376z"/><path id="Shape" d="m11.6 30.2c-.2131583-.1582826-.4805113-.2253015-.7431279-.1862842-.2626167.0390174-.4989376.1808678-.6568721.3942842-2.92933523 3.9094806-2.92933523 9.2825194 0 13.192.2143593.2858125.5649147.4355548.9196153.3928204.3547005-.0427344.6596588-.2714532.8-.6000001.1403412-.3285468.0947441-.7070078-.1196153-.9928203-2.40400232-3.2016285-2.40400232-7.6063715 0-10.808.3259499-.440434.2367663-1.0611517-.2-1.392z"/><path id="Shape" d="m8.8 28.6c.21435937-.2858125.25995646-.6642735.11961527-.9928203-.14034118-.3285469-.44529947-.5572657-.80000002-.6000001s-.7052559.1070079-.91961525.3928204c-4.26666667 5.6888889-4.26666667 13.5111111 0 19.2.21435935.2858125.5649147.4355547.91961524.3928203s.65965882-.2714531.8-.6c.14034119-.3285469.09474411-.7070078-.11961524-.9928203-3.73333333-4.9777778-3.73333333-11.8222222 0-16.8z"/><path id="Shape" d="m4.2 49.6c.21435935.2858125.5649147.4355548.91961526.3928204.35470055-.0427344.65965884-.2714531.80000003-.6.14034118-.3285469.09474409-.7070079-.11961529-.9928204-5.06666667-6.7555556-5.06666667-16.0444444 0-22.8.21435938-.2858125.25995647-.6642735.11961528-.9928203-.14034118-.3285469-.44529947-.5572657-.80000002-.6000001-.35470056-.0427344-.70525591.1070079-.91961526.3928204-5.6 7.4666667-5.6 17.7333333 0 25.2z"/><path id="Shape" d="m20.876 16.1c-.3572656.0017863-.6883456-.187162-.8685254-.4956699s-.1820858-.6897057-.005-1c.1770858-.3102942.5062598-.5025438.8635254-.5043301h.01c.5522847 0 1 .4477153 1 1s-.4477153 1-1 1z"/><path id="Shape" d="m56.492 28.718c1.615-2.185 3.446-4.659 3.505-8.886.0485908-2.3354227-.2376503-4.6657622-.85-6.92-.8235053-2.8159954-2.5361542-5.28989944-4.882-7.052-6.419-5.052-11.945-5.98-21.891-3.685-2.711.626-5.781 1.582-8 3.936-1.3217308 1.41339487-2.3676847 3.06134883-3.084 4.859-.1044801.2486228-.1026765.5291699.0049916.7764288.1076682.2472589.3118227.4396929.5650084.5325712.5088961.1870192 1.0748243-.059803 1.284-.56.6227537-1.5659921 1.5319473-3.00218567 2.681-4.235 1.852-1.961 4.458-2.774 7-3.36 10.465-2.416 15.012-.78 20.206 3.31 2.0195521 1.49471034 3.4931856 3.6104896 4.195 6.023.5588293 2.0666697.8194637 4.2025919.774 6.343-.05 3.583-1.538 5.594-3.113 7.724-.92011 1.154009-1.7045871 2.4099106-2.338 3.743-1.1040407 2.5259462-1.5151405 5.3004385-1.191 8.038.043.355.082.713.12 1.074.053.506.109 1.016.176 1.525-2.021 2.551-6.727 6.565-16.684 7.744-.0374311-2.3007045-.6353722-4.5575717-1.742-6.575l.539-.189c.611-.215 1.073-.378 1.3-.45 3.546-1.119 5.319-2.756 5.27-4.871-.0266522-.5462557-.4770946-.9755837-1.024-.976-.5519545.013101-.988854.4710397-.976 1.023.015.629-.469 1.843-3.872 2.916-.241.076-.725.245-1.364.471-.574.2-1.276.448-2.043.711-2.2607303.8205568-4.5640763 1.5185708-6.9 2.091-.6615881.1306348-1.3043411-.2980162-1.438-.959-.2401845-.5972278-.2677239-1.2588785-.078-1.874.1716237-.5737628.1916068-1.1822127.058-1.766-.2288029-.7717658-.7816771-1.4060201-1.515-1.738.174018-.2896089.3695694-.5657209.585-.826.2308399-.2782365.2935275-.6594034.1639549-.9969142s-.431227-.5788044-.7889549-.6310858c-.258-.038-.541-.094-.774-.148.113-.2.238-.429.359-.686.2756282-.601575.3567286-1.2741491.232-1.924-.2-1.083-1.2-1.591-1.921-1.962-.2023205-.0958682-.3974899-.2061522-.584-.33-.1506639-.1082526-.2952185-.2247643-.433-.349.7838291-1.1573936 1.678374-2.2358041 2.671-3.22l.241-.255c1.0909082-.9377785 1.7456087-2.2848185 1.809-3.722-.0261163-.8232718-.416227-1.5925042-1.065-2.1-.4303607-.2973773-.6851214-.7889155-.68-1.312 0-.5522847-.4477153-1-1-1s-1 .4477153-1 1c-.0100019 1.0669367.4648897 2.0807254 1.291 2.756.391.376.454.469.454.659-.0742958.9227549-.5307147 1.7725133-1.259 2.344l-.257.273c-2.418 2.609-3.323 3.7-3.222 4.8.1414272.7330507.6007331 1.3656036 1.254 1.727.2745628.1939403.5653014.3639003.869.508.318451.1339251.6116718.3212889.867.554.0455656.2334305.0201388.4751595-.073.694-.117.249-.239.463-.344.65-.3.538-.867 1.539 0 2.268.2310899.1834735.4942069.3224916.776.41-.2304359.3882505-.3404158.8361752-.316 1.287.0413239.3504307.2287185.667113.516.872.185.132.383.247.58.36.449.258.587.358.631.529.0487352.2733547.0249441.5547101-.069.816-.2784135.9847625-.2314154 2.033101.134 2.989.3971363 1.3631992 1.6353474 2.3091844 3.055 2.334.2288306-.0003178.457025-.024109.681-.071 2.2532212-.5433539 4.4754566-1.2079882 6.657-1.991 1.7 1.543 2.293 7.305 1.512 15.026-.0582676.5626881.1244807 1.1237332.5029752 1.5441556s.9173286.6608933 1.4830248.6618444h23.277c.57219.0005229 1.117593-.2423633 1.5-.668.3747797-.4165686.5547523-.9728475.495-1.53-.7334576-4.5809593-2.4050313-8.9610953-4.91-12.866-1.167-1.53-1.385-3.586-1.615-5.763-.039-.369-.078-.737-.122-1.105-.2816633-2.3841081.0766114-4.8002188 1.038-7 .5733681-1.1925427 1.2798643-2.3163614 2.106-3.35zm-4.349 15.653c.2152851.7694499.5352779 1.5056688.951 2.188-2.485 2.365-7.808 5.849-18.032 6.912.01-.6.013-1.211 0-1.818 9.295-1.073 14.418-4.534 17.081-7.282zm-17.42 14.629c.106-1.05.2-2.25.268-3.513 10.26-1.02 16.04-4.3 19.215-7.229 1.8801883 3.3325776 3.1641302 6.9678185 3.794 10.742z"/><path id="Shape" d="m41 6c-.5522847 0-1 .44771525-1 1s.4477153 1 1 1c5.294 0 11.12 2.805 12.014 8.164.0801661.4821996.497182.835775.986.836.0553075.0002649.1105278-.0044204.165-.014.5444092-.0908048.9123105-.6055085.822-1.15-1.077-6.457-7.851-9.836-13.987-9.836z"/><circle id="Oval" cx="54" cy="20" r="1"/></g></g></g></svg>