<?xml version="1.0" encoding="utf-8"?>
<!-- Generator: Adobe Illustrator 16.0.0, SVG Export Plug-In . SVG Version: 6.00 Build 0)  -->
<!DOCTYPE svg PUBLIC "-//W3C//DTD SVG 1.1//EN" "http://www.w3.org/Graphics/SVG/1.1/DTD/svg11.dtd">
<svg version="1.1" id="Vrstva_1" xmlns="http://www.w3.org/2000/svg" xmlns:xlink="http://www.w3.org/1999/xlink" x="0px" y="0px"
	 width="283.46px" height="113.39px" viewBox="0 0 283.46 113.39" enable-background="new 0 0 283.46 113.39" xml:space="preserve">
<g>
	<path fill="#352B27" d="M281.584,46.031c-1.007-1.631-2.732-2.602-4.617-2.602h-0.865l-0.288,0.117
		c-0.688,0.033-1.144,0.061-1.487,0.081c-0.415,0.024-0.619,0.039-0.98,0.039c-2.008,0-4.509-0.077-7.434-0.231l-0.229-0.004
		c-1.987,0-3.745,1.051-4.711,2.832c-0.531,0.986-0.802,2.047-0.802,3.15l0.017,0.359c0.056,0.682,0.225,2.758,1.884,4.176
		c0.64,0.546,1.387,0.921,2.231,1.121l-3.08,8.234c-0.289-0.76-0.587-1.551-0.893-2.375c-0.914-2.483-1.983-5.137-3.196-7.951
		c-1.589-3.522-3.732-6.094-6.375-7.641c-2.284-1.337-5.182-2.015-8.611-2.015c-0.433,0-0.876,0.01-1.333,0.032
		c-0.224,0.003-0.585,0.018-1.104,0.043c-0.382,0.022-0.746,0.074-1.102,0.139c-0.664-0.277-1.375-0.421-2.084-0.421l-4.699,0.265
		l0.248-4.044l0.008-0.271c0-2.046-1.114-3.827-3.011-4.78c-2.08-1.028-4.482-0.906-6.212,0.025
		c-0.293-0.175-0.61-0.342-0.952-0.496c-0.064-0.028-0.125-0.056-0.188-0.081c0.003-0.021,0.006-0.044,0.008-0.065l0.11-1.036
		c0.055-0.535,0.106-1.042,0.188-1.447c0.195-0.983,0.442-2.032,0.798-3.398c0.577-2.221-0.188-4.436-2.047-5.925
		c-2.142-1.712-4.89-2.192-7.808-1.289c-0.364,0.113-0.703,0.25-1.016,0.403l-0.042-0.161c-0.536-2.102-2.205-3.594-4.351-3.896
		c-0.417-0.06-0.845-0.09-1.271-0.09c-1.578,0-2.94,0.406-3.954,0.761c-2.83,0.991-4.76,3.311-5.296,6.365
		c-0.455,2.597-0.08,5.035,0.297,6.869c0.072,0.339,0.148,0.678,0.227,1.015c0.205,0.899,0.384,1.677,0.342,2.249
		c-0.097,1.332,0.112,2.553,0.315,3.594c0.264,1.349,0.542,2.694,0.824,4.039c-1.221-0.08-2.444-0.144-3.667-0.211l-1.966-0.109
		c-0.392-0.023-0.78-0.034-1.168-0.034c-2.066,0-3.889,0.348-5.569,1.066c-0.823,0.352-1.866,0.723-2.873,1.083
		c-0.661,0.236-1.314,0.47-1.922,0.703c-0.847-0.51-1.819-0.786-2.839-0.786l-2.007,0.083l-0.108,0.004
		c-1.813,0.124-2.729,0.149-3.18,0.149c-3.3,0-6.126-0.077-8.401-0.227l-0.292-0.009c-1.754,0-3.368,0.815-4.434,2.238
		c-0.806,1.077-1.232,2.372-1.232,3.744l0.007,0.267c0.099,1.6,0.698,2.978,1.661,3.964l-2.344,2.4V27.84
		c0-3.42-2.383-5.905-5.667-5.905l-0.725,0.027c-0.817,0.091-1.733,0.32-2.806,0.701l-0.085,0.03
		c-2.041,0.775-4.59,1.383-7.575,1.812c-1.613,0.216-3.003,1.031-3.899,2.273c-0.764,1.042-1.167,2.258-1.167,3.513
		c0,3.091,1.662,4.525,2.654,5.106c0.919,0.537,1.989,0.823,3.262,0.869c0.007,0.278,0.01,0.601,0.01,0.977v18.481
		c-0.194-0.12-0.393-0.217-0.594-0.293c-0.805-5.381-3.576-8.194-5.967-9.634c-3.398-2.045-7.71-3.081-12.818-3.081
		c-4.194,0-7.887,0.841-10.975,2.5c-2.883,1.55-4.799,3.915-5.586,6.822c-0.733-1.767-1.765-3.361-3.121-4.753
		c-2.959-3.031-6.89-4.569-11.687-4.569c-3.703,0-6.863,0.724-9.394,2.148c-1.018,0.574-2.056,1.257-3.108,2.046
		c-0.794-0.741-1.682-1.398-2.659-1.972c-2.521-1.476-5.477-2.223-8.782-2.223c-2.601,0-4.993,0.422-7.103,1.254
		c-0.633,0.249-1.249,0.534-1.845,0.855c-0.99-1.546-2.683-2.504-4.723-2.504h-0.604l-0.362,0.061
		c-0.505,0.085-1.201,0.263-2.326,0.592l-0.332,0.111c-1.879,0.718-4.375,1.32-7.417,1.795c0.177-0.802,0.274-1.634,0.274-2.5
		c0-4.882-2.314-8.775-6.699-11.261c-2.187-1.237-4.602-2.102-7.21-2.599l6.969-10.111l0.198-0.316
		c0.595-1.039,0.896-2.119,0.896-3.21c0-2.136-1.067-4.002-2.945-5.13c-0.941-0.559-2.019-0.855-3.12-0.855
		c-1.422,0-2.854,0.527-4.372,1.606l-0.148,0.111c-0.768,0.596-1.969,1.661-4.171,4.232c-2.202-2.571-3.403-3.634-4.17-4.232
		l-0.152-0.113c-1.519-1.08-2.948-1.604-4.368-1.604c-1.104,0-2.186,0.296-3.135,0.864c-1.862,1.117-2.93,2.984-2.93,5.122
		c0,1.097,0.304,2.182,0.903,3.223l7.449,10.829c-2.739,0.704-5.18,1.802-7.278,3.318c-2.977,2.15-6.525,6.299-6.525,13.841
		c0,3.77,0.966,7.036,2.87,9.706c1.723,2.419,3.849,4.39,6.313,5.853c0.89,0.527,1.877,1.074,2.976,1.642
		c-0.52-0.099-1.066-0.161-1.638-0.187l-0.19-0.003c-3.175,0-5.964,1.064-8.064,3.079c-2.155,2.064-3.294,4.792-3.294,7.883
		c0,5.226,2.203,9.437,6.37,12.173c3.693,2.43,8.633,3.61,15.102,3.61c3.957,0,7.666-0.732,11.025-2.177
		c1.651-0.709,3.152-1.567,4.504-2.555c0.183,0.401,0.393,0.792,0.661,1.149c1.066,1.422,2.682,2.236,4.434,2.236l0.223-0.004
		c3.033-0.154,5.724-0.23,7.995-0.23c2.375,0,5.091,0.076,8.071,0.23l0.226,0.004c1.495,0,2.855-0.549,3.871-1.538
		c1.014,0.989,2.375,1.538,3.873,1.538L68.32,88.5c3.034-0.154,5.618-0.23,7.68-0.23c2.166,0,4.802,0.076,7.837,0.23l0.223,0.004
		c1.496,0,2.857-0.549,3.871-1.538c1.014,0.989,2.374,1.538,3.872,1.538l0.223-0.004c3.033-0.154,5.723-0.23,7.996-0.23
		c2.375,0,5.09,0.076,8.07,0.23l0.227,0.004c1.055,0,2.058-0.299,2.921-0.843c2.125,1.032,4.556,1.557,7.271,1.557
		c3.288,0,6.417-0.707,9.301-2.098c0.794-0.384,1.54-0.813,2.236-1.287c0.282,0.264,0.581,0.513,0.895,0.751
		c2.305,1.749,4.981,2.634,7.954,2.634c1.358,0,2.749-0.207,4.144-0.616c0.144-0.045,0.283-0.092,0.422-0.14
		c2.715-0.129,5.138-0.192,7.207-0.192c2.375,0,5.093,0.076,8.071,0.23l0.227,0.004c1.754,0,3.372-0.817,4.435-2.238
		c0.806-1.079,1.233-2.373,1.233-3.743l-0.015-0.356c-0.016-0.174-0.034-0.343-0.057-0.509c2.247,2.565,3.817,4.31,4.751,5.271
		l1.3,1.341h1.864c2.479,0,4.21,0.013,5.42,0.031c0.074,0.212,0.15,0.431,0.234,0.653c1.104,2.956,2.748,5.45,4.889,7.412
		c0.131,0.12,0.219,0.23,0.267,0.336l0.895,1.957l0.1,0.025c0.572,1.071,1.212,2.118,1.916,2.911
		c3.211,3.618,8.054,5.694,13.281,5.694c6.064,0,11.686-2.88,14.663-7.514c0.694-1.082,1.212-2.513,1.63-3.94l0.438-0.241
		l0.196-2.358c0.119-1.448,0.357-2.877,0.709-4.247c0.447-1.743,1.001-3.503,1.661-5.257c0.415,0.604,0.88,1.171,1.394,1.7
		c2.658,2.733,6.046,4.179,9.796,4.179c0.912,0,1.776-0.047,2.607-0.123c-0.425,1.142-0.69,2.536-0.69,4.253
		c0,3.327,1.471,6.294,4.256,8.579c2.565,2.105,5.539,3.174,8.839,3.174c4.863,0,9.201-2.249,12.55-6.501
		c2.761-3.51,5.197-7.762,7.241-12.646c1.367-3.283,3.449-8.38,6.021-14.737c2.688-6.638,4.637-11.459,5.854-14.478
		c0.493-1.23,0.876-1.575,0.868-1.575l0,0c0.231-0.139,0.447-0.288,0.649-0.449c0.832-0.167,1.582-0.5,2.253-0.999
		c1.25-0.945,1.966-2.404,2.126-4.332l0.016-0.366C282.558,48.241,282.224,47.076,281.584,46.031z"/>
	<linearGradient id="SVGID_1_" gradientUnits="userSpaceOnUse" x1="-2.98" y1="56.5371" x2="315.6043" y2="85.5327">
		<stop  offset="0" style="stop-color:#9FEF26"/>
		<stop  offset="0.0178" style="stop-color:#9DEA21"/>
		<stop  offset="0.102" style="stop-color:#95D70F"/>
		<stop  offset="0.1886" style="stop-color:#91CC04"/>
		<stop  offset="0.2809" style="stop-color:#8FC800"/>
		<stop  offset="1" style="stop-color:#1D9632"/>
	</linearGradient>
	<path fill="url(#SVGID_1_)" d="M10.534,82.56c-2.923-1.921-4.385-4.752-4.385-8.493c0-1.896,0.645-3.466,1.937-4.702
		c1.29-1.236,2.963-1.856,5.018-1.856c1.211,0.053,2.133,0.355,2.765,0.908c0.632,0.552,0.949,1.066,0.949,1.542
		c0,0.054-0.264,0.234-0.791,0.552c-0.527,0.315-1,0.791-1.422,1.422c-0.422,0.633-0.633,1.504-0.633,2.608
		c0,2.478,0.751,4.387,2.252,5.728c1.502,1.345,3.833,2.016,6.993,2.016c2.161,0,4.056-0.42,5.69-1.264
		c1.632-0.841,2.884-1.963,3.753-3.356c0.869-1.396,1.304-2.86,1.304-4.387c0-1.897-0.54-3.528-1.619-4.899
		c-1.081-1.369-2.411-2.516-3.991-3.438c-1.581-0.921-3.741-1.988-6.48-3.2c-3.16-1.423-5.715-2.713-7.664-3.872
		c-1.951-1.157-3.61-2.7-4.979-4.624c-1.37-1.921-2.054-4.305-2.054-7.15c0-4.583,1.566-8.008,4.701-10.273
		c3.134-2.264,7.256-3.397,12.367-3.397c4.002,0,7.493,0.843,10.47,2.527c2.975,1.687,4.465,4.164,4.465,7.429
		c0,1.896-0.646,3.465-1.937,4.703c-1.292,1.237-2.963,1.856-5.017,1.856c-1.213-0.054-2.133-0.356-2.766-0.909
		c-0.632-0.554-0.948-1.067-0.948-1.541c0-0.053,0.354-0.239,1.066-0.553c0.711-0.317,1.343-0.791,1.897-1.423
		c0.552-0.632,0.829-1.5,0.829-2.607c0-1.95-0.75-3.478-2.252-4.583c-1.5-1.107-3.411-1.659-5.728-1.659
		c-3.214,0-5.65,0.75-7.31,2.25c-1.659,1.502-2.489,3.359-2.489,5.571c0,1.846,0.501,3.386,1.501,4.624
		c1,1.24,2.607,2.463,4.82,3.675c1.79,0.947,3.739,1.898,5.847,2.843c3.371,1.53,6.044,2.925,8.02,4.189
		c1.975,1.264,3.635,2.924,4.978,4.977c1.344,2.056,2.015,4.611,2.015,7.667c0,2.633-0.831,5.018-2.489,7.148
		c-1.659,2.134-3.899,3.809-6.716,5.021c-2.82,1.211-5.914,1.819-9.286,1.819C17.686,85.447,13.458,84.484,10.534,82.56z"/>
	<linearGradient id="SVGID_2_" gradientUnits="userSpaceOnUse" x1="-3.2129" y1="59.1074" x2="315.365" y2="88.1024">
		<stop  offset="0" style="stop-color:#9FEF26"/>
		<stop  offset="0.0178" style="stop-color:#9DEA21"/>
		<stop  offset="0.102" style="stop-color:#95D70F"/>
		<stop  offset="0.1886" style="stop-color:#91CC04"/>
		<stop  offset="0.2809" style="stop-color:#8FC800"/>
		<stop  offset="1" style="stop-color:#1D9632"/>
	</linearGradient>
	<path fill="url(#SVGID_2_)" d="M42.932,83.628c-0.238-0.316-0.355-0.685-0.355-1.105c0.051-0.684,0.196-1.095,0.434-1.227
		c0.237-0.129,0.699-0.196,1.382-0.196c1.369,0,2.344-0.237,2.924-0.713c0.579-0.473,0.921-1.026,1.028-1.659
		c0.104-0.632,0.158-1.632,0.158-3.002V57.631c0-1.369-0.04-2.372-0.118-3.004c-0.08-0.631-0.409-1.184-0.988-1.658
		c-0.581-0.476-1.555-0.711-2.924-0.711c-0.632,0-1.105-0.091-1.422-0.277c-0.316-0.184-0.473-0.62-0.473-1.304
		c0-0.316,0.104-0.618,0.315-0.91c0.21-0.287,0.526-0.46,0.948-0.512c3.424-0.526,6.243-1.21,8.456-2.055
		c0.895-0.263,1.501-0.421,1.817-0.475h0.236c0.843,0,1.265,0.502,1.265,1.5v4.98h0.237c0.316-0.316,1.106-1.093,2.371-2.331
		c1.264-1.238,2.699-2.173,4.306-2.805c1.606-0.634,3.437-0.95,5.493-0.95c2.528,0,4.713,0.541,6.558,1.621
		c1.843,1.081,3.213,2.567,4.109,4.465h0.158c2.055-1.95,4.017-3.45,5.886-4.504c1.87-1.053,4.279-1.581,7.231-1.581
		c3.582,0,6.426,1.081,8.534,3.24c2.105,2.162,3.16,5.006,3.16,8.535v16.83c0,1.37,0.052,2.37,0.158,3.002
		c0.105,0.633,0.447,1.187,1.027,1.659c0.579,0.476,1.553,0.713,2.924,0.713h0.474c0.421,0,0.737,0.078,0.948,0.235
		c0.21,0.158,0.343,0.555,0.396,1.188c0,0.421-0.118,0.789-0.356,1.105c-0.236,0.317-0.541,0.475-0.908,0.475
		c-3.056-0.157-5.822-0.239-8.297-0.239c-2.371,0-5.11,0.082-8.219,0.239c-0.421,0-0.738-0.157-0.947-0.475
		c-0.211-0.316-0.317-0.685-0.317-1.105c0.051-0.684,0.197-1.095,0.436-1.227c0.237-0.129,0.697-0.196,1.382-0.196
		c1.369,0,2.343-0.237,2.923-0.713c0.579-0.473,0.922-1.026,1.028-1.659c0.105-0.632,0.157-1.632,0.157-3.002V58.974
		c0-2.422-0.764-4.28-2.291-5.57c-1.529-1.291-3.293-1.935-5.295-1.935c-2.424,0-4.399,0.579-5.927,1.737s-2.606,2.397-3.24,3.713
		v18.807c0,0.318-0.013,1.026-0.039,2.133c-0.028,1.104,0.262,1.924,0.869,2.449c0.605,0.529,1.593,0.792,2.963,0.792h0.474
		c0.474,0,0.803,0.078,0.988,0.235c0.184,0.158,0.302,0.555,0.355,1.188c0,0.421-0.106,0.789-0.315,1.105
		c-0.211,0.317-0.527,0.475-0.948,0.475c-3.109-0.157-5.796-0.239-8.06-0.239c-2.16,0-4.794,0.082-7.902,0.239
		c-0.422,0-0.738-0.157-0.948-0.475c-0.211-0.316-0.316-0.685-0.316-1.105c0.052-0.684,0.197-1.095,0.435-1.227
		c0.238-0.129,0.698-0.196,1.383-0.196c1.739,0,2.818-0.358,3.24-1.068c0.42-0.711,0.618-1.527,0.593-2.448
		c-0.027-0.921-0.04-1.539-0.04-1.857V58.974c0-2.422-0.75-4.28-2.252-5.57c-1.5-1.291-3.252-1.935-5.254-1.935
		c-2.423,0-4.398,0.579-5.926,1.737c-1.528,1.158-2.634,2.397-3.319,3.713v18.807c0,1.37,0.052,2.37,0.158,3.002
		c0.106,0.633,0.447,1.187,1.027,1.659c0.58,0.476,1.554,0.713,2.924,0.713h0.474c0.421,0,0.738,0.078,0.949,0.235
		c0.209,0.158,0.341,0.555,0.394,1.188c0,0.421-0.105,0.789-0.316,1.105c-0.21,0.317-0.527,0.475-0.948,0.475
		c-3.056-0.157-5.821-0.239-8.297-0.239c-2.371,0-5.109,0.082-8.218,0.239C43.471,84.103,43.169,83.945,42.932,83.628z"/>
	<linearGradient id="SVGID_3_" gradientUnits="userSpaceOnUse" x1="-2.8125" y1="54.6743" x2="315.7737" y2="83.6701">
		<stop  offset="0" style="stop-color:#9FEF26"/>
		<stop  offset="0.0178" style="stop-color:#9DEA21"/>
		<stop  offset="0.102" style="stop-color:#95D70F"/>
		<stop  offset="0.1886" style="stop-color:#91CC04"/>
		<stop  offset="0.2809" style="stop-color:#8FC800"/>
		<stop  offset="1" style="stop-color:#1D9632"/>
	</linearGradient>
	<path fill="url(#SVGID_3_)" d="M110.846,82.126c-1.949-1.79-2.923-4.03-2.923-6.717c0-3.316,1.106-5.809,3.318-7.467
		c2.212-1.659,4.846-2.738,7.901-3.239c3.055-0.5,7.006-0.881,11.853-1.146v-6.242c0-2.581-0.646-4.543-1.936-5.887
		c-1.292-1.343-3.358-2.016-6.203-2.016c-1.634,0-3.056,0.503-4.267,1.502c-1.213,1.001-1.818,2.345-1.818,4.03
		c0,0.841,0.198,1.541,0.593,2.093c0.396,0.552,0.816,1.015,1.264,1.383c0.447,0.369,0.672,0.581,0.672,0.632
		c0,0.317-0.33,0.726-0.988,1.225c-0.66,0.502-1.462,0.75-2.41,0.75c-1.58,0-2.833-0.577-3.753-1.736
		c-0.922-1.159-1.382-2.531-1.382-4.11c0-2.739,1.224-4.768,3.673-6.085c2.45-1.315,5.413-1.975,8.89-1.975
		c4.319,0,7.834,0.818,10.549,2.45c2.712,1.633,4.069,4.662,4.069,9.086V77.07c0.053,1.104,0.396,2.16,1.028,3.16
		c0.632,1,1.66,1.5,3.083,1.5c0.42,0,0.722,0.08,0.907,0.239c0.186,0.156,0.278,0.5,0.278,1.026c0,0.632-0.489,1.092-1.463,1.382
		c-0.975,0.289-1.936,0.438-2.884,0.438c-2.002,0-3.767-0.583-5.294-1.74c-1.528-1.159-2.397-2.713-2.607-4.663
		c-1.106,2.055-2.805,3.635-5.097,4.741c-2.292,1.105-4.754,1.662-7.388,1.662C115.351,84.815,112.794,83.916,110.846,82.126z
		 M126.017,79.202c1.528-0.896,2.738-2.119,3.635-3.675c0.896-1.554,1.344-3.278,1.344-5.176v-4.504
		c-5.531,0.424-9.43,1.318-11.694,2.688c-2.266,1.369-3.398,3.582-3.398,6.638c0,3.583,1.712,5.374,5.136,5.374
		C122.829,80.547,124.489,80.1,126.017,79.202z"/>
	<linearGradient id="SVGID_4_" gradientUnits="userSpaceOnUse" x1="-1.623" y1="41.626" x2="316.9579" y2="70.6212">
		<stop  offset="0" style="stop-color:#9FEF26"/>
		<stop  offset="0.0178" style="stop-color:#9DEA21"/>
		<stop  offset="0.102" style="stop-color:#95D70F"/>
		<stop  offset="0.1886" style="stop-color:#91CC04"/>
		<stop  offset="0.2809" style="stop-color:#8FC800"/>
		<stop  offset="1" style="stop-color:#1D9632"/>
	</linearGradient>
	<path fill="url(#SVGID_4_)" d="M141.504,83.628c-0.211-0.316-0.315-0.685-0.315-1.105c0.052-0.684,0.197-1.095,0.435-1.227
		c0.237-0.129,0.697-0.196,1.381-0.196c1.372,0,2.344-0.237,2.925-0.713c0.58-0.473,0.92-1.026,1.026-1.659
		c0.105-0.632,0.16-1.632,0.16-3.002V37.244c0-1.368-0.039-2.371-0.118-3.002c-0.079-0.632-0.409-1.185-0.988-1.659
		c-0.582-0.474-1.555-0.711-2.924-0.711c-0.633,0-1.107-0.09-1.424-0.276c-0.315-0.185-0.473-0.62-0.473-1.303
		c0-0.318,0.104-0.622,0.315-0.911c0.209-0.289,0.525-0.46,0.948-0.512c3.319-0.475,6.164-1.158,8.535-2.055
		c0.738-0.263,1.341-0.421,1.818-0.474h0.236c0.842,0,1.263,0.501,1.263,1.5v36.111c2.317-0.474,4.215-1.448,5.689-2.924
		l6.639-6.795c0.105-0.158,0.42-0.513,0.949-1.068c0.525-0.551,0.789-1.014,0.789-1.381c0-0.791-1.212-1.107-3.636-0.949
		c-0.579-0.105-0.896-0.579-0.946-1.423c0-0.419,0.118-0.789,0.355-1.106c0.235-0.315,0.539-0.471,0.906-0.471
		c2.373,0.156,5.269,0.236,8.693,0.236c0.737,0,1.897-0.053,3.477-0.157l1.818-0.079c0.368,0,0.672,0.156,0.908,0.471
		c0.236,0.317,0.355,0.688,0.355,1.106c-0.053,0.634-0.186,1.027-0.396,1.186c-0.211,0.157-0.524,0.237-0.947,0.237
		c-1.951,0-3.557,0.343-4.82,1.027c-1.265,0.686-2.74,1.898-4.423,3.635l-6.642,6.795c1.37,1.845,4.269,5.216,8.694,10.113
		c2,2.216,3.028,3.374,3.08,3.478c1.897,2.004,3.305,3.348,4.228,4.031c0.922,0.685,2.068,1.079,3.438,1.186
		c0.105,0,0.329,0.012,0.672,0.038c0.342,0.029,0.605,0.146,0.791,0.355c0.185,0.21,0.275,0.554,0.275,1.029
		c0,1.053-0.421,1.58-1.264,1.58c-0.475,0-1.264-0.04-2.371-0.118c-1.105-0.082-3.819-0.121-8.138-0.121
		c-1.58-1.631-5.243-5.794-10.983-12.484c-1.794-2.106-2.635-3.107-2.528-3.002c-1.53-1.634-3.081-2.373-4.664-2.212v9.561
		c0,1.37,0.041,2.37,0.12,3.002c0.078,0.633,0.407,1.187,0.988,1.659c0.577,0.476,1.551,0.713,2.923,0.713h0.474
		c0.475,0,0.817,0.078,1.028,0.235c0.208,0.158,0.343,0.555,0.395,1.188c0,0.421-0.12,0.789-0.355,1.105
		c-0.236,0.317-0.539,0.475-0.908,0.475c-3.054-0.157-5.822-0.239-8.298-0.239c-2.371,0-5.11,0.082-8.218,0.239
		C142.029,84.103,141.713,83.945,141.504,83.628z"/>
	<linearGradient id="SVGID_5_" gradientUnits="userSpaceOnUse" x1="-1.5405" y1="40.7075" x2="317.0442" y2="69.7031">
		<stop  offset="0" style="stop-color:#9FEF26"/>
		<stop  offset="0.0178" style="stop-color:#9DEA21"/>
		<stop  offset="0.102" style="stop-color:#95D70F"/>
		<stop  offset="0.1886" style="stop-color:#91CC04"/>
		<stop  offset="0.2809" style="stop-color:#8FC800"/>
		<stop  offset="1" style="stop-color:#1D9632"/>
	</linearGradient>
	<path fill="url(#SVGID_5_)" d="M223.33,82.361c-1.846-1.895-2.767-4.607-2.767-8.138v-23.23l-4.583,0.158
		c-0.316,0-0.581-0.143-0.792-0.433c-0.209-0.289-0.313-0.621-0.313-0.989c0-0.474,0.091-0.882,0.275-1.224
		c0.185-0.343,0.461-0.541,0.83-0.592c1.844-0.37,3.279-0.963,4.306-1.781c1.028-0.814,1.778-1.71,2.252-2.684
		c0.476-0.975,1.053-2.462,1.739-4.466c0.265-0.683,0.842-1.026,1.738-1.026c0.367,0,0.736,0.093,1.105,0.275
		c0.37,0.186,0.555,0.464,0.555,0.831l-0.555,9.009l9.246-0.555h0.156c0.686,0,1.029,0.501,1.029,1.501
		c0,0.58-0.092,1.121-0.278,1.62c-0.185,0.501-0.408,0.751-0.671,0.751l-8.851-0.238v24.022c0,1.738,0.356,3.188,1.068,4.347
		c0.711,1.158,1.882,1.737,3.516,1.737c1.633,0,3.08-0.288,4.348-0.87c0.684-0.263,1.104-0.395,1.262-0.395
		c0.369,0,0.658,0.145,0.87,0.436c0.212,0.289,0.422,0.672,0.632,1.144c0.053,0.109,0.08,0.239,0.08,0.398
		c0,0.21-0.159,0.446-0.477,0.71c-1.526,1-2.964,1.67-4.306,2.015c-1.342,0.341-2.938,0.512-4.779,0.512
		C227.386,85.206,225.174,84.259,223.33,82.361z"/>
	<linearGradient id="SVGID_6_" gradientUnits="userSpaceOnUse" x1="-2.417" y1="50.5093" x2="316.1483" y2="79.5031">
		<stop  offset="0" style="stop-color:#9FEF26"/>
		<stop  offset="0.0178" style="stop-color:#9DEA21"/>
		<stop  offset="0.102" style="stop-color:#95D70F"/>
		<stop  offset="0.1886" style="stop-color:#91CC04"/>
		<stop  offset="0.2809" style="stop-color:#8FC800"/>
		<stop  offset="1" style="stop-color:#1D9632"/>
	</linearGradient>
	<path fill="url(#SVGID_6_)" d="M238.935,98.916c-1.765-1.447-2.648-3.173-2.648-5.175c0-2.37,0.661-3.886,1.976-4.543
		c1.315-0.661,2.345-0.987,3.082-0.987c0.896,0,1.634,0.183,2.213,0.554c0.578,0.367,0.871,0.71,0.871,1.025
		c0,0.106-0.212,0.368-0.634,0.791c-0.423,0.422-0.632,1.159-0.632,2.212c0,1.054,0.327,1.976,0.987,2.764
		c0.658,0.793,1.594,1.186,2.804,1.186c3.319,0,6.561-3.396,9.721-10.191c0.209-0.736,0.315-1.29,0.315-1.66
		c0-0.526-0.133-1.186-0.395-1.975c-1.055-2.369-2.819-6.769-5.294-13.196c-2.161-5.742-3.925-10.113-5.293-13.116
		c-0.897-2.054-1.738-3.464-2.531-4.228c-0.79-0.763-1.947-1.25-3.476-1.461c-0.16-0.053-0.449-0.105-0.869-0.159
		c-0.423-0.051-0.685-0.183-0.789-0.395c-0.107-0.21-0.158-0.58-0.158-1.106c0-0.632,0.171-1.029,0.514-1.185
		c0.341-0.157,0.762-0.25,1.264-0.279c0.5-0.025,0.829-0.038,0.988-0.038c3.209-0.159,5.739,0.303,7.585,1.382
		c1.842,1.081,3.371,2.964,4.583,5.649c1.158,2.686,2.186,5.242,3.08,7.665c2.107,5.69,3.818,9.854,5.137,12.486h0.239l7.742-20.704
		c0.263-0.895,0.396-1.528,0.396-1.896c0-0.579-0.264-0.975-0.791-1.186s-1.396-0.316-2.605-0.316h-0.476
		c-0.423,0-0.726-0.08-0.909-0.237c-0.186-0.159-0.303-0.552-0.354-1.186c0-0.368,0.09-0.722,0.274-1.068
		c0.187-0.34,0.461-0.51,0.832-0.51c3.001,0.156,5.557,0.236,7.663,0.236c0.843,0,1.009-0.053,3.43-0.157l0.191-0.079
		c0.37,0,0.659,0.17,0.87,0.51c0.209,0.346,0.316,0.7,0.316,1.068c-0.052,0.634-0.186,1.027-0.395,1.186
		c-0.212,0.157-0.527,0.237-0.948,0.237c-1.949,0-0.516,0.316-1.567,0.949c-1.055,0.631-1.949,1.87-2.686,3.713
		c-1.214,3.004-3.163,7.823-5.851,14.461c-2.684,6.637-4.688,11.535-6.002,14.696c-1.899,4.529-4.11,8.402-6.639,11.614
		c-2.529,3.214-5.559,4.822-9.088,4.822C242.714,101.091,240.699,100.364,238.935,98.916z"/>
	<g>
		<linearGradient id="SVGID_7_" gradientUnits="userSpaceOnUse" x1="0.4785" y1="18.5229" x2="319.0728" y2="47.5194">
			<stop  offset="0" style="stop-color:#9FEF26"/>
			<stop  offset="0.0178" style="stop-color:#9DEA21"/>
			<stop  offset="0.102" style="stop-color:#95D70F"/>
			<stop  offset="0.1886" style="stop-color:#91CC04"/>
			<stop  offset="0.2809" style="stop-color:#8FC800"/>
			<stop  offset="1" style="stop-color:#1D9632"/>
		</linearGradient>
		<path fill="url(#SVGID_7_)" d="M21.004,27.604l-8.06-11.694c-0.212-0.368-0.316-0.712-0.316-1.027c0-0.58,0.263-1.028,0.79-1.344
			c0.264-0.156,0.553-0.236,0.87-0.236c0.473,0,1.078,0.265,1.816,0.79c1.422,1.105,3.713,3.688,6.875,7.744
			c3.161-4.056,5.453-6.638,6.875-7.744c0.737-0.525,1.343-0.79,1.816-0.79c0.316,0,0.605,0.08,0.87,0.236
			c0.525,0.316,0.791,0.765,0.791,1.344c0,0.315-0.107,0.659-0.316,1.027l-8.06,11.694c-0.475,0.686-1.107,1.028-1.897,1.028
			C22.163,28.631,21.478,28.29,21.004,27.604z"/>
	</g>
	<g>
		<linearGradient id="SVGID_8_" gradientUnits="userSpaceOnUse" x1="163.3174" y1="40.041" x2="227.9144" y2="77.4778">
			<stop  offset="0" style="stop-color:#F9EF01"/>
			<stop  offset="0.3433" style="stop-color:#FBD201"/>
			<stop  offset="1" style="stop-color:#FF9200"/>
		</linearGradient>
		<path fill="url(#SVGID_8_)" d="M217.13,59.695l-0.679-1.88c-0.793-2.194-1.212-4.463-1.488-6.195
			c-0.229-1.434-0.449-2.871-0.668-4.306l-0.05-0.313c-0.034-0.222-0.063-0.443-0.092-0.679c-0.029-0.23-0.06-0.462-0.096-0.694
			c-0.071-0.459-0.259-0.736-0.556-0.825c0.276-0.588,0.321-1.255,0.138-2.035c-0.128-0.545-0.528-0.862-1.044-0.842
			c0.193-0.959-0.066-1.871-0.353-2.726c-0.292-0.868-0.616-1.739-0.929-2.583l-0.014-0.038c-0.345-0.93-0.702-1.891-1.015-2.846
			c-0.43-1.31-0.818-2.666-1.199-3.983l-0.019-0.067c-0.163-0.565-0.325-1.13-0.494-1.695c-0.017-0.056-0.035-0.114-0.057-0.169
			c-0.027-0.077-0.056-0.157-0.062-0.209c-0.045-0.494-0.354-0.665-0.596-0.731l0.583-0.333l-0.759-2.822
			c-0.117-0.445-0.241-0.908-0.384-1.364c-0.102-0.322-0.451-0.452-0.661-0.504l-0.097-0.011c-0.172,0-0.329,0.091-0.467,0.271
			c-0.043,0.058-0.063,0.116-0.089,0.171l-0.026-0.136l-0.488-0.02c-1.167,0-2.682,0.804-3.188,2.147
			c-0.457,1.207-0.358,2.403-0.201,3.412c0.145,0.927,0.336,1.857,0.52,2.755c0.093,0.455,0.188,0.914,0.275,1.372
			c0.056,0.296,0.115,0.6,0.119,0.885c0.001,0.29,0.097,0.532,0.276,0.707c-0.024,0.019-0.047,0.04-0.066,0.063
			c-0.231,0.256-0.199,0.597-0.188,0.708c0.023,0.241,0.044,0.478,0.063,0.717l0.004,0.061c0.048,0.578,0.098,1.175,0.193,1.767
			c0.275,1.724,0.582,3.45,0.881,5.118l0.161,0.904c0.042,0.238,0.101,0.472,0.164,0.717c0.04,0.161,0.082,0.322,0.115,0.484
			c0.099,0.48,0.366,0.786,0.601,0.989c-0.415,0.176-0.535,0.461-0.534,1.17c0.001,0.596,0.063,1.191,0.125,1.769l0.053,0.544
			c0.014,0.144,0.069,0.296,0.153,0.427l-0.957,0.495c0.11-0.445,0.021-0.773-0.084-0.981c-0.127-0.25-0.402-0.573-0.997-0.714
			c-0.765-0.179-1.568-0.316-2.458-0.419c-1.58-0.181-3.311-0.36-5.443-0.56c-1.292-0.122-2.559-0.235-3.845-0.283
			c-0.337,0-0.611,0.187-0.855,0.353l-0.011,0.007l-0.054-0.345l-0.957,0.421c-0.172,0.076-0.338,0.149-0.507,0.222
			c0.132-0.159,0.257-0.327,0.391-0.484c-0.034-0.039-0.066-0.079-0.101-0.116c-0.888,0.348-1.784,0.704-2.73,1.076l-0.01-0.021
			l-5.491,2.075l-0.088,0.034l0.31,0.819c-0.353-0.126-0.725-0.157-1.081-0.083l-0.451,0.094l0.095,0.45
			c0.007,0.034,0.015,0.067,0.021,0.099c-0.322-0.282-0.832-0.339-1.23-0.117c-0.69,0.379-1.159,0.99-1.352,1.769
			c-0.149,0.588-0.25,1.169-0.355,1.782l-0.012,0.069c-0.043,0.243-0.085,0.491-0.133,0.744l-0.162,0.863l0.761-0.342
			c-0.302,0.321-0.511,0.694-0.634,1.124c-0.094,0.338-0.263,0.679-0.442,1.039l-0.02,0.042c-0.085,0.171-0.171,0.343-0.253,0.527
			l-0.524,1.155l0.387-0.188c-1.257,1.187-1.546,2.871-0.759,4.653c0.305,0.689,0.631,1.383,0.951,2.063
			c0.427,0.906,0.868,1.845,1.256,2.777c0.641,1.534,1.247,3.103,1.835,4.621c0.268,0.687,0.533,1.374,0.803,2.063
			c0.806,2.047,1.64,4.162,3.01,6.021c0.019,0.023,0.034,0.046,0.052,0.066c-0.266-0.267-0.524-0.556-0.775-0.862l-1.323-1.617
			l0.524,2.021c0.049,0.195,0.098,0.393,0.145,0.587l0.01,0.045c0.115,0.462,0.229,0.94,0.382,1.404l0.069,0.212
			c0.503,1.527,1.021,3.107,1.597,4.645c0.625,1.664,1.697,3.015,2.667,4.117c0.198,0.228,0.397,0.457,0.592,0.687
			c0.506,0.591,0.992,1.179,1.441,1.728l0.759,0.923l-0.086-0.014l-0.151,0.604l0.08,0.152c1.839,3.598,6.054,5.922,10.736,5.922
			c5.986,0,11.09-3.892,11.62-8.86l0.044-0.47c0.084-1.533,0.224-2.783,0.441-3.937c0.187-0.993,0.424-1.888,0.728-2.73
			c0.743-2.077,1.59-4.158,2.416-6.19l0.674-1.657c0.479-1.188,0.983-2.401,1.426-3.473c0.563-1.36,1.146-2.77,1.706-4.168
			c0.869-2.18,0.916-4.404,0.139-6.615C218.208,62.677,217.66,61.16,217.13,59.695z M203.103,61.617
			c-0.327,0-0.697,0.04-0.933,0.335c-0.286,0.352-0.203,0.853-0.058,1.518c0,0.003,0,0.007,0.002,0.01l-0.488-0.536l-0.321,0.504
			c-0.669,1.053-1.157,1.968-1.388,3.016c-0.063,0.289-0.106,0.571,0.065,0.811c0.181,0.255,0.464,0.292,0.827,0.338
			c0.335,0.043,0.65,0.092,0.946,0.148c-1.065-0.108-2.175-0.193-3.293-0.193c-0.438,0-0.866,0.012-1.274,0.039
			c-1.015,0.064-2.029,0.242-3.006,0.416l-0.028,0.006c-0.424,0.075-0.849,0.149-1.274,0.218c-0.114,0.019-0.2,0.061-0.291,0.102
			l-1.276,0.555l1.161,0.374c0.094,0.031,0.19,0.063,0.286,0.093c-0.522-0.133-1.054-0.263-1.58-0.388
			c-0.666-0.156-1.228-0.548-1.668-1.162c-1.234-1.721-2.405-3.428-3.389-4.872c-0.233-0.341-0.452-0.704-0.672-1.068
			c-0.207-0.34-0.417-0.691-0.647-1.033c-0.078-0.118-0.165-0.239-0.269-0.376l0.658,0.165l-0.032-0.622
			c-0.015-0.256-0.024-0.514-0.034-0.776c-0.022-0.594-0.048-1.207-0.112-1.818c-0.151-1.412-0.445-2.529-0.927-3.521
			c-0.039-0.08-0.078-0.164-0.12-0.247c0.102,0.13,0.206,0.26,0.316,0.386c0.487,0.566,1.337,0.795,2.264,0.61
			c0.885-0.174,1.76-0.39,2.606-0.601c0.35-0.09,0.698-0.176,1.044-0.26l0.374-0.089l-0.064-1.055
			c0.385,0.505,0.769,0.851,1.171,1.054c1.813,0.92,3.369,1.308,4.948,1.247c0.77-0.031,1.462-0.229,2.067-0.588
			c-0.5,1.413-0.257,2.741,0.724,3.956c1.14,1.407,2.505,2.524,4.063,3.322C203.327,61.622,203.208,61.617,203.103,61.617z
			 M207.28,26.532l0.022,0.025c0.039,0.042,0.079,0.084,0.112,0.126l0.076,0.099c-0.201-0.089-0.328-0.286-0.404-0.477
			C207.15,26.386,207.217,26.462,207.28,26.532z M217.153,65.031c-0.765-1.045-1.585-2.066-2.375-3.053l-0.702-0.878
			c-0.497-0.621-0.999-1.24-1.501-1.857l-0.06-0.072c-1.029-1.264-2.094-2.574-3.08-3.897c-0.77-1.04-1.492-2.155-2.195-3.245
			c-0.336-0.524-0.717-1.114-1.1-1.686c-0.197-0.294-0.413-0.575-0.619-0.842l-0.235-0.314c1.3,1.487,2.472,3.117,3.617,4.714
			l0.033,0.048c0.515,0.716,1.045,1.457,1.584,2.174c0.746,1,1.538,1.989,2.303,2.946l0.05,0.063
			c0.576,0.719,1.171,1.464,1.761,2.229c0.771,0.998,1.566,2.031,2.257,3.129c0.138,0.226,0.263,0.457,0.368,0.693
			C217.225,65.132,217.189,65.083,217.153,65.031z"/>
		<linearGradient id="SVGID_9_" gradientUnits="userSpaceOnUse" x1="181.9971" y1="7.8018" x2="246.6002" y2="45.2422">
			<stop  offset="0" style="stop-color:#F9EF01"/>
			<stop  offset="0.3433" style="stop-color:#FBD201"/>
			<stop  offset="1" style="stop-color:#FF9200"/>
		</linearGradient>
		<path fill="url(#SVGID_9_)" d="M217.036,30.176l0.117,0.143l0.042-0.181c0.069-0.296,0.137-0.589,0.2-0.876
			c0.168-0.728,0.322-1.416,0.505-2.103c0.11-0.419,0.002-0.688-0.365-0.902l-0.086-0.052l-0.043,0.092
			C216.827,27.505,216.537,29.574,217.036,30.176z"/>
		<linearGradient id="SVGID_10_" gradientUnits="userSpaceOnUse" x1="176.9375" y1="16.542" x2="241.5331" y2="53.978">
			<stop  offset="0" style="stop-color:#F9EF01"/>
			<stop  offset="0.3433" style="stop-color:#FBD201"/>
			<stop  offset="1" style="stop-color:#FF9200"/>
		</linearGradient>
		<path fill="url(#SVGID_10_)" d="M211.646,35.41c0.068,0.157,0.185,0.285,0.305,0.419c0.015,0.015,0.025,0.03,0.041,0.043h-0.502
			l0.039,0.12c0.04,0.137,0.08,0.273,0.119,0.406c0.09,0.296,0.174,0.581,0.273,0.861c0.223,0.62,0.462,1.243,0.696,1.845
			c0.7,1.81,1.426,3.682,1.69,5.665c0.231,1.746,0.526,3.514,0.81,5.223l0.121,0.725c0.085,0.505,0.197,1.012,0.309,1.505
			c0.052,0.231,0.103,0.464,0.152,0.695l0.018,0.084l0.305-0.042l0.004-0.074c0.017-0.276,0.079-0.558,0.14-0.831
			c0.151-0.665,0.304-1.353-0.143-2.07c0.008,0,0.014,0,0.021,0c0.551,0,0.693-0.411,0.754-0.768
			c0.069-0.406,0.112-0.822,0.152-1.223c0.023-0.242,0.048-0.481,0.077-0.72c0.107-0.859,0.095-0.935-0.642-1.321
			c0.544-0.502,0.473-1.12,0.359-1.66c-0.041-0.199-0.069-0.412-0.079-0.632c-0.039-0.742-0.075-1.485-0.113-2.226
			c-0.077-1.568-0.157-3.139-0.244-4.704c-0.012-0.185-0.156-0.388-0.296-0.507c-0.153-0.133-0.328-0.24-0.496-0.343
			c-0.018-0.012-0.035-0.023-0.055-0.032c0.047-0.011,0.092-0.013,0.138-0.016l0.039-0.001c0.572-0.031,0.72-0.176,0.757-0.742
			c0.006-0.087,0.009-0.175,0.012-0.262c0.005-0.142,0.01-0.286,0.026-0.425c0.051-0.435,0.104-0.869,0.157-1.302
			c0.07-0.577,0.143-1.154,0.206-1.733c0.007-0.058,0.032-0.349-0.105-0.491c-0.352-0.357-0.48-0.843-0.38-1.442
			c0.114-0.698,0.268-1.406,0.414-2.089c0.084-0.39,0.168-0.779,0.245-1.166c0.018-0.083,0.048-0.403-0.097-0.478
			c-0.293-0.156-0.597-0.316-0.923-0.359c-0.08-0.009-0.163-0.015-0.242-0.015c-0.797,0-1.354,0.542-1.699,0.951
			c-0.664,0.773-1.129,1.746-1.462,3.06c-0.386,1.518-0.761,3.178-1.145,5.077c-0.059,0.29,0.084,0.624,0.209,0.917L211.646,35.41z"
			/>
		<linearGradient id="SVGID_11_" gradientUnits="userSpaceOnUse" x1="177.3643" y1="15.7261" x2="242.0123" y2="53.1925">
			<stop  offset="0" style="stop-color:#F9EF01"/>
			<stop  offset="0.3433" style="stop-color:#FBD201"/>
			<stop  offset="1" style="stop-color:#FF9200"/>
		</linearGradient>
		<path fill="url(#SVGID_11_)" d="M221.299,39.775c-0.015-0.034-0.029-0.067-0.04-0.099l-0.046-0.141l-0.107,0.103
			c-0.019,0.021-0.042,0.041-0.065,0.06c-0.064,0.051-0.134,0.11-0.164,0.195c-0.102,0.296-0.183,0.588-0.241,0.866
			c-0.07,0.333-0.129,0.672-0.188,1l-0.088,0.485l0.084,0.019c0.043,0.01,0.083,0.02,0.128,0.029l0.085,0.018l0.022-0.083
			c0.031-0.11,0.063-0.22,0.093-0.328c0.068-0.252,0.143-0.512,0.223-0.764c0.049-0.155,0.102-0.305,0.159-0.457
			c0.073-0.2,0.146-0.408,0.207-0.619C221.387,39.963,221.342,39.863,221.299,39.775z"/>
		<linearGradient id="SVGID_12_" gradientUnits="userSpaceOnUse" x1="173.7881" y1="21.9658" x2="238.3902" y2="59.4056">
			<stop  offset="0" style="stop-color:#F9EF01"/>
			<stop  offset="0.3433" style="stop-color:#FBD201"/>
			<stop  offset="1" style="stop-color:#FF9200"/>
		</linearGradient>
		<path fill="url(#SVGID_12_)" d="M220.004,42.148l0.058-0.358c0.115-0.723,0.234-1.472,0.393-2.195c0.07-0.327,0-0.499-0.271-0.656
			c-0.705-0.41-1.656-0.333-2.317,0.192c-0.392,0.309-0.549,0.643-0.522,1.112c0.061,1.124,0.099,2.268,0.133,3.376
			c0.016,0.508,0.031,1.015,0.051,1.521c0.003,0.074,0.018,0.146,0.032,0.215l0.016,0.081c0.237,1.313,0.223,2.451-0.042,3.48
			c-0.068,0.272-0.166,0.545-0.26,0.808c-0.118,0.328-0.238,0.666-0.31,1.012c-0.251,1.19-0.531,2.596-0.715,4.01
			c-0.051,0.396,0.015,0.811,0.077,1.208c0.027,0.177,0.057,0.36,0.074,0.539l0.012,0.089l0.267-0.021l0.705-1.703l-0.318-0.293
			c0.482-0.226,0.796-0.634,0.931-1.221c0.178-0.766,0.314-1.552,0.451-2.319c0.05-0.29,0.092-0.584,0.134-0.872
			c0.067-0.493,0.141-1,0.263-1.487c0.201-0.798,0.431-1.604,0.652-2.384c0.184-0.641,0.375-1.304,0.546-1.959
			c0.023-0.087,0.05-0.176,0.076-0.265c0.145-0.488,0.311-1.04-0.083-1.583C219.992,42.419,219.979,42.287,220.004,42.148z"/>
	</g>
	<path fill="#352B27" d="M221.704,38.836c-0.512-0.371-1.035-0.752-1.606-1.008c-0.676-0.304-1.41-0.27-2.107,0.004
		c-0.255,0.1-0.482,0.274-0.856,0.494c0-1.044-0.034-1.979,0.01-2.912c0.044-0.908,0.158-1.814,0.256-2.715
		c0.088-0.796,0.147-1.598,0.304-2.382c0.245-1.222,0.541-2.435,0.854-3.64c0.161-0.619-0.102-1.033-0.536-1.38
		c-1.141-0.913-2.429-0.931-3.748-0.521c-1.095,0.339-1.572,1.297-2.017,2.231c-0.73,1.54-1.123,3.188-1.406,4.863
		c-0.074,0.438-0.143,0.878-0.214,1.319c-0.199-0.458-0.33-0.908-0.446-1.364c-0.851-3.306-1.698-6.613-2.548-9.921
		c-0.093-0.363-0.306-0.57-0.702-0.627c-1.101-0.155-2.136,0.113-3.15,0.469c-1.406,0.491-2.164,1.54-2.415,2.967
		c-0.308,1.758-0.081,3.492,0.274,5.219c0.304,1.477,0.759,2.92,0.646,4.473c-0.059,0.8,0.089,1.633,0.243,2.43
		c0.475,2.418,0.999,4.828,1.499,7.241c0.027,0.128,0.041,0.279,0.001,0.399c-0.273,0.839-0.321,1.696-0.255,2.565
		c-0.026,0.006-0.059,0.024-0.077,0.013c-1.28-0.71-2.701-0.784-4.107-0.882c-2.147-0.152-4.294-0.251-6.441-0.376
		c-1.632-0.093-3.227,0.034-4.759,0.687c-1.599,0.683-3.631,1.333-5.251,1.964c-1.121,0.438-1.758,0.972-3.056,0.958
		c-1.378-0.015-2.55,0.65-3.151,2.008c-0.4,0.901-0.57,1.86-0.69,2.836c-0.096,0.775-0.156,1.575-0.402,2.311
		c-0.296,0.895-0.727,1.756-1.171,2.592c-0.505,0.952-0.805,1.917-0.84,2.919c-0.022,0.597,0.048,1.206,0.226,1.835
		c0.595,2.104,1.563,4.041,2.524,5.987c0.594,1.202,1.201,2.402,1.726,3.633c0.075,0.178,0.152,0.353,0.224,0.53
		c0.062,0.15,0.114,0.307,0.17,0.462c0.379,1.053,0.652,2.148,0.984,3.222c0.241,0.775,0.54,1.532,0.729,2.319
		c0.462,1.936,0.795,3.908,1.333,5.82c0.146,0.524,0.321,1.034,0.508,1.539c0.805,2.152,1.988,4.1,3.743,5.706
		c0.554,0.51,0.99,1.089,1.293,1.751c0.031,0.007,1.212,2.687,2.197,3.798c2.266,2.556,5.9,4.215,9.987,4.215
		c4.734,0,8.859-2.227,10.956-5.491c0.858-1.337,1.541-4.499,1.58-4.52c0.14-1.679,0.412-3.338,0.833-4.978
		c0.863-3.371,2.045-6.623,3.502-9.784c0.93-2.02,1.825-4.059,2.601-6.142c0.458-1.234,0.734-2.552,0.941-3.857
		c0.201-1.27-0.021-2.549-0.427-3.775c-0.572-1.735-1.156-3.468-1.767-5.191c-0.274-0.773-0.411-1.509-0.099-2.314
		c0.257-0.666,0.447-1.364,0.604-2.062c0.374-1.652,0.681-3.318,1.074-4.965c0.242-1.012,0.63-1.99,0.884-2.999
		c0.336-1.341,0.569-2.706,0.916-4.043c0.247-0.957,0.613-1.88,0.918-2.823C222.136,39.515,222.072,39.102,221.704,38.836z
		 M217.754,27.078c-0.259,0.966-0.465,1.946-0.707,2.984c-0.441-0.536-0.212-2.541,0.383-3.781
		C217.746,26.465,217.855,26.691,217.754,27.078z M211.435,34.378c0.344-1.7,0.718-3.391,1.144-5.07
		c0.279-1.094,0.693-2.151,1.441-3.026c0.481-0.563,1.063-1.004,1.861-0.901c0.31,0.04,0.61,0.199,0.895,0.346
		c0.063,0.034,0.071,0.255,0.046,0.378c-0.215,1.088-0.479,2.167-0.659,3.259c-0.09,0.537-0.021,1.085,0.405,1.524
		c0.084,0.084,0.095,0.278,0.079,0.416c-0.113,1.011-0.243,2.022-0.362,3.032c-0.027,0.228-0.024,0.462-0.038,0.693
		c-0.034,0.52-0.145,0.629-0.671,0.656c-0.107,0.007-0.217,0-0.377,0.086c0.234,0.153,0.484,0.286,0.696,0.466
		c0.125,0.108,0.255,0.288,0.264,0.442c0.131,2.309,0.238,4.621,0.356,6.931c0.012,0.215,0.036,0.434,0.081,0.646
		c0.129,0.61,0.164,1.195-0.432,1.661c0.823,0.426,0.822,0.432,0.714,1.292c-0.08,0.647-0.118,1.299-0.229,1.939
		c-0.067,0.397-0.226,0.783-0.871,0.673c0.78,1.042,0.157,2.017,0.098,3.005c-0.047,0.005-0.098,0.011-0.144,0.019
		c-0.155-0.733-0.338-1.459-0.46-2.198c-0.328-1.979-0.667-3.955-0.933-5.943c-0.353-2.658-1.502-5.049-2.39-7.528
		c-0.145-0.407-0.256-0.822-0.394-1.267h0.574c-0.175-0.216-0.368-0.382-0.456-0.591C211.548,35.021,211.377,34.666,211.435,34.378z
		 M206.364,22.277c0.118,0.029,0.287,0.1,0.317,0.193c0.182,0.581,0.331,1.173,0.489,1.761c0.187,0.689,0.371,1.376,0.557,2.066
		c-0.044,0.026-0.089,0.053-0.135,0.076c-0.152-0.194-0.375-0.369-0.445-0.591c-0.341-1.084-0.647-2.179-0.949-3.275
		C206.181,22.447,206.328,22.268,206.364,22.277z M185.298,48.864c0.036,0.04,0.068,0.077,0.103,0.116
		c-0.228,0.267-0.417,0.584-0.69,0.791c-0.592,0.452-1.294,0.683-2.026,0.756c-0.193,0.019-0.412-0.213-0.675-0.364
		C183.173,49.704,184.234,49.283,185.298,48.864z M177.498,52.695c0.156-0.632,0.536-1.155,1.128-1.48
		c0.324-0.179,0.67-0.095,0.84,0.229c0.392,0.732,0.546,1.505,0.23,2.304c-0.071,0.185-0.233,0.381-0.403,0.465
		c-0.713,0.355-1.444,0.667-2.289,1.049C177.173,54.358,177.291,53.516,177.498,52.695z M218.239,64.267
		c0.742,2.111,0.695,4.223-0.132,6.292c-1.021,2.557-2.1,5.088-3.13,7.641c-1.056,2.613-2.146,5.214-3.099,7.864
		c-0.328,0.914-0.567,1.85-0.745,2.8c-0.247,1.314-0.375,2.652-0.448,3.997c-0.003,0.065-0.009,0.135-0.019,0.202
		c-0.363,4.845-5.24,8.694-11.187,8.694c-4.638,0-8.628-2.34-10.329-5.67c0.003-0.011,0.006-0.022,0.008-0.031
		c0.151,0.039,0.311,0.058,0.451,0.119c0.151,0.069,0.286,0.177,0.429,0.269c-0.042-0.216-0.125-0.383-0.241-0.524
		c-0.436-0.526-0.866-1.055-1.302-1.584c-0.478-0.582-0.959-1.16-1.448-1.733c-0.194-0.23-0.395-0.463-0.596-0.691
		c-1.059-1.204-2.017-2.47-2.579-3.975c-0.297-0.79-0.576-1.588-0.846-2.386c-0.279-0.816-0.548-1.634-0.815-2.451
		c-0.215-0.657-0.354-1.34-0.528-2.009c0.684,0.838,1.439,1.56,2.286,2.15c0.644,0.452,1.341,0.827,2.105,1.107
		c-0.036-0.072-0.097-0.128-0.157-0.175c-0.612-0.472-1.175-0.991-1.695-1.551c-0.386-0.411-0.754-0.841-1.091-1.298
		c-0.344-0.468-0.654-0.953-0.938-1.451c-0.813-1.421-1.415-2.943-2.016-4.468c-0.878-2.231-1.717-4.478-2.642-6.689
		c-0.683-1.639-1.493-3.226-2.21-4.852c-0.978-2.208-0.062-3.979,1.758-4.894c0.691-0.348,1.453-0.558,2.194-0.834
		c-1.06-0.379-2.045-0.007-3.058,0.484c0.277-0.611,0.584-1.122,0.74-1.673c0.194-0.689,0.624-1.143,1.199-1.473
		c0.372-0.214,0.789-0.357,1.198-0.495c0.413-0.14,0.771-0.357,0.873-0.78c0.125-0.522,0.234-1.068,0.204-1.595
		c-0.041-0.623-0.24-1.235-0.372-1.869c0.436-0.091,0.869,0.02,1.266,0.287c1.112,0.739,1.728,1.864,2.285,3.018
		c0.517,1.061,0.76,2.206,0.884,3.369c0.092,0.86,0.1,1.73,0.144,2.57c-0.478-0.117-0.898-0.223-1.362-0.337
		c0.406,0.519,0.774,0.939,1.082,1.4c0.461,0.688,0.856,1.421,1.321,2.105c0.64,0.94,1.284,1.873,1.935,2.807
		c0.482,0.693,0.968,1.388,1.462,2.073c0.256,0.356,0.562,0.655,0.914,0.891c0.302,0.204,0.641,0.362,1.022,0.451
		c1.176,0.277,2.341,0.585,3.511,0.884c2,0.511,3.991,1.08,6.09,0.916c0.281-0.022,0.56-0.082,0.839-0.123
		c-3.033-0.439-5.921-1.302-8.9-2.264c0.189-0.081,0.259-0.131,0.337-0.142c1.42-0.222,2.836-0.547,4.266-0.637
		c2.52-0.155,5.022,0.206,7.52,0.524c0.549,0.069,1.097,0.124,1.645,0.186c-1.158-0.429-2.316-0.851-3.492-1.204
		c-0.656-0.199-1.341-0.326-2.022-0.413c-0.537-0.066-0.615-0.074-0.501-0.595c0.222-1.017,0.72-1.912,1.325-2.866
		c0.269,0.291,0.48,0.556,0.726,0.781c0.239,0.222,0.497,0.428,0.773,0.603c0.269,0.169,0.568,0.288,0.854,0.427
		c0.018-0.028,0.034-0.06,0.052-0.087c-0.226-0.216-0.45-0.429-0.673-0.646c-0.403-0.393-0.737-0.827-0.863-1.4
		c-0.274-1.261-0.158-1.371,1.124-1.264c0.706,0.06,1.424,0.011,2.116,0.011c-0.256-0.105-0.508-0.213-0.767-0.308
		c-2.105-0.774-3.851-2.047-5.259-3.79c-0.229-0.282-0.409-0.573-0.549-0.87c-0.036,0.002-0.066,0.008-0.103,0.009
		c-0.591-1.793,0.134-2.98,0.134-2.98c0.188-0.435,0.402-0.854,0.604-1.28c-0.272,0.152-0.51,0.333-0.72,0.536
		c-0.388,0.378-1.079,0.797-0.973,0.792c-0.459,0.213-0.967,0.337-1.518,0.36c-0.724,0.03-1.441-0.045-2.183-0.232
		c0.124-0.003-1.634-0.589-2.585-1.071c-0.5-0.252-0.916-0.762-1.24-1.243c-0.315-0.467-0.461-1.05-0.68-1.58
		c-0.018-0.004-0.034-0.009-0.051-0.012c0.058,0.925,0.113,1.85,0.178,2.889c-1.125,0.271-3.139,0.826-3.008,0.84
		c-0.457,0.142-1,0.248-1.471,0.108c0.016-0.016-0.568-0.093-0.91-0.493c-0.105-0.125-0.205-0.251-0.317-0.369
		c-0.515-0.653-0.949-1.362-1.381-1.981c0.71-0.36,1.358-0.641,1.952-1.007c0.578-0.359,1.135-0.801,1.304-1.504
		c0.064-0.279,0.191-0.393,0.406-0.483c0.676-0.284,1.354-0.56,2.03-0.847c0.407-0.172,0.81-0.356,1.238-0.543
		c0.03,0.185,0.054,0.32,0.088,0.54c0.16-0.147,0.254-0.268,0.374-0.337c0.271-0.159,0.563-0.429,0.835-0.419
		c1.264,0.049,2.526,0.163,3.785,0.281c1.813,0.172,3.625,0.353,5.436,0.56c0.806,0.094,1.613,0.226,2.405,0.409
		c0.716,0.167,0.942,0.705,0.657,1.384c-0.104,0.245-0.238,0.476-0.358,0.715c0.021,0.03,0.04,0.063,0.061,0.094
		c0.543-0.28,1.088-0.563,1.668-0.863c0.277,0.371,0.597,0.761,0.875,1.176c1.104,1.649,2.127,3.356,3.31,4.947
		c1.484,1.995,3.097,3.895,4.647,5.842c1.031,1.297,2.088,2.577,3.066,3.916c0.824,1.126,1.042,2.43,0.777,3.801
		c-0.147,0.768-0.327,1.527-0.493,2.289c0.307-0.61,0.564-1.243,0.771-1.893c0.582-1.831,0.465-3.615-0.561-5.252
		c-0.69-1.102-1.487-2.141-2.283-3.173c-1.354-1.755-2.781-3.456-4.108-5.229c-1.801-2.406-3.44-4.932-5.449-7.182
		c-0.067-0.075-0.125-0.185-0.134-0.285c-0.07-0.756-0.175-1.518-0.175-2.275c-0.002-0.735,0.046-0.734,0.788-0.896
		c0.106-0.024,0.214-0.059,0.357-0.101c-0.539-0.348-1.088-0.598-1.224-1.253c-0.082-0.399-0.205-0.79-0.278-1.188
		c-0.354-2.004-0.717-4.007-1.041-6.016c-0.134-0.831-0.173-1.674-0.255-2.515c-0.031-0.313,0.063-0.466,0.428-0.459
		c0.37,0.007,0.74-0.084,1.197-0.145c-0.486-0.118-0.867-0.201-1.242-0.307c-0.257-0.071-0.4-0.224-0.403-0.529
		c-0.004-0.321-0.065-0.646-0.127-0.965c-0.265-1.371-0.578-2.735-0.789-4.112c-0.166-1.06-0.226-2.126,0.173-3.18
		c0.426-1.129,1.792-1.903,2.87-1.847c0.058,0.285,0.1,0.582,0.179,0.867c0.273,0.974,0.53,1.96,0.858,2.917
		c0.148,0.43,0.441,0.847,0.957,0.913c0.262,0.035,0.398,0.087,0.422,0.363c0.018,0.158,0.09,0.311,0.136,0.468
		c0.567,1.918,1.092,3.855,1.715,5.756c0.605,1.841,1.342,3.635,1.956,5.469c0.345,1.026,0.63,2.093,0.113,3.165
		c-0.007,0.015,0.02,0.044,0.034,0.071c0.137-0.05,0.273-0.106,0.413-0.149c0.43-0.138,0.727,0.014,0.828,0.441
		c0.181,0.775,0.133,1.511-0.375,2.169c-0.066,0.086-0.12,0.185-0.213,0.334c0.188-0.035,0.318-0.032,0.424-0.079
		c0.428-0.195,0.523,0.079,0.572,0.4c0.071,0.458,0.121,0.917,0.189,1.372c0.236,1.542,0.472,3.083,0.718,4.622
		c0.34,2.132,0.775,4.243,1.511,6.281C216.723,60.032,217.494,62.146,218.239,64.267z M198.301,57.178
		c-0.053,0.007,1.721,3.25,2.993,4.105c0.079,0.053,0.119,0.297,0.067,0.391c-0.421,0.789-0.901,1.548-1.305,2.346
		c-0.417,0.831-0.759,1.701-1.154,2.545c-0.053,0.115-0.213,0.255-0.324,0.257c-2.64,0.026-5.201,0.559-7.753,1.161
		c-0.175,0.042-0.313,0.026-0.435-0.044c-0.069-0.04-0.134-0.094-0.19-0.18c-0.627-0.92-1.251-1.844-1.892-2.753
		c-0.075-0.103-0.147-0.204-0.222-0.307c-0.675-0.947-1.366-1.883-2.031-2.837c-0.136-0.195-0.211-0.468-0.224-0.711
		c-0.051-1.018,0.027-2.048-0.109-3.058c-0.144-1.063-0.54-2.452-0.7-3.007c0.018-0.066,0.052-0.13,0.076-0.195
		c0.471,0.157,1.021,0.192,1.585,0.078c0.872-0.174,1.731-0.394,2.6-0.617c0.157-0.039,0.312-0.079,0.469-0.119
		c0.861,0.028,1.688,0.051,2.45,0.063c1.569,0.729,2.964,1.04,4.418,0.981c0.527-0.023,1.022-0.119,1.482-0.292
		C197.972,55.743,198.041,56.477,198.301,57.178z M220.305,39.52c-0.184,0.846-0.314,1.703-0.453,2.558
		c-0.02,0.13-0.02,0.301,0.05,0.397c0.434,0.598,0.144,1.195-0.008,1.771c-0.382,1.452-0.833,2.887-1.199,4.344
		c-0.194,0.775-0.258,1.578-0.396,2.366c-0.138,0.773-0.273,1.548-0.449,2.313c-0.126,0.546-0.421,0.995-1.01,1.214
		c0.157,0.144,0.274,0.251,0.376,0.346c-0.226,0.547-0.443,1.071-0.659,1.592c-0.042,0.003-0.08,0.006-0.123,0.009
		c-0.059-0.576-0.225-1.167-0.152-1.727c0.176-1.344,0.435-2.673,0.712-4.002c0.132-0.618,0.413-1.202,0.571-1.816
		c0.3-1.166,0.255-2.344,0.043-3.521c-0.017-0.093-0.043-0.186-0.046-0.28c-0.061-1.633-0.096-3.268-0.185-4.9
		c-0.026-0.47,0.146-0.766,0.487-1.036c0.647-0.514,1.524-0.587,2.216-0.184C220.314,39.099,220.368,39.234,220.305,39.52z
		 M221.213,39.979c-0.104,0.365-0.252,0.713-0.366,1.075s-0.21,0.73-0.316,1.096c-0.041-0.011-0.082-0.019-0.124-0.03
		c0.084-0.465,0.16-0.934,0.258-1.398c0.062-0.288,0.143-0.575,0.24-0.854c0.03-0.087,0.137-0.146,0.207-0.217
		C221.148,39.76,221.237,39.885,221.213,39.979z"/>
</g>
</svg>
