<svg height="512" viewBox="0 0 56 56" width="512" xmlns="http://www.w3.org/2000/svg"><g id="Page-1" fill="none" fill-rule="evenodd"><g id="025---Vegan-Burger" fill="rgb(0,0,0)" fill-rule="nonzero"><path id="Shape" d="m53 38h-50c-1.42470302.0009964-2.65219959 1.0038821-2.93724475 2.3997792-.28504516 1.3958972.45099221 2.7997407 1.76124475 3.3592208.01763116.0051023.03498753.0111103.052.018.35674159.1462501.73844506.2219795 1.124.223h50c.3862131-.0009138.7685915-.0766424 1.126-.223.015-.008.032-.01.048-.017 1.3112272-.5585798 2.04845-1.9626065 1.7638092-3.3591406-.2846408-1.3965342-1.5125628-2.4000262-2.9378092-2.4008594z"/><path id="Shape" d="m42.2 49.217c1.1873327.556603 2.489347.8248865 3.8.783h.14c2.3720478-.0316627 4.6043058-1.1275986 6.08-2.985.2536415-.3205467.4826303-.6598512.685-1.015h-7.491z"/><path id="Shape" d="m23 26h1v-2h-7c-6.7920354-.000271-12.43953574 5.2280891-12.962 12h47.924c-.530862-6.7678462-6.1733708-11.9915853-12.962-12h-7v2h1c.5522847 0 1 .4477153 1 1s-.4477153 1-1 1h-10c-.5522847 0-1-.4477153-1-1s.4477153-1 1-1zm24 6c.5522847 0 1 .4477153 1 1s-.4477153 1-1 1-1-.4477153-1-1 .4477153-1 1-1zm-4-3c.5522847 0 1 .4477153 1 1s-.4477153 1-1 1-1-.4477153-1-1 .4477153-1 1-1zm-4-3c.5522847 0 1 .4477153 1 1s-.4477153 1-1 1-1-.4477153-1-1 .4477153-1 1-1zm0 6c.5522847 0 1 .4477153 1 1s-.4477153 1-1 1-1-.4477153-1-1 .4477153-1 1-1zm-4-3c.5522847 0 1 .4477153 1 1s-.4477153 1-1 1-1-.4477153-1-1 .4477153-1 1-1zm-4 3c.5522847 0 1 .4477153 1 1s-.4477153 1-1 1-1-.4477153-1-1 .4477153-1 1-1zm-4-3c.5522847 0 1 .4477153 1 1s-.4477153 1-1 1-1-.4477153-1-1 .4477153-1 1-1zm-12 5c-.5522847 0-1-.4477153-1-1s.4477153-1 1-1 1 .4477153 1 1-.4477153 1-1 1zm2-6c-3.579045.0012634-6.8179988 2.120792-8.252 5.4-.14167728.3293396-.44882073.5576332-.80502101.5983562s-.70694467-.112357-.91929878-.4012215c-.21235411-.2888646-.25381938-.6693061-.10868021-.9971347 1.75230201-4.0078762 5.7107993-6.5984644 10.085-6.6.5522847 0 1 .4477153 1 1s-.4477153 1-1 1zm2 3c-.5522847 0-1-.4477153-1-1s.4477153-1 1-1 1 .4477153 1 1-.4477153 1-1 1zm4 1c.5522847 0 1 .4477153 1 1s-.4477153 1-1 1-1-.4477153-1-1 .4477153-1 1-1z"/><path id="Rectangle-path" d="m26 18h4v8h-4z"/><path id="Shape" d="m9.871 50h.129c1.4157177.0396309 2.8189961-.2741563 4.083-.913 1.5247552-.7508091 3.2078089-1.1236396 4.907-1.087 1.70013-.0375516 3.3842931.3349537 4.91 1.086 1.2663982.6392497 2.6719534.9533518 4.09.914 1.3144032.0418301 2.6201254-.2271261 3.811-.785l-3.215-3.215h-25.486c.20216099.3544121.43081183.6930426.684 1.013 1.47684248 1.8600372 3.71215293 2.9569441 6.087 2.987z"/><path id="Shape" d="m46 52c-1.6996653.0372295-3.3833516-.3349033-4.909-1.085-.135-.06-.28-.115-.418-.174l-2.259 2.259c-.7809997.7807639-2.0470003.7807639-2.828 0l-2.26-2.26c-.141.06-.291.117-.43.178-1.5253776.7475155-3.2077007 1.1185456-4.906 1.082-1.6987687.0367499-3.3814471-.3357305-4.906-1.086-1.2675117-.6401383-2.6745842-.9542722-4.094-.914-1.4195047-.040005-2.826592.2744759-4.094.915-1.5213616.7491003-3.2006006 1.1212356-4.896 1.085h-.14c-2.0824869-.0238686-4.10373712-.7076555-5.773-1.953.51729659 3.4196365 3.4544609 5.9489203 6.913 5.953h34c3.4585391-.0040797 6.3957034-2.5333635 6.913-5.953-1.6659907 1.2443299-3.6837542 1.9281217-5.763 1.953z"/><path id="Shape" d="m42.586 46h-11.172l5.586 5.586z"/><path id="Shape" d="m55 0h-54c-.55228475 0-1 .44771525-1 1v14c0 .5522847.44771525 1 1 1h54c.5522847 0 1-.4477153 1-1v-14c0-.55228475-.4477153-1-1-1zm-43.071 3.372-4 10c-.15151782.3803506-.51958059.6299203-.929.6299203s-.77748218-.2495697-.929-.6299203l-4-10c-.20544991-.51307253.04392749-1.09555005.55700001-1.30099998.51307252-.20544992 1.09555005.04392746 1.30099999.55699998l3.071 7.68 3.071-7.68c.2054499-.51307253.7879275-.76244993 1.301-.557s.7624499.78792747.557 1.301zm8.071 3.628c.5522847 0 1 .44771525 1 1s-.4477153 1-1 1h-5v3h5c.5522847 0 1 .4477153 1 1s-.4477153 1-1 1h-6c-.5522847 0-1-.4477153-1-1v-10c0-.55228475.4477153-1 1-1h6c.5522847 0 1 .44771525 1 1s-.4477153 1-1 1h-5v3zm13 3h-1c0 2.209139-1.790861 4-4 4h-1c-2.209139 0-4-1.790861-4-4v-4c0-2.209139 1.790861-4 4-4h1c1.6986972-.00502315 3.2124633 1.07101291 3.766 2.677.1608484.51714611-.1192253 1.06835658-.6317565 1.24335401s-1.0712292-.0898248-1.2602435-.59735401c-.2777801-.79614162-1.0308033-1.32775838-1.874-1.323h-1c-1.1045695 0-2 .8954305-2 2v4c0 1.1045695.8954305 2 2 2h1c1.1045695 0 2-.8954305 2-2h-1c-.5522847 0-1-.44771525-1-1s.4477153-1 1-1h4c.5522847 0 1 .44771525 1 1s-.4477153 1-1 1zm10.372 3.929c-.1184475.0467953-.2446438.0708811-.372.071-.408945.0003137-.7768725-.2484037-.929-.628l-.948-2.372h-4.246l-.948 2.372c-.2054499.5130725-.7879275.7624499-1.301.557-.5130725-.20545-.7624499-.7879275-.557-1.301l4-10c.1515178-.38035063.5195806-.62992028.929-.62992028s.7774822.24956965.929.62992028l4 10c.0988577.2463696.0956981.5219366-.0087825.7659747-.1044806.2440382-.3017073.4365188-.5482175.5350253zm10.628-.929c-.000346.4362493-.2834529.8219306-.699546.9530033-.4160931.1310728-.8691371-.0227149-1.119454-.3800033l-5.181-7.401v6.828c0 .5522847-.4477153 1-1 1s-1-.4477153-1-1v-10c.000346-.43624926.2834529-.82193057.699546-.95300332.4160931-.13107276.8691371.02271493 1.119454.38000332l5.181 7.401v-6.828c0-.55228475.4477153-1 1-1s1 .44771525 1 1z"/><path id="Shape" d="m37.677 9h2.646l-1.323-3.308z"/></g></g></svg>