<?xml version="1.0" encoding="utf-8"?>
<!-- Generator: Adobe Illustrator 16.0.0, SVG Export Plug-In . SVG Version: 6.00 Build 0)  -->
<!DOCTYPE svg PUBLIC "-//W3C//DTD SVG 1.1//EN" "http://www.w3.org/Graphics/SVG/1.1/DTD/svg11.dtd">
<svg version="1.1" id="Vrstva_1" xmlns="http://www.w3.org/2000/svg" xmlns:xlink="http://www.w3.org/1999/xlink" x="0px" y="0px"
	 width="279.369px" height="122.7px" viewBox="0 0 279.369 122.7" enable-background="new 0 0 279.369 122.7" xml:space="preserve">
<g>
	<path fill="#4C2714" d="M240.477,69.258c-0.365-5.332-4.132-6.603-5.284-6.867c-0.442-0.102-0.91-0.176-1.396-0.224
		c0,0,0.061-7.281,0.431-15.951c0.454-10.678-2.791-16.541-10.866-20.579c-3.656-1.828-9.049-1.346-13.545-1.346
		c-2.201,0-4.324,0.286-6.354,0.777c-0.171-0.157-0.335-0.294-0.485-0.404c-1.278-0.918-2.797-1.404-4.389-1.404
		c-0.333,0-0.677,0.021-1.052,0.069c-0.94,0.122-1.87,0.354-2.757,0.688c-0.41,0.154-0.978,0.345-1.689,0.573
		c-0.716,0.231-1.696,0.501-2.847,0.787c-1.099,0.276-2.609,0.558-4.493,0.838l-0.503,0.1c-1.743,0.438-3.222,1.366-4.271,2.684
		c-1.085,1.358-1.658,2.981-1.658,4.694c0,1.142,0.204,2.183,0.556,3.121c-0.036,0.021-0.071,0.043-0.106,0.064
		c-0.375-1.384-0.869-2.674-1.534-3.82c-1.476-2.544-3.437-4.579-5.825-6.047c-2.195-1.349-4.686-2.263-7.41-2.716
		c-4.607-0.763-9.134-0.756-13.212,0.03c-2.27,0.437-4.361,1.161-6.227,2.153c-1.137,0.608-2.164,1.334-3.088,2.159
		c-0.158-0.555-0.354-1.101-0.618-1.63c-1.23-2.452-3.641-3.915-6.446-3.915c-0.237,0-0.487,0.006-0.934,0.056l-10.86,2.044
		c-1.366-0.488-2.86-0.854-4.469-1.092c-5.652-0.83-10.74-0.517-14.998,0.921c-2.768,0.937-5.213,2.249-7.27,3.902
		c-2.183,1.76-3.905,3.881-5.116,6.304c-0.276,0.552-0.511,1.118-0.726,1.69c-0.081-0.199-0.147-0.406-0.233-0.604
		c-1.115-2.555-2.676-4.807-4.646-6.697c-0.275-0.263-0.579-0.498-0.871-0.745c4.685-0.505,8.549-3.053,10.609-7.008
		c2.132-4.097,1.965-9.125-0.446-13.45C92.511,3.145,87.183,0,81.196,0c-0.35,0-0.706,0.012-1.066,0.033
		C61.984,1.161,41.717,22.907,34.063,38.174l-0.288,0.571c-0.411,0.813-0.799,1.597-1.165,2.351
		c-0.409-1.031-0.814-2.041-1.216-3.032c-0.879-2.163-1.659-4.059-2.334-5.682l-0.077-0.177c-1.986-4.312-4.641-7.489-7.896-9.442
		c-2.869-1.72-6.521-2.591-10.852-2.591c-0.568,0-1.152,0.014-1.841,0.049c-1.151,0.076-2.121,0.173-2.948,0.292
		c-2.897,0.405-5.7,2.83-5.427,7.387c0.3,4.238,2.689,5.659,4.134,6.144c0.606,0.199,1.404,0.368,2.684,0.562
		c0.733,0.099,1.096,0.23,1.211,0.279c0.034,0.015,0.133,0.059,0.278,0.202c0.172,0.172,0.448,0.502,0.788,1.091
		c0.408,0.706,0.851,1.596,1.336,2.681c1.063,2.331,2.187,4.946,3.342,7.771c1.199,2.931,2.413,5.979,3.645,9.136
		c1.24,3.186,2.48,6.386,3.721,9.604c1.278,3.316,2.594,6.441,3.913,9.285l1.398,3.018c0,0,3.616,0.339,4.327,0.339h5.509
		c5.917,0,6.342-6.596,6.802-13.724c0.183-2.67,0.471-5.644,1.099-8.612c0.276,1.812,0.696,3.581,1.277,5.286
		c1.141,3.349,2.853,6.337,5.089,8.881c2.306,2.625,5.209,4.704,8.631,6.179c3.359,1.448,7.215,2.183,11.46,2.183
		c4.696,0,8.963-1.123,12.685-3.337c2.865-1.706,5.337-3.951,7.379-6.603c0.215,0.624,0.453,1.214,0.733,1.731
		c-0.292,0.292-0.574,0.601-0.843,0.928c-2.115,2.567-3.232,5.682-3.232,9.006c0,3.184,0.774,5.989,2.307,8.343
		c1.469,2.244,3.511,4.046,6.083,5.355c2.2,1.117,4.818,1.91,7.778,2.358c2.634,0.401,5.562,0.604,8.705,0.604
		c3.989,0,7.701-0.379,11.034-1.125c3.527-0.794,6.662-2.01,9.322-3.621c1.043-0.632,1.978-1.345,2.861-2.095
		c-0.029,0.377-0.047,0.767-0.047,1.181c0,1.309,0.192,2.57,0.568,3.756l-1.575,14.234l2.826,1.726
		c2.747,1.678,6.068,2.743,9.834,3.166c0.974,0.117,1.99,0.177,3.014,0.177c2.229,0,4.346-0.311,6.302-0.908v0.328h16.974
		l-0.006-4.367c1.103,1.867,3.811,4.947,9.668,4.947c2.02,0,3.921-0.496,5.654-1.476c0.139-0.079,0.274-0.158,0.409-0.238
		c0.597,0.306,1.216,0.557,1.856,0.752c2.075,0.639,4.378,0.962,6.841,0.962c2.75,0,5.259-0.413,7.461-1.231
		c0.041-0.015,0.076-0.039,0.116-0.055v8.915l16.969,1.083v-8.725c0.209,0.009,0.418,0.013,0.627,0.013
		c6.448,0,9.814-3.096,11.502-5.693c1.993-3.065,3.003-7.045,3.003-11.832c0-4.185-0.766-7.927-2.277-11.126
		c-0.545-1.155-1.503-2.667-3.092-3.968c0.132-0.604,0.207-1.228,0.207-1.87c0-0.744-0.104-1.463-0.28-2.152
		c0.226,0.014,0.438,0.023,0.666,0.039l0.417,0.015c2.477,0,4.671-1.16,6.027-3.192c0.9-1.356,1.355-2.904,1.352-4.607
		L240.477,69.258z"/>
	<g>
		<defs>
			<path id="SVGID_1_" d="M143.506,85.02c-1.806,0.906-2.886,2.337-3.243,4.289c-0.075,0.418-0.115,0.905-0.115,1.464
				c0,1.753,0.542,3.247,1.627,4.486c1.086,1.24,2.61,2.115,4.579,2.626l0.977,0.233c1.255,0.294,2.243,0.554,2.964,0.779
				c0.72,0.225,1.324,0.515,1.813,0.871s0.732,0.791,0.732,1.302c0,0.79-0.356,1.353-1.068,1.685
				c-0.715,0.334-1.729,0.499-3.047,0.499c-1.284,0-2.816-0.246-4.591-0.743c-1.772-0.494-3.133-1.068-4.079-1.72l-0.581,5.253
				c2.108,1.287,4.688,2.1,7.741,2.441c0.774,0.093,1.573,0.14,2.395,0.14c1.781,0,3.423-0.241,4.927-0.721
				c1.504-0.48,2.731-1.286,3.685-2.418c0.953-1.13,1.43-2.618,1.43-4.463c0-1.952-0.774-3.571-2.325-4.858
				c-1.549-1.285-3.649-2.2-6.299-2.742c-1.503-0.278-2.61-0.619-3.323-1.023c-0.714-0.402-1.07-0.977-1.07-1.72
				c0-1.1,1.07-1.65,3.208-1.65c0.698,0,1.519,0.056,2.464,0.163c1.039,0.186,2.058,0.416,3.058,0.686
				c1,0.271,1.802,0.556,2.404,0.849l0.651-5.068c-0.976-0.541-2.162-1.01-3.556-1.405c-1.396-0.395-2.93-0.594-4.603-0.594
				C147.563,83.659,145.313,84.113,143.506,85.02"/>
		</defs>
		<clipPath id="SVGID_2_">
			<use xlink:href="#SVGID_1_"  overflow="visible"/>
		</clipPath>
		
			<linearGradient id="SVGID_3_" gradientUnits="userSpaceOnUse" x1="-72.9175" y1="273.9512" x2="-71.9175" y2="273.9512" gradientTransform="matrix(119.755 34.2157 34.2157 -119.755 -507.4109 35393.5469)">
			<stop  offset="0" style="stop-color:#FFBD0D"/>
			<stop  offset="0.1362" style="stop-color:#FA9B0B"/>
			<stop  offset="0.3003" style="stop-color:#F57909"/>
			<stop  offset="0.468" style="stop-color:#F25E07"/>
			<stop  offset="0.6385" style="stop-color:#EF4B06"/>
			<stop  offset="0.8136" style="stop-color:#EE4005"/>
			<stop  offset="1" style="stop-color:#ED3C05"/>
		</linearGradient>
		<polygon clip-path="url(#SVGID_2_)" fill="url(#SVGID_3_)" points="140.997,78.33 166.245,85.543 158.126,113.955 
			132.879,106.741 		"/>
	</g>
	<g>
		<defs>
			<path id="SVGID_4_" d="M193.679,101.279c-0.681-1.285-1.022-3.006-1.022-5.16c0-2.076,0.313-3.769,0.94-5.079
				c0.628-1.309,1.864-1.964,3.708-1.964c1.736,0,2.945,0.639,3.626,1.918c0.683,1.278,1.023,2.995,1.023,5.148
				c0,2.077-0.313,3.773-0.942,5.091c-0.627,1.317-1.863,1.975-3.707,1.975C195.57,103.208,194.361,102.566,193.679,101.279
				 M163.748,70.667c-0.825,0.618-1.725,1.156-2.654,1.653l0.021,35.723h6.555l-0.021-16.876c0.046-0.03,0.413-0.386,1.103-1.068
				c0.69-0.682,1.802-1.029,3.336-1.047c1.425,0,2.425,0.5,2.998,1.5c0.575,1,0.861,2.538,0.861,4.614v4.812
				c0,2.557,0.469,4.637,1.405,6.24c0.938,1.604,2.669,2.407,5.195,2.407c1.115,0,2.146-0.268,3.092-0.803
				c0.946-0.535,1.736-1.118,2.37-1.754c0.233-0.233,0.408-0.414,0.557-0.57c1.007,1.188,2.145,1.999,3.43,2.395
				c1.589,0.487,3.358,0.732,5.312,0.732c2.14,0,4.021-0.303,5.649-0.908c1.627-0.603,2.956-1.75,3.986-3.438
				c1.029-1.689,1.546-4.076,1.546-7.16v-1.929c0-3.331-0.582-5.847-1.743-7.543c-1.163-1.697-2.538-2.789-4.127-3.277
				c-1.587-0.488-3.359-0.733-5.312-0.733c-2.138,0-4.021,0.304-5.647,0.907c-1.627,0.604-2.957,1.755-3.986,3.452
				c-1.031,1.696-1.547,4.088-1.547,7.171v1.905c0,2.114,0.261,3.86,0.729,5.314c-0.153,0.116-0.306,0.233-0.485,0.346
				c-0.504,0.318-1.064,0.477-1.685,0.477c-0.604,0-1.062-0.205-1.371-0.616c-0.311-0.409-0.519-1.018-0.628-1.823
				c-0.108-0.806-0.162-1.898-0.162-3.278v-4.091c0-3.207-0.612-5.637-1.837-7.287c-1.225-1.651-3.246-2.477-6.066-2.477
				c-1.132,0-2.213,0.223-3.243,0.663c-1.03,0.441-1.906,0.928-2.627,1.453c-0.72,0.527-1.081,0.814-1.081,0.86V71.997
				c-0.893-0.901-1.546-1.974-1.948-3.211C165.162,69.474,164.501,70.103,163.748,70.667"/>
		</defs>
		<clipPath id="SVGID_5_">
			<use xlink:href="#SVGID_4_"  overflow="visible"/>
		</clipPath>
		
			<linearGradient id="SVGID_6_" gradientUnits="userSpaceOnUse" x1="-72.9175" y1="273.9951" x2="-71.9175" y2="273.9951" gradientTransform="matrix(119.755 34.2157 34.2157 -119.755 -504.2859 35382.7969)">
			<stop  offset="0" style="stop-color:#FFBD0D"/>
			<stop  offset="0.1362" style="stop-color:#FA9B0B"/>
			<stop  offset="0.3003" style="stop-color:#F57909"/>
			<stop  offset="0.468" style="stop-color:#F25E07"/>
			<stop  offset="0.6385" style="stop-color:#EF4B06"/>
			<stop  offset="0.8136" style="stop-color:#EE4005"/>
			<stop  offset="1" style="stop-color:#ED3C05"/>
		</linearGradient>
		<polygon clip-path="url(#SVGID_5_)" fill="url(#SVGID_6_)" points="164.67,56.267 219.01,71.793 204.91,121.145 150.57,105.618 		
			"/>
	</g>
	<g>
		<defs>
			<path id="SVGID_7_" d="M218.9,102.965c-0.62-0.163-1.15-0.341-1.593-0.535c-0.441-0.193-0.662-0.298-0.662-0.313V91.795
				c0.371-0.588,0.93-1.185,1.674-1.79c0.744-0.603,1.711-0.905,2.905-0.905c0.729,0,1.396,0.271,1.999,0.813
				c0.604,0.542,1.083,1.324,1.44,2.347c0.356,1.023,0.535,2.226,0.535,3.604c0,1.116-0.124,2.224-0.372,3.324
				s-0.697,2.046-1.348,2.836c-0.651,0.79-1.534,1.185-2.65,1.185C220.163,103.208,219.518,103.127,218.9,102.965 M220.015,84.229
				c-0.883,0.395-1.612,0.845-2.185,1.348c-0.574,0.504-0.969,0.935-1.186,1.29v-2.952l-6.555,0.651v32.007l6.555,0.419v-10.228
				c0.682,0.544,1.549,0.987,2.604,1.337c1.053,0.349,2.13,0.523,3.231,0.523c3.314,0,5.693-1.107,7.136-3.325
				c1.44-2.215,2.161-5.214,2.161-8.995c0-3.425-0.593-6.392-1.777-8.902c-1.186-2.51-3.546-3.767-7.079-3.767
				C221.866,83.636,220.899,83.834,220.015,84.229"/>
		</defs>
		<clipPath id="SVGID_8_">
			<use xlink:href="#SVGID_7_"  overflow="visible"/>
		</clipPath>
		
			<linearGradient id="SVGID_9_" gradientUnits="userSpaceOnUse" x1="-72.9175" y1="273.957" x2="-71.9175" y2="273.957" gradientTransform="matrix(119.755 34.2157 34.2157 -119.755 -503.2859 35379.3594)">
			<stop  offset="0" style="stop-color:#FFBD0D"/>
			<stop  offset="0.1362" style="stop-color:#FA9B0B"/>
			<stop  offset="0.3003" style="stop-color:#F57909"/>
			<stop  offset="0.468" style="stop-color:#F25E07"/>
			<stop  offset="0.6385" style="stop-color:#EF4B06"/>
			<stop  offset="0.8136" style="stop-color:#EE4005"/>
			<stop  offset="1" style="stop-color:#ED3C05"/>
		</linearGradient>
		<polygon clip-path="url(#SVGID_8_)" fill="url(#SVGID_9_)" points="211.727,77.908 240.587,86.153 230.14,122.721 201.28,114.475 
					"/>
	</g>
	<g>
		<defs>
			<path id="SVGID_10_" d="M62.271,36.688c1.833-2.222,4.099-3.302,6.924-3.302c1.306,0,2.455,0.244,3.415,0.726
				c0.965,0.482,1.78,1.147,2.424,1.975c0.655,0.85,1.155,1.835,1.481,2.928c0.334,1.117,0.504,2.276,0.507,3.381
				c-0.1,1.144-0.46,1.913-1.105,2.351c-0.702,0.477-1.701,0.718-2.974,0.718H59.191C59.503,41.736,60.538,38.786,62.271,36.688
				 M67.699,28.852c-0.638,0.208-1.318,0.293-1.979,0.227c-1.845,0.3-3.581,0.816-5.159,1.604c-2.514,1.258-4.693,2.939-6.477,4.998
				c-1.779,2.055-3.161,4.416-4.109,7.017c-0.947,2.597-1.428,5.251-1.428,7.885c0,2.986,0.464,5.859,1.378,8.541
				c0.92,2.699,2.29,5.096,4.072,7.124c1.793,2.041,4.074,3.667,6.78,4.834c2.705,1.165,5.865,1.756,9.4,1.756
				c3.746,0,7.117-0.876,10.019-2.603c2.885-1.717,5.31-4.112,7.202-7.101c0.353-0.529,0.449-1.166,0.28-1.843
				c-0.166-0.664-0.576-1.205-1.212-1.606c-0.522-0.335-1.002-0.498-1.464-0.498c-0.404,0-0.988,0.131-1.533,0.82
				c-1.596,2.566-3.254,4.375-4.929,5.378c-1.657,0.995-3.691,1.501-6.043,1.501c-2.373,0-4.422-0.425-6.093-1.262
				c-1.666-0.832-3.045-2.013-4.098-3.511c-1.073-1.522-1.875-3.359-2.386-5.459c-0.468-1.922-0.728-4.042-0.774-6.31h20.939
				c1.967,0,3.606-0.363,4.871-1.077c1.406-0.792,2.12-2.392,2.116-4.815c-0.182-2.213-0.696-4.305-1.531-6.218
				c-0.837-1.924-2.006-3.61-3.47-5.015c-1.468-1.403-3.297-2.508-5.438-3.284c-2.124-0.771-4.627-1.161-7.438-1.161
				C68.685,28.776,68.193,28.82,67.699,28.852"/>
		</defs>
		<clipPath id="SVGID_11_">
			<use xlink:href="#SVGID_10_"  overflow="visible"/>
		</clipPath>
		
			<linearGradient id="SVGID_12_" gradientUnits="userSpaceOnUse" x1="-72.9175" y1="273.9512" x2="-71.9175" y2="273.9512" gradientTransform="matrix(218.1871 26.2816 26.2816 -218.1871 8720.6074 61732.7734)">
			<stop  offset="0" style="stop-color:#9FEF26"/>
			<stop  offset="0.0178" style="stop-color:#9DEA21"/>
			<stop  offset="0.102" style="stop-color:#95D70F"/>
			<stop  offset="0.1886" style="stop-color:#91CC04"/>
			<stop  offset="0.2809" style="stop-color:#8FC800"/>
			<stop  offset="1" style="stop-color:#1D9632"/>
		</linearGradient>
		<polygon clip-path="url(#SVGID_11_)" fill="url(#SVGID_12_)" points="49.108,24.11 93.078,29.406 87.285,77.504 43.315,72.208 		
			"/>
	</g>
	<g>
		<defs>
			<path id="SVGID_13_" d="M106.479,50.814c-1.622-1.805-2.443-4.48-2.443-7.95c0-3.168,0.802-5.627,2.386-7.314
				c1.593-1.696,3.575-2.521,6.063-2.521c2.543,0,4.57,0.853,6.193,2.607c1.617,1.747,2.436,4.239,2.436,7.406
				c0,3.408-0.807,6.038-2.399,7.816c-1.593,1.777-3.602,2.641-6.14,2.641C110.092,53.499,108.099,52.621,106.479,50.814
				 M134.573,28.164l-11.987,2.273c-1.325-0.627-2.899-1.079-4.681-1.344c-4.703-0.688-8.991-0.508-12.575,0.702
				c-2.185,0.74-4.094,1.757-5.673,3.026c-1.596,1.284-2.849,2.823-3.725,4.577c-0.88,1.76-1.328,3.673-1.328,5.688
				c0,1.192,0.158,2.398,0.47,3.581c0.319,1.211,0.866,2.387,1.625,3.49c0.757,1.103,1.786,2.152,3.063,3.117
				c0.643,0.487,1.379,0.946,2.204,1.377c-1.996,0.385-3.586,1.197-4.749,2.427c-1.675,1.774-2.524,3.883-2.524,6.27
				c0,2.681,0.809,4.625,2.404,5.777c1.48,1.075,3.343,1.811,5.517,2.185c1.574,0.301,3.324,0.485,5.206,0.547
				c1.848,0.059,3.697,0.104,5.547,0.134c1.831,0.03,3.615,0.119,5.303,0.266c1.651,0.142,3.123,0.429,4.376,0.856
				c1.186,0.403,2.149,0.998,2.865,1.766c0.676,0.726,1.004,1.684,1.004,2.93c0,2.968-1.054,5.084-3.225,6.469
				c-2.249,1.434-5.358,2.16-9.241,2.16c-4.219,0-7.348-0.431-9.299-1.278c-1.771-0.769-2.632-2.355-2.632-4.851
				c0-0.788,0.115-1.456,0.342-1.984c0.237-0.554,0.511-1.015,0.818-1.37c0.33-0.385,0.618-0.691,0.866-0.91
				c0.322-0.286,0.652-0.639,0.652-1.093c0-0.357-0.166-0.731-0.52-1.178c-0.279-0.348-0.658-0.696-1.13-1.034
				c-0.47-0.334-1.024-0.62-1.648-0.851c-0.643-0.237-1.375-0.358-2.176-0.358c-2.306,0-4.182,0.856-5.573,2.547
				c-1.357,1.647-2.044,3.563-2.044,5.695c0,2.16,0.492,4.008,1.459,5.494c0.963,1.473,2.335,2.672,4.079,3.56
				c1.704,0.865,3.792,1.49,6.206,1.856c2.377,0.361,5.043,0.545,7.922,0.545c3.611,0,6.939-0.337,9.892-0.999
				c2.98-0.671,5.592-1.678,7.765-2.992c2.204-1.336,3.924-2.997,5.114-4.936c1.197-1.954,1.805-4.218,1.805-6.725
				c0-3.75-1.488-6.702-4.421-8.774c-2.853-2.015-7.56-3.036-13.972-3.036h-0.003l-12.205-0.355
				c-2.251-0.137-3.231-0.551-3.656-0.877c-0.554-0.419-0.822-1.029-0.822-1.862c0-1.065,0.523-1.784,1.644-2.263
				c1.304-0.551,3.473-0.831,6.449-0.831h3.927c2.089,0,4.191-0.328,6.248-0.971c2.068-0.649,3.945-1.604,5.58-2.839
				c1.656-1.251,3.002-2.801,3.997-4.61c1.01-1.827,1.521-3.9,1.521-6.159c0-1.579-0.38-3.27-1.132-5.025
				c-0.505-1.182-1.092-2.218-1.75-3.096l7.316,0.294c0.527,0,1.25-0.272,1.688-1.578c0.262-0.79,0.394-1.649,0.394-2.556
				c0-0.647-0.146-1.269-0.436-1.851c-0.339-0.674-0.975-1.045-1.793-1.045C134.833,28.14,134.74,28.145,134.573,28.164"/>
		</defs>
		<clipPath id="SVGID_14_">
			<use xlink:href="#SVGID_13_"  overflow="visible"/>
		</clipPath>
		
			<linearGradient id="SVGID_15_" gradientUnits="userSpaceOnUse" x1="-72.9175" y1="273.9473" x2="-71.9175" y2="273.9473" gradientTransform="matrix(218.1871 26.2816 26.2816 -218.1871 8720.3574 61735.2734)">
			<stop  offset="0" style="stop-color:#9FEF26"/>
			<stop  offset="0.0178" style="stop-color:#9DEA21"/>
			<stop  offset="0.102" style="stop-color:#95D70F"/>
			<stop  offset="0.1886" style="stop-color:#91CC04"/>
			<stop  offset="0.2809" style="stop-color:#8FC800"/>
			<stop  offset="1" style="stop-color:#1D9632"/>
		</linearGradient>
		<polygon clip-path="url(#SVGID_14_)" fill="url(#SVGID_15_)" points="92.749,22.792 144.64,29.042 136.505,96.574 84.614,90.324 
					"/>
	</g>
	<g>
		<defs>
			<path id="SVGID_16_" d="M151.362,64.765c-0.976-1.244-1.448-2.701-1.448-4.452c0-1.333,0.318-2.485,0.946-3.427
				c0.639-0.96,1.61-1.776,2.888-2.427c1.336-0.681,3.063-1.261,5.134-1.722c1.9-0.421,4.115-0.802,6.592-1.13v4.153
				c0,1.497-0.281,2.933-0.836,4.266c-0.554,1.33-1.321,2.477-2.285,3.412c-0.972,0.944-2.113,1.706-3.394,2.263
				c-1.267,0.551-2.608,0.829-3.988,0.829C153.473,66.53,152.292,65.952,151.362,64.765 M152.286,29.28
				c-1.762,0.34-3.363,0.89-4.761,1.634c-1.437,0.767-2.618,1.788-3.513,3.035c-0.921,1.281-1.389,2.855-1.389,4.674
				c0,1.817,0.542,3.495,1.613,4.987c1.126,1.567,2.784,2.362,4.933,2.362c1.369,0,2.479-0.362,3.299-1.075
				c0.899-0.782,1.283-1.35,1.283-1.9c0-0.414-0.287-0.675-0.727-1.027c-0.278-0.223-0.585-0.503-0.92-0.84
				c-0.304-0.302-0.59-0.706-0.851-1.204c-0.243-0.458-0.361-0.972-0.361-1.571c0-1.792,0.604-3.116,1.846-4.046
				c1.31-0.982,2.71-1.458,4.285-1.458c3.148,0,5.362,0.71,6.578,2.109c1.243,1.432,1.871,3.475,1.871,6.073v6.387
				c-0.831,0.085-1.878,0.162-3.18,0.234c-1.662,0.092-3.484,0.274-5.416,0.541c-1.954,0.272-3.965,0.682-5.981,1.223
				c-2.04,0.547-3.921,1.325-5.588,2.311c-1.69,1.003-3.104,2.306-4.202,3.873c-1.124,1.608-1.696,3.585-1.696,5.871
				c0,1.591,0.324,3.093,0.963,4.465c0.629,1.354,1.478,2.555,2.521,3.565c1.047,1.015,2.295,1.831,3.712,2.429
				c2.545,1.075,5.429,1.137,8.827,0.445c1.509-0.31,3.001-0.791,4.439-1.435c0.472-0.211,0.919-0.462,1.371-0.705
				c0.929-0.498,1.828-1.035,2.653-1.654c0.755-0.564,1.413-1.193,1.974-1.88c0.402,1.236,1.055,2.309,1.949,3.211
				c0.302,0.306,0.632,0.593,0.99,0.858c1.849,1.371,3.979,2.064,6.335,2.064c0.377,0,0.862-0.031,1.468-0.095
				c0.614-0.069,1.213-0.185,1.771-0.345c0.62-0.176,1.153-0.434,1.586-0.765c0.541-0.414,0.828-0.983,0.828-1.646
				c0-0.604-0.072-1.453-0.703-1.863c-0.359-0.229-0.826-0.345-1.38-0.345c-0.744,0-1.358-0.154-1.83-0.459
				c-0.502-0.324-0.91-0.718-1.211-1.168c-0.308-0.459-0.528-0.951-0.655-1.461c-0.134-0.531-0.201-1.009-0.201-1.422v-20.75
				c0-2.851-0.529-5.209-1.572-7.008c-1.039-1.789-2.401-3.212-4.049-4.224c-1.621-0.997-3.483-1.674-5.534-2.016
				c-1.921-0.317-3.899-0.498-5.879-0.498C155.936,28.775,154.09,28.932,152.286,29.28"/>
		</defs>
		<clipPath id="SVGID_17_">
			<use xlink:href="#SVGID_16_"  overflow="visible"/>
		</clipPath>
		
			<linearGradient id="SVGID_18_" gradientUnits="userSpaceOnUse" x1="-72.9175" y1="273.9531" x2="-71.9175" y2="273.9531" gradientTransform="matrix(218.1871 26.2816 26.2816 -218.1871 8721.8574 61722.5234)">
			<stop  offset="0" style="stop-color:#9FEF26"/>
			<stop  offset="0.0178" style="stop-color:#9DEA21"/>
			<stop  offset="0.102" style="stop-color:#95D70F"/>
			<stop  offset="0.1886" style="stop-color:#91CC04"/>
			<stop  offset="0.2809" style="stop-color:#8FC800"/>
			<stop  offset="1" style="stop-color:#1D9632"/>
		</linearGradient>
		<polygon clip-path="url(#SVGID_17_)" fill="url(#SVGID_18_)" points="140.001,23.861 186.055,29.409 180.205,77.983 
			134.15,72.436 		"/>
	</g>
	<g>
		<defs>
			<path id="SVGID_19_" d="M79.966,5.073C63.806,6.076,44.991,26.869,38.23,40.351c-1.467,2.926-6.824,13.146-5.371,16.407
				c-0.446-1-0.891-2.041-1.336-3.138c-0.941-2.319-1.864-4.651-2.77-7.004c-0.907-2.349-1.798-4.599-2.669-6.749
				c-0.874-2.148-1.648-4.03-2.319-5.642c-1.545-3.357-3.492-5.743-5.842-7.153c-2.352-1.41-5.576-2.015-9.672-1.814
				c-1.007,0.068-1.864,0.152-2.569,0.253c-0.705,0.1-1.025,0.721-0.957,1.863c0.067,0.941,0.252,1.461,0.554,1.563
				c0.303,0.1,0.89,0.218,1.763,0.353c1.008,0.134,1.864,0.352,2.569,0.653c0.706,0.302,1.343,0.74,1.914,1.31
				c0.57,0.571,1.108,1.295,1.612,2.167c0.504,0.874,1.024,1.913,1.562,3.122c1.074,2.353,2.216,5.005,3.425,7.959
				c1.21,2.957,2.434,6.029,3.678,9.219c1.242,3.191,2.484,6.396,3.727,9.62c1.242,3.227,2.502,6.215,3.779,8.969h0.176
				c0.212,0.209,0.503,0.339,0.824,0.339h5.509c1.091,0,1.559-8.158,1.608-8.874c0.333-4.861,0.921-9.627,2.557-14.245
				c3.276-9.253,9.346-18.625,16.943-24.894c4.158-3.431,9.321-6.423,14.438-8.18c0.245-0.084,2.517,1.734,5.177,3.552
				c2.726,1.862,5.86,3.724,7.645,3.542c6.524-0.669,9.365-7.129,6.228-12.757C88.63,7.592,85.187,5.05,80.71,5.05
				C80.465,5.05,80.217,5.058,79.966,5.073"/>
		</defs>
		<clipPath id="SVGID_20_">
			<use xlink:href="#SVGID_19_"  overflow="visible"/>
		</clipPath>
		
			<linearGradient id="SVGID_21_" gradientUnits="userSpaceOnUse" x1="-72.9175" y1="273.9473" x2="-71.9175" y2="273.9473" gradientTransform="matrix(218.1871 26.2816 26.2816 -218.1871 8721.8574 61722.6484)">
			<stop  offset="0" style="stop-color:#9FEF26"/>
			<stop  offset="0.0178" style="stop-color:#9DEA21"/>
			<stop  offset="0.102" style="stop-color:#95D70F"/>
			<stop  offset="0.1886" style="stop-color:#91CC04"/>
			<stop  offset="0.2809" style="stop-color:#8FC800"/>
			<stop  offset="1" style="stop-color:#1D9632"/>
		</linearGradient>
		<polygon clip-path="url(#SVGID_20_)" fill="url(#SVGID_21_)" points="5.929,-5.504 101.577,6.017 92.279,83.201 -3.368,71.681 		
			"/>
	</g>
	<path fill="#4C2714" d="M265.315,9.593c-0.44-0.193-0.877-0.384-1.304-0.604c-0.832-0.431-1.654-1.034-2.614-1.74l-0.715-0.521
		c-0.476-0.345-0.979-0.652-1.506-0.939c-1.698-0.925-3.603-0.939-5.367-0.031c-1.082,0.562-2.11,1.298-3.14,2.25
		c-1.962,1.811-3.513,3.643-4.764,5.639l-0.112,0.187c-0.253,0.427-0.475,0.877-0.653,1.326c-0.543,1.352-0.595,2.504-0.442,3.419
		c-0.621,1.658-0.46,3.44,0.48,4.932c0.641,1.015,1.3,1.901,2.011,2.706c1.126,1.275,2.628,1.936,4.193,1.89
		c1.232,0.839,2.405,1.59,3.781,2.239c0.631,0.298,1.31,0.488,2.028,0.569c0.015,0.504,0.027,1.021,0.039,1.559
		c-0.931,1.419-1.771,2.869-2.504,4.305c-0.147-0.093-0.296-0.184-0.445-0.274c-2.516-1.502-4.993-2.494-7.579-3.035
		c-3.763-0.787-7.604-0.164-10.536,1.713c-2.006,1.284-4.748,3.409-6.419,6.238c-0.749,1.267-1.225,2.579-1.419,3.901
		c-0.733,5.024-0.273,9.584,1.368,13.553l0.317,0.77l0.578,0.596c2.342,2.418,4.976,4.293,7.01,5.66
		c1.518,1.019,3.168,2.087,4.947,2.996c3.408,1.743,7.107,2.66,10.989,2.726c1.879,0.032,3.771-0.141,5.626-0.513l0.577,0.212
		c0.796,0.294,1.593,0.585,2.41,0.827c2.169,0.642,4.383,0.462,6.399-0.521c0.783-0.382,1.585-0.714,2.465-1.078
		c0.878-0.366,1.756-0.734,2.611-1.145c0.762-0.365,1.396-0.767,1.98-1.151c0.807-0.528,1.458-1.205,1.934-2.012
		c0.583-0.985,0.876-2.129,0.871-3.359c0.002-0.266,0.01-0.885-0.19-1.469c-0.008-0.14,0.054-0.557,0.1-0.866
		c0.05-0.329,0.098-0.656,0.13-0.974c0.093-0.851,0.203-1.701,0.323-2.614c0.265-2.027,0.538-4.123,0.585-6.326
		c0.039-1.839-0.05-3.771-0.279-6.076c-0.252-2.576-0.714-5.066-1.169-7.528c-0.157-0.842-0.314-1.683-0.46-2.527
		c-0.816-4.688-1.764-9.301-2.588-13.258c-0.543-2.605-1.379-4.666-2.63-6.488c-1.154-1.677-2.711-3.031-4.756-4.14
		C266.789,10.247,266.075,9.929,265.315,9.593"/>
	<path fill="#ED6000" d="M263.6,13.968c-0.532-0.234-1.083-0.476-1.613-0.751c-1.16-0.601-2.216-1.376-3.236-2.126
		c-0.227-0.166-0.453-0.333-0.681-0.498c-0.286-0.206-0.605-0.404-1.007-0.623c-0.325-0.177-0.618-0.173-0.979,0.015
		c-0.728,0.376-1.396,0.864-2.124,1.536c-1.65,1.522-2.942,3.042-3.948,4.648c-0.165,0.262-0.304,0.534-0.414,0.809
		c-0.361,0.9-0.241,1.241,0.611,1.731c0.025,0.015,0.053,0.028,0.079,0.042c0.14,0.069-0.705,0.881-0.891,1.161
		c-0.328,0.499-0.368,0.831-0.144,1.186c0.504,0.8,1.013,1.489,1.558,2.106c0.248,0.281,0.477,0.363,0.764,0.277
		c0.499-0.15,1.528-0.46,2.16,0.571c1.217,0.837,2.329,1.576,3.546,2.15c0.298,0.14,0.642,0.19,1.08,0.158
		c1.084-0.079,1.906-0.171,2.665-0.298c0.157-0.025,0.385-0.043,0.563,0.099c0.177,0.141,0.211,0.363,0.221,0.54
		c0.115,2.043,0.191,4.272,0.232,6.814c0.004,0.288-0.074,0.542-0.248,0.797c-1.834,2.69-3.216,5.267-4.225,7.876
		c-0.369,0.957-0.631,1.807-0.8,2.6l-0.047,0.219l-0.222,0.025c-0.227,0.025-0.394-0.073-0.496-0.292
		c-0.797-1.661-2.104-3.015-3.995-4.145c-2.065-1.232-4.076-2.042-6.149-2.475c-4.165-0.871-7.099,0.809-10.093,3.585
		c-3.325,3.085-5.162,11.803-1.655,15.409c2.026,2.084,4.385,3.759,6.214,4.987c1.613,1.083,2.991,1.96,4.473,2.717
		c2.768,1.415,5.776,2.16,8.942,2.213c1.65,0.028,3.313-0.136,4.943-0.487c0.825-0.179,1.537,0.016,2.125,0.229
		c0.223,0.081,0.445,0.163,0.668,0.245c0.69,0.256,1.405,0.52,2.12,0.731c1.047,0.31,2.067,0.229,3.032-0.241
		c0.867-0.422,1.767-0.796,2.638-1.158c0.816-0.339,1.659-0.69,2.466-1.077c0.44-0.211,0.947-0.522,1.436-0.843
		c0.483-0.318,0.697-0.768,0.694-1.457v-0.067c0.001-0.067,0.001-0.137-0.01-0.174c-0.303-0.962-0.164-1.895-0.029-2.797
		c0.039-0.26,0.078-0.52,0.106-0.78c0.097-0.904,0.217-1.82,0.333-2.705c0.249-1.908,0.507-3.88,0.548-5.833
		c0.034-1.645-0.047-3.4-0.256-5.521c-0.237-2.398-0.684-4.806-1.116-7.135c-0.159-0.858-0.317-1.716-0.468-2.575
		c-0.8-4.596-1.74-9.175-2.559-13.107c-0.411-1.978-1.018-3.5-1.904-4.791c-0.728-1.057-1.751-1.933-3.13-2.679
		C264.805,14.497,264.192,14.228,263.6,13.968"/>
	<g>
		<defs>
			<path id="SVGID_22_" d="M256.61,11.915c-0.357,0.108-0.723,0.262-1.116,0.47c-0.312,0.169-0.545,0.413-0.687,0.731
				c-0.726,1.64-1.556,3.048-2.535,4.305c-0.909,1.169-0.478,2.316-0.073,3.078c0.053,0.099,0.142,0.236,0.302,0.281
				c0.099,0.028,0.203,0.014,0.292-0.039c0.108-0.064,0.17-0.17,0.22-0.263l0.381-0.712c0.517-0.96,1.05-1.951,1.534-2.952
				c0.243-0.504,0.509-1.059,0.769-1.636c-0.035,0.388-0.132,0.803-0.292,1.266c-0.196,0.564-0.461,1.118-0.719,1.653
				c-0.194,0.406-0.395,0.825-0.568,1.254l-0.078,0.192c-0.196,0.474-0.396,0.963-0.461,1.511c-0.094,0.812,0.543,1.644,1.337,1.747
				c0.131,0.017,0.245-0.004,0.339-0.061c0.194-0.115,0.22-0.32,0.232-0.418c0.005-0.037,0.087-0.318,0.087-0.318
				c0.193-0.658,0.393-1.339,0.669-1.972l0.153-0.347c0.325-0.748,0.652-1.495,0.971-2.246c0.162-0.382,0.326-0.783,0.461-1.205
				c0.169,0.416,0.228,0.834,0.046,1.301l-0.298,0.765c-0.32,0.818-0.651,1.663-0.953,2.505c-0.289,0.804-0.461,1.637-0.592,2.346
				c-0.044,0.239,0.025,0.423,0.219,0.578c0.646,0.519,1.535,1.136,2.682,1.309c0.526,0.08,1.119-0.049,1.629-0.353
				c0.396-0.236,0.714-0.554,0.916-0.92c0.133-0.237,0.192-0.578-0.264-0.863l-0.216-0.135c-0.386-0.241-0.785-0.49-1.19-0.722
				c-0.063-0.036-0.085-0.059-0.088-0.06c0-0.007,0.003-0.035,0.028-0.096c0.054-0.133,0.108-0.266,0.161-0.4
				c0.079-0.198,0.16-0.4,0.247-0.601c0.564,0.787,0.896,0.823,2.083,0.436c-0.026,0.13-0.023,0.28,0.051,0.442l0.029,0.066
				c0.054,0.125,0.121,0.28,0.258,0.412c1.385,1.325,2.858,1.982,4.511,2.008c0.145,0.003,0.282-0.007,0.427-0.028
				c-0.34,0.487-0.698,0.945-1.125,1.342c-0.225,0.212-0.296,0.42-0.244,0.719c0.568,3.29,1.19,7.175,1.494,11.047
				c0.159,2.049-1.177,1.734-2.207,1.42c-0.482-0.147-0.899-0.295-1.062-0.199c-0.188,0.112-0.358,0.284-0.505,0.511
				c-2.168,3.34-1.491,8.493-0.458,12.087c0.325,1.132,2.433,7.662,3.755,7.668c-0.071-0.001-0.146-0.004-0.22-0.008l-0.077-0.003
				c-1.962-0.082-3.663-0.498-5.2-1.271c-1.954-0.985-3.452-2.853-4.588-4.673c-1.649-2.644-0.76-5.784-2.947-8.246
				c-1.839-2.07-4.56-3.382-7.345-3.448c-3.447-0.08-6.192,3.013-6.94,6.113c-1.702,7.051,6.945,13.941,12.876,15.584
				c1.491,0.413,3.102,0.815,4.778,0.965c1.016,0.09,2.107,0.139,3.212-0.108c0.051-0.006,0.133-0.013,0.233-0.07
				c0.391-0.235,0.647-0.093,1.107,0.197l0.091,0.056c1.159,0.723,2.193,1.169,3.252,1.404c0.603,0.134,1.23,0.09,1.918-0.135
				c0.82-0.267,1.603-0.619,2.324-1.05c0.392-0.232,0.774-0.494,1.138-0.774c0.963-0.744,1.023-1.538,0.906-2.071
				c-0.193-0.884-0.027-1.727,0.147-2.621c0.046-0.234,0.092-0.469,0.131-0.703c0.667-3.975,1.021-7.305,1.115-10.481
				c0.07-2.427-0.024-4.295-0.308-6.057c-0.064-0.4-0.131-0.799-0.196-1.199c-0.146-0.879-0.296-1.789-0.424-2.685
				c-0.079-0.55-0.157-1.101-0.234-1.653c-0.439-3.113-0.894-6.332-1.542-9.47c-0.453-2.188-1.011-4.165-1.704-6.044
				c-0.648-1.756-1.854-3.058-3.684-3.984c-0.894-0.451-1.807-0.891-2.688-1.318l-0.517-0.25c-0.579-0.28-1.079-0.688-1.608-1.119
				l-0.232-0.189c-0.56-0.451-1.121-0.897-1.685-1.342c-0.345-0.272-0.691-0.356-1-0.356C257.008,11.809,256.79,11.86,256.61,11.915
				"/>
		</defs>
		<clipPath id="SVGID_23_">
			<use xlink:href="#SVGID_22_"  overflow="visible"/>
		</clipPath>
		
			<linearGradient id="SVGID_24_" gradientUnits="userSpaceOnUse" x1="-72.9175" y1="273.9609" x2="-71.9175" y2="273.9609" gradientTransform="matrix(102.4774 -18.1114 -18.1114 -102.4774 12667.4922 26796.7813)">
			<stop  offset="0" style="stop-color:#FFBD0D"/>
			<stop  offset="0.1362" style="stop-color:#FA9B0B"/>
			<stop  offset="0.3003" style="stop-color:#F57909"/>
			<stop  offset="0.468" style="stop-color:#F25E07"/>
			<stop  offset="0.6385" style="stop-color:#EF4B06"/>
			<stop  offset="0.8136" style="stop-color:#EE4005"/>
			<stop  offset="1" style="stop-color:#ED3C05"/>
		</linearGradient>
		<polygon clip-path="url(#SVGID_23_)" fill="url(#SVGID_24_)" points="228.95,13.434 272.083,5.811 282.335,63.819 239.202,71.443 
					"/>
	</g>
	<g>
		<defs>
			<path id="SVGID_25_" d="M197.719,28.334c-0.537,0.07-1.074,0.203-1.595,0.399c-0.468,0.176-1.113,0.394-1.929,0.657
				c-0.824,0.264-1.889,0.561-3.168,0.879c-1.277,0.321-2.936,0.632-4.998,0.939c-0.637,0.16-1.132,0.456-1.471,0.88
				c-0.344,0.432-0.521,0.918-0.521,1.447c0,1.246,0.396,2.01,1.18,2.269c0.52,0.173,1.093,0.26,1.706,0.26
				c1.397,0,2.114,0.221,2.468,0.407c0.481,0.251,0.811,0.578,1.01,0.997c0.22,0.463,0.331,1.016,0.331,1.645v24.994
				c0,0.629-0.111,1.183-0.331,1.646c-0.197,0.419-0.527,0.744-1.011,0.996c-0.353,0.186-1.066,0.406-2.467,0.406
				c-0.656,0-1.181,0.051-1.608,0.157c-1.028,0.256-1.21,1.642-1.277,2.192c0,0.628,0.163,1.189,0.481,1.661
				c0.377,0.568,0.959,0.869,1.736,0.869h0.007c1.694-0.12,3.272-0.193,4.694-0.222c2.845-0.064,6.206-0.064,9.118,0
				c1.446,0.028,3.041,0.102,4.79,0.223c0.726,0,1.311-0.301,1.689-0.868c0.32-0.48,0.482-1.041,0.481-1.712
				c-0.085-1.255-0.503-1.978-1.247-2.146c-0.446-0.102-0.967-0.154-1.548-0.154c-1.129,0-1.979-0.138-2.527-0.415
				c-0.504-0.249-0.844-0.573-1.041-0.989c-0.22-0.461-0.33-1.015-0.33-1.644V40.754c0.215-0.429,0.586-0.932,1.101-1.495
				c0.588-0.644,1.329-1.284,2.201-1.904c0.866-0.614,1.901-1.138,3.079-1.557c1.901-0.681,4.308-0.948,6.799-0.171
				c0.942,0.297,1.787,0.761,2.509,1.376c0.718,0.612,1.314,1.413,1.772,2.385c0.458,0.968,0.688,2.152,0.688,3.52v18.921
				c0,0.766-0.016,1.516-0.045,2.247c-0.026,0.641-0.152,1.205-0.374,1.675c-0.199,0.421-0.53,0.746-1.014,0.998
				c-0.513,0.271-1.343,0.406-2.465,0.406c-0.584,0-1.105,0.053-1.551,0.154c-0.743,0.169-1.163,0.893-1.246,2.195
				c0,0.627,0.163,1.187,0.481,1.663c0.377,0.566,0.961,0.867,1.735,0.867h0.009c1.692-0.12,3.271-0.193,4.692-0.222
				c2.849-0.064,6.205-0.064,9.119,0c1.445,0.028,3.041,0.102,4.738,0.222l0.052,0.001c0.726,0,1.31-0.301,1.69-0.868
				c0.318-0.48,0.481-1.041,0.48-1.713c-0.086-1.254-0.506-1.977-1.247-2.146c-0.445-0.102-0.967-0.154-1.549-0.154
				c-1.128,0-1.978-0.138-2.526-0.415c-0.506-0.249-0.845-0.573-1.041-0.989c-0.22-0.461-0.331-1.015-0.331-1.644V42.818
				c0-4.165-1.256-7.582-3.734-10.156c-2.486-2.579-5.925-3.886-10.218-3.886c-1.965,0-3.704,0.22-5.166,0.655
				c-1.448,0.43-2.769,0.996-3.917,1.68c-1.136,0.673-2.182,1.438-3.109,2.273c-0.568,0.511-1.136,1.028-1.704,1.553v-4.169
				c0-0.961-0.269-1.644-0.8-2.033c-0.388-0.279-0.831-0.426-1.353-0.426C197.979,28.309,197.851,28.317,197.719,28.334"/>
		</defs>
		<clipPath id="SVGID_26_">
			<use xlink:href="#SVGID_25_"  overflow="visible"/>
		</clipPath>
		
			<linearGradient id="SVGID_27_" gradientUnits="userSpaceOnUse" x1="-72.9175" y1="273.957" x2="-71.9175" y2="273.957" gradientTransform="matrix(218.1871 26.2816 26.2816 -218.1871 8722.4824 61716.7734)">
			<stop  offset="0" style="stop-color:#9FEF26"/>
			<stop  offset="0.0178" style="stop-color:#9DEA21"/>
			<stop  offset="0.102" style="stop-color:#95D70F"/>
			<stop  offset="0.1886" style="stop-color:#91CC04"/>
			<stop  offset="0.2809" style="stop-color:#8FC800"/>
			<stop  offset="1" style="stop-color:#1D9632"/>
		</linearGradient>
		<polygon clip-path="url(#SVGID_26_)" fill="url(#SVGID_27_)" points="184.764,22.282 239.99,28.935 234.072,78.063 
			178.847,71.411 		"/>
	</g>
</g>
</svg>
