<svg height="512pt" viewBox="0 -16 512 512" width="512pt" xmlns="http://www.w3.org/2000/svg"><path d="M212.8 46c0-17.105-8.495-33.984-22.734-43.477-6.941-4.586-16.214-2.753-20.8 4.16-4.598 6.899-2.723 16.215 4.16 20.801 5.965 3.97 9.375 11.356 9.375 18.52s-3.41 13.55-9.375 17.52c-14.238 9.492-22.735 25.37-22.735 42.48s8.496 32.988 22.735 42.48c7.015 4.649 16.281 2.633 20.8-4.16 4.602-6.898 2.743-16.203-4.16-20.8-5.96-3.973-9.375-10.36-9.375-17.524s3.414-13.547 9.375-17.52A50.949 50.949 0 00212.801 46zm75 0c0-17.105-8.495-33.984-22.734-43.477-6.941-4.586-16.214-2.753-20.8 4.16-4.598 6.899-2.723 16.215 4.16 20.801 5.965 3.97 9.375 11.356 9.375 18.52s-3.41 13.55-9.375 17.52c-14.239 9.492-22.735 25.37-22.735 42.48s8.496 32.988 22.735 42.48c7.015 4.649 16.281 2.633 20.8-4.16 4.602-6.898 2.743-16.203-4.16-20.8-5.96-3.973-9.375-10.36-9.375-17.524s3.414-13.547 9.375-17.52A50.949 50.949 0 00287.801 46zm75 0c0-17.105-8.495-33.984-22.734-43.477-6.941-4.586-16.214-2.753-20.8 4.16-4.598 6.899-2.723 16.215 4.16 20.801 5.965 3.97 9.375 11.356 9.375 18.52s-3.41 13.55-9.375 17.52c-14.239 9.492-22.735 25.37-22.735 42.48s8.496 32.988 22.735 42.48c7.015 4.649 16.281 2.633 20.8-4.16 4.602-6.898 2.743-16.203-4.16-20.8-5.96-3.973-9.375-10.36-9.375-17.524s3.414-13.547 9.375-17.52A50.949 50.949 0 00362.801 46zm66.356 276.242l-40.676 61.012c-4.52 6.793-13.785 8.809-20.8 4.16-6.899-4.601-8.758-13.902-4.16-20.8l34.921-52.38c-15.273-3.39-31.433-6.246-48.328-8.43l-51.633 77.45c-4.52 6.793-13.785 8.809-20.8 4.16-6.899-4.601-8.758-13.902-4.16-20.8l42.82-64.231a759.143 759.143 0 00-52.39-2.328l-55.47 83.195c-4.52 6.793-13.785 8.813-20.8 4.16-6.899-4.597-8.758-13.898-4.16-20.8l44.074-66.102a728.55 728.55 0 00-56.805 4.281L118.48 383.25c-4.52 6.793-13.785 8.813-20.8 4.16-6.899-4.598-8.758-13.898-4.16-20.8l37.238-55.856C56.664 324.457 0 351.05 0 389.934c0 59.09 129.277 91 256 91s256-31.91 256-91c0-29.918-33.938-52.579-82.844-67.692zm0 0"/><path d="M429.148 202.238l-40.668 61.016c-4.52 6.793-13.785 8.809-20.8 4.16-6.899-4.601-8.762-13.902-4.16-20.8l34.914-52.384c-15.27-3.39-31.422-6.242-48.313-8.425l-51.64 77.445c-4.52 6.793-13.786 8.813-20.801 4.16-6.899-4.598-8.758-13.914-4.16-20.8l42.828-64.227a762.15 762.15 0 00-52.399-2.332L208.48 263.25c-4.52 6.793-13.785 8.809-20.8 4.16-6.899-4.598-8.758-13.898-4.16-20.8l44.07-66.106c-19.297.707-38.344 2.152-56.797 4.285l-52.309 78.461c-4.523 6.793-13.789 8.809-20.8 4.16-6.903-4.598-8.762-13.898-4.16-20.8l37.238-55.856C56.664 204.457 0 231.05 0 269.934c0 17.37 10.746 31.332 26.645 42.554C83.25 282.086 174.352 269.934 256 269.934c81.531 0 172.477 12.125 229.098 42.43C502.684 299.882 512 285.561 512 269.933c0-29.918-33.941-52.579-82.852-67.696zm0 0"/></svg>