<svg height="512" viewBox="0 0 64 64" width="512" xmlns="http://www.w3.org/2000/svg"><path d="M29 23a3 3 0 00-6 0h2a1 1 0 012 0zm9-1a1 1 0 011 1h2a3 3 0 00-6 0h2a1 1 0 011-1z"/><path d="M49.29 43.46L37 40.23v-3.29a13.09 13.09 0 004-2.74 13.708 13.708 0 003.79-7.28A4.99 4.99 0 0045 17.1v-2.11a1 1 0 01.39-.79A9.017 9.017 0 0049 7V3a.984.984 0 00-.53-.88.963.963 0 00-1.02.05L43 5.13V3a.976.976 0 00-.5-.86.994.994 0 00-1-.01l-4.96 2.84.43-1.73a1.022 1.022 0 00-.18-.86A1 1 0 0036 2h-8a9.014 9.014 0 00-9 9v6.1a5 5 0 00.15 9.82A12.946 12.946 0 0027 37.01v3.22l-12.3 3.23A9.03 9.03 0 008 52.17V61a1 1 0 001 1h46a1 1 0 001-1v-8.83a9.028 9.028 0 00-6.71-8.71zM19 24.82a3.179 3.179 0 01-1.12-.69A3 3 0 0119 19.18zM47 22a3 3 0 01-.87 2.12 3.143 3.143 0 01-1.14.7c0-.06.01-.11.01-.17v-5.47A3.01 3.01 0 0147 22zM21 11a7.008 7.008 0 017-7h6.72l-.69 2.76a1 1 0 001.47 1.11L41 4.72V7a.984.984 0 00.53.88.963.963 0 001.02-.05L47 4.87V7a7.024 7.024 0 01-2.8 5.6 2.993 2.993 0 00-1.2 2.39V17h-2a3.009 3.009 0 00-3-3H26a3.009 3.009 0 00-3 3h-2zm3.22 21.78A10.9 10.9 0 0121 25v-6h2a2.006 2.006 0 002-2 1 1 0 011-1h12a1 1 0 011 1 2.006 2.006 0 002 2h2v5.65a11.574 11.574 0 01-3.41 8.13A10.711 10.711 0 0132 36h-.02a10.941 10.941 0 01-7.76-3.22zM31 60H10v-7.83a7.008 7.008 0 015.21-6.77L27 42.3v.7a5.017 5.017 0 004 4.9zm-2-17v-5.36a12.775 12.775 0 002.97.36H32a12.1 12.1 0 003-.39V43a3 3 0 01-6 0zm25 17H33V47.9a5.017 5.017 0 004-4.9v-.7l11.78 3.1A7.006 7.006 0 0154 52.17z"/><path d="M27 50h2v2h-2zm0 6h2v2h-2zm8-6h2v2h-2zm0 6h2v2h-2zm2-27h-2c0 .249-1.064 1-3 1s-3-.751-3-1h-2c0 1.71 2.149 3 5 3s5-1.29 5-3z"/></svg>