<svg xmlns="http://www.w3.org/2000/svg" width="47.342" height="47.342"><path d="M39.645 15.841c-.014-.008-.025-.017-.038-.025a.913.913 0 00-.964-.026.905.905 0 00-.447.854c.21 2.857-.008 5.423-.225 7.063a.315.315 0 01-.301.271.315.315 0 01-.316-.251c-.871-4.412-2.584-8.213-3.656-10.305a.913.913 0 00-.564-.462 33.625 33.625 0 00-7.082-1.158.912.912 0 00-.936 1.124c.995 4.145.73 8.72.49 11.043a.312.312 0 01-.61.055c-.784-2.719-2.561-8.494-4.32-11.5a.913.913 0 00-.872-.448c-2.388.223-4.684.566-6.73 1.493h-.002c-.405 0-.646.435-.579.863.596 3.762.32 7.263.045 9.34-.021.151-.146.232-.3.237-.152.005-.286-.117-.316-.268-.563-2.852-1.48-5.458-2.348-7.506a1.13 1.13 0 00-1.605-.54C2.459 18.895 0 22.635 0 26.454c0 8.124 10.598 9.087 23.671 9.087 13.073 0 23.67-.963 23.67-9.087.003-3.501-2.182-6.946-7.696-10.613z"/></svg>