<svg height="512" width="512" xmlns="http://www.w3.org/2000/svg"><path d="M151 30h5c8.284 0 15-6.716 15-15s-6.716-15-15-15H76c-8.284 0-15 6.716-15 15s6.716 15 15 15h5v63.528l70-46.667zm129.961-.443c-15.163-10.108-34.759-10.108-49.922 0L15.48 173.263A32.519 32.519 0 001 200.32c0 25.972 28.946 41.464 50.556 27.057L256 91.082l204.444 136.295C482.054 241.784 511 226.292 511 200.32a32.511 32.511 0 00-14.478-27.055L280.961 29.557zM497 512H15c-8.284 0-15-6.716-15-15v-30c0-8.284 6.716-15 15-15h482c8.284 0 15 6.716 15 15v30c0 8.284-6.716 15-15 15z"/><path d="M266.606 241.559c-5.857 5.858-15.355 5.858-21.213 0-7.694-7.693-17.8-11.54-27.906-11.54-10.105 0-20.211 3.847-27.905 11.54-15.387 15.387-15.387 40.424 0 55.811L256 363.787l66.417-66.417c15.387-15.387 15.387-40.424 0-55.811-15.388-15.388-40.423-15.387-55.811 0z"/><path d="M256 127.137L61 257.136V422h390V257.136zm87.63 191.446l-77.024 77.024C263.678 398.536 259.839 400 256 400s-7.678-1.464-10.606-4.394l-77.024-77.024c-27.084-27.084-27.084-71.153 0-98.237 23.781-23.781 60.655-26.683 87.63-8.702 26.976-17.98 63.85-15.079 87.63 8.702 27.085 27.085 27.085 71.154 0 98.238z"/></svg>