<svg viewBox="-106 0 512 512" xmlns="http://www.w3.org/2000/svg"><path d="M150 323c5.52 0 10-4.48 10-10s-4.48-10-10-10-10 4.48-10 10 4.48 10 10 10zm0 0"/><path d="M204.684 247.238c23.203-14.097 42.41-33.941 55.55-57.39C273.164 166.773 280 140.664 280 114.34V58.28c11.64-4.129 20-15.246 20-28.281V10c0-5.523-4.477-10-10-10H10C4.477 0 0 4.477 0 10v20c0 13.035 8.36 24.152 20 28.281v56.059c0 26.324 6.836 52.433 19.766 75.508 13.14 23.449 32.351 43.297 55.554 57.39 2.965 1.801 4.739 5.078 4.739 8.762 0 3.688-1.774 6.96-4.739 8.766-23.203 14.093-42.414 33.937-55.554 57.386C26.836 345.227 20 371.336 20 397.66v56.059C8.36 457.848 0 468.965 0 482v20c0 5.523 4.477 10 10 10h280c5.523 0 10-4.477 10-10v-20c0-13.035-8.36-24.152-20-28.281V397.66c0-26.324-6.836-52.433-19.766-75.508-13.14-23.449-32.351-43.297-55.554-57.39-2.965-1.801-4.739-5.078-4.739-8.762 0-3.688 1.774-6.96 4.743-8.762zM20 20h260v10c0 5.516-4.484 10-10 10H30c-5.516 0-10-4.484-10-10zm260 472H20v-10c0-5.516 4.484-10 10-10h240c5.516 0 10 4.484 10 10zm-85.7-210.145c41.137 24.993 65.7 68.286 65.7 115.805V452H40v-54.34c0-47.52 24.563-90.812 65.7-115.805 8.991-5.457 14.359-15.125 14.359-25.855s-5.368-20.398-14.36-25.855C64.563 205.152 40 161.859 40 114.34V60h220v54.34c0 47.52-24.563 90.812-65.7 115.805-8.991 5.457-14.359 15.125-14.359 25.855s5.368 20.398 14.36 25.855zm0 0"/><path d="M157.969 346.46a9.994 9.994 0 00-7.992-4h-.008a10 10 0 00-7.989 3.985c-3.77 5.016-8.464 9.278-13.953 12.68-11.453 6.898-21.683 11.21-30.714 15.02C77.288 382.59 60 389.883 60 417.602V422c0 5.523 4.477 10 10 10h160c5.523 0 10-4.477 10-10v-4.398c0-27.704-17.332-35.028-37.398-43.512-9.106-3.852-19.426-8.211-31.024-15.192a49.75 49.75 0 01-13.61-12.437zM219.605 412H80.391c1.523-9.242 7.824-12.313 24.695-19.426 9.184-3.875 20.61-8.691 33.316-16.347.032-.024.067-.043.098-.063a72.166 72.166 0 0011.46-8.77 70.318 70.318 0 0011.134 8.536c.035.02.07.043.105.062 12.844 7.735 24.36 12.606 33.613 16.52 16.942 7.16 23.266 10.246 24.793 19.488zM240 114.398V96a9.997 9.997 0 00-5.152-8.746 9.996 9.996 0 00-10.149.266A140.77 140.77 0 01150 108.94a140.78 140.78 0 01-74.7-21.42 10.005 10.005 0 00-10.148-.266A9.997 9.997 0 0060 96v18.398c0 17.297 6.68 35.915 19.313 53.836 12.242 17.368 29.222 32.88 49.109 44.868 4.039 2.511 7.996 6.074 11.578 10.378V273c0 5.523 4.477 10 10 10 5.52 0 10-4.477 10-10v-49.5c3.648-4.355 7.738-8 11.973-10.625C212.664 188.332 240 148.765 240 114.398zm-78.402 81.375c-.032.024-.067.04-.098.063-3.988 2.465-7.852 5.516-11.465 9.023-3.504-3.43-7.226-6.37-11.129-8.789l-.105-.066C103.629 174.82 80 142.027 80 114.398v-1.472c21.762 10.515 45.652 16.015 70 16.015s48.238-5.5 70-16.015v1.472c0 27.196-24.016 60.657-58.402 81.375zm0 0"/></svg>