<svg height="512" viewBox="0 0 64 64" width="512" xmlns="http://www.w3.org/2000/svg"><path d="M55 52.17V61H40l3.98-17.9 5.06 1.33A8 8 0 0155 52.17zM20 18l18-5 6 5a4 4 0 014 4v-9a8 8 0 00-8-8h-3.54A5.947 5.947 0 0032 3h-8a8 8 0 00-8 8v11a4 4 0 014-4zm14 29.33L32 46l-2 1.33V51l-1 10h6l-1-10zM24 61H9v-8.83a8 8 0 015.96-7.74l5.06-1.33z" fill="#bddbff"/><path d="M29 23a3 3 0 00-6 0h2a1 1 0 012 0zm9-1a1 1 0 011 1h2a3 3 0 00-6 0h2a1 1 0 011-1z" fill="#57a4ff"/><path d="M49.29 43.46L37 40.23v-3.24a13.05 13.05 0 007.86-10.06 5.093 5.093 0 002.68-1.4A5.005 5.005 0 0049 22v-9a9.014 9.014 0 00-9-9h-3.11A6.952 6.952 0 0032 2h-8a9.014 9.014 0 00-9 9v11a4.982 4.982 0 004.16 4.92A13.037 13.037 0 0027 37v3.23l-12.3 3.23A9.03 9.03 0 008 52.17V61a1 1 0 001 1h46a1 1 0 001-1v-8.83a9.028 9.028 0 00-6.71-8.71zm-3.16-19.34a3.131 3.131 0 01-1.13.71v-5.66a3.008 3.008 0 011.13 4.95zM40 6a7.008 7.008 0 017 7v5.01a5.008 5.008 0 00-2.62-1L39 12.53V9a6.884 6.884 0 00-.69-3zM19 24.82a3.179 3.179 0 01-1.12-.69A3 3 0 0119 19.18zm-2-6.79V11a7.008 7.008 0 017-7h8a5 5 0 015 5v3.24l-17.22 4.78A4.927 4.927 0 0017 18.03zM21 25v-6.24l16.76-4.66L43 18.47V25a11 11 0 01-22 0zm11 19.4l-3-3.75v-3.01a12.68 12.68 0 006 0v3.01zm1 3.47V50h-2v-2.13l1-.67zm-6-5.57l.63-.17 2.91 3.64L27 48.13zM18 60v-4h-2v4h-6v-7.83a7.019 7.019 0 015.21-6.77l4.06-1.07L22.75 60zm11-9.1l-.91 9.1H24.8l-3.6-16.18 3.8-1V50a1 1 0 001.55.83L29 49.2zm1.1 9.1l.8-8h2.19l.81 8zm3.36-14.23l2.91-3.64.63.17v5.83zM35.9 60l-.9-9v-1.8l2.45 1.63A1 1 0 0039 50v-7.18l3.8 1L39.2 60zM54 60h-5v-4h-2v4h-5.75l3.48-15.67 4.05 1.07A7.017 7.017 0 0154 52.17z" fill="#57a4ff"/><path d="M37 29h-2c0 .249-1.064 1-3 1s-3-.751-3-1h-2c0 1.71 2.149 3 5 3s5-1.29 5-3z" fill="#57a4ff"/></svg>