<svg xmlns="http://www.w3.org/2000/svg" width="141.73" height="67"><ellipse fill="#EBA802" cx="70.539" cy="32.486" rx="67.981" ry="29.243"/><g fill="#6F252D"><path d="M39.989 34.55c.268-1.087.52-2.176.806-3.259.777-2.943 1.253-5.957 2.389-8.814.764-1.925 2.285-3.328 4.275-4.292.777-.376 1.664-.216 2.507-.247.244-.009.273.13.196.293-.366.77-.743 1.536-1.108 2.306-.097.204-.285.163-.456.165-.603.007-1.204-.024-1.795.146-.512.147-.894.404-1.125.844-.576 1.098-.873 2.274-1.169 3.448-1.017 4.025-2.02 8.053-3.032 12.079-.058.233-.096.449.03.683.719 1.336 1.697 2.474 3.127 3.245 1.143.616 2.2.398 3-.564.362-.435.728-.867 1.085-1.306.151-.186.282-.207.46-.023.185.19.368.374.401.639.091.715.168 1.433.284 2.145.057.351-.233.391-.456.468-3.813 1.32-7.949.758-10.575-2.597-1.16-1.482-1.906-3.138-2.52-4.85-.859-2.394-1.436-4.853-2.097-7.293-.036-.132-.023-.291-.229-.431-.09.338-.166.645-.253.95-.467 1.636-.734 3.322-1.364 4.915-.706 1.786-1.876 3.352-3.436 4.599-1.506 1.204-3.386 1.329-5.311.969-.334-.063-.408-.196-.22-.488.458-.712.89-1.437 1.307-2.169.134-.234.267-.299.568-.27.746.071 1.499.094 2.249.023 1.41-.134 2.039-1.037 2.502-2.092.724-1.648 1.059-3.392 1.54-5.099.389-1.381.73-2.772 1.114-4.154.095-.341.043-.474-.386-.473-1.19.001-2.387-.085-3.525.344-1.052.397-1.476 1.133-1.214 2.128a9.665 9.665 0 001.092 2.542c.161.266.113.417-.166.569-.795.433-1.59.868-2.366 1.328-.271.161-.364.099-.511-.128-1.358-2.096-1.218-4.235.426-6.176a31.19 31.19 0 011.831-2.008c1.192-1.18 2.751-1.503 4.425-1.57.228-.009.459-.024.685-.004.679.061 1.287-.042 1.781-.514.259-.248.4-.174.502.157 1.089 3.539 2.199 7.073 3.39 10.585.37 1.093.799 2.169 1.201 3.253.047.001.094-.001.141-.002zm29.186 1.858c-.704.423-1.319.799-1.941 1.167-.654.387-1.301.786-1.975 1.143-.819.433-1.623.15-1.962-.659a4.082 4.082 0 01-.327-1.329c-.02-.327-.143-.333-.415-.179-1.134.638-2.275 1.267-3.414 1.897-.389.216-.773.434-1.261.434-.738 0-1.241-.308-1.463-.949-.295-.855-.234-1.711.018-2.565 1.247-4.215 2.507-8.426 3.73-12.647.326-1.124.88-2.067 1.954-2.752.85-.542 1.643-1.157 2.529-1.656a4.496 4.496 0 012.949-.546c.418.062.839.112 1.26.16.287.032.378.114.183.359a79.644 79.644 0 00-1.479 1.919c-.141.189-.29.228-.534.188a12.184 12.184 0 00-1.752-.153c-.647-.01-1.092.234-1.327.784-.41.962-.677 1.963-.985 2.951-1.007 3.223-2.1 6.425-3.002 9.675-.153.552-.252 1.121-.206 1.698.025.307.184.417.52.303.887-.301 1.722-.704 2.578-1.065.308-.13.237-.426.275-.665.324-2.04 1.014-3.951 2.486-5.571 1.075-1.183 2.484-1.991 3.98-2.654 1.05-.466 2.213-.343 3.324-.174.978.148 1.932.422 2.899.626.264.056.293.144.124.317-.043.044-.082.093-.129.132-1.027.863-1.462 1.978-1.738 3.182-.376 1.64-.81 3.268-1.219 4.902-.032.129-.07.257-.094.388-.073.401-.005.463.402.302a76.889 76.889 0 002.442-1.013c.359-.156.508-.109.469.272-.025.248-.008.5-.024.749a.691.691 0 01-.368.591c-1.532.868-3.004 1.821-4.578 2.629-.497.256-1.04.546-1.594.171-.544-.368-.552-.93-.469-1.488.042-.259.081-.517.134-.874zm-2.912-1.799c.021.197.027.433.074.663.093.452.194.491.647.295.903-.391 1.692-.93 2.454-1.508a.985.985 0 00.376-.541c.448-1.546.911-3.089 1.366-4.634.276-.936.269-.917-.79-1.099-.987-.17-1.727.104-2.234.882-1.188 1.822-1.738 3.81-1.893 5.942zm50.827 5.514c.238 1.051.455 2.014.676 2.975.06.26-.15.301-.34.334-2.966.516-5.616.014-7.765-2.01-1.439-1.355-2.297-3.02-3.033-4.744-.474-1.111-.946-2.223-1.43-3.33-.067-.154-.062-.427-.275-.421-.261.008-.291.283-.352.477-.36 1.16-.713 2.322-1.074 3.482-.438 1.408-.441 1.407-2.008 1.778-.362.086-.725.171-1.085.265-.563.146-.575.146-.424-.382.447-1.565.904-3.128 1.36-4.691 1.01-3.467 2.021-6.934 3.034-10.4.33-1.128.973-2.059 2.016-2.787 1.108-.774 2.165-1.605 3.307-2.341 1.254-.809 2.609-.73 3.981-.344.551.155.598.382.259.791-.41.494-.839.976-1.226 1.485-.186.244-.381.321-.694.259-.626-.124-1.262-.131-1.9-.087-.778.053-1.349.362-1.714 1.003-.548.963-.879 1.991-1.195 3.026-.493 1.615-.977 3.231-1.464 4.848-.059.195-.147.386-.125.632.3-.108.495-.306.71-.474 1.38-1.079 2.748-2.17 4.136-3.24 1.416-1.092 3.378-1.057 4.79.049.198.155.201.253.045.43a73.528 73.528 0 00-1.607 1.889c-.199.243-.369.268-.644.092-.927-.596-1.823-.561-2.741.073-.91.628-1.712 1.36-2.572 2.035-.146.115-.151.248-.083.399 1.268 2.799 2.23 5.717 3.977 8.33.456.683.972 1.325 1.664 1.835.808.595 1.597.567 2.367-.071.451-.373.909-.741 1.429-1.165z"/><path d="M82.138 27.596c.744-.459 1.383-.861 2.031-1.251.586-.353 1.192-.673 1.919-.72 1.099-.072 1.838.403 2.148 1.359.29.896.244 1.81.121 2.713-.193 1.421-.696 2.774-1.23 4.119-.673 1.694-2.098 2.802-3.616 3.836-1.148.782-2.439 1.175-3.898.976-.312-.043-.436.069-.501.332a766.935 766.935 0 01-1.49 5.93c-.086.337-.043.509.409.536.551.033 1.096.147 1.643.225.146.021.286.046.41.129.437.291.419.387.053.74-.583.562-1.241.781-2.117.748-1.776-.067-3.557-.021-5.336-.022-.114 0-.231.012-.342-.006-.287-.048-.54-.207-.667-.411-.137-.221.171-.351.32-.48.575-.498 1.138-1.028 2.01-1.078.299-.017.295-.231.344-.409.563-2.068 1.127-4.136 1.686-6.204.748-2.767 1.496-5.535 2.236-8.304.103-.385.19-.776.241-1.169.049-.374-.101-.471-.484-.318-.581.231-1.15.489-1.722.739-.116.051-.234.146-.355.052-.1-.077-.01-.194-.011-.293-.007-.912.401-1.54 1.344-1.985 1.092-.516 2.062-1.236 3.224-1.65.447-.159.885-.189 1.303.08.365.235.536.538.453.949-.05.238-.075.485-.126.837zm2.926 2.291c-.002-.356-.003-.649-.07-.94-.128-.559-.282-.647-.872-.435-.869.313-1.636.788-2.39 1.277a.843.843 0 00-.351.466c-.52 1.714-.937 3.449-1.326 5.19-.054.244.012.438.277.548 1.292.54 2.304.443 2.979-.675 1.032-1.707 1.672-3.532 1.753-5.431zm4.466 5.211c.14-2.381.776-4.659 2.392-6.56 1.344-1.581 3.116-2.8 5.405-3.08 2.162-.265 3.276.911 2.902 2.861-.245 1.28-1.137 2.109-2.254 2.802-1.532.951-3.165 1.756-4.75 2.631-.353.195-.515.41-.559.79-.161 1.385.597 2.06 2.149 1.834 1.237-.18 2.368-.646 3.49-1.122.59-.25 1.169-.52 1.75-.787.255-.117.363-.084.309.196-.079.405-.148.812-.215 1.219-.022.131-.114.207-.224.274-1.901 1.157-3.867 2.189-6.145 2.631-.63.122-1.27.144-1.897.037-1.285-.219-2.105-1.03-2.285-2.229-.075-.494-.119-.994-.068-1.497zm3.948-3.478c.995-.54 2.049-.987 2.736-1.869.348-.448.523-.944.478-1.491-.02-.243 0-.531-.308-.649-.321-.123-.602.023-.859.192a1.556 1.556 0 00-.219.175c-1.06 1.028-1.368 2.359-1.828 3.642zm-48.446 3.871c.061-2.351.658-4.585 2.089-6.563 1.222-1.689 3.013-2.786 5.14-3.397.685-.197 1.429-.212 2.119.03 1.16.408 1.618 1.369 1.373 2.715-.185 1.013-.768 1.792-1.641 2.421-1.176.848-2.503 1.483-3.781 2.187-.445.245-.897.479-1.343.724-.736.404-.98.906-.822 1.678.142.694.656 1.092 1.47 1.119 1.005.033 1.92-.291 2.831-.614 1.033-.367 2.019-.824 3.004-1.282.112-.052.245-.156.359-.081.111.074.053.221.034.334-.061.363-.136.724-.198 1.087a.394.394 0 01-.198.288c-1.995 1.217-4.054 2.324-6.475 2.688-1.063.16-2.132.11-2.994-.608-.736-.613-.904-1.435-.966-2.285-.01-.146-.001-.294-.001-.441zm3.953-3.873c1.006-.549 2.072-.992 2.749-1.884.381-.502.569-1.053.454-1.663-.094-.499-.404-.635-.913-.409-.299.133-.524.349-.722.582-.846.998-1.149 2.205-1.568 3.374z"/></g><path fill="#EBA802" d="M70.475 49.729c.125.094.254.189.188.359-.008.021-.089.044-.114.031-.146-.075-.155-.207-.152-.339.027-.017.053-.033.078-.051z"/></svg>