<svg xmlns="http://www.w3.org/2000/svg" width="141.73" height="67"><ellipse fill="#EBA802" cx="71.039" cy="33.703" rx="67.981" ry="29.243"/><g fill="#6F252D"><path d="M40.489 33.333c.268-1.087.52-2.176.806-3.259.777-2.943 1.253-5.957 2.389-8.814.764-1.925 2.285-3.328 4.275-4.292.777-.376 1.664-.216 2.507-.247.244-.009.273.13.196.293-.366.77-.743 1.536-1.108 2.306-.097.204-.285.163-.456.165-.603.007-1.204-.024-1.795.146-.512.147-.894.404-1.125.844-.576 1.098-.873 2.274-1.169 3.448-1.017 4.025-2.02 8.053-3.032 12.079-.058.233-.096.449.03.683.719 1.336 1.697 2.474 3.127 3.245 1.143.616 2.2.398 3-.564.362-.435.728-.867 1.085-1.306.151-.186.282-.207.46-.023.185.19.368.374.401.639.091.715.168 1.433.284 2.145.057.351-.233.391-.456.468-3.813 1.32-7.949.758-10.575-2.597-1.16-1.482-1.906-3.138-2.52-4.85-.859-2.394-1.436-4.853-2.097-7.293-.036-.132-.023-.291-.229-.431-.09.338-.166.645-.253.95-.467 1.636-.734 3.322-1.364 4.915-.706 1.786-1.876 3.352-3.436 4.599-1.506 1.204-3.386 1.329-5.311.969-.334-.063-.408-.196-.22-.488.458-.712.89-1.437 1.307-2.169.134-.234.267-.299.568-.27.746.071 1.499.094 2.249.023 1.41-.134 2.039-1.037 2.502-2.092.724-1.648 1.059-3.392 1.54-5.099.389-1.381.73-2.772 1.114-4.154.095-.341.043-.474-.386-.473-1.19.001-2.387-.085-3.525.344-1.052.397-1.476 1.133-1.214 2.128a9.665 9.665 0 001.092 2.542c.161.266.113.417-.166.569-.795.433-1.59.868-2.366 1.328-.271.161-.364.099-.511-.128-1.358-2.096-1.218-4.235.426-6.176a31.19 31.19 0 011.831-2.008c1.192-1.18 2.751-1.503 4.425-1.57.228-.009.459-.024.685-.004.679.061 1.287-.042 1.781-.514.259-.248.4-.174.502.157 1.089 3.539 2.199 7.073 3.39 10.585.37 1.093.799 2.169 1.201 3.253l.141-.002zm29.186 1.858c-.704.423-1.319.799-1.941 1.167-.654.387-1.301.786-1.975 1.143-.819.433-1.623.15-1.962-.659a4.082 4.082 0 01-.327-1.329c-.02-.327-.143-.333-.415-.179-1.134.638-2.275 1.267-3.414 1.897-.389.216-.773.434-1.261.434-.738 0-1.241-.308-1.463-.949-.295-.855-.234-1.711.018-2.565 1.247-4.215 2.507-8.426 3.73-12.647.326-1.124.88-2.067 1.954-2.752.85-.542 1.643-1.157 2.529-1.656a4.496 4.496 0 012.949-.546c.418.062.839.112 1.26.16.287.032.378.114.183.359a79.644 79.644 0 00-1.479 1.919c-.141.189-.29.228-.534.188a12.184 12.184 0 00-1.752-.153c-.647-.01-1.092.234-1.327.784-.41.962-.677 1.963-.985 2.951-1.007 3.223-2.1 6.425-3.002 9.675-.153.552-.252 1.121-.206 1.698.025.307.184.417.52.303.887-.301 1.722-.704 2.578-1.065.308-.13.237-.426.275-.665.324-2.04 1.014-3.951 2.486-5.571 1.075-1.183 2.484-1.991 3.98-2.654 1.05-.466 2.213-.343 3.324-.174.978.148 1.932.422 2.899.626.264.056.293.144.124.317-.043.044-.082.093-.129.132-1.027.863-1.462 1.978-1.738 3.182-.376 1.64-.81 3.268-1.219 4.902-.032.129-.07.257-.094.388-.073.401-.005.463.402.302a76.889 76.889 0 002.442-1.013c.359-.156.508-.109.469.272-.025.248-.008.5-.024.749a.691.691 0 01-.368.591c-1.532.868-3.004 1.821-4.578 2.629-.497.256-1.04.546-1.594.171-.544-.368-.552-.93-.469-1.488.042-.259.081-.517.134-.874zm-2.912-1.799c.021.197.027.433.074.663.093.452.194.491.647.295.903-.391 1.692-.93 2.454-1.508a.985.985 0 00.376-.541c.448-1.546.911-3.089 1.366-4.634.276-.936.269-.917-.79-1.099-.987-.17-1.727.104-2.234.882-1.188 1.822-1.738 3.81-1.893 5.942zm50.827 5.514c.238 1.051.455 2.014.676 2.975.06.26-.15.301-.34.334-2.966.516-5.616.014-7.765-2.01-1.439-1.355-2.297-3.02-3.033-4.744-.474-1.111-.946-2.223-1.43-3.33-.067-.154-.062-.427-.275-.421-.261.008-.291.283-.352.477-.36 1.16-.713 2.322-1.074 3.482-.438 1.408-.441 1.407-2.008 1.778-.362.086-.725.171-1.085.265-.563.146-.575.146-.424-.382.447-1.565.904-3.128 1.36-4.691 1.01-3.467 2.021-6.934 3.034-10.4.33-1.128.973-2.059 2.016-2.787 1.108-.774 2.165-1.605 3.307-2.341 1.254-.809 2.609-.73 3.981-.344.551.155.598.382.259.791-.41.494-.839.976-1.226 1.485-.186.244-.381.321-.694.259-.626-.124-1.262-.131-1.9-.087-.778.053-1.349.362-1.714 1.003-.548.963-.879 1.991-1.195 3.026-.493 1.615-.977 3.231-1.464 4.848-.059.195-.147.386-.125.632.3-.108.495-.306.71-.474 1.38-1.079 2.748-2.17 4.136-3.24 1.416-1.092 3.378-1.057 4.79.049.198.155.201.253.045.43a73.528 73.528 0 00-1.607 1.889c-.199.243-.369.268-.644.092-.927-.596-1.823-.56-2.741.073-.91.628-1.712 1.36-2.572 2.035-.146.115-.151.248-.083.399 1.268 2.799 2.23 5.717 3.977 8.33.456.683.972 1.325 1.664 1.835.808.595 1.597.567 2.367-.071.451-.373.909-.741 1.429-1.165z"/><path d="M82.638 26.379c.744-.459 1.383-.861 2.031-1.251.586-.353 1.192-.673 1.919-.72 1.099-.072 1.838.403 2.148 1.359.29.896.244 1.81.121 2.713-.193 1.421-.696 2.774-1.23 4.119-.673 1.694-2.098 2.802-3.616 3.836-1.148.782-2.439 1.175-3.898.976-.312-.043-.436.069-.501.332a766.935 766.935 0 01-1.49 5.93c-.086.337-.043.509.409.536.551.033 1.096.147 1.643.225.146.021.286.046.41.129.437.291.419.387.053.74-.583.562-1.241.781-2.117.748-1.776-.067-3.557-.021-5.336-.022-.114 0-.231.012-.342-.006-.287-.048-.54-.207-.667-.411-.137-.221.171-.351.32-.48.575-.498 1.138-1.028 2.01-1.078.299-.017.295-.231.344-.409.563-2.068 1.127-4.136 1.686-6.204.748-2.767 1.496-5.535 2.236-8.304.103-.385.19-.776.241-1.169.049-.374-.101-.471-.484-.318-.581.231-1.15.489-1.722.739-.116.051-.234.146-.355.052-.1-.077-.01-.194-.011-.293-.007-.912.401-1.54 1.344-1.985 1.092-.516 2.062-1.236 3.224-1.65.447-.159.885-.189 1.303.08.365.235.536.538.453.949-.05.238-.075.485-.126.837zm2.926 2.291c-.002-.356-.003-.649-.07-.94-.128-.559-.282-.647-.872-.435-.869.313-1.636.788-2.39 1.277a.843.843 0 00-.351.466c-.52 1.714-.937 3.449-1.326 5.19-.054.244.012.438.277.548 1.292.54 2.304.443 2.979-.675 1.032-1.707 1.672-3.532 1.753-5.431zm4.466 5.211c.14-2.381.776-4.659 2.392-6.56 1.344-1.581 3.116-2.8 5.405-3.08 2.162-.265 3.276.911 2.902 2.861-.245 1.28-1.137 2.109-2.254 2.802-1.532.951-3.165 1.756-4.75 2.631-.353.195-.515.41-.559.79-.161 1.385.597 2.06 2.149 1.834 1.237-.18 2.368-.646 3.49-1.122.59-.25 1.169-.52 1.75-.787.255-.117.363-.084.309.196-.079.405-.148.812-.215 1.219-.022.131-.114.207-.224.274-1.901 1.157-3.867 2.189-6.145 2.631-.63.122-1.27.144-1.897.037-1.285-.219-2.105-1.03-2.285-2.229-.075-.494-.119-.994-.068-1.497zm3.948-3.479c.995-.54 2.049-.987 2.736-1.869.348-.448.523-.944.478-1.491-.02-.243 0-.531-.308-.649-.321-.123-.602.023-.859.192a1.556 1.556 0 00-.219.175c-1.06 1.028-1.368 2.36-1.828 3.642zm-48.446 3.872c.061-2.351.658-4.585 2.089-6.563 1.222-1.689 3.013-2.786 5.14-3.397.685-.197 1.429-.212 2.119.03 1.16.408 1.618 1.369 1.373 2.715-.185 1.013-.768 1.792-1.641 2.421-1.176.848-2.503 1.483-3.781 2.187-.445.245-.897.479-1.343.724-.736.404-.98.906-.822 1.678.142.694.656 1.092 1.47 1.119 1.005.033 1.92-.291 2.831-.614 1.033-.367 2.019-.824 3.004-1.282.112-.052.245-.156.359-.081.111.074.053.221.034.334-.061.363-.136.724-.198 1.087a.394.394 0 01-.198.288c-1.995 1.217-4.054 2.324-6.475 2.688-1.063.16-2.132.11-2.994-.608-.736-.613-.904-1.435-.966-2.285-.01-.146-.001-.294-.001-.441zm3.953-3.873c1.006-.549 2.072-.992 2.749-1.884.381-.502.569-1.053.454-1.663-.094-.499-.404-.635-.913-.409-.299.133-.524.349-.722.582-.846.998-1.149 2.204-1.568 3.374z"/></g><path fill="#EBA802" d="M70.975 49.729c.125.094.254.189.188.359-.008.021-.089.044-.114.031-.146-.075-.155-.207-.152-.339.027-.017.053-.033.078-.051z"/><g fill="#6F252D"><path d="M7.501 38.223l-.505.286c-.06.034-.1.076-.121.127s-.019.099.007.146c.022.039.069.08.141.124.017.01.03.022.039.037.014.024.012.054-.006.091a.194.194 0 01-.077.083c-.062.035-.14.034-.236-.001a.886.886 0 01-.473-.414.628.628 0 01-.083-.462.532.532 0 01.274-.347l.691-.391c.023-.013.036-.024.038-.032.002-.009-.003-.024-.016-.047l-.087-.155c-.017-.029-.022-.05-.017-.064s.025-.03.06-.05l.066-.037c.03-.016.059-.017.085-.003l.819.444c.019.012.035.03.049.055l.069.122c.014.025.018.045.011.06-.007.015-.027.032-.061.051l-.202.114c-.03.017-.047.033-.05.047-.003.014.003.037.021.068l.157.278c.021.037.028.065.021.083-.007.019-.033.04-.077.065l-.088.05c-.048.027-.085.039-.112.035-.026-.004-.05-.024-.071-.061l-.154-.272c-.016-.028-.032-.044-.047-.049-.016-.002-.038.003-.065.019zm.832 2.121l-.47-.66c-.021-.029-.044-.035-.069-.017-.061.043-.094.117-.101.221a.41.41 0 00.071.27.592.592 0 00.133.131c.056.042.11.072.16.09.045.016.074.033.088.052.017.024.019.059.006.103a.185.185 0 01-.067.101c-.067.048-.162.052-.285.012a1.032 1.032 0 01-.534-.397.897.897 0 01-.181-.616.867.867 0 01.887-.782.925.925 0 01.466.142.965.965 0 01.281.268.856.856 0 01.172.561.737.737 0 01-.071.279.574.574 0 01-.182.229.328.328 0 01-.176.068c-.056.004-.099-.015-.128-.055zm-.182-.81l.101.142c.043.06.092.07.147.031a.218.218 0 00.092-.131.18.18 0 00-.034-.148.179.179 0 00-.15-.08.238.238 0 00-.146.041c-.028.02-.043.041-.044.062-.002.022.01.049.034.083zm1.486 1.447l-.422.355a4.078 4.078 0 00-.318.283c-.026.032-.031.073-.016.125a.247.247 0 01.016.099.1.1 0 01-.039.061.154.154 0 01-.105.035.218.218 0 01-.119-.04 1.65 1.65 0 01-.299-.296c-.143-.17-.23-.3-.263-.389a.227.227 0 01-.012-.123.147.147 0 01.05-.094c.021-.018.042-.026.062-.024a.3.3 0 01.101.038c.044.022.102.009.176-.04.126-.082.293-.211.504-.388a3.57 3.57 0 00.397-.366.26.26 0 00.059-.207.323.323 0 01-.004-.126.149.149 0 01.052-.079c.043-.036.098-.047.164-.033a.798.798 0 01.255.123c.069.045.153.109.251.192s.166.146.203.19c.059.069.045.14-.041.213a3.77 3.77 0 01-.204.149 8.46 8.46 0 00-.448.342zm.092.986a.402.402 0 01-.021.578.38.38 0 01-.293.107.399.399 0 01-.277-.13.402.402 0 01.017-.574.381.381 0 01.297-.11c.109.007.201.05.277.129zm.769.785a.384.384 0 01.12.282.387.387 0 01-.113.285.402.402 0 01-.578.009.403.403 0 01-.003-.578.37.37 0 01.26-.118.402.402 0 01.314.12zm.695-.71a.384.384 0 01.12.282.387.387 0 01-.113.285.393.393 0 01-.295.127.406.406 0 01-.283-.118.403.403 0 01-.004-.578.37.37 0 01.26-.118.405.405 0 01.315.12zm1.934 1.43c.122.1.215.226.279.378a.987.987 0 01.05.637 1.085 1.085 0 01-.218.437.934.934 0 01-.752.358.95.95 0 01-.619-.219.924.924 0 01-.345-.606c-.04-.286.044-.556.252-.809.203-.247.437-.379.703-.396a.889.889 0 01.65.22zm-.356.37c-.083-.068-.181-.032-.296.108-.15.183-.25.377-.3.58-.019.079-.005.138.041.176.081.066.18.028.297-.114a1.8 1.8 0 00.184-.277c.057-.105.096-.197.115-.275.022-.087.008-.153-.041-.198zm1.915.852c.181.131.317.279.408.445a.413.413 0 01.05.206.33.33 0 01-.063.189c-.072.1-.191.154-.357.161-.047.003-.076.011-.086.025-.02.027-.006.065.04.113.218.228.243.458.075.69a.745.745 0 01-.443.289c-.181.046-.385.028-.614-.054a1.993 1.993 0 01-.491-.266 1.669 1.669 0 01-.434-.435c-.063-.096-.071-.176-.024-.24a.163.163 0 01.117-.069.19.19 0 01.137.036c.023.017.078.074.163.171a.759.759 0 00.135.117c.112.081.219.12.322.116.11-.004.19-.042.241-.112a.24.24 0 00.036-.221.406.406 0 00-.162-.214.638.638 0 00-.156-.085.303.303 0 01-.063-.028c-.024-.018-.031-.06-.022-.128a.385.385 0 01.065-.171c.016-.022.033-.033.051-.032s.067.014.149.039a.526.526 0 00.249.011.233.233 0 00.159-.091.224.224 0 00.036-.183.265.265 0 00-.109-.167.358.358 0 00-.099-.053 1.248 1.248 0 00-.184-.033.135.135 0 01-.057-.018c-.023-.017-.034-.049-.031-.097a.227.227 0 01.043-.126c.045-.063.144-.082.296-.057.095.015.2.047.314.097.115.051.218.109.309.175zm1.493 1.065l1.03.664c.039.025.059.05.063.075.003.025-.011.061-.041.108-.042.066-.095.122-.159.17s-.126.078-.188.09a.192.192 0 01-.144-.031l-.655-.422c-.073-.047-.129-.042-.166.016-.016.024-.018.046-.007.067a.371.371 0 00.097.093c.198.158.351.322.459.494a.749.749 0 01.121.397.488.488 0 01-.076.278c-.087.135-.227.225-.421.27a1.085 1.085 0 01-.502-.011 1.77 1.77 0 01-.541-.238 1.56 1.56 0 01-.352-.304c-.086-.102-.104-.192-.054-.27a.331.331 0 01.098-.102c.037-.023.066-.027.087-.014.012.007.024.02.038.037a1.534 1.534 0 00.248.226c.082.053.16.078.233.075a.193.193 0 00.165-.091c.046-.071.045-.156-.003-.256a.97.97 0 00-.228-.286c-.089-.081-.142-.129-.159-.146a.194.194 0 01-.041-.06.119.119 0 01.007-.122c.033-.052.121-.14.264-.263.142-.123.288-.237.435-.341.119-.085.2-.133.241-.144.042-.01.092.003.151.041zm.518 2.377l1.253-.904.1-.079.069-.053.166-.126c.074-.055.131-.1.173-.134a.293.293 0 01.124-.073c.032-.006.07.004.113.03.164.097.224.184.178.262a.309.309 0 01-.108.098 10.44 10.44 0 00-.569.379l-1.249.9c-.172.123-.29.21-.352.262a1.682 1.682 0 01-.247.179c-.051.022-.104.016-.159-.016a.405.405 0 01-.145-.135c-.031-.051-.037-.094-.016-.129a.175.175 0 01.051-.057 4.36 4.36 0 01.198-.128c.183-.112.323-.204.42-.276zm3.023-.6a.92.92 0 01.189.162.614.614 0 01.102.135c.023.044.03.075.02.094a.091.091 0 01-.042.037 4.14 4.14 0 01-.181.069.823.823 0 00-.193.099.395.395 0 00-.123.113.068.068 0 00-.007.046.047.047 0 00.025.034.65.65 0 00.127.026c.1.015.187.042.261.082a.63.63 0 01.283.308.616.616 0 01-.024.572.903.903 0 01-.366.361c-.299.165-.61.161-.932-.012-.267-.144-.442-.336-.523-.578a.975.975 0 01-.037-.437c.017-.13.054-.25.113-.359.137-.255.381-.461.73-.618.165-.074.291-.121.379-.141.086-.02.153-.018.199.007zm-.399 1.139a.145.145 0 00-.131-.009.224.224 0 00-.108.109.475.475 0 00-.044.297c.015.114.054.188.116.221a.158.158 0 00.12.017.145.145 0 00.09-.077.627.627 0 00.068-.236.466.466 0 00-.023-.222.205.205 0 00-.088-.1zm2.959.524l-.523 1.065c-.016.032-.022.056-.019.072.003.016.016.03.04.042l.065.032c.049.023.06.065.033.125l-.154.313c-.027.055-.07.072-.129.051-.038-.014-.064-.018-.078-.013-.014.005-.029.024-.046.059l-.089.182c-.028.067-.074.086-.14.058l-.529-.26c-.037-.018-.058-.037-.063-.055-.005-.018.003-.049.023-.091l.078-.159c.021-.043.028-.077.02-.102s-.033-.048-.074-.068l-.604-.296c-.072-.035-.115-.076-.13-.12-.015-.045-.003-.104.033-.178a.665.665 0 01.149-.214c.063-.055.203-.13.42-.226l.624-.277c.313-.139.532-.217.657-.236a.641.641 0 01.189.005c.069.011.13.03.183.056.052.025.082.056.092.093.01.035.001.083-.028.142zm-1.043.48l.037-.076c.045-.092.042-.151-.009-.177-.039-.019-.086-.016-.141.009l-.381.174c-.111.051-.176.096-.194.133-.013.027-.007.051.018.073.025.022.094.062.207.122l.121.063a.253.253 0 00.115.035c.024-.003.047-.021.067-.054.035-.054.088-.155.16-.302zm2.211-.016a.97.97 0 01.368.292.99.99 0 01.215.602c.005.166-.027.325-.097.478a.936.936 0 01-.632.542.939.939 0 01-.654-.05.924.924 0 01-.492-.495c-.113-.266-.103-.548.032-.847.131-.291.323-.48.575-.566a.902.902 0 01.685.044zm-.246.451c-.097-.044-.183.017-.258.181a1.449 1.449 0 00-.138.638c.002.081.031.135.085.159.095.043.181-.02.257-.188.042-.094.077-.199.105-.315a1.23 1.23 0 00.04-.296c-.002-.089-.032-.149-.091-.179zm.712 1.559a.976.976 0 01.1.055.541.541 0 00.058.032c.09.038.172-.011.245-.147.041-.077.14-.304.297-.68.024-.057.029-.101.015-.134-.014-.032-.052-.061-.113-.086a.997.997 0 00-.066-.022c-.022-.007-.041-.013-.057-.02-.036-.015-.061-.037-.075-.066s-.014-.059-.001-.091c.014-.034.045-.06.093-.079a.484.484 0 01.178-.029c.353-.001.699.068 1.037.21a.503.503 0 01.188.116.12.12 0 01.02.13c-.012.027-.027.046-.048.056a.253.253 0 01-.103.015c-.078.001-.13.02-.157.057a4.672 4.672 0 00-.223.473l-.176.461a.78.78 0 00-.023.089c-.011.061-.003.11.023.146a.45.45 0 00.169.115c.098.046.131.107.099.184-.034.08-.126.104-.278.07a3.73 3.73 0 01-1.001-.384 1.957 1.957 0 01-.321-.225c-.069-.064-.092-.125-.067-.184a.114.114 0 01.074-.066.158.158 0 01.113.004zm2.745 1.115c.015.006.049.023.103.051a.345.345 0 00.059.029c.091.034.171-.018.239-.157.038-.079.128-.309.27-.691.022-.058.025-.102.009-.134-.015-.031-.054-.059-.117-.082a.504.504 0 00-.067-.019.688.688 0 01-.058-.018.14.14 0 01-.078-.063.107.107 0 01-.005-.091c.013-.034.043-.062.09-.083a.486.486 0 01.177-.036c.353-.015.701.041 1.045.169a.496.496 0 01.192.109.117.117 0 01.024.129c-.01.028-.025.047-.045.057a.27.27 0 01-.103.019c-.078.004-.129.025-.154.064a4.755 4.755 0 00-.205.481l-.158.467a.59.59 0 00-.019.09c-.008.062.001.11.029.145a.462.462 0 00.173.109c.1.042.135.102.106.18-.03.082-.122.109-.275.081a3.7 3.7 0 01-1.016-.346 1.921 1.921 0 01-.329-.213c-.072-.061-.096-.121-.074-.182a.118.118 0 01.071-.069.192.192 0 01.116.004zm3.082-.633c.149.052.28.137.393.258a.987.987 0 01.268.58c.02.164.002.326-.053.485a.935.935 0 01-.581.597.938.938 0 01-.656.009.926.926 0 01-.535-.449c-.137-.255-.152-.537-.045-.846.105-.302.278-.507.521-.616a.907.907 0 01.688-.018zm-.205.471c-.101-.035-.181.033-.24.204-.078.224-.104.44-.08.648.01.081.043.131.099.151.099.034.179-.036.239-.21a1.72 1.72 0 00.089-.621c-.009-.09-.045-.147-.107-.172zm2.228-.001c.23.074.43.179.599.316a.619.619 0 01.197.274.362.362 0 01.003.239c-.041.129-.148.216-.319.26-.051.014-.08.029-.085.045-.005.015.013.049.053.1a.57.57 0 01.095.512.637.637 0 01-.256.326c-.231.161-.524.186-.878.072a1.644 1.644 0 01-.609-.337.773.773 0 01-.223-.34.483.483 0 01.005-.298c.045-.141.147-.236.307-.286.059-.02.092-.038.097-.055.004-.014-.008-.048-.037-.1a.503.503 0 01-.042-.407c.061-.192.207-.314.436-.367.201-.045.42-.03.657.046zm-.725 1.175a.07.07 0 00-.071.016.182.182 0 00-.051.084.436.436 0 00.03.301.408.408 0 00.251.212.277.277 0 00.174.007.145.145 0 00.097-.097.176.176 0 00-.015-.149 1.157 1.157 0 00-.195-.212.765.765 0 00-.22-.162zm.702-.849a.21.21 0 00-.133-.002.114.114 0 00-.077.075c-.018.057.003.127.065.21.068.094.13.15.185.168.028.009.06-.002.095-.033a.257.257 0 00.076-.118.176.176 0 00-.025-.17.365.365 0 00-.186-.13zm1.099 1.464a.406.406 0 01.249.231.64.64 0 01.006.433 1.384 1.384 0 01-.355.538c-.131.118-.243.163-.338.135-.042-.013-.076-.037-.102-.072s-.034-.069-.024-.102c.005-.018.039-.053.101-.108a.775.775 0 00.107-.113.385.385 0 00.063-.103c.012-.04.001-.072-.032-.098a.564.564 0 01-.133-.128.399.399 0 01-.047-.346.378.378 0 01.174-.224.4.4 0 01.331-.043zm2.648-.48a.961.961 0 01.408.232.987.987 0 01.305.561c.03.163.023.325-.022.488a.937.937 0 01-.541.633.942.942 0 01-.654.052.924.924 0 01-.562-.413c-.153-.245-.186-.526-.099-.842.085-.308.245-.524.48-.648a.906.906 0 01.685-.063zm-.174.483c-.103-.028-.179.045-.226.219a1.446 1.446 0 00-.038.652c.015.08.051.128.109.144.101.028.176-.047.225-.225a1.752 1.752 0 00.049-.626c-.016-.088-.055-.143-.119-.164zm2.192.064c.223.057.413.159.571.306.209.196.275.444.199.745-.062.243-.205.478-.432.706-.25.252-.517.435-.8.55-.066.026-.119.034-.159.023a.619.619 0 01-.241-.152c-.092-.084-.134-.144-.125-.18.006-.023.047-.048.124-.075a.747.747 0 00.267-.166c.076-.072.121-.133.134-.186.011-.042-.006-.069-.051-.08a1.682 1.682 0 00-.116-.019l-.047-.01a.62.62 0 01-.391-.262.799.799 0 01-.119-.326.911.911 0 01.02-.36.66.66 0 01.412-.482c.229-.091.48-.102.754-.032zm-.142.47a.155.155 0 00-.135.029.233.233 0 00-.086.136.532.532 0 00.009.317c.035.097.09.155.167.174a.143.143 0 00.124-.022.196.196 0 00.075-.119.657.657 0 00.013-.214.564.564 0 00-.043-.194.197.197 0 00-.124-.107zm2.135.004a.96.96 0 01.417.216.985.985 0 01.327.549c.037.161.036.324-.002.488a.937.937 0 01-.516.654.94.94 0 01-.652.077.925.925 0 01-.578-.391c-.162-.239-.206-.518-.132-.837.073-.311.225-.533.455-.666a.894.894 0 01.681-.09zm-.155.489c-.104-.024-.177.052-.218.228a1.461 1.461 0 00-.013.653c.018.079.056.126.114.14.102.024.174-.054.216-.234.023-.1.038-.21.043-.33a1.212 1.212 0 00-.018-.298c-.019-.087-.06-.14-.124-.159zm2.065-.047c.218.047.402.128.553.243a.414.414 0 01.129.169.338.338 0 01.018.198c-.026.121-.113.218-.262.292-.042.021-.065.041-.069.057-.007.033.02.062.082.088.292.121.407.322.347.601a.744.744 0 01-.289.442c-.147.115-.341.181-.584.198a1.965 1.965 0 01-.556-.046 1.69 1.69 0 01-.573-.223c-.096-.063-.135-.133-.119-.21a.163.163 0 01.079-.11.186.186 0 01.139-.022c.028.006.101.036.219.091a.756.756 0 00.17.052.529.529 0 00.342-.023c.098-.048.157-.114.175-.2a.242.242 0 00-.056-.217.405.405 0 00-.235-.13.623.623 0 00-.177-.015.24.24 0 01-.068-.001c-.029-.006-.053-.042-.071-.108a.384.384 0 01-.009-.183c.006-.027.017-.044.034-.05a.922.922 0 01.152-.024.529.529 0 00.233-.091.235.235 0 00.109-.147.224.224 0 00-.04-.182.267.267 0 00-.167-.109.345.345 0 00-.112-.008 1.376 1.376 0 00-.181.044.158.158 0 01-.06.007c-.028-.006-.051-.031-.068-.076a.224.224 0 01-.011-.132c.016-.076.099-.133.248-.171a1.587 1.587 0 01.678-.004zm3.754.804l-.22 1.166c-.007.035-.006.06.001.074.007.015.024.025.05.03l.071.013c.053.009.075.046.065.112l-.065.343c-.011.06-.048.088-.111.084-.041-.003-.067 0-.079.008-.012.008-.022.031-.029.07l-.038.199c-.009.072-.049.103-.119.093l-.58-.11c-.041-.008-.066-.02-.076-.036-.01-.016-.01-.048-.001-.094l.033-.174c.009-.047.006-.082-.008-.104-.015-.022-.045-.037-.09-.046l-.661-.125c-.079-.015-.132-.042-.158-.081-.026-.039-.031-.099-.016-.18a.676.676 0 01.087-.246c.046-.069.161-.179.345-.33l.528-.433c.264-.217.455-.351.571-.403a.628.628 0 01.183-.046.632.632 0 01.191.005c.056.011.094.033.114.065.021.033.025.082.012.146zm-.877.741l.016-.083c.019-.101 0-.157-.056-.168-.043-.008-.087.007-.133.046l-.321.27c-.093.079-.144.139-.152.179-.005.029.007.051.037.066.03.014.107.035.232.062l.134.027c.058.011.098.012.12.003.023-.009.04-.033.05-.07.018-.06.043-.171.073-.332zm2.162 1.429l-1.157-.199c-.102-.018-.148-.055-.138-.113a.133.133 0 01.046-.077 3.76 3.76 0 01.244-.168c.254-.168.449-.331.585-.49a.487.487 0 00.122-.22.185.185 0 00-.026-.143.183.183 0 00-.124-.071.262.262 0 00-.123.001c-.03.009-.098.045-.204.107a.154.154 0 01-.104.014.213.213 0 01-.136-.087.185.185 0 01-.044-.146.274.274 0 01.087-.139.78.78 0 01.188-.131c.275-.133.561-.174.859-.123.226.039.406.115.54.227a.46.46 0 01.133.194.46.46 0 01.023.234c-.034.198-.208.388-.522.573-.112.065-.171.117-.178.158a.102.102 0 00.03.088.172.172 0 00.101.051.38.38 0 00.287-.069.596.596 0 01.091-.056.098.098 0 01.055-.003c.1.017.135.11.106.28a.735.735 0 01-.093.249.72.72 0 01-.17.202c-.07.058-.141.08-.211.068a.12.12 0 01-.065-.03.253.253 0 01-.046-.077.16.16 0 00-.05-.071.266.266 0 00-.106-.033zm2.074-1.66c.227.035.427.119.598.251.226.175.316.416.268.723-.039.248-.16.495-.363.743a2.408 2.408 0 01-.744.623c-.063.032-.115.045-.156.038a.623.623 0 01-.254-.129c-.1-.075-.147-.131-.142-.167.004-.024.043-.053.116-.086a.73.73 0 00.249-.191.432.432 0 00.116-.197c.007-.043-.013-.068-.058-.075a1.957 1.957 0 00-.117-.008.332.332 0 01-.048-.006.619.619 0 01-.414-.224.788.788 0 01-.149-.314.91.91 0 01-.015-.36.66.66 0 01.365-.519 1.21 1.21 0 01.748-.102zm-.098.482a.15.15 0 00-.132.042.235.235 0 00-.073.143.533.533 0 00.039.315c.044.093.105.146.183.158a.145.145 0 00.121-.033.201.201 0 00.064-.126.656.656 0 00-.007-.214.557.557 0 00-.061-.19.197.197 0 00-.134-.095zm3.013-.062c.228.03.429.109.603.238.23.17.325.409.284.717-.033.249-.149.499-.347.751a2.41 2.41 0 01-.73.64.276.276 0 01-.155.042.617.617 0 01-.257-.123c-.102-.073-.15-.128-.145-.164.003-.024.041-.053.114-.089a.75.75 0 00.245-.196.432.432 0 00.112-.2c.006-.043-.014-.068-.06-.074a1.418 1.418 0 00-.118-.005.482.482 0 01-.048-.005.621.621 0 01-.419-.215.796.796 0 01-.156-.31.93.93 0 01-.023-.36.66.66 0 01.353-.527c.218-.117.467-.157.747-.12zm-.087.484a.156.156 0 00-.131.045.232.232 0 00-.07.145c-.016.117 0 .221.045.314s.108.143.186.154a.143.143 0 00.12-.036.197.197 0 00.061-.127.671.671 0 00-.012-.214.558.558 0 00-.066-.188.18.18 0 00-.133-.093zm3.083.113l-.941 2.017a.099.099 0 01-.06.052.354.354 0 01-.128 0 1.062 1.062 0 01-.352-.1c-.103-.051-.152-.1-.147-.147a.097.097 0 01.019-.041l.781-1.142a.516.516 0 00.092-.179c.005-.043-.018-.076-.07-.098a1.243 1.243 0 00-.295-.059 1.503 1.503 0 00-.375-.011.17.17 0 00-.091.055.35.35 0 01-.097.078.196.196 0 01-.103.011.205.205 0 01-.17-.119.525.525 0 01-.03-.29.815.815 0 01.127-.371.391.391 0 01.116-.11.198.198 0 01.125-.035c.026.003.082.03.166.08a.577.577 0 00.208.059l1.101.129c.108.013.158.06.148.142a.257.257 0 01-.024.079zm1.137-.319c.24.025.457.087.652.186a.622.622 0 01.249.227c.044.07.061.148.052.233-.014.134-.1.241-.258.321-.047.024-.072.044-.074.061-.002.016.022.045.072.087a.571.571 0 01.199.481.637.637 0 01-.183.372c-.193.206-.474.29-.844.252a1.63 1.63 0 01-.665-.204.756.756 0 01-.288-.287.48.48 0 01-.057-.292c.015-.147.095-.261.241-.343.054-.031.082-.056.084-.074.001-.015-.017-.045-.057-.09a.498.498 0 01-.125-.389c.021-.2.137-.35.351-.449.186-.087.403-.118.651-.092zm-.467 1.299c-.026-.003-.048.008-.067.03a.177.177 0 00-.033.092.445.445 0 00.091.288c.074.092.17.144.289.156a.274.274 0 00.172-.029.144.144 0 00.075-.115c.006-.056-.009-.103-.045-.143s-.114-.095-.235-.167a.756.756 0 00-.247-.112zm.512-.975c-.05-.005-.093.003-.13.026s-.057.052-.06.09c-.006.059.029.123.107.192.086.078.158.12.216.126.03.003.059-.014.087-.052a.256.256 0 00.05-.131.178.178 0 00-.06-.162.363.363 0 00-.21-.089zm1.379 1.21c.056.005.111.024.163.055s.095.072.127.121a.637.637 0 01.093.422 1.083 1.083 0 01-.079.302c-.044.11-.098.209-.161.297-.104.142-.205.209-.304.2a.192.192 0 01-.114-.05c-.033-.029-.047-.061-.044-.095a.409.409 0 01.077-.126c.03-.039.057-.083.082-.132s.038-.087.041-.114c.004-.041-.013-.071-.051-.089a.553.553 0 01-.156-.099.398.398 0 01-.115-.33.374.374 0 01.125-.254.405.405 0 01.316-.108zm3.068.267l-.808-.061c-.036-.003-.054.011-.057.042-.005.074.03.147.106.219.076.072.16.111.253.118a.619.619 0 00.185-.018.612.612 0 00.172-.065c.041-.024.073-.036.096-.034.03.002.058.023.084.061a.181.181 0 01.034.116c-.006.082-.064.158-.173.226a1.03 1.03 0 01-.646.156.9.9 0 01-.589-.254.857.857 0 01-.177-.263.863.863 0 01.143-.919.923.923 0 01.407-.267.986.986 0 01.386-.045.852.852 0 01.541.227.73.73 0 01.169.233.58.58 0 01.06.287.337.337 0 01-.06.179c-.035.045-.077.066-.126.062zm-.74-.378l.174.013c.073.006.113-.025.117-.093a.213.213 0 00-.042-.155.186.186 0 00-.135-.069.18.18 0 00-.157.064.233.233 0 00-.062.138c-.002.034.004.059.02.074.016.016.044.025.085.028zm1.273-.045c.029.002.059.006.091.011a3.3 3.3 0 00.317.043.995.995 0 00.162.002.635.635 0 01.078-.003c.036.002.052.03.048.082a.702.702 0 01-.045.186c-.027.075-.06.146-.099.214a.486.486 0 01-.077.105.093.093 0 01-.068.025.485.485 0 01-.084-.014 2.167 2.167 0 00-.506-.052 1.232 1.232 0 01-.087 0c-.047-.003-.069-.032-.065-.087a.702.702 0 01.053-.182c.033-.085.063-.15.091-.195a.433.433 0 01.091-.108.152.152 0 01.1-.027zm1.597-.373c.066.003.096.051.091.144l-.001.029-.004.045c-.003.062.014.094.05.095.02.001.051-.022.095-.069a.709.709 0 01.536-.205c.192.01.321.086.389.23.026.053.048.08.067.081.013.001.044-.021.093-.064a.708.708 0 01.519-.192.539.539 0 01.357.14c.094.09.137.219.129.388a7.413 7.413 0 01-.013.185c-.004.03-.009.119-.017.269a9.022 9.022 0 01-.012.202l-.004.051a.292.292 0 00.059.196.488.488 0 01.047.069.083.083 0 01.007.044c-.007.146-.184.211-.529.193-.153-.008-.275-.032-.367-.074s-.136-.092-.133-.151a.114.114 0 01.012-.052c.007-.012.031-.042.071-.092.038-.045.064-.2.077-.466a1.106 1.106 0 00-.016-.324c-.022-.073-.07-.112-.146-.116a.165.165 0 00-.165.115 1.92 1.92 0 00-.034.328 3.073 3.073 0 000 .351c.006.042.032.1.078.176.011.018.015.04.014.066-.007.136-.189.195-.546.177-.215-.011-.359-.034-.431-.07a.135.135 0 01-.083-.138c.001-.029.006-.048.014-.059a.693.693 0 01.081-.075.207.207 0 00.053-.065.511.511 0 00.022-.115c.014-.125.025-.252.031-.38.012-.224-.04-.339-.155-.345-.086-.004-.139.041-.16.136-.019.09-.032.218-.041.387a2.633 2.633 0 00-.005.248c.003.039.015.08.036.124a.26.26 0 01.035.122c-.004.074-.059.123-.165.146a1.434 1.434 0 01-.378.027 1.318 1.318 0 01-.387-.062c-.081-.032-.12-.079-.117-.139a.096.096 0 01.02-.057.579.579 0 01.079-.072.286.286 0 00.099-.189c.02-.141.034-.288.042-.44a1.009 1.009 0 00-.005-.228.18.18 0 00-.065-.107.357.357 0 01-.063-.063.097.097 0 01-.012-.057c.004-.077.067-.134.19-.173.296-.089.517-.131.661-.125zm3.512.142c.2.007.368.063.503.168.072.056.121.12.148.19.027.07.038.166.034.287l-.012.256c-.006.177.003.293.026.346.012.026.023.042.035.049a.243.243 0 00.072.021c.037.007.054.032.053.074a.29.29 0 01-.072.169.556.556 0 01-.176.144.536.536 0 01-.273.067.354.354 0 01-.282-.133c-.023-.031-.045-.046-.066-.047-.023-.001-.054.012-.093.04a.645.645 0 01-.395.112.632.632 0 01-.362-.108.45.45 0 01-.139-.171.451.451 0 01-.046-.215.423.423 0 01.156-.311c.155-.139.383-.204.683-.195.067.002.109-.003.127-.015.018-.013.027-.043.029-.091a.681.681 0 00-.029-.265.129.129 0 00-.121-.086c-.035-.001-.066.008-.093.028s-.063.056-.105.11c-.107.142-.217.211-.328.207a.195.195 0 01-.136-.054.166.166 0 01-.049-.132.267.267 0 01.072-.163.585.585 0 01.185-.138c.209-.104.428-.152.654-.144zm-.148.99a.171.171 0 00-.134.057.213.213 0 00-.061.146c-.002.055.01.1.035.134.025.035.06.053.103.054.092.003.14-.073.146-.227.002-.063-.003-.105-.016-.128-.012-.021-.037-.033-.073-.036zm2.1-.817l-.023.998a.493.493 0 00.018.174.23.23 0 00.085.103.303.303 0 01.07.066.12.12 0 01.017.068c-.003.148-.193.217-.569.208a1.926 1.926 0 01-.48-.059.194.194 0 01-.096-.062.145.145 0 01-.035-.099.123.123 0 01.021-.072.505.505 0 01.098-.08.222.222 0 00.079-.127 1.16 1.16 0 00.028-.266c.001-.038 0-.109-.003-.212a4.029 4.029 0 00-.007-.181c-.006-.047-.037-.084-.094-.11-.07-.033-.105-.079-.104-.14.001-.072.049-.125.143-.158.13-.046.269-.085.417-.116.148-.031.262-.045.343-.044.063.002.093.038.092.109zm-.324-.76c.1.002.179.023.237.061.058.039.086.089.084.152-.002.088-.048.157-.137.206a.995.995 0 01-.511.11.367.367 0 01-.199-.053.192.192 0 01-.096-.174c.002-.098.075-.174.218-.227.143-.052.278-.078.404-.075zm1.587 1.011l-.008.551c-.004.244-.002.386.005.426.007.04.035.072.084.094a.26.26 0 01.085.053c.014.016.021.039.021.069a.155.155 0 01-.042.102.22.22 0 01-.109.064 1.65 1.65 0 01-.42.032c-.222-.003-.377-.022-.467-.057a.238.238 0 01-.101-.071.149.149 0 01-.038-.099c0-.027.008-.049.022-.063a.314.314 0 01.095-.052c.045-.019.073-.072.085-.158a5.42 5.42 0 00.037-.635 3.626 3.626 0 00-.016-.54.257.257 0 00-.118-.18.305.305 0 01-.098-.08.15.15 0 01-.025-.091c.001-.056.028-.105.083-.146a.83.83 0 01.26-.112c.08-.023.183-.044.31-.064.127-.02.219-.029.276-.029.091.001.135.058.134.17 0 .037-.008.121-.021.252-.017.206-.029.394-.034.564zm.756.605a.39.39 0 01.283.12.385.385 0 01.116.283.4.4 0 01-.41.407.401.401 0 01-.404-.414.368.368 0 01.106-.265.403.403 0 01.309-.131zm.008-.993c.11.001.204.041.283.12s.117.174.116.283a.4.4 0 01-.41.407.404.404 0 11.011-.81zm3.557.67l.03.604c.003.046.01.079.022.101a.82.82 0 00.107.124c.018.018.026.044.027.077 0 .076-.044.129-.135.159-.09.031-.252.047-.486.049a.971.971 0 01-.337-.038c-.068-.028-.102-.074-.103-.138 0-.023.003-.04.01-.051a.769.769 0 01.068-.08c.045-.048.067-.209.065-.482a.842.842 0 00-.058-.35c-.031-.06-.086-.09-.166-.09-.077.001-.13.026-.158.075-.028.05-.042.139-.041.268l.003.34c0 .068.005.114.014.139a.835.835 0 00.087.145.14.14 0 01.02.07c0 .068-.046.118-.14.151-.094.033-.241.05-.441.052-.319.003-.48-.062-.481-.193 0-.027.004-.048.014-.063a.355.355 0 01.069-.062.141.141 0 00.056-.075c.008-.028.015-.097.021-.207.007-.131.01-.267.008-.411a.406.406 0 00-.02-.155c-.012-.024-.047-.054-.105-.089-.05-.03-.075-.068-.075-.113 0-.046.019-.083.059-.113.04-.03.122-.067.247-.113.11-.04.216-.074.318-.102a.97.97 0 01.21-.042c.034 0 .064.012.087.037a.125.125 0 01.036.089l-.001.043-.001.024c0 .055.024.082.07.082.028 0 .057-.022.087-.066a.494.494 0 01.429-.217.612.612 0 01.373.11.44.44 0 01.154.189c.03.075.049.181.057.322zm1.854.267l-.81.018c-.036.001-.053.017-.052.048.002.074.044.144.126.208.083.064.17.095.263.093a.603.603 0 00.183-.036.583.583 0 00.164-.082c.039-.028.069-.043.092-.043.03-.001.06.017.089.053a.178.178 0 01.045.112c.002.082-.048.163-.15.242a1.03 1.03 0 01-.628.218.902.902 0 01-.611-.196.85.85 0 01-.202-.245.862.862 0 01.053-.929.927.927 0 01.38-.306.967.967 0 01.379-.082.86.86 0 01.561.173c.078.06.142.132.191.216a.574.574 0 01.087.28.326.326 0 01-.042.184c-.029.048-.068.073-.118.074zm-.772-.304l.174-.004c.073-.002.11-.036.108-.104a.215.215 0 00-.057-.15.183.183 0 00-.141-.055.178.178 0 00-.15.079.244.244 0 00-.048.144c.001.034.01.058.027.072.016.013.045.019.087.018zm2.002-.328l.018.551c.008.244.016.386.025.425.009.04.038.07.088.09a.252.252 0 01.087.049.1.1 0 01.024.068.151.151 0 01-.037.104.214.214 0 01-.106.069 1.595 1.595 0 01-.418.051c-.222.007-.378-.004-.469-.035a.227.227 0 01-.104-.066.154.154 0 01-.043-.097.087.087 0 01.02-.064.331.331 0 01.092-.056c.044-.021.07-.075.078-.162.013-.149.016-.361.007-.636a3.517 3.517 0 00-.042-.538.26.26 0 00-.126-.175.326.326 0 01-.102-.075.153.153 0 01-.03-.089c-.002-.056.023-.106.076-.149a.802.802 0 01.255-.124c.079-.027.181-.053.306-.079a1.85 1.85 0 01.275-.042c.091-.003.138.052.141.164a4.26 4.26 0 01-.009.253c-.007.204-.009.392-.006.563zm1.257-.401a.84.84 0 01.515.129c.076.051.13.11.162.178a.756.756 0 01.056.284l.008.256c.008.177.025.292.053.343.014.025.026.04.038.046a.242.242 0 00.073.016c.037.004.056.027.058.07a.289.289 0 01-.059.174.564.564 0 01-.165.157.528.528 0 01-.267.087.357.357 0 01-.291-.111c-.025-.029-.048-.043-.069-.042-.023.001-.053.017-.09.047a.65.65 0 01-.386.142.636.636 0 01-.369-.08.463.463 0 01-.215-.37.427.427 0 01.131-.322c.144-.151.366-.233.666-.247.067-.003.108-.011.125-.025.017-.014.024-.045.022-.093a.68.68 0 00-.049-.262c-.028-.053-.07-.079-.128-.076a.143.143 0 00-.091.035.588.588 0 00-.096.118c-.096.15-.2.227-.311.232a.195.195 0 01-.14-.044.17.17 0 01-.059-.128.265.265 0 01.059-.168.595.595 0 01.174-.152c.205-.12.419-.184.645-.194zm-.072.999a.172.172 0 00-.129.067.213.213 0 00-.05.15.21.21 0 00.045.131.126.126 0 00.107.046c.092-.004.135-.083.128-.238-.003-.063-.011-.105-.025-.126s-.039-.031-.076-.03zm1.898-1.079c.07-.004.114 0 .132.011.018.011.028.041.031.089.002.042.018.063.045.061a.478.478 0 00.112-.072.686.686 0 01.184-.094.719.719 0 01.205-.045.577.577 0 01.4.129.781.781 0 01.22.278c.057.119.09.247.098.381a.941.941 0 01-.252.729.72.72 0 01-.5.247.73.73 0 01-.305-.051.146.146 0 00-.051-.011c-.035.002-.05.037-.046.106.005.09.039.154.102.19a.672.672 0 01.105.07c.012.013.018.034.02.065.004.069-.031.124-.106.165a.76.76 0 01-.322.074 1.377 1.377 0 01-.663-.112c-.098-.045-.149-.104-.154-.179a.123.123 0 01.017-.079.225.225 0 01.08-.06.192.192 0 00.101-.156 5.95 5.95 0 00-.006-.622c-.024-.281-.044-.438-.058-.472-.005-.011-.012-.018-.021-.021a.68.68 0 00-.086-.014.152.152 0 01-.092-.045.145.145 0 01-.04-.095.173.173 0 01.041-.124.49.49 0 01.151-.111c.274-.143.494-.22.658-.232zm.208.639l.001.473.001.057a.1.1 0 00.051.083c.032.02.074.028.126.025.158-.009.23-.143.215-.403-.01-.168-.05-.284-.12-.349a.201.201 0 00-.152-.055c-.08.005-.121.061-.122.169zm2.923.091l-.809.058c-.035.003-.052.019-.05.05.005.074.051.141.136.201.086.06.175.087.268.08a.621.621 0 00.181-.045.585.585 0 00.16-.09c.037-.03.067-.046.09-.048.03-.002.06.014.091.049a.183.183 0 01.051.11c.006.082-.04.165-.138.249a1.03 1.03 0 01-.616.249.898.898 0 01-.62-.166.873.873 0 01-.345-.635.83.83 0 01.138-.53.919.919 0 01.364-.324.983.983 0 01.375-.101.865.865 0 01.569.145.761.761 0 01.202.206.576.576 0 01.101.275.338.338 0 01-.033.186c-.027.051-.066.077-.115.081zm-.786-.266l.174-.012c.073-.005.108-.042.103-.109a.214.214 0 00-.064-.147.18.18 0 00-.143-.048.178.178 0 00-.146.086.235.235 0 00-.041.146c.002.034.012.058.03.07.016.012.045.017.087.014zm1.908-1.322l.031.537c.003.054.01.133.019.236.01.115.018.183.023.203.012.046.038.068.078.064.034-.003.085-.029.152-.079.067-.05.1-.086.098-.108-.001-.013-.016-.034-.044-.065a.115.115 0 01-.033-.066c-.011-.123.136-.198.441-.224.158-.014.284-.008.379.016a.19.19 0 01.097.057.159.159 0 01.045.096c.004.051-.017.089-.065.114a.718.718 0 01-.098.031.577.577 0 00-.188.11c-.076.06-.112.102-.11.126.001.016.056.087.165.213.108.126.209.235.301.326.06.06.106.102.138.126s.077.048.134.073c.086.037.132.085.137.142a.163.163 0 01-.066.149.386.386 0 01-.209.07l-.557.048a.2.2 0 01-.17-.063l-.317-.34a6.106 6.106 0 00-.153-.159c-.018-.017-.033-.025-.045-.024-.014.001-.022.012-.025.033a.612.612 0 00.003.117.262.262 0 00.027.111.281.281 0 00.086.078c.032.021.05.056.054.102.007.08-.031.141-.112.184-.082.043-.22.072-.415.089-.229.02-.379.023-.449.01a.195.195 0 01-.106-.061.176.176 0 01-.051-.107c-.004-.043.017-.083.062-.119a.377.377 0 00.074-.067.159.159 0 00.022-.067 4.974 4.974 0 00-.026-.743l-.032-.375a.912.912 0 00-.041-.243c-.016-.034-.05-.053-.103-.055-.095-.004-.145-.039-.151-.104-.004-.043.013-.084.052-.123a.695.695 0 01.194-.121c.29-.137.508-.211.652-.224.066-.005.1.02.102.076zm3.132-.432c.316-.033.576.027.782.18a.93.93 0 01-.184 1.593.935.935 0 01-.303.09c-.083.009-.148.001-.192-.025-.045-.025-.08-.073-.106-.144-.008-.021-.02-.031-.034-.029-.017.002-.038.018-.063.048-.107.13-.219.201-.338.214a.323.323 0 01-.264-.081.415.415 0 01-.125-.275.964.964 0 01.136-.603.873.873 0 01.224-.261.538.538 0 01.267-.114.465.465 0 01.236.051c.029.014.051.021.065.019a.126.126 0 00.05-.022.663.663 0 01.261-.11c.081-.009.125.021.132.088a.682.682 0 01-.009.16c-.048.319-.068.526-.058.619.004.041.026.059.066.055.055-.006.113-.046.175-.122a.61.61 0 00.113-.228.737.737 0 00.022-.268.61.61 0 00-.224-.429c-.152-.122-.359-.169-.622-.142a1.21 1.21 0 00-.84.436 1.336 1.336 0 00-.264.553 1.174 1.174 0 00-.029.402c.026.252.141.42.343.506a.99.99 0 00.493.059c.237-.025.454-.097.653-.217a.333.333 0 01.13-.052.117.117 0 01.082.02.087.087 0 01.04.066c.005.052-.026.107-.094.164-.18.15-.434.243-.763.277-.308.032-.559-.004-.754-.111a.778.778 0 01-.321-.329.986.986 0 01-.105-.353 1.508 1.508 0 01.134-.783c.145-.324.373-.566.683-.726.176-.094.378-.152.605-.176zm-.025.874c-.037.004-.079.049-.128.134a.799.799 0 00-.1.415c.005.052.023.077.053.074.032-.003.067-.042.106-.116.037-.073.067-.152.09-.237a.597.597 0 00.025-.206c-.006-.046-.021-.067-.046-.064z"/><path d="M90.174 58.052l.098.597a.24.24 0 00.034.098c.015.02.055.057.121.111a.11.11 0 01.035.074c.009.075-.029.133-.116.174-.087.041-.246.075-.477.104a.953.953 0 01-.339 0c-.071-.02-.11-.062-.118-.126a.102.102 0 01.004-.052.732.732 0 01.059-.088c.04-.053.043-.215.009-.486a.833.833 0 00-.098-.341c-.037-.057-.096-.08-.176-.07-.076.01-.126.04-.148.093s-.026.143-.01.271l.042.338a.47.47 0 00.03.136.83.83 0 00.103.134.129.129 0 01.027.068c.008.067-.032.122-.122.166-.09.043-.234.077-.432.102-.317.039-.484-.006-.5-.137a.113.113 0 01.007-.064.315.315 0 01.062-.069.137.137 0 00.047-.081 1.496 1.496 0 00-.003-.208 7.078 7.078 0 00-.038-.409.425.425 0 00-.037-.152c-.015-.023-.053-.049-.115-.077-.053-.025-.082-.059-.088-.103a.136.136 0 01.046-.119c.036-.034.114-.081.233-.14.105-.052.206-.098.305-.137.098-.039.166-.061.204-.066a.116.116 0 01.091.027c.026.022.042.05.046.084l.004.043.001.024c.007.055.033.079.079.073.027-.003.054-.029.079-.076a.493.493 0 01.402-.264.61.61 0 01.384.067.445.445 0 01.174.17c.036.068.067.172.091.311zm1.865.051l-.803.112c-.035.005-.051.023-.047.053.01.074.06.138.15.192.089.054.18.075.272.062a.609.609 0 00.178-.057.603.603 0 00.154-.1c.035-.033.064-.051.087-.054.03-.004.061.01.095.042a.182.182 0 01.058.106c.011.082-.029.168-.121.258-.162.16-.362.257-.598.29a.902.902 0 01-.63-.124.872.872 0 01-.386-.611.829.829 0 01.103-.538.933.933 0 01.341-.348.976.976 0 01.367-.126.854.854 0 01.577.107.748.748 0 01.215.192.565.565 0 01.119.268.334.334 0 01-.021.188c-.025.052-.061.082-.11.088zm-.803-.212l.173-.024c.073-.01.105-.049.095-.116a.21.21 0 00-.074-.142.183.183 0 00-.146-.039.177.177 0 00-.14.096.241.241 0 00-.032.148c.005.034.016.057.035.068.018.012.048.014.089.009zm1.952-.56l.083.545c.036.241.061.381.075.419.013.039.046.065.098.079a.276.276 0 01.092.038c.017.014.027.035.032.065a.153.153 0 01-.025.108.211.211 0 01-.097.081 1.603 1.603 0 01-.409.1c-.219.033-.376.04-.47.021a.223.223 0 01-.111-.054.15.15 0 01-.054-.092.088.088 0 01.012-.066.317.317 0 01.085-.067c.042-.026.061-.083.058-.17a5.568 5.568 0 00-.068-.633 3.613 3.613 0 00-.105-.53.26.26 0 00-.146-.159.336.336 0 01-.11-.062.15.15 0 01-.04-.085c-.008-.055.011-.108.058-.157a.82.82 0 01.238-.153c.075-.036.173-.074.295-.114.122-.04.211-.065.268-.074.09-.014.143.035.16.146.005.036.012.12.021.252.017.206.037.393.06.562zm1.19-.545a.843.843 0 01.526.067.45.45 0 01.182.157c.04.064.07.155.09.275l.038.253c.029.175.06.287.093.335.017.023.031.037.044.042a.237.237 0 00.074.007c.037 0 .059.021.066.062a.29.29 0 01-.038.18.559.559 0 01-.145.175.524.524 0 01-.255.118.353.353 0 01-.302-.076c-.029-.025-.053-.036-.074-.033-.023.004-.05.023-.083.057a.652.652 0 01-.366.187.635.635 0 01-.376-.036.46.46 0 01-.257-.342.423.423 0 01.092-.335c.125-.167.336-.275.632-.325.066-.011.106-.024.121-.04s.019-.047.011-.095a.673.673 0 00-.08-.254c-.034-.049-.079-.07-.135-.06a.153.153 0 00-.086.045.624.624 0 00-.081.128c-.077.16-.171.249-.281.267a.193.193 0 01-.144-.027.17.17 0 01-.074-.12.26.26 0 01.039-.173.588.588 0 01.155-.172c.185-.141.39-.231.614-.267zm.047 1a.173.173 0 00-.12.082.21.21 0 00-.031.155.209.209 0 00.061.125c.032.029.069.04.112.033.091-.015.124-.099.099-.251-.01-.062-.023-.103-.04-.122-.018-.02-.045-.027-.081-.022zm1.755-1.299c.069-.012.113-.014.132-.006.019.009.033.037.042.084.007.042.025.06.052.055a.445.445 0 00.102-.085c.043-.042.1-.08.171-.116a.722.722 0 01.199-.07.575.575 0 01.412.079c.1.06.183.143.252.249.071.112.119.234.144.367a.946.946 0 01-.161.754.718.718 0 01-.467.306.743.743 0 01-.309-.014c-.022-.005-.039-.007-.052-.005-.034.006-.045.043-.032.111.016.089.058.148.125.176.062.027.1.046.113.057.013.011.022.032.028.062.012.068-.016.127-.085.177a.772.772 0 01-.311.113 1.375 1.375 0 01-.671-.03c-.103-.033-.161-.085-.174-.159-.006-.034-.004-.061.007-.081a.251.251 0 01.072-.07.19.19 0 00.081-.167c0-.073-.027-.279-.081-.617-.058-.276-.097-.429-.115-.461-.007-.01-.014-.017-.023-.018a.66.66 0 00-.087-.003c-.038 0-.07-.011-.097-.034s-.045-.052-.051-.089a.172.172 0 01.026-.128.501.501 0 01.136-.129c.252-.173.46-.276.622-.308zm.284.608l.059.469a.943.943 0 00.008.056.1.1 0 00.061.076.213.213 0 00.128.01c.156-.028.211-.17.165-.426-.03-.166-.084-.276-.162-.332a.202.202 0 00-.157-.036c-.08.015-.114.076-.102.183zm2.905-.269l-.795.158c-.035.007-.049.026-.044.056.015.073.068.134.16.183a.405.405 0 00.275.046c.054-.011.112-.033.174-.067s.111-.07.148-.109c.033-.034.061-.054.083-.059.029-.006.062.006.097.037.035.03.057.065.065.103.016.081-.019.169-.106.264a1.034 1.034 0 01-.581.324.901.901 0 01-.636-.087.871.871 0 01-.421-.587.83.83 0 01.071-.543.923.923 0 01.321-.367.98.98 0 01.359-.147.86.86 0 01.583.073.73.73 0 01.225.179.575.575 0 01.134.26.328.328 0 01-.01.189c-.018.053-.053.085-.102.094zm-.813-.165l.171-.034c.072-.014.102-.055.089-.121a.212.212 0 00-.082-.138.182.182 0 00-.148-.03.178.178 0 00-.134.104.247.247 0 00-.023.15c.007.034.02.056.039.066.018.01.047.011.088.003zm1.721-1.551l.099.529c.01.053.027.13.049.232.025.113.041.179.049.199.018.044.046.062.086.053.034-.007.081-.04.141-.098.06-.058.088-.098.084-.119-.003-.012-.02-.032-.052-.059a.12.12 0 01-.042-.061c-.026-.121.11-.214.409-.279.155-.034.281-.045.377-.033a.187.187 0 01.103.044c.03.025.049.055.057.09.011.05-.005.091-.049.122a.64.64 0 01-.093.043.584.584 0 00-.172.133c-.067.069-.098.116-.093.139.003.016.067.079.191.19s.237.206.34.285c.067.052.118.088.153.107a.728.728 0 00.142.055c.09.026.142.067.154.123a.161.161 0 01-.046.156.383.383 0 01-.199.096l-.546.119a.2.2 0 01-.177-.041l-.358-.296a4.823 4.823 0 00-.172-.138c-.02-.014-.036-.02-.047-.018-.014.003-.02.015-.02.036 0 .021.006.06.018.116.011.05.025.086.041.106a.27.27 0 00.096.066c.034.017.056.049.067.094.017.078-.012.144-.088.197-.075.053-.209.1-.4.142a2.127 2.127 0 01-.444.067.195.195 0 01-.113-.047.175.175 0 01-.064-.099c-.009-.043.006-.085.047-.126a.394.394 0 00.065-.076.158.158 0 00.013-.07 4.904 4.904 0 00-.121-.733l-.08-.367a.88.88 0 00-.072-.236c-.021-.032-.057-.046-.109-.041-.095.008-.149-.02-.163-.084-.009-.042.002-.085.036-.128a.702.702 0 01.177-.145c.271-.173.477-.275.618-.305.062-.016.098.004.108.06zm2.324 1.009a.403.403 0 01.49.306.379.379 0 01-.054.307.402.402 0 01-.251.175.403.403 0 01-.489-.301.38.38 0 01.052-.312.414.414 0 01.252-.175zm1.001-1.215c.056-.014.15-.024.282-.031a.424.424 0 00.065-.009.456.456 0 00.103-.057.188.188 0 01.062-.031c.051-.013.111.007.18.06.055.042.104.09.146.146a.432.432 0 01.08.152.152.152 0 01-.02.123.167.167 0 01-.106.073.203.203 0 01-.112-.002 1.18 1.18 0 01-.179-.088c-.089-.051-.156-.071-.203-.059a.117.117 0 00-.073.054.112.112 0 00-.014.089c.014.054.079.093.195.114.209.038.377.094.502.169a.432.432 0 01.204.279c.038.154.002.3-.108.437a.706.706 0 01-.397.242 2.341 2.341 0 01-.243.037c-.111.015-.174.023-.187.027a.32.32 0 00-.049.017c-.031.012-.054.021-.069.024a.188.188 0 01-.134-.009.586.586 0 01-.175-.163.61.61 0 01-.115-.213c-.025-.102.002-.163.083-.183a.134.134 0 01.094.01c.031.014.1.055.206.123a.61.61 0 00.139.073.184.184 0 00.104.003.136.136 0 00.082-.051.103.103 0 00.014-.086c-.012-.05-.067-.085-.163-.105a1.238 1.238 0 01-.456-.175.496.496 0 01-.2-.294.523.523 0 01.037-.372.61.61 0 01.425-.324zm1.744-1.015l.125.523.06.229c.03.112.049.177.058.196.02.043.049.06.088.049a.359.359 0 00.136-.105c.057-.061.083-.102.078-.123-.003-.012-.022-.031-.055-.056a.116.116 0 01-.045-.059c-.032-.119.099-.219.395-.298.153-.041.278-.058.375-.051a.198.198 0 01.105.039.168.168 0 01.061.087c.013.05-.001.091-.044.124a.755.755 0 01-.091.048.573.573 0 00-.165.141c-.064.072-.093.12-.087.143.004.015.071.076.199.18.129.105.247.194.354.269.069.049.122.082.158.1a.753.753 0 00.144.048c.091.022.145.06.159.115a.16.16 0 01-.039.158.39.39 0 01-.194.106l-.54.145a.2.2 0 01-.178-.032l-.371-.279a5.843 5.843 0 00-.179-.13c-.021-.013-.037-.019-.048-.015-.013.004-.02.016-.019.037a.664.664 0 00.024.115c.013.05.029.084.046.104.017.02.05.04.099.062.035.015.059.046.071.091.021.077-.005.144-.078.201-.073.056-.204.11-.392.161-.222.06-.369.089-.44.088a.202.202 0 01-.115-.041.178.178 0 01-.069-.096c-.011-.042.002-.085.041-.128a.387.387 0 00.061-.079.152.152 0 00.01-.07 4.855 4.855 0 00-.156-.726l-.098-.363a.895.895 0 00-.083-.232c-.022-.031-.059-.043-.111-.036-.094.012-.15-.013-.167-.076-.011-.042-.001-.085.029-.13a.722.722 0 01.17-.153c.262-.185.463-.297.603-.335.065-.02.102-.001.115.054zm2.334.882a.4.4 0 01.335.059c.114.08.194.2.24.36a1.33 1.33 0 01-.006.645c-.045.17-.115.269-.211.297a.195.195 0 01-.124-.005c-.041-.016-.066-.04-.076-.073a.411.411 0 01.026-.145.865.865 0 00.029-.153.374.374 0 00-.003-.121c-.011-.04-.038-.061-.08-.065a.585.585 0 01-.181-.035.397.397 0 01-.227-.265.377.377 0 01.024-.282.396.396 0 01.254-.217zm3.444-.547l-.256-.215a1.177 1.177 0 00-.112-.085.064.064 0 00-.051-.003c-.039.013-.068.062-.086.147l-.121.559c-.023.107-.068.172-.133.193a.18.18 0 01-.125-.006.571.571 0 01-.156-.106l-.756-.656a1.393 1.393 0 00-.276-.196.399.399 0 00-.136-.012.13.13 0 01-.122-.092c-.027-.084.019-.164.138-.24.12-.075.258-.138.414-.188.349-.113.544-.105.586.025.008.024.003.066-.015.126a.065.065 0 000 .034.631.631 0 00.135.153c.092.089.158.127.2.114.024-.008.046-.045.065-.112.02-.067.024-.117.013-.15a.13.13 0 00-.051-.073.733.733 0 00-.147-.058c-.046-.014-.074-.039-.086-.075-.027-.085.042-.169.208-.252.101-.051.223-.099.366-.146.165-.054.289-.078.371-.074.082.004.134.037.154.099a.14.14 0 01.007.065.648.648 0 01-.044.105.072.072 0 00-.001.056.595.595 0 00.136.162c.071.069.124.097.16.085.04-.013.072-.082.098-.207a.464.464 0 00.014-.18c-.007-.021-.035-.047-.084-.079a.163.163 0 01-.07-.088.124.124 0 01.039-.143.864.864 0 01.3-.15c.093-.03.178-.05.254-.059a.204.204 0 01.119.02.134.134 0 01.069.079.114.114 0 01-.017.103.763.763 0 01-.1.083.262.262 0 00-.079.098.788.788 0 00-.046.183l-.154.924c-.045.27-.114.42-.206.45-.04.013-.091.002-.155-.032a1.338 1.338 0 01-.261-.186z"/><path d="M114.388 53.082l-.265-.204a.933.933 0 00-.115-.08.06.06 0 00-.051-.001c-.039.014-.066.064-.081.15l-.099.564c-.019.108-.061.174-.125.198a.185.185 0 01-.125 0 .565.565 0 01-.16-.099l-.782-.625a1.363 1.363 0 00-.283-.185.387.387 0 00-.136-.006.122.122 0 01-.075-.022.124.124 0 01-.05-.065c-.031-.083.012-.164.128-.245.118-.08.253-.148.406-.205.344-.127.54-.126.587.001.009.024.005.066-.01.126a.065.065 0 00.001.034.631.631 0 00.141.148c.095.086.163.121.204.106.024-.009.044-.047.061-.114s.019-.117.007-.151a.13.13 0 00-.054-.071.713.713 0 00-.15-.052c-.046-.012-.076-.036-.089-.072-.031-.084.035-.17.198-.26.099-.055.219-.108.36-.16.163-.06.285-.09.368-.089s.135.032.158.093c.009.025.012.046.009.064a.597.597 0 01-.04.106.08.08 0 000 .057.593.593 0 00.142.156c.073.066.128.092.163.079.039-.014.068-.085.09-.211a.47.47 0 00.007-.18c-.007-.02-.037-.046-.087-.076a.159.159 0 01-.073-.085.123.123 0 01.033-.144.873.873 0 01.293-.161c.092-.034.176-.057.252-.069a.204.204 0 01.119.015.13.13 0 01.072.077.115.115 0 01-.013.104.784.784 0 01-.097.087.278.278 0 00-.075.101.733.733 0 00-.038.184l-.117.929c-.035.271-.097.424-.188.457-.039.014-.09.006-.156-.026a1.7 1.7 0 01-.265-.178z"/><path d="M117.589 51.806l-.274-.192a1.135 1.135 0 00-.118-.075.06.06 0 00-.051.001c-.038.016-.063.067-.073.154l-.074.568c-.014.109-.053.177-.116.204a.178.178 0 01-.125.005.574.574 0 01-.164-.092l-.809-.589a1.344 1.344 0 00-.291-.172.38.38 0 00-.137 0 .124.124 0 01-.076-.019.133.133 0 01-.053-.062c-.034-.081.005-.165.117-.251.114-.085.246-.159.397-.223.338-.142.533-.151.586-.025.01.023.008.066-.005.127a.065.065 0 00.003.034c.01.023.059.07.147.141.099.081.169.113.209.097.023-.01.042-.049.056-.117.014-.068.014-.118 0-.151a.127.127 0 00-.057-.068.704.704 0 00-.152-.045c-.047-.01-.077-.033-.092-.068-.035-.082.027-.172.186-.269.096-.059.213-.118.352-.176.16-.067.281-.102.363-.105.082-.003.136.026.161.086.01.024.014.046.012.064a.574.574 0 01-.035.108.078.078 0 00.003.056.616.616 0 00.149.15c.076.062.132.086.167.071.038-.016.065-.088.08-.214a.467.467 0 00-.001-.18c-.008-.02-.038-.044-.09-.072a.155.155 0 01-.077-.081.123.123 0 01.027-.145.862.862 0 01.286-.174c.09-.038.173-.065.249-.08a.21.21 0 01.12.01c.036.015.062.04.076.073a.114.114 0 01-.009.104.696.696 0 01-.092.091.26.26 0 00-.07.104.739.739 0 00-.03.186l-.075.934c-.022.273-.078.428-.167.465-.038.016-.09.01-.157-.019a1.904 1.904 0 01-.276-.169zm1.385-1.122a.405.405 0 11.336.738.405.405 0 01-.306.015.385.385 0 01-.232-.215.38.38 0 01-.01-.316.418.418 0 01.212-.222zm3.028-1.823l.295.529c.023.04.044.067.065.081a.901.901 0 00.151.064.11.11 0 01.058.057c.034.067.017.135-.05.202-.068.068-.205.154-.414.259a.95.95 0 01-.318.115c-.073.005-.125-.021-.154-.078a.103.103 0 01-.014-.05.92.92 0 01.025-.102c.019-.064-.033-.217-.156-.46a.839.839 0 00-.207-.288c-.054-.041-.117-.043-.189-.006-.068.035-.105.081-.108.138-.003.057.024.143.083.259l.154.303c.03.06.055.1.074.118a.862.862 0 00.142.092.135.135 0 01.049.054c.031.06.011.126-.059.197a1.473 1.473 0 01-.372.242c-.285.144-.457.158-.517.04-.012-.024-.018-.045-.015-.063a.307.307 0 01.035-.086.144.144 0 00.017-.092 1.332 1.332 0 00-.074-.195 6.738 6.738 0 00-.175-.372.442.442 0 00-.087-.131.286.286 0 00-.134-.033c-.058-.005-.097-.028-.117-.068a.133.133 0 01.003-.128 1.2 1.2 0 01.171-.211c.081-.085.161-.162.24-.232s.135-.114.169-.131a.117.117 0 01.095-.006.13.13 0 01.072.064.747.747 0 00.027.061c.025.049.058.063.099.042.025-.012.041-.045.049-.098.024-.171.12-.3.288-.385a.614.614 0 01.383-.067.431.431 0 01.221.101c.061.054.125.141.195.264zm1.803-.646l-.708.394c-.031.017-.039.039-.024.067.036.065.106.107.209.125s.195.005.276-.041c.048-.027.097-.066.145-.117s.084-.101.107-.149c.021-.043.041-.07.061-.081.026-.015.061-.013.104.005a.182.182 0 01.093.078c.04.072.034.167-.02.284a1.03 1.03 0 01-.453.486.901.901 0 01-.632.112.875.875 0 01-.581-.43.842.842 0 01-.099-.539.927.927 0 01.193-.448.994.994 0 01.297-.25.863.863 0 01.577-.109c.097.017.187.05.27.102a.58.58 0 01.208.207.33.33 0 01.048.182c-.004.057-.027.098-.071.122zm-.825.091l.152-.085c.064-.036.08-.083.047-.142a.216.216 0 00-.12-.106.178.178 0 00-.15.017.179.179 0 00-.096.14.245.245 0 00.024.15c.017.03.036.047.057.051.021.003.05-.005.086-.025zm1.629-1.261l.283.473c.125.209.202.329.229.36.027.031.067.042.121.036a.27.27 0 01.1 0c.021.006.039.022.054.048a.156.156 0 01.018.109.212.212 0 01-.059.111 1.604 1.604 0 01-.34.248c-.19.114-.332.18-.426.197a.232.232 0 01-.123-.007.153.153 0 01-.085-.064c-.014-.023-.019-.045-.014-.066a.314.314 0 01.053-.094c.028-.04.025-.1-.011-.18a5.585 5.585 0 00-.303-.559 3.454 3.454 0 00-.298-.45.257.257 0 00-.195-.091.32.32 0 01-.125-.016.146.146 0 01-.069-.064c-.029-.048-.031-.104-.006-.168a.82.82 0 01.162-.232 2.839 2.839 0 01.449-.388c.078-.047.146-.022.203.074.019.031.057.107.115.225.092.185.181.351.267.498zm.903-.986a.85.85 0 01.509-.151.447.447 0 01.23.071.738.738 0 01.193.216l.137.216c.097.149.17.238.22.269a.125.125 0 00.057.021.236.236 0 00.071-.024c.034-.015.063-.005.086.03.03.046.043.106.038.18a.557.557 0 01-.062.219.53.53 0 01-.186.211.354.354 0 01-.307.052c-.037-.012-.064-.012-.081-.001-.019.012-.037.041-.053.086a.642.642 0 01-.26.318.633.633 0 01-.359.119.45.45 0 01-.212-.06.455.455 0 01-.161-.15.424.424 0 01-.051-.344c.047-.203.197-.387.448-.551.056-.036.088-.065.095-.085.007-.02-.002-.051-.028-.091a.65.65 0 00-.176-.2.13.13 0 00-.149-.001.145.145 0 00-.06.076.605.605 0 00-.023.15c-.006.178-.056.297-.15.358a.196.196 0 01-.143.034.168.168 0 01-.116-.08.263.263 0 01-.034-.174.586.586 0 01.072-.219c.113-.207.265-.371.455-.495zm.446.897c-.043.028-.068.069-.077.124s.002.106.034.154a.21.21 0 00.106.09.127.127 0 00.116-.015c.077-.05.073-.14-.011-.27-.034-.053-.063-.085-.086-.096-.024-.01-.051-.006-.082.013zm1.091-1.936c.056-.041.095-.062.116-.063.021 0 .046.019.074.057.025.034.049.043.071.027a.482.482 0 00.055-.121.685.685 0 01.103-.179.753.753 0 01.148-.15.576.576 0 01.405-.109c.116.01.228.048.336.114.113.069.21.158.29.267.17.233.232.482.185.748a.725.725 0 01-.286.48.74.74 0 01-.284.123.142.142 0 00-.048.018c-.028.02-.021.058.019.114.053.073.116.108.189.104.068-.003.11-.002.126.002s.034.019.052.044c.041.056.041.121.001.196a.764.764 0 01-.23.238 1.387 1.387 0 01-.617.267c-.107.016-.182-.006-.226-.066-.02-.028-.03-.053-.029-.076a.25.25 0 01.034-.094.19.19 0 000-.185 5.872 5.872 0 00-.343-.519c-.173-.223-.275-.344-.305-.364-.01-.007-.02-.009-.029-.006a.666.666 0 00-.08.035.152.152 0 01-.102.012.139.139 0 01-.085-.058.175.175 0 01-.033-.126.481.481 0 01.066-.175c.152-.271.294-.456.427-.555zm.521.423l.258.396.032.047a.1.1 0 00.089.042.207.207 0 00.119-.047c.128-.094.115-.246-.039-.455-.099-.136-.196-.212-.291-.228a.198.198 0 00-.157.036c-.065.048-.069.118-.011.209zm2.5-1.619l-.622.519c-.027.023-.031.046-.011.07.048.057.124.085.228.084a.408.408 0 00.264-.091.624.624 0 00.121-.142.604.604 0 00.078-.167c.013-.046.027-.077.045-.091.023-.019.057-.024.103-.014.046.01.081.03.106.059.053.063.064.158.034.283a1.031 1.031 0 01-.355.562.896.896 0 01-.6.228.871.871 0 01-.65-.315.833.833 0 01-.197-.511.924.924 0 01.107-.476.97.97 0 01.245-.301.858.858 0 01.547-.214.74.74 0 01.284.05.57.57 0 01.243.165.32.32 0 01.081.17c.003.057-.012.101-.051.132zm-.793.244l.134-.112c.057-.047.063-.097.02-.148a.22.22 0 00-.138-.082.182.182 0 00-.145.045.178.178 0 00-.068.155.243.243 0 00.052.143c.022.026.044.04.065.039.021 0 .048-.014.08-.04zm.73-2.215l.364.395.164.171c.081.083.13.13.147.143.039.028.072.028.101 0 .025-.024.047-.077.067-.158.02-.081.023-.13.008-.145-.009-.009-.034-.017-.075-.023a.11.11 0 01-.068-.03c-.087-.089-.02-.239.199-.453a1.16 1.16 0 01.302-.228.192.192 0 01.111-.017.156.156 0 01.095.046.11.11 0 01.023.129.67.67 0 01-.056.086.567.567 0 00-.075.204c-.02.094-.022.15-.005.167.011.011.099.031.262.06.164.028.31.049.44.062.084.009.146.012.187.01a.741.741 0 00.149-.028c.09-.026.156-.018.196.023a.162.162 0 01.044.157.394.394 0 01-.117.187l-.4.39a.2.2 0 01-.171.059l-.46-.062a6.121 6.121 0 00-.219-.026c-.025-.001-.041.002-.049.01-.01.01-.009.023.002.041a.647.647 0 00.077.088c.036.037.067.06.091.068a.272.272 0 00.116.005c.038-.004.074.011.107.045.056.057.066.128.03.213-.036.085-.124.195-.264.332-.165.161-.278.258-.341.292a.195.195 0 01-.12.02.176.176 0 01-.107-.05c-.03-.031-.04-.075-.027-.132a.43.43 0 00.015-.098.151.151 0 00-.026-.066 4.912 4.912 0 00-.491-.557l-.263-.269a.915.915 0 00-.186-.162c-.034-.016-.072-.009-.114.023-.076.057-.137.062-.183.015-.03-.031-.043-.074-.038-.128a.67.67 0 01.073-.216c.138-.29.259-.485.362-.587.043-.046.085-.048.123-.006zm2.526-.477a.4.4 0 01.273-.139.388.388 0 01.304.104c.085.075.13.168.135.281a.402.402 0 01-.102.289.4.4 0 01-.273.139.387.387 0 01-.3-.1.377.377 0 01-.139-.284.413.413 0 01.102-.29zm.094-1.602c.035-.046.102-.112.201-.2a.313.313 0 00.045-.048.431.431 0 00.045-.109.206.206 0 01.029-.063c.032-.042.091-.064.178-.066a.745.745 0 01.205.022c.068.017.12.04.158.068a.155.155 0 01.062.108.175.175 0 01-.037.124.196.196 0 01-.089.068c-.035.013-.1.028-.195.043-.101.015-.166.042-.196.08a.115.115 0 00-.023.088.113.113 0 00.045.079c.045.034.119.023.224-.033.187-.101.353-.162.498-.182a.43.43 0 01.333.09.48.48 0 01.189.409.705.705 0 01-.159.437 2.342 2.342 0 01-.166.181 3.017 3.017 0 00-.129.138.339.339 0 00-.027.044c-.017.029-.029.05-.039.062a.184.184 0 01-.11.076.588.588 0 01-.239-.017.605.605 0 01-.223-.094c-.084-.064-.1-.129-.05-.195a.142.142 0 01.079-.051 2.13 2.13 0 01.238-.032.649.649 0 00.154-.03.184.184 0 00.083-.062.134.134 0 00.032-.091.1.1 0 00-.043-.076c-.041-.031-.105-.025-.193.02a1.225 1.225 0 01-.466.148.498.498 0 01-.339-.104.524.524 0 01-.203-.314.602.602 0 01.128-.518zm.641-1.899l.456.285a10.132 10.132 0 00.383.22c.045.017.077.008.097-.027a.366.366 0 00.023-.17c-.002-.084-.012-.131-.031-.142-.011-.006-.037-.007-.079-.002a.113.113 0 01-.073-.011c-.107-.062-.083-.226.071-.49.08-.137.157-.237.231-.3a.198.198 0 01.103-.046.158.158 0 01.104.019c.045.026.063.066.056.119a.744.744 0 01-.031.098.558.558 0 00-.018.217c.005.096.018.151.039.163.014.008.103.004.269-.012a6.11 6.11 0 00.44-.057c.084-.014.144-.027.183-.04a.7.7 0 00.136-.067c.08-.049.145-.059.195-.03.052.031.08.077.084.14a.388.388 0 01-.064.211l-.282.482a.198.198 0 01-.149.102l-.46.062a5.433 5.433 0 00-.218.033c-.024.005-.039.013-.045.023-.007.012-.003.025.013.039a.73.73 0 00.097.065c.044.026.08.04.106.042a.287.287 0 00.113-.026c.036-.014.074-.009.114.015.069.04.098.106.086.198-.012.091-.068.221-.166.39-.116.199-.2.323-.251.372a.191.191 0 01-.111.051.173.173 0 01-.116-.02c-.038-.022-.058-.062-.061-.12a.402.402 0 00-.012-.099.151.151 0 00-.043-.057 4.907 4.907 0 00-.621-.407l-.325-.19a.932.932 0 00-.222-.107c-.037-.007-.072.011-.104.052-.058.075-.116.096-.172.063-.038-.022-.061-.06-.07-.113a.702.702 0 01.013-.228c.056-.316.121-.537.194-.662.031-.055.071-.068.118-.038z"/></g><path d="M36.031 49.44l-1.285 1.429a.69.69 0 01-.202.171.267.267 0 01-.188.01.321.321 0 01-.206-.171.816.816 0 01-.035-.159l-.279-1.814a.668.668 0 00-.058-.216.256.256 0 00-.122-.104c-.068-.033-.091-.087-.07-.162.026-.092.108-.145.247-.159.139-.014.325.011.558.077.243.068.416.137.52.206.104.069.145.142.123.219-.014.05-.058.088-.132.113-.057.019-.089.043-.097.071a.34.34 0 000 .121l.082.566c.011.083.037.13.078.141.039.011.08.001.122-.029a1.35 1.35 0 00.19-.197c.152-.181.241-.288.267-.321a.244.244 0 00.047-.08c.011-.04-.007-.083-.055-.127-.053-.049-.072-.099-.058-.149.04-.142.249-.159.629-.053.189.053.318.106.388.158.069.052.094.115.073.189-.025.088-.09.124-.196.109a.367.367 0 00-.151-.004.636.636 0 00-.19.165zm1.402.606l-.269 1.043a.562.562 0 00-.024.187.245.245 0 00.064.129c.03.036.049.065.057.087a.123.123 0 010 .076c-.04.154-.255.181-.647.08a2.052 2.052 0 01-.488-.179.213.213 0 01-.085-.089.157.157 0 01-.012-.112c.008-.032.021-.056.039-.07s.059-.035.123-.06a.24.24 0 00.114-.114c.032-.058.063-.149.095-.272a7.338 7.338 0 00.086-.416c.006-.051-.018-.097-.071-.139-.066-.051-.091-.109-.074-.172.02-.075.083-.119.189-.131.147-.017.302-.024.465-.02.162.004.286.016.369.038.064.014.088.06.069.134zm-.153-.878a.48.48 0 01.233.122c.051.055.068.115.051.181-.024.092-.089.153-.195.183a1.08 1.08 0 01-.563-.009.377.377 0 01-.195-.104c-.058-.061-.078-.13-.058-.206.026-.103.121-.165.283-.186.165-.021.313-.015.444.019zm2.48 2.016l-.127.641a.268.268 0 00-.003.112.893.893 0 00.08.158.118.118 0 01.007.088c-.019.079-.08.123-.182.132-.103.009-.276-.016-.52-.075-.166-.04-.28-.082-.341-.127-.064-.047-.088-.104-.071-.172a.122.122 0 01.023-.051.99.99 0 01.092-.067c.06-.039.124-.202.193-.488.04-.166.05-.293.03-.382-.016-.071-.066-.117-.15-.137-.081-.019-.142-.007-.184.038-.043.045-.08.135-.113.271l-.085.357a.576.576 0 00-.022.149c.003.029.02.087.053.175a.14.14 0 01.002.079c-.017.071-.079.112-.185.122a1.59 1.59 0 01-.474-.06c-.334-.08-.485-.189-.452-.327.007-.029.017-.05.031-.062a.346.346 0 01.088-.046.15.15 0 00.078-.064c.015-.027.041-.098.075-.212a7.49 7.49 0 00.116-.428.464.464 0 00.02-.168c-.006-.029-.035-.069-.086-.121-.044-.045-.06-.091-.049-.138a.147.147 0 01.091-.103 1.17 1.17 0 01.287-.054c.125-.013.245-.021.359-.024.114-.003.191.001.23.01a.127.127 0 01.082.061.142.142 0 01.015.103 1.02 1.02 0 01-.013.045l-.008.025c-.014.058.003.092.051.104.029.007.065-.009.109-.046a.53.53 0 01.504-.116.66.66 0 01.361.212.477.477 0 01.111.237 1.07 1.07 0 01-.023.349zm1.524-.368c.221.048.403.147.544.298a.944.944 0 01.238.839c-.057.262-.225.459-.506.59a1.297 1.297 0 01-.845.092c-.289-.063-.505-.196-.648-.399a.829.829 0 01-.126-.68.898.898 0 01.471-.63c.264-.143.555-.179.872-.11zm-.236.387a.161.161 0 00-.14.031.242.242 0 00-.082.146 2.232 2.232 0 00.001.659c.016.107.066.17.151.188.108.023.176-.033.206-.17.022-.101.034-.22.034-.355a1.465 1.465 0 00-.03-.337c-.022-.09-.069-.144-.14-.162zm2.428-.537l-.173.758c-.02.09-.001.142.057.153.029.006.062-.009.097-.043a.555.555 0 01.522-.164.624.624 0 01.426.267.443.443 0 01.072.207c.007.076-.001.181-.025.315l-.112.66a.3.3 0 00-.002.13.388.388 0 00.078.119c.03.035.041.072.033.111-.026.131-.236.158-.632.08-.352-.069-.516-.165-.492-.287a.095.095 0 01.018-.045.954.954 0 01.081-.075c.064-.057.122-.218.175-.485.032-.161.04-.282.024-.362-.02-.109-.082-.173-.185-.193-.074-.015-.134.001-.18.048-.033.034-.06.104-.081.211l-.069.351a2.35 2.35 0 00-.03.268.42.42 0 00.061.131.13.13 0 01.017.096c-.027.137-.219.171-.575.101-.417-.082-.612-.194-.584-.336a.122.122 0 01.035-.072.51.51 0 01.114-.062c.052-.024.102-.106.147-.246.046-.14.101-.377.167-.709a4.78 4.78 0 00.085-.547.198.198 0 00-.01-.088.205.205 0 00-.062-.068c-.068-.054-.096-.106-.086-.157.012-.061.05-.104.114-.131a1.3 1.3 0 01.351-.058c.23-.018.41-.014.54.011.07.013.099.051.084.111zm2.208 1.029c.065.011.102.028.113.048a.483.483 0 01.006.182c-.003.055.011.085.042.09.024.004.051-.009.079-.041.124-.135.265-.188.422-.161.111.02.195.072.253.156a.412.412 0 01.06.151.425.425 0 01-.067.335.438.438 0 01-.131.13.408.408 0 01-.306.061.332.332 0 01-.15-.061.79.79 0 01-.142-.163c-.021-.03-.043-.047-.064-.051-.034-.006-.06.009-.077.046a1.134 1.134 0 00-.058.239c-.033.184-.048.31-.047.38.002.038.009.065.022.082a.27.27 0 00.09.06c.104.052.148.119.134.201a.186.186 0 01-.076.121.266.266 0 01-.154.049 2.733 2.733 0 01-.521-.055 1.62 1.62 0 01-.481-.144c-.094-.052-.133-.12-.118-.204.011-.063.058-.113.14-.15a.287.287 0 00.084-.05.169.169 0 00.041-.073 4.31 4.31 0 00.138-.61.277.277 0 00.003-.121c-.008-.026-.029-.049-.063-.07-.081-.049-.115-.106-.104-.171.01-.058.049-.103.116-.135.067-.032.174-.056.322-.072.198-.021.363-.021.494.001zm2.122.346a.904.904 0 01.514.248c.069.07.113.144.132.223a.814.814 0 01-.002.312l-.047.272c-.03.189-.037.314-.019.374.009.029.019.048.03.057.011.009.036.02.074.033.038.012.053.041.046.086a.313.313 0 01-.1.172.597.597 0 01-.208.13c-.1.039-.2.05-.3.034a.385.385 0 01-.283-.181c-.021-.036-.042-.056-.064-.059-.024-.004-.059.006-.104.03a.698.698 0 01-.437.067.683.683 0 01-.372-.165.5.5 0 01-.145-.438.46.46 0 01.208-.312c.185-.128.436-.167.755-.117.071.011.116.012.137 0 .021-.011.035-.042.043-.094a.73.73 0 00.005-.287.138.138 0 00-.118-.108.159.159 0 00-.103.017.635.635 0 00-.127.104c-.134.137-.259.197-.378.178a.208.208 0 01-.138-.077.182.182 0 01-.034-.148.278.278 0 01.099-.164.625.625 0 01.216-.123c.24-.081.48-.103.72-.064zm-.293 1.04a.187.187 0 00-.151.043.229.229 0 00-.085.148.233.233 0 00.019.149.134.134 0 00.103.072c.097.016.16-.059.186-.224a.3.3 0 00.001-.139c-.01-.025-.034-.041-.073-.049zm3.553-1.094l-.24 1.676c-.014.095-.019.157-.014.185.004.028.022.058.056.089.04.037.066.068.077.094s.016.055.011.088c-.014.098-.123.158-.328.181a2.18 2.18 0 01-.542-.008c-.039-.006-.064-.015-.074-.028-.01-.013-.014-.042-.011-.087.003-.063-.015-.098-.053-.103-.021-.003-.056.011-.105.041a.655.655 0 01-.439.093.74.74 0 01-.482-.285 1.066 1.066 0 01-.223-.774.97.97 0 01.215-.479.909.909 0 01.799-.335c.142.02.265.07.368.15a.116.116 0 00.042.021c.039.006.066-.044.081-.149.006-.045.001-.081-.017-.108a.257.257 0 00-.106-.078c-.074-.035-.106-.084-.097-.145.013-.089.112-.146.296-.171.326-.042.542-.055.648-.04.107.014.153.072.138.172zm-1.129.781c-.08-.011-.149.022-.207.1a.916.916 0 00-.157.431c-.024.166-.012.296.036.389a.206.206 0 00.161.117c.08.011.144-.026.193-.114.049-.087.089-.234.118-.439.027-.188.024-.317-.01-.385a.172.172 0 00-.134-.099zm2.945.91l-.327.637a2.591 2.591 0 01-.232.383 1.201 1.201 0 01-.241.242.813.813 0 01-.605.156.665.665 0 01-.424-.199.353.353 0 01-.095-.298.338.338 0 01.121-.227.293.293 0 01.236-.068.275.275 0 01.202.115c.022.03.037.056.043.078.006.022.013.07.021.143.007.056.034.086.082.092a.118.118 0 00.102-.038.194.194 0 00.054-.118c.007-.058-.012-.158-.059-.301l-.325-1a.849.849 0 00-.082-.197.56.56 0 00-.143-.11.138.138 0 01-.056-.066.156.156 0 01-.016-.087c.014-.109.132-.17.354-.182.148-.008.315 0 .5.024a.94.94 0 01.302.079c.096.048.139.115.128.201a.2.2 0 01-.056.103.195.195 0 00-.054.1.237.237 0 00.008.094c.009.034.029.091.062.172.036.092.071.14.107.144.038.005.082-.028.132-.098s.079-.14.088-.21a.204.204 0 00-.029-.144c-.04-.061-.057-.111-.052-.15.008-.063.056-.107.144-.134a.828.828 0 01.342-.014c.26.033.382.112.366.237a.152.152 0 01-.053.104.388.388 0 01-.154.06.29.29 0 00-.154.093 2.145 2.145 0 00-.237.384zm2.661-.904c.246.025.465.104.656.237.253.176.362.431.328.764-.028.269-.144.543-.349.822a2.593 2.593 0 01-.765.714c-.066.038-.121.055-.165.05-.075-.008-.168-.049-.28-.125s-.165-.133-.161-.172c.002-.026.043-.059.12-.1a.791.791 0 00.257-.22.477.477 0 00.114-.219c.005-.047-.018-.073-.067-.078-.017-.002-.059-.002-.126-.002a.665.665 0 01-.509-.221.867.867 0 01-.178-.329 1.017 1.017 0 01-.036-.388.713.713 0 01.363-.58c.23-.133.496-.184.798-.153zm-.078.525a.164.164 0 00-.139.053.252.252 0 00-.07.159.577.577 0 00.059.337c.052.098.121.151.205.16a.153.153 0 00.128-.043.217.217 0 00.062-.139.735.735 0 00-.019-.23.626.626 0 00-.076-.201.21.21 0 00-.15-.096zm3.324.021l-.947 2.207a.103.103 0 01-.063.058.403.403 0 01-.138.005 1.165 1.165 0 01-.382-.096c-.113-.052-.167-.103-.163-.154a.101.101 0 01.019-.045l.803-1.258a.543.543 0 00.093-.197c.004-.047-.022-.081-.079-.104a1.353 1.353 0 00-.319-.054 1.642 1.642 0 00-.404 0 .186.186 0 00-.097.062.347.347 0 01-.101.087.22.22 0 01-.11.016.22.22 0 01-.187-.123.58.58 0 01-.042-.312.872.872 0 01.124-.404.43.43 0 01.121-.123.218.218 0 01.133-.042.617.617 0 01.181.081c.058.03.134.049.226.057l1.188.103c.117.01.172.06.164.148a.226.226 0 01-.02.088zm1.389 1.986l-1.26-.09c-.111-.008-.164-.043-.16-.106.002-.032.016-.061.042-.087s.107-.095.243-.207c.254-.207.445-.404.574-.589a.518.518 0 00.107-.249.203.203 0 00-.043-.151.192.192 0 00-.14-.065.293.293 0 00-.131.014c-.031.013-.1.059-.207.137a.168.168 0 01-.11.026.232.232 0 01-.155-.079.203.203 0 01-.063-.152.286.286 0 01.078-.159.837.837 0 01.188-.16 1.49 1.49 0 01.906-.224c.247.018.447.08.602.186.07.048.124.113.163.194a.486.486 0 01.049.249c-.016.216-.181.439-.498.671-.112.081-.17.144-.173.189a.107.107 0 00.042.091c.03.026.068.041.114.044a.402.402 0 00.299-.105.797.797 0 01.091-.07.107.107 0 01.059-.009c.108.008.156.104.143.289a.814.814 0 01-.073.277.801.801 0 01-.161.236c-.069.069-.142.101-.219.096a.123.123 0 01-.073-.025.26.26 0 01-.058-.078.17.17 0 00-.061-.071.297.297 0 00-.115-.023zm3.009-1.702l-.881 2.235a.103.103 0 01-.061.06.404.404 0 01-.138.009 1.126 1.126 0 01-.384-.085c-.114-.049-.17-.098-.167-.149 0-.012.006-.027.017-.045l.765-1.281a.586.586 0 00.088-.199c.003-.047-.024-.081-.082-.101a1.31 1.31 0 00-.321-.044 1.637 1.637 0 00-.404.012.184.184 0 00-.095.065.35.35 0 01-.099.09.215.215 0 01-.11.019.22.22 0 01-.19-.118.562.562 0 01-.051-.31.883.883 0 01.112-.408.419.419 0 01.118-.126.206.206 0 01.132-.045c.028.002.09.027.183.075a.61.61 0 00.227.05l1.191.067c.117.007.173.054.168.143a.245.245 0 01-.018.086zm.219 1.659l.735-1.496c.019-.043.038-.084.055-.126l.039-.086.094-.204c.042-.09.074-.161.097-.215a.316.316 0 01.081-.133c.027-.022.068-.031.123-.029.205.009.305.062.301.16a.341.341 0 01-.053.148c-.155.272-.272.488-.349.649l-.733 1.49a7.914 7.914 0 00-.202.427c-.07.164-.118.263-.145.296-.038.047-.091.068-.159.066a.437.437 0 01-.205-.055c-.055-.033-.082-.072-.08-.115.001-.028.008-.055.019-.08s.053-.099.124-.222a7.48 7.48 0 00.258-.475zm2.6-1.795c.24.007.45.057.632.151.072.038.128.09.169.155.041.065.06.134.058.207-.004.134-.077.254-.221.361-.041.031-.061.056-.062.074-.001.036.033.062.103.077.332.072.493.262.484.571a.806.806 0 01-.22.526c-.133.151-.326.259-.579.324a2.184 2.184 0 01-.597.06 1.81 1.81 0 01-.649-.125c-.113-.048-.169-.114-.166-.2a.177.177 0 01.062-.133.2.2 0 01.144-.05c.031.001.114.019.249.054.044.012.108.02.19.023a.57.57 0 00.357-.091c.095-.07.144-.152.147-.246a.26.26 0 00-.101-.219.44.44 0 00-.274-.093.693.693 0 00-.19.018.295.295 0 01-.073.013c-.032-.001-.064-.035-.096-.101a.413.413 0 01-.045-.192c.001-.03.01-.049.026-.059a.98.98 0 01.156-.056.583.583 0 00.229-.141.254.254 0 00.087-.177.242.242 0 00-.078-.185.283.283 0 00-.198-.083.39.39 0 00-.12.013c-.033.01-.094.037-.183.082a.15.15 0 01-.062.019c-.031-.001-.06-.023-.086-.068a.257.257 0 01-.038-.138c.002-.084.079-.161.23-.231.094-.044.207-.079.338-.104s.256-.04.377-.036zm2.08 2.179l-.134-.002a3.08 3.08 0 00-.262.008 2.3 2.3 0 01-.126.006.329.329 0 01-.201-.06.178.178 0 01-.076-.151c0-.043.012-.077.036-.101a.243.243 0 01.113-.057c.049-.012.083-.031.101-.059a.442.442 0 00.043-.162 8.35 8.35 0 00.034-.541c.012-.268.019-.535.022-.799a.605.605 0 00-.021-.208c-.016-.035-.053-.063-.112-.085-.085-.033-.127-.089-.126-.167.001-.061.031-.108.09-.141a.5.5 0 01.247-.048l.122.003.226.009c.177.002.377-.001.599-.009.047-.002.106-.002.176-.001.283.004.506.039.67.105.244.1.426.264.546.493.108.202.159.441.156.718a1.49 1.49 0 01-.237.781 1.136 1.136 0 01-.599.43c-.149.047-.308.07-.476.068l-.224-.01-.193-.008c-.149-.006-.281-.01-.394-.012zm.416-2.005l-.019 1.435c-.001.078.015.133.048.167.033.033.089.05.166.051.361.005.545-.267.552-.816.004-.303-.035-.538-.117-.706-.09-.185-.246-.28-.467-.282-.059-.001-.101.011-.126.034-.024.022-.037.062-.037.117zm2.317 1.179a.431.431 0 01.329.159.688.688 0 01.144.444 1.494 1.494 0 01-.193.669c-.096.164-.198.246-.304.247a.206.206 0 01-.127-.042c-.038-.028-.058-.061-.058-.098 0-.02.023-.068.069-.143a.848.848 0 00.074-.151.407.407 0 00.032-.126c0-.045-.022-.075-.064-.09a.593.593 0 01-.177-.09.429.429 0 01-.158-.342.402.402 0 01.108-.286c.09-.1.198-.15.325-.151zm2.652-1.3c.247-.004.474.048.679.157.272.145.411.385.417.72.005.271-.078.557-.249.857-.188.333-.413.6-.675.8-.061.045-.114.069-.158.069a.664.664 0 01-.293-.091c-.12-.062-.18-.112-.181-.152 0-.026.035-.064.108-.113a.788.788 0 00.229-.249.47.47 0 00.087-.231c-.001-.047-.026-.07-.075-.069-.017 0-.059.005-.126.013a.666.666 0 01-.531-.159.858.858 0 01-.216-.306 1.018 1.018 0 01-.082-.381.71.71 0 01.292-.619 1.29 1.29 0 01.774-.246zm-.015.53c-.053.001-.097.024-.133.069s-.052.1-.051.166a.577.577 0 00.098.327c.063.091.138.136.223.134a.153.153 0 00.122-.058.216.216 0 00.045-.146.738.738 0 00-.046-.226.593.593 0 00-.1-.19.212.212 0 00-.158-.076zm3.016-.551l.04 1.281c.001.038.007.064.018.078.011.014.031.02.059.02l.078-.002c.058-.003.09.031.094.103l.012.376c.002.066-.03.104-.097.114-.043.006-.07.015-.081.027-.011.011-.016.038-.014.08l.007.219c.007.078-.027.12-.104.126l-.634.02c-.045.001-.074-.005-.088-.02-.014-.015-.022-.048-.023-.099l-.006-.191c-.001-.052-.013-.088-.033-.108-.021-.02-.055-.029-.105-.027l-.723.023c-.087.003-.148-.014-.184-.049s-.056-.098-.059-.186a.725.725 0 01.034-.279c.032-.084.127-.227.285-.428l.453-.58c.227-.29.396-.476.506-.558a.659.659 0 01.182-.091.708.708 0 01.202-.04c.062-.002.107.012.135.042.029.029.044.079.046.149zm-.749.987l-.003-.091c-.003-.111-.036-.166-.098-.164-.047.001-.09.028-.129.08l-.274.359c-.08.105-.119.18-.117.224.001.032.019.052.054.06s.121.012.258.011l.146-.003c.063-.002.105-.01.127-.025.022-.015.034-.043.036-.086a3.514 3.514 0 000-.365zm2.144-1.117a1.03 1.03 0 01.495.102c.217.101.384.259.499.474.085.157.132.326.14.508.015.331-.099.608-.342.831-.187.169-.404.26-.652.271a.989.989 0 01-.712-.236c-.238-.201-.365-.478-.382-.831-.016-.345.076-.62.276-.826a.966.966 0 01.678-.293zm-.018.554c-.115.005-.168.106-.159.301.012.256.071.483.178.682.042.077.095.114.159.111.113-.005.164-.107.155-.306a1.91 1.91 0 00-.053-.355 1.312 1.312 0 00-.106-.304c-.044-.085-.102-.128-.174-.129zm3.183-.731c.169-.011.335.019.497.091.22.097.389.251.509.464.088.155.139.323.151.505.022.331-.086.61-.325.838a1.015 1.015 0 01-.646.285.992.992 0 01-.717-.221c-.243-.196-.376-.47-.399-.823-.023-.344.063-.621.258-.831a.961.961 0 01.672-.308zm-.005.554c-.115.008-.165.109-.152.304.017.255.081.482.192.678.044.076.097.112.161.108.112-.008.162-.111.148-.309a1.846 1.846 0 00-.172-.656c-.046-.084-.106-.126-.177-.125zm1.473 1.126c.017-.001.058 0 .123.003.03.002.054.003.071.002.105-.009.158-.096.161-.262.001-.094-.016-.361-.052-.799-.005-.067-.023-.112-.052-.135s-.08-.033-.151-.027a.622.622 0 00-.073.011.437.437 0 01-.065.009.147.147 0 01-.104-.026.115.115 0 01-.046-.087c-.003-.039.013-.08.05-.122a.511.511 0 01.156-.116 2.834 2.834 0 011.095-.313.54.54 0 01.237.019c.051.021.078.06.083.115.003.032-.003.058-.018.077s-.045.041-.091.066c-.074.04-.114.084-.121.133-.007.049 0 .237.02.564l.06.529a.705.705 0 00.023.097c.02.064.052.107.094.128.043.021.115.03.218.027.116-.005.178.038.185.128.008.094-.069.162-.231.205a3.975 3.975 0 01-1.148.127 2.07 2.07 0 01-.418-.057c-.098-.027-.149-.075-.155-.144a.127.127 0 01.038-.1.17.17 0 01.111-.052zm3.751-2.427l1.004.706c.094.066.16.097.198.092.064-.007.089-.078.074-.215a1.186 1.186 0 00-.062-.314.21.21 0 00-.13-.115.275.275 0 01-.109-.064.173.173 0 01-.041-.099c-.011-.103.053-.177.191-.222.056-.018.157-.035.3-.051.186-.02.315-.022.389-.008.117.022.18.081.191.177.008.08-.031.145-.119.195a.323.323 0 00-.071.05.155.155 0 00-.029.059c-.024.085-.025.24-.002.467l.064.601.042.378c.024.216.028.374.011.473-.021.123-.074.189-.162.198a.195.195 0 01-.101-.013 1.02 1.02 0 01-.149-.096l-1.198-.862c-.084-.061-.151-.088-.201-.083-.075.008-.101.116-.079.324.018.171.04.287.066.347.026.061.07.103.132.126.087.032.134.08.14.145.018.171-.156.276-.524.315a.916.916 0 01-.393-.024c-.096-.034-.149-.091-.157-.171-.004-.042.001-.074.016-.097a.493.493 0 01.107-.097c.054-.041.083-.105.086-.194a5.59 5.59 0 00-.042-.687c-.034-.317-.077-.546-.13-.687a.333.333 0 00-.064-.113.3.3 0 00-.111-.063.374.374 0 01-.124-.067.139.139 0 01-.042-.091c-.013-.118.081-.203.28-.256a2.98 2.98 0 01.36-.053.695.695 0 01.217 0 .602.602 0 01.172.089zm3.211.228c.224-.028.428.005.612.1a.943.943 0 01.503.713c.033.266-.06.508-.281.725-.211.207-.466.33-.767.368-.293.037-.541-.017-.744-.161a.822.822 0 01-.344-.599.897.897 0 01.234-.751c.202-.223.464-.354.787-.395zm-.094.443a.16.16 0 00-.122.076.245.245 0 00-.029.165 2.276 2.276 0 00.22.621c.051.096.119.138.205.127.109-.014.155-.09.137-.228a1.758 1.758 0 00-.086-.346 1.414 1.414 0 00-.141-.307c-.049-.078-.111-.114-.184-.108zm3.109-.268l-.344.993a1.42 1.42 0 01-.145.325c-.044.063-.095.099-.153.107a.177.177 0 01-.149-.043 1.483 1.483 0 01-.237-.255l-.662-.915a.442.442 0 00-.098-.105.27.27 0 00-.117-.039c-.097-.014-.151-.057-.161-.131-.011-.075.039-.137.149-.188.11-.051.289-.094.538-.129.208-.03.363-.037.466-.021s.159.055.168.118c.006.044-.011.09-.052.137a.31.31 0 00-.048.069.091.091 0 00-.005.053.533.533 0 00.11.196c.067.087.124.126.171.12.03-.004.054-.02.07-.046s.043-.091.081-.195a.395.395 0 00.034-.17c-.004-.029-.029-.061-.074-.096-.048-.038-.074-.076-.08-.114-.008-.059.024-.107.098-.143.074-.037.2-.068.377-.093.25-.036.382 0 .398.108.009.062-.029.114-.115.155a.354.354 0 00-.132.092c-.02.03-.05.1-.088.21zm2.049.12l-.861.136c-.038.006-.054.026-.049.058.013.079.068.147.165.204a.437.437 0 00.294.061.65.65 0 00.19-.065.644.644 0 00.163-.111c.037-.036.067-.056.092-.06.032-.005.066.01.103.044a.196.196 0 01.065.114c.014.088-.027.181-.124.281a1.104 1.104 0 01-.638.324.966.966 0 01-.68-.121.938.938 0 01-.329-1.235.993.993 0 01.36-.382c.116-.072.247-.12.392-.143a.919.919 0 01.623.104.806.806 0 01.235.203.62.62 0 01.134.287.361.361 0 01-.019.203c-.025.058-.063.09-.116.098zm-.814-1.714a.84.84 0 01.305.002.263.263 0 01.115.051c.032.025.049.052.052.082.006.057-.035.131-.124.224a.985.985 0 01-.578.311c-.126.02-.196-.015-.21-.106-.005-.033-.003-.059.007-.077a.766.766 0 01.096-.112c.048-.049.078-.081.088-.096a.064.064 0 00.011-.048.137.137 0 00-.031-.051.068.068 0 01-.012-.026c-.005-.031.019-.06.07-.089a.712.712 0 01.211-.065zm-.053 1.501l.185-.029c.078-.012.112-.055.1-.127a.23.23 0 00-.082-.152.198.198 0 00-.158-.039.193.193 0 00-.149.106.26.26 0 00-.031.161c.006.037.019.061.039.073.02.011.052.014.096.007zm4.028-1.778l-.55 1.538c-.062.175-.09.278-.084.31.01.056.098.069.263.038a.95.95 0 00.191-.057.467.467 0 00.135-.077c.054-.053.1-.152.136-.297a.342.342 0 01.051-.121.142.142 0 01.088-.046c.085-.016.154-.003.205.037.051.04.086.108.103.203a.875.875 0 01-.059.537c-.053.114-.112.177-.176.189a.594.594 0 01-.074.006 1.295 1.295 0 00-.256.021l-1.585.292c-.072.013-.115.02-.129.02a.084.084 0 01-.047-.018.145.145 0 01-.055-.095.316.316 0 01.024-.155l.646-1.765a.269.269 0 00.024-.106c-.013-.069-.088-.091-.227-.066-.119.022-.202.057-.247.106-.046.049-.09.148-.131.298-.031.115-.081.179-.148.191-.065.012-.127-.007-.188-.058a.317.317 0 01-.113-.192c-.023-.124.001-.282.073-.475.051-.135.098-.207.143-.215a.172.172 0 01.049.002c.078.012.241-.005.49-.051.112-.021.365-.08.761-.178l.518-.126c.052-.01.097-.002.135.022s.061.062.07.111a.416.416 0 01-.036.177zm1.407.112a.911.911 0 01.569.05.475.475 0 01.202.162.811.811 0 01.108.293l.052.271c.038.188.077.307.114.357a.127.127 0 00.049.043c.014.005.04.006.08.004s.065.02.074.064a.312.312 0 01-.033.196.608.608 0 01-.148.195.565.565 0 01-.269.138.381.381 0 01-.328-.069c-.032-.026-.059-.037-.081-.033-.024.005-.053.027-.087.065a.699.699 0 01-.385.217.68.68 0 01-.406-.023c-.073-.032-.136-.08-.188-.144s-.087-.136-.103-.215a.453.453 0 01.085-.365c.127-.185.349-.31.665-.376.07-.014.113-.03.128-.048.015-.018.018-.052.007-.103a.732.732 0 00-.097-.271.138.138 0 00-.148-.06.163.163 0 00-.091.053.65.65 0 00-.082.142c-.076.176-.173.276-.291.3a.211.211 0 01-.156-.023.185.185 0 01-.085-.126.29.29 0 01.034-.189.632.632 0 01.159-.191c.196-.16.413-.265.652-.314zm-.051-.809a.854.854 0 01.304-.011c.045.007.085.022.117.046s.051.05.056.079c.009.056-.029.133-.114.23a.994.994 0 01-.563.337c-.125.025-.196-.007-.215-.096a.12.12 0 01.004-.077.742.742 0 01.091-.116c.046-.051.074-.084.084-.099a.059.059 0 00.009-.048c-.002-.011-.013-.028-.033-.05a.053.053 0 01-.013-.026c-.006-.03.016-.061.066-.092a.646.646 0 01.207-.077zm.144 1.886a.187.187 0 00-.126.094.224.224 0 00-.027.168.228.228 0 00.07.132c.035.03.076.04.122.031.097-.02.129-.111.095-.275a.307.307 0 00-.048-.13c-.018-.02-.047-.026-.086-.02zm1.8-1.461c.069-.016.114.025.137.123l.007.031a.5.5 0 00.009.047c.015.065.042.093.08.084.02-.005.046-.038.078-.1a.7.7 0 01.205-.234.76.76 0 01.289-.136c.201-.046.358-.005.47.124.043.047.073.069.093.064.013-.003.039-.034.077-.094a.764.764 0 01.48-.352.575.575 0 01.411.041c.124.065.207.187.248.366l.041.196c.005.032.025.127.062.285a7.675 7.675 0 01.058.269.315.315 0 00.119.186c.037.028.06.047.069.057a.1.1 0 01.021.044c.035.154-.128.273-.491.356-.16.037-.294.047-.401.031-.107-.016-.168-.055-.182-.118a.144.144 0 01-.003-.057 1.4 1.4 0 01.046-.116c.026-.058.007-.227-.057-.506a1.183 1.183 0 00-.112-.332c-.044-.07-.106-.096-.185-.077a.176.176 0 00-.136.168c-.001.046.02.163.062.351.05.202.085.323.104.364a.589.589 0 00.133.16.13.13 0 01.034.065c.033.143-.138.258-.513.344-.225.052-.381.07-.467.054a.144.144 0 01-.126-.119c-.007-.03-.008-.052-.003-.066a.699.699 0 01.061-.102.195.195 0 00.035-.083.519.519 0 00-.011-.126 6.397 6.397 0 00-.079-.404c-.054-.236-.142-.34-.262-.313-.09.021-.132.084-.126.189.007.099.031.236.072.413.03.133.053.219.068.258.015.04.039.079.074.118a.28.28 0 01.072.116c.018.078-.024.145-.127.201a1.53 1.53 0 01-.383.139 1.418 1.418 0 01-.419.05c-.093-.01-.148-.046-.162-.11a.118.118 0 01.003-.065.54.54 0 01.06-.098.31.31 0 00.047-.226 5.315 5.315 0 00-.087-.469 1.152 1.152 0 00-.072-.236.195.195 0 00-.098-.092.366.366 0 01-.084-.047.103.103 0 01-.029-.056c-.019-.081.03-.159.146-.235.277-.181.492-.289.644-.325zm3.507-1.467l.13.566c.014.056.034.139.063.248.031.121.052.192.061.212.021.047.053.065.094.054.036-.009.085-.047.147-.112.062-.065.09-.109.084-.132-.003-.013-.023-.034-.058-.061a.118.118 0 01-.047-.064c-.034-.129.109-.235.427-.318.165-.043.3-.06.404-.052a.213.213 0 01.113.043.172.172 0 01.065.094c.014.054-.002.098-.048.133a.736.736 0 01-.098.05.62.62 0 00-.179.151c-.069.078-.101.129-.094.154.004.017.075.082.213.196s.264.212.378.293c.074.054.13.09.169.109.039.019.09.037.155.054.098.024.155.066.171.126a.176.176 0 01-.043.17.42.42 0 01-.209.112l-.581.151a.216.216 0 01-.192-.036l-.397-.305a6.357 6.357 0 00-.191-.142c-.022-.015-.04-.02-.052-.017-.014.004-.021.017-.02.04a.684.684 0 00.073.237.311.311 0 00.106.067c.038.017.063.05.076.099.022.084-.007.156-.086.216-.079.06-.22.117-.424.17-.239.062-.397.093-.474.091a.208.208 0 01-.123-.046.19.19 0 01-.073-.104c-.012-.045.003-.091.045-.138a.427.427 0 00.066-.084.177.177 0 00.011-.076 5.304 5.304 0 00-.162-.786l-.102-.393a1.002 1.002 0 00-.087-.251c-.023-.034-.063-.047-.119-.04-.101.012-.161-.015-.179-.084-.012-.045-.001-.092.033-.14a.753.753 0 01.183-.164c.283-.198.5-.316.651-.355.066-.016.107.004.12.064zm3.699.543l-.05.715c-.012.177-.033.325-.063.443s-.072.224-.126.317a.807.807 0 01-.495.381.67.67 0 01-.468-.016.356.356 0 01-.205-.236.337.337 0 01.022-.256.3.3 0 01.19-.156.275.275 0 01.231.026.254.254 0 01.07.055c.014.018.04.059.076.123.028.048.065.066.112.053a.118.118 0 00.079-.075.192.192 0 00.003-.13c-.016-.056-.074-.14-.173-.253l-.692-.791a.823.823 0 00-.153-.149.546.546 0 00-.175-.044.139.139 0 01-.077-.039.155.155 0 01-.049-.074c-.03-.106.054-.208.254-.306.133-.065.289-.124.469-.175a.928.928 0 01.309-.046c.107.007.173.051.197.135a.208.208 0 01-.011.117.192.192 0 00-.01.113.252.252 0 00.044.084c.022.027.063.072.124.134.069.07.121.1.155.09.037-.011.064-.058.083-.142a.46.46 0 00-.002-.228.205.205 0 00-.083-.121c-.061-.041-.096-.08-.107-.118-.017-.061.009-.121.08-.18a.824.824 0 01.309-.147c.252-.072.395-.048.43.073a.15.15 0 01-.008.117.379.379 0 01-.118.116.285.285 0 00-.105.146 2.169 2.169 0 00-.067.444z" fill="#6F252D"/></svg>