<svg height="512" viewBox="0 0 60 60" width="512" xmlns="http://www.w3.org/2000/svg"><g fill="none"><path d="M54.39 45.68c-2.67 2.83-8.51 6.9-20.36 7.9.04-1.21.05-2.52-.01-3.81 11.43-1.08 16.58-5.76 18.68-8.58a9.191 9.191 0 001.58 4.35c.03.04.07.09.11.14z" fill="#a4c2f7"/><path d="M54.28 45.54a9.191 9.191 0 01-1.58-4.35c-.7.928-1.5 1.777-2.382 2.534a6.94 6.94 0 00.962 1.816c.03.04.07.09.11.14-2.432 2.578-7.512 6.178-17.354 7.555 0 .113 0 .234-.006.345 11.85-1 17.69-5.07 20.36-7.9-.04-.05-.08-.1-.11-.14z" fill="#7facfa"/><path d="M53.46 30.67a14.573 14.573 0 00-1.11 7.52c.12.99.2 2.01.35 3-2.1 2.82-7.25 7.5-18.68 8.58-.15-3.59-.8-7.09-2.64-8.11a65.749 65.749 0 01-7.02 2.12 2.2 2.2 0 01-2.59-1.61c-.69-1.99.26-2.53-.04-3.72-.21-.82-.99-1.02-1.6-1.46-.49-.35.87-1.99.87-1.99a5.659 5.659 0 01-1.76-.51c-.35-.3.14-.8.59-1.74.184-.41.236-.868.15-1.31-.16-.87-1.48-1.2-2.12-1.68-1.35-1.01-1.42-1.24 2.1-5.05.78-.83 1.79-1.71 1.79-3.3C21.75 20 20 20 20 18s1.69-6.26 2.04-7.19A14.617 14.617 0 0125.1 5.8c1.98-2.1 4.72-3.01 7.5-3.65C42.76-.2 47.86 1.09 53.65 5.65a12.561 12.561 0 014.54 6.53c.579 2.165.852 4.4.81 6.64-.09 5.93-3.86 8.01-5.54 11.85z" fill="#e8edfc"/><path d="M59 18.82a23.977 23.977 0 00-.81-6.64 12.561 12.561 0 00-4.54-6.53C49.367 2.277 45.457.7 39.6 1.054c4.279.28 7.54 1.834 11.047 4.6a12.561 12.561 0 014.54 6.53A23.97 23.97 0 0156 18.82c-.09 5.93-3.86 8.01-5.54 11.85a14.573 14.573 0 00-1.11 7.52c.12.99.2 2.01.35 3-1.907 2.561-6.346 6.646-15.7 8.186.007.131.015.262.02.394 11.43-1.08 16.58-5.76 18.68-8.58-.15-.99-.23-2.01-.35-3a14.573 14.573 0 011.11-7.52c1.68-3.84 5.45-5.92 5.54-11.85z" fill="#cad9fc"/><path d="M58.99 57.91A.988.988 0 0158 59H34.72a1 1 0 01-.99-1.1c.1-.99.23-2.54.3-4.32 11.85-1 17.69-5.07 20.36-7.9a33.058 33.058 0 014.6 12.23z" fill="#e8edfc"/><path d="M54.39 45.68a17.75 17.75 0 01-1.939 1.758A33.721 33.721 0 0155.99 57.91.988.988 0 0155 59h3a.988.988 0 00.99-1.09 33.058 33.058 0 00-4.6-12.23z" fill="#cad9fc"/><path d="M36.73 57.9c.39-3.86 1.073-14.342-2.35-16.24-.686.24-1.428.491-2.178.737 2.469 3.028 1.883 11.993 1.528 15.5a1 1 0 00.99 1.1h3a1 1 0 01-.99-1.097zm-15-19.45c.3 1.19-.65 1.73.04 3.72a2.2 2.2 0 002.59 1.61c.4-.082.853-.2 1.333-.322a2.6 2.6 0 01-.923-1.288c-.69-1.99.26-2.53-.04-3.72-.21-.82-.99-1.02-1.6-1.46-.49-.35.87-1.99.87-1.99a5.659 5.659 0 01-1.76-.51c-.557-.477 1.029-1.5.74-3.05-.16-.87-1.48-1.2-2.12-1.68-1.35-1.01-1.42-1.24 2.1-5.05.78-.83 1.79-1.71 1.79-3.3C24.75 20 23 20 23 18s1.69-6.26 2.04-7.19A14.617 14.617 0 0128.1 5.8c1.98-2.1 4.72-3.01 7.5-3.65a42.26 42.26 0 016.975-1.087c-3.36-.123-6.72.243-9.975 1.087-2.78.64-5.52 1.55-7.5 3.65a14.617 14.617 0 00-3.06 5.01C21.69 11.74 20 16 20 18s1.75 2 1.75 3.41c0 1.59-1.01 2.47-1.79 3.3-3.52 3.81-3.45 4.04-2.1 5.05.64.48 1.96.81 2.12 1.68.289 1.554-1.3 2.573-.74 3.05.555.264 1.15.437 1.76.51 0 0-1.36 1.64-.87 1.99.61.44 1.39.64 1.6 1.46z" fill="#fff"/><path d="M21.29 9.97l1.854.749c-.465 1.209-.938 2.464-1.335 3.694A14.831 14.831 0 0021 18h-2a16.03 16.03 0 01.906-4.2c.423-1.309.894-2.55 1.384-3.83z" fill="#fff"/><g fill="#428dff" transform="translate(0 -1)"><path d="M14.081 34.149a1 1 0 00-1.376.326 4.874 4.874 0 000 5.05 1 1 0 101.7-1.05 2.882 2.882 0 010-2.95 1 1 0 00-.324-1.376z"/><path d="M11.6 30.2a1 1 0 00-1.4.208 11 11 0 000 13.192 1 1 0 101.6-1.2 9 9 0 010-10.808 1 1 0 00-.2-1.392z"/><path d="M8.8 28.6a1 1 0 10-1.6-1.2 16 16 0 000 19.2 1 1 0 101.6-1.2 14 14 0 010-16.8z"/><path d="M4.2 49.6a1 1 0 101.6-1.2 19 19 0 010-22.8 1 1 0 10-1.6-1.2 21 21 0 000 25.2zm16.676-33.5a1 1 0 01-.01-2h.01a1 1 0 010 2z"/><path d="M56.492 28.718c1.615-2.185 3.446-4.659 3.505-8.886a24.457 24.457 0 00-.85-6.92 13.591 13.591 0 00-4.882-7.052C47.846.808 42.32-.12 32.374 2.175c-2.711.626-5.781 1.582-8 3.936a15.531 15.531 0 00-3.084 4.859.987.987 0 00.57 1.309 1.013 1.013 0 001.284-.56 13.561 13.561 0 012.681-4.235c1.852-1.961 4.458-2.774 7-3.36 10.465-2.416 15.012-.78 20.206 3.31a11.484 11.484 0 014.195 6.023A22.45 22.45 0 0158 19.8c-.05 3.583-1.538 5.594-3.113 7.724a19.269 19.269 0 00-2.338 3.743 15.515 15.515 0 00-1.191 8.038c.043.355.082.713.12 1.074.053.506.109 1.016.176 1.525-2.021 2.551-6.727 6.565-16.684 7.744a14.15 14.15 0 00-1.742-6.575l.539-.189c.611-.215 1.073-.378 1.3-.45 3.546-1.119 5.319-2.756 5.27-4.871a1.026 1.026 0 00-1.024-.976 1 1 0 00-.976 1.023c.015.629-.469 1.843-3.872 2.916a55.58 55.58 0 00-1.364.471c-.574.2-1.276.448-2.043.711a66.88 66.88 0 01-6.9 2.091 1.225 1.225 0 01-1.438-.959 2.806 2.806 0 01-.078-1.874A3.465 3.465 0 0022.7 39.2a2.773 2.773 0 00-1.515-1.738c.174-.29.37-.566.585-.826a1 1 0 00-.625-1.628 10.141 10.141 0 01-.774-.148c.113-.2.238-.429.359-.686a3.18 3.18 0 00.232-1.924c-.2-1.083-1.2-1.591-1.921-1.962a4.673 4.673 0 01-.584-.33 5.026 5.026 0 01-.433-.349 21.557 21.557 0 012.671-3.22l.241-.255a5.211 5.211 0 001.809-3.722 2.778 2.778 0 00-1.065-2.1A1.576 1.576 0 0121 19a1 1 0 00-2 0 3.517 3.517 0 001.291 2.756c.391.376.454.469.454.659a3.318 3.318 0 01-1.259 2.344l-.257.273c-2.418 2.609-3.323 3.7-3.222 4.8.141.733.6 1.366 1.254 1.727.275.194.565.364.869.508.318.134.612.321.867.554.046.233.02.475-.073.694-.117.249-.239.463-.344.65-.3.538-.867 1.539 0 2.268.231.183.494.322.776.41a2.28 2.28 0 00-.316 1.287c.041.35.229.667.516.872.185.132.383.247.58.36.449.258.587.358.631.529.049.273.025.555-.069.816a4.751 4.751 0 00.134 2.989 3.241 3.241 0 003.055 2.334c.229 0 .457-.024.681-.071a64.382 64.382 0 006.657-1.991c1.7 1.543 2.293 7.305 1.512 15.026A2 2 0 0034.723 61H58c.572 0 1.118-.242 1.5-.668.375-.417.555-.973.495-1.53a33.694 33.694 0 00-4.91-12.866c-1.167-1.53-1.385-3.586-1.615-5.763a81.105 81.105 0 00-.122-1.105 13.52 13.52 0 011.038-7 17.537 17.537 0 012.106-3.35zm-4.349 15.653c.215.77.535 1.506.951 2.188-2.485 2.365-7.808 5.849-18.032 6.912.01-.6.013-1.211 0-1.818 9.295-1.073 14.418-4.534 17.081-7.282zM34.723 59c.106-1.05.2-2.25.268-3.513 10.26-1.02 16.04-4.3 19.215-7.229A32.874 32.874 0 0158 59z"/><path d="M41 6a1 1 0 000 2c5.294 0 11.12 2.805 12.014 8.164a1 1 0 001.973-.328C53.91 9.379 47.136 6 41 6z"/><circle cx="54" cy="20" r="1"/></g></g></svg>