<svg xmlns="http://www.w3.org/2000/svg" width="283.46" height="113.39"><path fill="#352B27" d="M281.584 46.031c-1.007-1.631-2.732-2.602-4.617-2.602h-.865l-.288.117c-.688.033-1.144.061-1.487.081-.415.024-.619.039-.98.039-2.008 0-4.509-.077-7.434-.231l-.229-.004c-1.987 0-3.745 1.051-4.711 2.832a6.582 6.582 0 00-.802 3.15l.017.359c.056.682.225 2.758 1.884 4.176a5.26 5.26 0 002.231 1.121l-3.08 8.234a324.44 324.44 0 01-.893-2.375 158.785 158.785 0 00-3.196-7.951c-1.589-3.522-3.732-6.094-6.375-7.641-2.284-1.337-5.182-2.015-8.611-2.015-.433 0-.876.01-1.333.032-.224.003-.585.018-1.104.043a8.963 8.963 0 00-1.102.139 5.426 5.426 0 00-2.084-.421l-4.699.265.248-4.044.008-.271c0-2.046-1.114-3.827-3.011-4.78-2.08-1.028-4.482-.906-6.212.025a9.31 9.31 0 00-.952-.496c-.064-.028-.125-.056-.188-.081a1.44 1.44 0 00.008-.065l.11-1.036c.055-.535.106-1.042.188-1.447.195-.983.442-2.032.798-3.398.577-2.221-.188-4.436-2.047-5.925-2.142-1.712-4.89-2.192-7.808-1.289a7.12 7.12 0 00-1.016.403l-.042-.161c-.536-2.102-2.205-3.594-4.351-3.896a8.958 8.958 0 00-1.271-.09c-1.578 0-2.94.406-3.954.761-2.83.991-4.76 3.311-5.296 6.365-.455 2.597-.08 5.035.297 6.869.072.339.148.678.227 1.015.205.899.384 1.677.342 2.249-.097 1.332.112 2.553.315 3.594.264 1.349.542 2.694.824 4.039-1.221-.08-2.444-.144-3.667-.211l-1.966-.109c-.392-.023-.78-.034-1.168-.034-2.066 0-3.889.348-5.569 1.066-.823.352-1.866.723-2.873 1.083-.661.236-1.314.47-1.922.703a5.48 5.48 0 00-2.839-.786l-2.007.083-.108.004c-1.813.124-2.729.149-3.18.149-3.3 0-6.126-.077-8.401-.227l-.292-.009c-1.754 0-3.368.815-4.434 2.238a6.197 6.197 0 00-1.232 3.744l.007.267c.099 1.6.698 2.978 1.661 3.964l-2.344 2.4V27.84c0-3.42-2.383-5.905-5.667-5.905l-.725.027c-.817.091-1.733.32-2.806.701l-.085.03c-2.041.775-4.59 1.383-7.575 1.812-1.613.216-3.003 1.031-3.899 2.273a5.914 5.914 0 00-1.167 3.513c0 3.091 1.662 4.525 2.654 5.106.919.537 1.989.823 3.262.869.007.278.01.601.01.977v18.481a3.443 3.443 0 00-.594-.293c-.805-5.381-3.576-8.194-5.967-9.634-3.398-2.045-7.71-3.081-12.818-3.081-4.194 0-7.887.841-10.975 2.5-2.883 1.55-4.799 3.915-5.586 6.822a14.968 14.968 0 00-3.121-4.753c-2.959-3.031-6.89-4.569-11.687-4.569-3.703 0-6.863.724-9.394 2.148a28.692 28.692 0 00-3.108 2.046 15.068 15.068 0 00-2.659-1.972c-2.521-1.476-5.477-2.223-8.782-2.223-2.601 0-4.993.422-7.103 1.254-.633.249-1.249.534-1.845.855-.99-1.546-2.683-2.504-4.723-2.504h-.604l-.362.061c-.505.085-1.201.263-2.326.592l-.332.111c-1.879.718-4.375 1.32-7.417 1.795.177-.802.274-1.634.274-2.5 0-4.882-2.314-8.775-6.699-11.261-2.187-1.237-4.602-2.102-7.21-2.599l6.969-10.111.198-.316c.595-1.039.896-2.119.896-3.21 0-2.136-1.067-4.002-2.945-5.13a6.109 6.109 0 00-3.12-.855c-1.422 0-2.854.527-4.372 1.606l-.148.111c-.768.596-1.969 1.661-4.171 4.232-2.202-2.571-3.403-3.634-4.17-4.232l-.152-.113c-1.519-1.08-2.948-1.604-4.368-1.604a6.097 6.097 0 00-3.135.864c-1.862 1.117-2.93 2.984-2.93 5.122 0 1.097.304 2.182.903 3.223l7.449 10.829c-2.739.704-5.18 1.802-7.278 3.318-2.977 2.15-6.525 6.299-6.525 13.841 0 3.77.966 7.036 2.87 9.706 1.723 2.419 3.849 4.39 6.313 5.853.89.527 1.877 1.074 2.976 1.642a11.562 11.562 0 00-1.638-.187l-.19-.003c-3.175 0-5.964 1.064-8.064 3.079-2.155 2.064-3.294 4.792-3.294 7.883 0 5.226 2.203 9.437 6.37 12.173 3.693 2.43 8.633 3.61 15.102 3.61 3.957 0 7.666-.732 11.025-2.177a22.972 22.972 0 004.504-2.555c.183.401.393.792.661 1.149 1.066 1.422 2.682 2.236 4.434 2.236l.223-.004a160.71 160.71 0 017.995-.23c2.375 0 5.091.076 8.071.23l.226.004c1.495 0 2.855-.549 3.871-1.538 1.014.989 2.375 1.538 3.873 1.538l.218-.003c3.034-.154 5.618-.23 7.68-.23 2.166 0 4.802.076 7.837.23l.223.004c1.496 0 2.857-.549 3.871-1.538 1.014.989 2.374 1.538 3.872 1.538l.223-.004c3.033-.154 5.723-.23 7.996-.23 2.375 0 5.09.076 8.07.23l.227.004a5.457 5.457 0 002.921-.843c2.125 1.032 4.556 1.557 7.271 1.557 3.288 0 6.417-.707 9.301-2.098.794-.384 1.54-.813 2.236-1.287.282.264.581.513.895.751 2.305 1.749 4.981 2.634 7.954 2.634a14.73 14.73 0 004.144-.616c.144-.045.283-.092.422-.14 2.715-.129 5.138-.192 7.207-.192 2.375 0 5.093.076 8.071.23l.227.004c1.754 0 3.372-.817 4.435-2.238a6.204 6.204 0 001.233-3.743l-.015-.356a11.144 11.144 0 00-.057-.509c2.247 2.565 3.817 4.31 4.751 5.271l1.3 1.341h1.864c2.479 0 4.21.013 5.42.031.074.212.15.431.234.653 1.104 2.956 2.748 5.45 4.889 7.412.131.12.219.23.267.336l.895 1.957.1.025c.572 1.071 1.212 2.118 1.916 2.911 3.211 3.618 8.054 5.694 13.281 5.694 6.064 0 11.686-2.88 14.663-7.514.694-1.082 1.212-2.513 1.63-3.94l.438-.241.196-2.358c.119-1.448.357-2.877.709-4.247a50.744 50.744 0 011.661-5.257c.415.604.88 1.171 1.394 1.7 2.658 2.733 6.046 4.179 9.796 4.179.912 0 1.776-.047 2.607-.123-.425 1.142-.69 2.536-.69 4.253 0 3.327 1.471 6.294 4.256 8.579 2.565 2.105 5.539 3.174 8.839 3.174 4.863 0 9.201-2.249 12.55-6.501 2.761-3.51 5.197-7.762 7.241-12.646 1.367-3.283 3.449-8.38 6.021-14.737 2.688-6.638 4.637-11.459 5.854-14.478.493-1.23.876-1.575.868-1.575.231-.139.447-.288.649-.449a5.56 5.56 0 002.253-.999c1.25-.945 1.966-2.404 2.126-4.332l.016-.366a6.47 6.47 0 00-.974-3.38z"/><linearGradient id="a" gradientUnits="userSpaceOnUse" x1="-2.98" y1="56.537" x2="315.604" y2="85.533"><stop offset="0" stop-color="#9fef26"/><stop offset=".018" stop-color="#9dea21"/><stop offset=".102" stop-color="#95d70f"/><stop offset=".189" stop-color="#91cc04"/><stop offset=".281" stop-color="#8fc800"/><stop offset="1" stop-color="#1d9632"/></linearGradient><path fill="url(#a)" d="M10.534 82.56c-2.923-1.921-4.385-4.752-4.385-8.493 0-1.896.645-3.466 1.937-4.702 1.29-1.236 2.963-1.856 5.018-1.856 1.211.053 2.133.355 2.765.908.632.552.949 1.066.949 1.542 0 .054-.264.234-.791.552-.527.315-1 .791-1.422 1.422-.422.633-.633 1.504-.633 2.608 0 2.478.751 4.387 2.252 5.728 1.502 1.345 3.833 2.016 6.993 2.016 2.161 0 4.056-.42 5.69-1.264 1.632-.841 2.884-1.963 3.753-3.356.869-1.396 1.304-2.86 1.304-4.387 0-1.897-.54-3.528-1.619-4.899-1.081-1.369-2.411-2.516-3.991-3.438-1.581-.921-3.741-1.988-6.48-3.2-3.16-1.423-5.715-2.713-7.664-3.872-1.951-1.157-3.61-2.7-4.979-4.624-1.37-1.921-2.054-4.305-2.054-7.15 0-4.583 1.566-8.008 4.701-10.273 3.134-2.264 7.256-3.397 12.367-3.397 4.002 0 7.493.843 10.47 2.527 2.975 1.687 4.465 4.164 4.465 7.429 0 1.896-.646 3.465-1.937 4.703-1.292 1.237-2.963 1.856-5.017 1.856-1.213-.054-2.133-.356-2.766-.909-.632-.554-.948-1.067-.948-1.541 0-.053.354-.239 1.066-.553a5.477 5.477 0 001.897-1.423c.552-.632.829-1.5.829-2.607 0-1.95-.75-3.478-2.252-4.583-1.5-1.107-3.411-1.659-5.728-1.659-3.214 0-5.65.75-7.31 2.25-1.659 1.502-2.489 3.359-2.489 5.571 0 1.846.501 3.386 1.501 4.624 1 1.24 2.607 2.463 4.82 3.675a99.951 99.951 0 005.847 2.843c3.371 1.53 6.044 2.925 8.02 4.189 1.975 1.264 3.635 2.924 4.978 4.977 1.344 2.056 2.015 4.611 2.015 7.667 0 2.633-.831 5.018-2.489 7.148-1.659 2.134-3.899 3.809-6.716 5.021-2.82 1.211-5.914 1.819-9.286 1.819-5.529-.002-9.757-.965-12.681-2.889z"/><linearGradient id="b" gradientUnits="userSpaceOnUse" x1="-3.213" y1="59.107" x2="315.365" y2="88.102"><stop offset="0" stop-color="#9fef26"/><stop offset=".018" stop-color="#9dea21"/><stop offset=".102" stop-color="#95d70f"/><stop offset=".189" stop-color="#91cc04"/><stop offset=".281" stop-color="#8fc800"/><stop offset="1" stop-color="#1d9632"/></linearGradient><path fill="url(#b)" d="M42.932 83.628a1.786 1.786 0 01-.355-1.105c.051-.684.196-1.095.434-1.227.237-.129.699-.196 1.382-.196 1.369 0 2.344-.237 2.924-.713.579-.473.921-1.026 1.028-1.659.104-.632.158-1.632.158-3.002V57.631c0-1.369-.04-2.372-.118-3.004-.08-.631-.409-1.184-.988-1.658-.581-.476-1.555-.711-2.924-.711-.632 0-1.105-.091-1.422-.277-.316-.184-.473-.62-.473-1.304 0-.316.104-.618.315-.91.21-.287.526-.46.948-.512 3.424-.526 6.243-1.21 8.456-2.055.895-.263 1.501-.421 1.817-.475h.236c.843 0 1.265.502 1.265 1.5v4.98h.237a428.34 428.34 0 012.371-2.331 12.797 12.797 0 014.306-2.805c1.606-.634 3.437-.95 5.493-.95 2.528 0 4.713.541 6.558 1.621 1.843 1.081 3.213 2.567 4.109 4.465h.158c2.055-1.95 4.017-3.45 5.886-4.504 1.87-1.053 4.279-1.581 7.231-1.581 3.582 0 6.426 1.081 8.534 3.24 2.105 2.162 3.16 5.006 3.16 8.535v16.83c0 1.37.052 2.37.158 3.002.105.633.447 1.187 1.027 1.659.579.476 1.553.713 2.924.713h.474c.421 0 .737.078.948.235.21.158.343.555.396 1.188 0 .421-.118.789-.356 1.105-.236.317-.541.475-.908.475a163.369 163.369 0 00-8.297-.239c-2.371 0-5.11.082-8.219.239-.421 0-.738-.157-.947-.475a1.945 1.945 0 01-.317-1.105c.051-.684.197-1.095.436-1.227.237-.129.697-.196 1.382-.196 1.369 0 2.343-.237 2.923-.713.579-.473.922-1.026 1.028-1.659.105-.632.157-1.632.157-3.002V58.974c0-2.422-.764-4.28-2.291-5.57-1.529-1.291-3.293-1.935-5.295-1.935-2.424 0-4.399.579-5.927 1.737s-2.606 2.397-3.24 3.713v18.807c0 .318-.013 1.026-.039 2.133-.028 1.104.262 1.924.869 2.449.605.529 1.593.792 2.963.792h.474c.474 0 .803.078.988.235.184.158.302.555.355 1.188 0 .421-.106.789-.315 1.105-.211.317-.527.475-.948.475-3.109-.157-5.796-.239-8.06-.239-2.16 0-4.794.082-7.902.239-.422 0-.738-.157-.948-.475a1.944 1.944 0 01-.316-1.105c.052-.684.197-1.095.435-1.227.238-.129.698-.196 1.383-.196 1.739 0 2.818-.358 3.24-1.068.42-.711.618-1.527.593-2.448a77.226 77.226 0 01-.04-1.857V58.974c0-2.422-.75-4.28-2.252-5.57-1.5-1.291-3.252-1.935-5.254-1.935-2.423 0-4.398.579-5.926 1.737-1.528 1.158-2.634 2.397-3.319 3.713v18.807c0 1.37.052 2.37.158 3.002.106.633.447 1.187 1.027 1.659.58.476 1.554.713 2.924.713h.474c.421 0 .738.078.949.235.209.158.341.555.394 1.188 0 .421-.105.789-.316 1.105-.21.317-.527.475-.948.475a163.337 163.337 0 00-8.297-.239c-2.371 0-5.109.082-8.218.239-.371 0-.673-.158-.91-.475z"/><linearGradient id="c" gradientUnits="userSpaceOnUse" x1="-2.813" y1="54.674" x2="315.774" y2="83.67"><stop offset="0" stop-color="#9fef26"/><stop offset=".018" stop-color="#9dea21"/><stop offset=".102" stop-color="#95d70f"/><stop offset=".189" stop-color="#91cc04"/><stop offset=".281" stop-color="#8fc800"/><stop offset="1" stop-color="#1d9632"/></linearGradient><path fill="url(#c)" d="M110.846 82.126c-1.949-1.79-2.923-4.03-2.923-6.717 0-3.316 1.106-5.809 3.318-7.467 2.212-1.659 4.846-2.738 7.901-3.239 3.055-.5 7.006-.881 11.853-1.146v-6.242c0-2.581-.646-4.543-1.936-5.887-1.292-1.343-3.358-2.016-6.203-2.016-1.634 0-3.056.503-4.267 1.502-1.213 1.001-1.818 2.345-1.818 4.03 0 .841.198 1.541.593 2.093a7.219 7.219 0 001.264 1.383c.447.369.672.581.672.632 0 .317-.33.726-.988 1.225-.66.502-1.462.75-2.41.75-1.58 0-2.833-.577-3.753-1.736-.922-1.159-1.382-2.531-1.382-4.11 0-2.739 1.224-4.768 3.673-6.085 2.45-1.315 5.413-1.975 8.89-1.975 4.319 0 7.834.818 10.549 2.45 2.712 1.633 4.069 4.662 4.069 9.086V77.07c.053 1.104.396 2.16 1.028 3.16s1.66 1.5 3.083 1.5c.42 0 .722.08.907.239.186.156.278.5.278 1.026 0 .632-.489 1.092-1.463 1.382a10.12 10.12 0 01-2.884.438c-2.002 0-3.767-.583-5.294-1.74-1.528-1.159-2.397-2.713-2.607-4.663-1.106 2.055-2.805 3.635-5.097 4.741-2.292 1.105-4.754 1.662-7.388 1.662-3.16 0-5.717-.899-7.665-2.689zm15.171-2.924a9.929 9.929 0 003.635-3.675c.896-1.554 1.344-3.278 1.344-5.176v-4.504c-5.531.424-9.43 1.318-11.694 2.688-2.266 1.369-3.398 3.582-3.398 6.638 0 3.583 1.712 5.374 5.136 5.374a9.651 9.651 0 004.977-1.345z"/><linearGradient id="d" gradientUnits="userSpaceOnUse" x1="-1.623" y1="41.626" x2="316.958" y2="70.621"><stop offset="0" stop-color="#9fef26"/><stop offset=".018" stop-color="#9dea21"/><stop offset=".102" stop-color="#95d70f"/><stop offset=".189" stop-color="#91cc04"/><stop offset=".281" stop-color="#8fc800"/><stop offset="1" stop-color="#1d9632"/></linearGradient><path fill="url(#d)" d="M141.504 83.628a1.944 1.944 0 01-.315-1.105c.052-.684.197-1.095.435-1.227.237-.129.697-.196 1.381-.196 1.372 0 2.344-.237 2.925-.713.58-.473.92-1.026 1.026-1.659.105-.632.16-1.632.16-3.002V37.244c0-1.368-.039-2.371-.118-3.002-.079-.632-.409-1.185-.988-1.659-.582-.474-1.555-.711-2.924-.711-.633 0-1.107-.09-1.424-.276-.315-.185-.473-.62-.473-1.303 0-.318.104-.622.315-.911.209-.289.525-.46.948-.512 3.319-.475 6.164-1.158 8.535-2.055.738-.263 1.341-.421 1.818-.474h.236c.842 0 1.263.501 1.263 1.5v36.111c2.317-.474 4.215-1.448 5.689-2.924l6.639-6.795c.105-.158.42-.513.949-1.068.525-.551.789-1.014.789-1.381 0-.791-1.212-1.107-3.636-.949-.579-.105-.896-.579-.946-1.423 0-.419.118-.789.355-1.106.235-.315.539-.471.906-.471 2.373.156 5.269.236 8.693.236.737 0 1.897-.053 3.477-.157l1.818-.079c.368 0 .672.156.908.471.236.317.355.688.355 1.106-.053.634-.186 1.027-.396 1.186-.211.157-.524.237-.947.237-1.951 0-3.557.343-4.82 1.027-1.265.686-2.74 1.898-4.423 3.635l-6.642 6.795c1.37 1.845 4.269 5.216 8.694 10.113 2 2.216 3.028 3.374 3.08 3.478 1.897 2.004 3.305 3.348 4.228 4.031.922.685 2.068 1.079 3.438 1.186.105 0 .329.012.672.038.342.029.605.146.791.355.185.21.275.554.275 1.029 0 1.053-.421 1.58-1.264 1.58-.475 0-1.264-.04-2.371-.118-1.105-.082-3.819-.121-8.138-.121-1.58-1.631-5.243-5.794-10.983-12.484-1.794-2.106-2.635-3.107-2.528-3.002-1.53-1.634-3.081-2.373-4.664-2.212v9.561c0 1.37.041 2.37.12 3.002.078.633.407 1.187.988 1.659.577.476 1.551.713 2.923.713h.474c.475 0 .817.078 1.028.235.208.158.343.555.395 1.188 0 .421-.12.789-.355 1.105-.236.317-.539.475-.908.475a163.31 163.31 0 00-8.298-.239c-2.371 0-5.11.082-8.218.239-.422 0-.738-.158-.947-.475z"/><linearGradient id="e" gradientUnits="userSpaceOnUse" x1="-1.54" y1="40.708" x2="317.044" y2="69.703"><stop offset="0" stop-color="#9fef26"/><stop offset=".018" stop-color="#9dea21"/><stop offset=".102" stop-color="#95d70f"/><stop offset=".189" stop-color="#91cc04"/><stop offset=".281" stop-color="#8fc800"/><stop offset="1" stop-color="#1d9632"/></linearGradient><path fill="url(#e)" d="M223.33 82.361c-1.846-1.895-2.767-4.607-2.767-8.138v-23.23l-4.583.158c-.316 0-.581-.143-.792-.433a1.65 1.65 0 01-.313-.989c0-.474.091-.882.275-1.224.185-.343.461-.541.83-.592 1.844-.37 3.279-.963 4.306-1.781 1.028-.814 1.778-1.71 2.252-2.684.476-.975 1.053-2.462 1.739-4.466.265-.683.842-1.026 1.738-1.026.367 0 .736.093 1.105.275.37.186.555.464.555.831l-.555 9.009 9.246-.555h.156c.686 0 1.029.501 1.029 1.501 0 .58-.092 1.121-.278 1.62-.185.501-.408.751-.671.751l-8.851-.238v24.022c0 1.738.356 3.188 1.068 4.347.711 1.158 1.882 1.737 3.516 1.737 1.633 0 3.08-.288 4.348-.87.684-.263 1.104-.395 1.262-.395.369 0 .658.145.87.436.212.289.422.672.632 1.144.053.109.08.239.08.398 0 .21-.159.446-.477.71-1.526 1-2.964 1.67-4.306 2.015-1.342.341-2.938.512-4.779.512-2.579 0-4.791-.947-6.635-2.845z"/><linearGradient id="f" gradientUnits="userSpaceOnUse" x1="-2.417" y1="50.509" x2="316.148" y2="79.503"><stop offset="0" stop-color="#9fef26"/><stop offset=".018" stop-color="#9dea21"/><stop offset=".102" stop-color="#95d70f"/><stop offset=".189" stop-color="#91cc04"/><stop offset=".281" stop-color="#8fc800"/><stop offset="1" stop-color="#1d9632"/></linearGradient><path fill="url(#f)" d="M238.935 98.916c-1.765-1.447-2.648-3.173-2.648-5.175 0-2.37.661-3.886 1.976-4.543 1.315-.661 2.345-.987 3.082-.987.896 0 1.634.183 2.213.554.578.367.871.71.871 1.025 0 .106-.212.368-.634.791-.423.422-.632 1.159-.632 2.212 0 1.054.327 1.976.987 2.764.658.793 1.594 1.186 2.804 1.186 3.319 0 6.561-3.396 9.721-10.191.209-.736.315-1.29.315-1.66 0-.526-.133-1.186-.395-1.975-1.055-2.369-2.819-6.769-5.294-13.196-2.161-5.742-3.925-10.113-5.293-13.116-.897-2.054-1.738-3.464-2.531-4.228-.79-.763-1.947-1.25-3.476-1.461-.16-.053-.449-.105-.869-.159-.423-.051-.685-.183-.789-.395-.107-.21-.158-.58-.158-1.106 0-.632.171-1.029.514-1.185.341-.157.762-.25 1.264-.279.5-.025.829-.038.988-.038 3.209-.159 5.739.303 7.585 1.382 1.842 1.081 3.371 2.964 4.583 5.649a154.716 154.716 0 013.08 7.665c2.107 5.69 3.818 9.854 5.137 12.486h.239l7.742-20.704c.263-.895.396-1.528.396-1.896 0-.579-.264-.975-.791-1.186s-1.396-.316-2.605-.316h-.476c-.423 0-.726-.08-.909-.237-.186-.159-.303-.552-.354-1.186 0-.368.09-.722.274-1.068.187-.34.461-.51.832-.51 3.001.156 5.557.236 7.663.236.843 0 1.009-.053 3.43-.157l.191-.079c.37 0 .659.17.87.51.209.346.316.7.316 1.068-.052.634-.186 1.027-.395 1.186-.212.157-.527.237-.948.237-1.949 0-.516.316-1.567.949-1.055.631-1.949 1.87-2.686 3.713a23036.03 23036.03 0 01-5.851 14.461 1771.095 1771.095 0 01-6.002 14.696c-1.899 4.529-4.11 8.402-6.639 11.614-2.529 3.214-5.559 4.822-9.088 4.822-2.264.002-4.279-.725-6.043-2.173z"/><linearGradient id="g" gradientUnits="userSpaceOnUse" x1=".478" y1="18.523" x2="319.073" y2="47.519"><stop offset="0" stop-color="#9fef26"/><stop offset=".018" stop-color="#9dea21"/><stop offset=".102" stop-color="#95d70f"/><stop offset=".189" stop-color="#91cc04"/><stop offset=".281" stop-color="#8fc800"/><stop offset="1" stop-color="#1d9632"/></linearGradient><path fill="url(#g)" d="M21.004 27.604l-8.06-11.694c-.212-.368-.316-.712-.316-1.027 0-.58.263-1.028.79-1.344.264-.156.553-.236.87-.236.473 0 1.078.265 1.816.79 1.422 1.105 3.713 3.688 6.875 7.744 3.161-4.056 5.453-6.638 6.875-7.744.737-.525 1.343-.79 1.816-.79.316 0 .605.08.87.236.525.316.791.765.791 1.344 0 .315-.107.659-.316 1.027l-8.06 11.694c-.475.686-1.107 1.028-1.897 1.028-.895-.001-1.58-.342-2.054-1.028z"/><linearGradient id="h" gradientUnits="userSpaceOnUse" x1="163.317" y1="40.041" x2="227.914" y2="77.478"><stop offset="0" stop-color="#f9ef01"/><stop offset=".343" stop-color="#fbd201"/><stop offset="1" stop-color="#ff9200"/></linearGradient><path fill="url(#h)" d="M217.13 59.695l-.679-1.88c-.793-2.194-1.212-4.463-1.488-6.195a630.717 630.717 0 01-.668-4.306l-.05-.313a22.895 22.895 0 01-.092-.679c-.029-.23-.06-.462-.096-.694-.071-.459-.259-.736-.556-.825.276-.588.321-1.255.138-2.035-.128-.545-.528-.862-1.044-.842.193-.959-.066-1.871-.353-2.726-.292-.868-.616-1.739-.929-2.583l-.014-.038c-.345-.93-.702-1.891-1.015-2.846-.43-1.31-.818-2.666-1.199-3.983l-.019-.067c-.163-.565-.325-1.13-.494-1.695a2.098 2.098 0 00-.057-.169c-.027-.077-.056-.157-.062-.209-.045-.494-.354-.665-.596-.731l.583-.333-.759-2.822a30.361 30.361 0 00-.384-1.364c-.102-.322-.451-.452-.661-.504l-.097-.011c-.172 0-.329.091-.467.271-.043.058-.063.116-.089.171l-.026-.136-.488-.02c-1.167 0-2.682.804-3.188 2.147-.457 1.207-.358 2.403-.201 3.412.145.927.336 1.857.52 2.755.093.455.188.914.275 1.372.056.296.115.6.119.885.001.29.097.532.276.707a.438.438 0 00-.066.063c-.231.256-.199.597-.188.708.023.241.044.478.063.717l.004.061c.048.578.098 1.175.193 1.767.275 1.724.582 3.45.881 5.118l.161.904c.042.238.101.472.164.717.04.161.082.322.115.484.099.48.366.786.601.989-.415.176-.535.461-.534 1.17.001.596.063 1.191.125 1.769l.053.544a.989.989 0 00.153.427l-.957.495c.11-.445.021-.773-.084-.981-.127-.25-.402-.573-.997-.714a21.6 21.6 0 00-2.458-.419 263.96 263.96 0 00-5.443-.56c-1.292-.122-2.559-.235-3.845-.283-.337 0-.611.187-.855.353l-.011.007-.054-.345-.957.421-.507.222c.132-.159.257-.327.391-.484-.034-.039-.066-.079-.101-.116-.888.348-1.784.704-2.73 1.076l-.01-.021-5.491 2.075-.088.034.31.819a2 2 0 00-1.081-.083l-.451.094.095.45.021.099a1.095 1.095 0 00-1.23-.117 2.71 2.71 0 00-1.352 1.769c-.149.588-.25 1.169-.355 1.782l-.012.069c-.043.243-.085.491-.133.744l-.162.863.761-.342a2.69 2.69 0 00-.634 1.124c-.094.338-.263.679-.442 1.039l-.02.042c-.085.171-.171.343-.253.527l-.524 1.155.387-.188c-1.257 1.187-1.546 2.871-.759 4.653.305.689.631 1.383.951 2.063a66.96 66.96 0 011.256 2.777c.641 1.534 1.247 3.103 1.835 4.621.268.687.533 1.374.803 2.063.806 2.047 1.64 4.162 3.01 6.021.019.023.034.046.052.066a12.036 12.036 0 01-.775-.862l-1.323-1.617.524 2.021.145.587.01.045c.115.462.229.94.382 1.404l.069.212c.503 1.527 1.021 3.107 1.597 4.645.625 1.664 1.697 3.015 2.667 4.117.198.228.397.457.592.687.506.591.992 1.179 1.441 1.728l.759.923-.086-.014-.151.604.08.152c1.839 3.598 6.054 5.922 10.736 5.922 5.986 0 11.09-3.892 11.62-8.86l.044-.47c.084-1.533.224-2.783.441-3.937.187-.993.424-1.888.728-2.73.743-2.077 1.59-4.158 2.416-6.19l.674-1.657c.479-1.188.983-2.401 1.426-3.473.563-1.36 1.146-2.77 1.706-4.168.869-2.18.916-4.404.139-6.615a488.516 488.516 0 00-1.602-4.476zm-14.027 1.922c-.327 0-.697.04-.933.335-.286.352-.203.853-.058 1.518 0 .003 0 .007.002.01l-.488-.536-.321.504c-.669 1.053-1.157 1.968-1.388 3.016-.063.289-.106.571.065.811.181.255.464.292.827.338.335.043.65.092.946.148-1.065-.108-2.175-.193-3.293-.193-.438 0-.866.012-1.274.039-1.015.064-2.029.242-3.006.416l-.028.006a91.55 91.55 0 01-1.274.218c-.114.019-.2.061-.291.102l-1.276.555 1.161.374c.094.031.19.063.286.093-.522-.133-1.054-.263-1.58-.388-.666-.156-1.228-.548-1.668-1.162a248.983 248.983 0 01-3.389-4.872c-.233-.341-.452-.704-.672-1.068-.207-.34-.417-.691-.647-1.033a7.045 7.045 0 00-.269-.376l.658.165-.032-.622c-.015-.256-.024-.514-.034-.776a27.061 27.061 0 00-.112-1.818c-.151-1.412-.445-2.529-.927-3.521-.039-.08-.078-.164-.12-.247.102.13.206.26.316.386.487.566 1.337.795 2.264.61.885-.174 1.76-.39 2.606-.601.35-.09.698-.176 1.044-.26l.374-.089-.064-1.055c.385.505.769.851 1.171 1.054 1.813.92 3.369 1.308 4.948 1.247.77-.031 1.462-.229 2.067-.588-.5 1.413-.257 2.741.724 3.956a12.61 12.61 0 004.063 3.322 4.44 4.44 0 00-.378-.018zm4.177-35.085l.022.025c.039.042.079.084.112.126l.076.099c-.201-.089-.328-.286-.404-.477.064.081.131.157.194.227zm9.873 38.499c-.765-1.045-1.585-2.066-2.375-3.053l-.702-.878a296.81 296.81 0 00-1.501-1.857l-.06-.072c-1.029-1.264-2.094-2.574-3.08-3.897-.77-1.04-1.492-2.155-2.195-3.245-.336-.524-.717-1.114-1.1-1.686a15.664 15.664 0 00-.619-.842l-.235-.314c1.3 1.487 2.472 3.117 3.617 4.714l.033.048c.515.716 1.045 1.457 1.584 2.174.746 1 1.538 1.989 2.303 2.946l.05.063c.576.719 1.171 1.464 1.761 2.229.771.998 1.566 2.031 2.257 3.129.138.226.263.457.368.693-.034-.051-.07-.1-.106-.152z"/><linearGradient id="i" gradientUnits="userSpaceOnUse" x1="181.997" y1="7.802" x2="246.6" y2="45.242"><stop offset="0" stop-color="#f9ef01"/><stop offset=".343" stop-color="#fbd201"/><stop offset="1" stop-color="#ff9200"/></linearGradient><path fill="url(#i)" d="M217.036 30.176l.117.143.042-.181c.069-.296.137-.589.2-.876.168-.728.322-1.416.505-2.103.11-.419.002-.688-.365-.902l-.086-.052-.043.092c-.579 1.208-.869 3.277-.37 3.879z"/><linearGradient id="j" gradientUnits="userSpaceOnUse" x1="176.938" y1="16.542" x2="241.533" y2="53.978"><stop offset="0" stop-color="#f9ef01"/><stop offset=".343" stop-color="#fbd201"/><stop offset="1" stop-color="#ff9200"/></linearGradient><path fill="url(#j)" d="M211.646 35.41c.068.157.185.285.305.419.015.015.025.03.041.043h-.502l.039.12.119.406c.09.296.174.581.273.861.223.62.462 1.243.696 1.845.7 1.81 1.426 3.682 1.69 5.665.231 1.746.526 3.514.81 5.223l.121.725c.085.505.197 1.012.309 1.505.052.231.103.464.152.695l.018.084.305-.042.004-.074c.017-.276.079-.558.14-.831.151-.665.304-1.353-.143-2.07h.021c.551 0 .693-.411.754-.768.069-.406.112-.822.152-1.223.023-.242.048-.481.077-.72.107-.859.095-.935-.642-1.321.544-.502.473-1.12.359-1.66a4.057 4.057 0 01-.079-.632c-.039-.742-.075-1.485-.113-2.226a729.22 729.22 0 00-.244-4.704c-.012-.185-.156-.388-.296-.507-.153-.133-.328-.24-.496-.343a.376.376 0 00-.055-.032c.047-.011.092-.013.138-.016l.039-.001c.572-.031.72-.176.757-.742.006-.087.009-.175.012-.262.005-.142.01-.286.026-.425.051-.435.104-.869.157-1.302.07-.577.143-1.154.206-1.733.007-.058.032-.349-.105-.491-.352-.357-.48-.843-.38-1.442.114-.698.268-1.406.414-2.089.084-.39.168-.779.245-1.166.018-.083.048-.403-.097-.478-.293-.156-.597-.316-.923-.359a2.198 2.198 0 00-.242-.015c-.797 0-1.354.542-1.699.951-.664.773-1.129 1.746-1.462 3.06a104.983 104.983 0 00-1.145 5.077c-.059.29.084.624.209.917l.035.078z"/><linearGradient id="k" gradientUnits="userSpaceOnUse" x1="177.364" y1="15.726" x2="242.012" y2="53.193"><stop offset="0" stop-color="#f9ef01"/><stop offset=".343" stop-color="#fbd201"/><stop offset="1" stop-color="#ff9200"/></linearGradient><path fill="url(#k)" d="M221.299 39.775a1.284 1.284 0 01-.04-.099l-.046-.141-.107.103a.624.624 0 01-.065.06.46.46 0 00-.164.195 7.173 7.173 0 00-.241.866c-.07.333-.129.672-.188 1l-.088.485.084.019c.043.01.083.02.128.029l.085.018.022-.083.093-.328c.068-.252.143-.512.223-.764.049-.155.102-.305.159-.457.073-.2.146-.408.207-.619.026-.096-.019-.196-.062-.284z"/><linearGradient id="l" gradientUnits="userSpaceOnUse" x1="173.788" y1="21.966" x2="238.39" y2="59.406"><stop offset="0" stop-color="#f9ef01"/><stop offset=".343" stop-color="#fbd201"/><stop offset="1" stop-color="#ff9200"/></linearGradient><path fill="url(#l)" d="M220.004 42.148l.058-.358c.115-.723.234-1.472.393-2.195.07-.327 0-.499-.271-.656-.705-.41-1.656-.333-2.317.192-.392.309-.549.643-.522 1.112.061 1.124.099 2.268.133 3.376.016.508.031 1.015.051 1.521.003.074.018.146.032.215l.016.081c.237 1.313.223 2.451-.042 3.48-.068.272-.166.545-.26.808a7.59 7.59 0 00-.31 1.012c-.251 1.19-.531 2.596-.715 4.01-.051.396.015.811.077 1.208.027.177.057.36.074.539l.012.089.267-.021.705-1.703-.318-.293c.482-.226.796-.634.931-1.221.178-.766.314-1.552.451-2.319.05-.29.092-.584.134-.872.067-.493.141-1 .263-1.487.201-.798.431-1.604.652-2.384.184-.641.375-1.304.546-1.959.023-.087.05-.176.076-.265.145-.488.311-1.04-.083-1.583-.045-.056-.058-.188-.033-.327z"/><path fill="#352B27" d="M221.704 38.836c-.512-.371-1.035-.752-1.606-1.008-.676-.304-1.41-.27-2.107.004-.255.1-.482.274-.856.494 0-1.044-.034-1.979.01-2.912.044-.908.158-1.814.256-2.715.088-.796.147-1.598.304-2.382.245-1.222.541-2.435.854-3.64.161-.619-.102-1.033-.536-1.38-1.141-.913-2.429-.931-3.748-.521-1.095.339-1.572 1.297-2.017 2.231-.73 1.54-1.123 3.188-1.406 4.863-.074.438-.143.878-.214 1.319a8.784 8.784 0 01-.446-1.364c-.851-3.306-1.698-6.613-2.548-9.921-.093-.363-.306-.57-.702-.627-1.101-.155-2.136.113-3.15.469-1.406.491-2.164 1.54-2.415 2.967-.308 1.758-.081 3.492.274 5.219.304 1.477.759 2.92.646 4.473-.059.8.089 1.633.243 2.43.475 2.418.999 4.828 1.499 7.241a.805.805 0 01.001.399c-.273.839-.321 1.696-.255 2.565-.026.006-.059.024-.077.013-1.28-.71-2.701-.784-4.107-.882-2.147-.152-4.294-.251-6.441-.376-1.632-.093-3.227.034-4.759.687-1.599.683-3.631 1.333-5.251 1.964-1.121.438-1.758.972-3.056.958-1.378-.015-2.55.65-3.151 2.008-.4.901-.57 1.86-.69 2.836-.096.775-.156 1.575-.402 2.311-.296.895-.727 1.756-1.171 2.592-.505.952-.805 1.917-.84 2.919a5.89 5.89 0 00.226 1.835c.595 2.104 1.563 4.041 2.524 5.987.594 1.202 1.201 2.402 1.726 3.633.075.178.152.353.224.53.062.15.114.307.17.462.379 1.053.652 2.148.984 3.222.241.775.54 1.532.729 2.319.462 1.936.795 3.908 1.333 5.82.146.524.321 1.034.508 1.539.805 2.152 1.988 4.1 3.743 5.706.554.51.99 1.089 1.293 1.751.031.007 1.212 2.687 2.197 3.798 2.266 2.556 5.9 4.215 9.987 4.215 4.734 0 8.859-2.227 10.956-5.491.858-1.337 1.541-4.499 1.58-4.52.14-1.679.412-3.338.833-4.978.863-3.371 2.045-6.623 3.502-9.784.93-2.02 1.825-4.059 2.601-6.142.458-1.234.734-2.552.941-3.857.201-1.27-.021-2.549-.427-3.775a245.749 245.749 0 00-1.767-5.191c-.274-.773-.411-1.509-.099-2.314a14.68 14.68 0 00.604-2.062c.374-1.652.681-3.318 1.074-4.965.242-1.012.63-1.99.884-2.999.336-1.341.569-2.706.916-4.043.247-.957.613-1.88.918-2.823.136-.428.072-.841-.296-1.107zm-3.95-11.758c-.259.966-.465 1.946-.707 2.984-.441-.536-.212-2.541.383-3.781.316.184.425.41.324.797zm-6.319 7.3c.344-1.7.718-3.391 1.144-5.07.279-1.094.693-2.151 1.441-3.026.481-.563 1.063-1.004 1.861-.901.31.04.61.199.895.346.063.034.071.255.046.378-.215 1.088-.479 2.167-.659 3.259-.09.537-.021 1.085.405 1.524.084.084.095.278.079.416-.113 1.011-.243 2.022-.362 3.032-.027.228-.024.462-.038.693-.034.52-.145.629-.671.656-.107.007-.217 0-.377.086.234.153.484.286.696.466.125.108.255.288.264.442.131 2.309.238 4.621.356 6.931.012.215.036.434.081.646.129.61.164 1.195-.432 1.661.823.426.822.432.714 1.292-.08.647-.118 1.299-.229 1.939-.067.397-.226.783-.871.673.78 1.042.157 2.017.098 3.005a2.265 2.265 0 00-.144.019c-.155-.733-.338-1.459-.46-2.198-.328-1.979-.667-3.955-.933-5.943-.353-2.658-1.502-5.049-2.39-7.528-.145-.407-.256-.822-.394-1.267h.574c-.175-.216-.368-.382-.456-.591-.125-.297-.296-.652-.238-.94zm-5.071-12.101c.118.029.287.1.317.193.182.581.331 1.173.489 1.761.187.689.371 1.376.557 2.066-.044.026-.089.053-.135.076-.152-.194-.375-.369-.445-.591a94.996 94.996 0 01-.949-3.275c-.017-.06.13-.239.166-.23zm-21.066 26.587l.103.116c-.228.267-.417.584-.69.791-.592.452-1.294.683-2.026.756-.193.019-.412-.213-.675-.364 1.163-.459 2.224-.88 3.288-1.299zm-7.8 3.831a2.266 2.266 0 011.128-1.48c.324-.179.67-.095.84.229.392.732.546 1.505.23 2.304a.922.922 0 01-.403.465c-.713.355-1.444.667-2.289 1.049.169-.904.287-1.746.494-2.567zm40.741 11.572c.742 2.111.695 4.223-.132 6.292-1.021 2.557-2.1 5.088-3.13 7.641-1.056 2.613-2.146 5.214-3.099 7.864-.328.914-.567 1.85-.745 2.8-.247 1.314-.375 2.652-.448 3.997a2.024 2.024 0 01-.019.202c-.363 4.845-5.24 8.694-11.187 8.694-4.638 0-8.628-2.34-10.329-5.67l.008-.031c.151.039.311.058.451.119.151.069.286.177.429.269a1.14 1.14 0 00-.241-.524c-.436-.526-.866-1.055-1.302-1.584a119.62 119.62 0 00-2.044-2.424c-1.059-1.204-2.017-2.47-2.579-3.975a75.97 75.97 0 01-.846-2.386c-.279-.816-.548-1.634-.815-2.451-.215-.657-.354-1.34-.528-2.009.684.838 1.439 1.56 2.286 2.15a9.1 9.1 0 002.105 1.107.54.54 0 00-.157-.175 13.875 13.875 0 01-1.695-1.551 14.294 14.294 0 01-1.091-1.298 14.937 14.937 0 01-.938-1.451c-.813-1.421-1.415-2.943-2.016-4.468-.878-2.231-1.717-4.478-2.642-6.689-.683-1.639-1.493-3.226-2.21-4.852-.978-2.208-.062-3.979 1.758-4.894.691-.348 1.453-.558 2.194-.834-1.06-.379-2.045-.007-3.058.484.277-.611.584-1.122.74-1.673.194-.689.624-1.143 1.199-1.473.372-.214.789-.357 1.198-.495.413-.14.771-.357.873-.78.125-.522.234-1.068.204-1.595-.041-.623-.24-1.235-.372-1.869.436-.091.869.02 1.266.287 1.112.739 1.728 1.864 2.285 3.018.517 1.061.76 2.206.884 3.369.092.86.1 1.73.144 2.57-.478-.117-.898-.223-1.362-.337.406.519.774.939 1.082 1.4.461.688.856 1.421 1.321 2.105.64.94 1.284 1.873 1.935 2.807.482.693.968 1.388 1.462 2.073.256.356.562.655.914.891.302.204.641.362 1.022.451 1.176.277 2.341.585 3.511.884 2 .511 3.991 1.08 6.09.916.281-.022.56-.082.839-.123-3.033-.439-5.921-1.302-8.9-2.264.189-.081.259-.131.337-.142 1.42-.222 2.836-.547 4.266-.637 2.52-.155 5.022.206 7.52.524.549.069 1.097.124 1.645.186-1.158-.429-2.316-.851-3.492-1.204a12.395 12.395 0 00-2.022-.413c-.537-.066-.615-.074-.501-.595.222-1.017.72-1.912 1.325-2.866.269.291.48.556.726.781.239.222.497.428.773.603.269.169.568.288.854.427.018-.028.034-.06.052-.087-.226-.216-.45-.429-.673-.646-.403-.393-.737-.827-.863-1.4-.274-1.261-.158-1.371 1.124-1.264.706.06 1.424.011 2.116.011-.256-.105-.508-.213-.767-.308-2.105-.774-3.851-2.047-5.259-3.79a4.25 4.25 0 01-.549-.87c-.036.002-.066.008-.103.009-.591-1.793.134-2.98.134-2.98.188-.435.402-.854.604-1.28a3.46 3.46 0 00-.72.536c-.388.378-1.079.797-.973.792a3.973 3.973 0 01-1.518.36 7.55 7.55 0 01-2.183-.232c.124-.003-1.634-.589-2.585-1.071-.5-.252-.916-.762-1.24-1.243-.315-.467-.461-1.05-.68-1.58l-.051-.012c.058.925.113 1.85.178 2.889-1.125.271-3.139.826-3.008.84-.457.142-1 .248-1.471.108.016-.016-.568-.093-.91-.493-.105-.125-.205-.251-.317-.369-.515-.653-.949-1.362-1.381-1.981.71-.36 1.358-.641 1.952-1.007.578-.359 1.135-.801 1.304-1.504.064-.279.191-.393.406-.483.676-.284 1.354-.56 2.03-.847.407-.172.81-.356 1.238-.543.03.185.054.32.088.54.16-.147.254-.268.374-.337.271-.159.563-.429.835-.419 1.264.049 2.526.163 3.785.281 1.813.172 3.625.353 5.436.56.806.094 1.613.226 2.405.409.716.167.942.705.657 1.384-.104.245-.238.476-.358.715.021.03.04.063.061.094l1.668-.863c.277.371.597.761.875 1.176 1.104 1.649 2.127 3.356 3.31 4.947 1.484 1.995 3.097 3.895 4.647 5.842 1.031 1.297 2.088 2.577 3.066 3.916.824 1.126 1.042 2.43.777 3.801-.147.768-.327 1.527-.493 2.289.307-.61.564-1.243.771-1.893.582-1.831.465-3.615-.561-5.252-.69-1.102-1.487-2.141-2.283-3.173-1.354-1.755-2.781-3.456-4.108-5.229-1.801-2.406-3.44-4.932-5.449-7.182a.536.536 0 01-.134-.285c-.07-.756-.175-1.518-.175-2.275-.002-.735.046-.734.788-.896.106-.024.214-.059.357-.101-.539-.348-1.088-.598-1.224-1.253-.082-.399-.205-.79-.278-1.188-.354-2.004-.717-4.007-1.041-6.016-.134-.831-.173-1.674-.255-2.515-.031-.313.063-.466.428-.459.37.007.74-.084 1.197-.145-.486-.118-.867-.201-1.242-.307-.257-.071-.4-.224-.403-.529-.004-.321-.065-.646-.127-.965-.265-1.371-.578-2.735-.789-4.112-.166-1.06-.226-2.126.173-3.18.426-1.129 1.792-1.903 2.87-1.847.058.285.1.582.179.867.273.974.53 1.96.858 2.917.148.43.441.847.957.913.262.035.398.087.422.363.018.158.09.311.136.468.567 1.918 1.092 3.855 1.715 5.756.605 1.841 1.342 3.635 1.956 5.469.345 1.026.63 2.093.113 3.165-.007.015.02.044.034.071.137-.05.273-.106.413-.149.43-.138.727.014.828.441.181.775.133 1.511-.375 2.169-.066.086-.12.185-.213.334.188-.035.318-.032.424-.079.428-.195.523.079.572.4.071.458.121.917.189 1.372.236 1.542.472 3.083.718 4.622.34 2.132.775 4.243 1.511 6.281.766 2.118 1.537 4.232 2.282 6.353zm-19.938-7.089c-.053.007 1.721 3.25 2.993 4.105.079.053.119.297.067.391-.421.789-.901 1.548-1.305 2.346-.417.831-.759 1.701-1.154 2.545-.053.115-.213.255-.324.257-2.64.026-5.201.559-7.753 1.161-.175.042-.313.026-.435-.044a.545.545 0 01-.19-.18c-.627-.92-1.251-1.844-1.892-2.753l-.222-.307c-.675-.947-1.366-1.883-2.031-2.837a1.43 1.43 0 01-.224-.711c-.051-1.018.027-2.048-.109-3.058-.144-1.063-.54-2.452-.7-3.007.018-.066.052-.13.076-.195a3.097 3.097 0 001.585.078 49.219 49.219 0 002.6-.617l.469-.119c.861.028 1.688.051 2.45.063 1.569.729 2.964 1.04 4.418.981a4.778 4.778 0 001.482-.292 4.18 4.18 0 00.199 2.193zm22.004-17.658c-.184.846-.314 1.703-.453 2.558-.02.13-.02.301.05.397.434.598.144 1.195-.008 1.771-.382 1.452-.833 2.887-1.199 4.344-.194.775-.258 1.578-.396 2.366-.138.773-.273 1.548-.449 2.313-.126.546-.421.995-1.01 1.214l.376.346-.659 1.592-.123.009c-.059-.576-.225-1.167-.152-1.727.176-1.344.435-2.673.712-4.002.132-.618.413-1.202.571-1.816.3-1.166.255-2.344.043-3.521-.017-.093-.043-.186-.046-.28-.061-1.633-.096-3.268-.185-4.9-.026-.47.146-.766.487-1.036.647-.514 1.524-.587 2.216-.184.234.135.288.27.225.556zm.908.459c-.104.365-.252.713-.366 1.075s-.21.73-.316 1.096c-.041-.011-.082-.019-.124-.03.084-.465.16-.934.258-1.398.062-.288.143-.575.24-.854.03-.087.137-.146.207-.217.036.109.125.234.101.328z"/></svg>