<svg height="512" viewBox="0 0 58 58" width="512" xmlns="http://www.w3.org/2000/svg"><path d="M27.41 32.35a37.32 37.32 0 00-14.76-17.11 1.21 1.21 0 00-.63-.18 1 1 0 00-.52 1.82C22 23.5 28 34 28 45.55v3.35a1.08 1.08 0 00.85 1.1A1 1 0 0030 49v-3.45c0-6.85 2.62-13.61 7.78-20.1a1 1 0 10-1.62-1.17 42 42 0 00-5.13 8.16 2 2 0 01-3.62-.09z"/><path d="M29 0C12.984 0 0 12.984 0 29s12.984 29 29 29 29-12.984 29-29S45.016 0 29 0zm16.09 24.57a1.002 1.002 0 11-1.55-1.27c2.41-3 1.27-7.46.7-9.17-2.73.38-8.1 1.49-9.7 3.45a6.35 6.35 0 00-.9 6.75c.32-.43.63-.87 1-1.29a3 3 0 114.75 3.65C34.49 32.82 32 39.17 32 45.55V49a3 3 0 01-3.49 3A3.08 3.08 0 0126 48.9v-3.35c0-10.9-5.68-20.73-15.58-27a3 3 0 01-1.37-2.11 3 3 0 014.65-2.91 39.36 39.36 0 0115.54 18 43.33 43.33 0 013.12-5.45 8.14 8.14 0 01.64-9.76c2.58-3.19 10.87-4.18 11.8-4.32a1 1 0 011 .6c.2.34 3.06 7.34-.71 11.97z"/></svg>