<svg height="512" viewBox="0 0 56 56" width="512" xmlns="http://www.w3.org/2000/svg"><path d="M53 38H3a3 3 0 00-1.176 5.759.534.534 0 01.052.018c.357.146.738.222 1.124.223h50a2.99 2.99 0 001.126-.223c.015-.008.032-.01.048-.017A3 3 0 0053 38zM42.2 49.217A8.326 8.326 0 0046 50h.14a7.9 7.9 0 006.765-4h-7.491zM23 26h1v-2h-7A13 13 0 004.038 36h47.924A13.018 13.018 0 0039 24h-7v2h1a1 1 0 010 2H23a1 1 0 010-2zm24 6a1 1 0 110 2 1 1 0 010-2zm-4-3a1 1 0 110 2 1 1 0 010-2zm-4-3a1 1 0 110 2 1 1 0 010-2zm0 6a1 1 0 110 2 1 1 0 010-2zm-4-3a1 1 0 110 2 1 1 0 010-2zm-4 3a1 1 0 110 2 1 1 0 010-2zm-4-3a1 1 0 110 2 1 1 0 010-2zm-12 5a1 1 0 110-2 1 1 0 010 2zm2-6a9.01 9.01 0 00-8.252 5.4 1 1 0 11-1.833-.8A11.011 11.011 0 0117 26a1 1 0 010 2zm2 3a1 1 0 110-2 1 1 0 010 2zm4 1a1 1 0 110 2 1 1 0 010-2z"/><path d="M26 18h4v8h-4zM9.871 50H10a8.523 8.523 0 004.083-.913A10.591 10.591 0 0118.99 48c1.7-.038 3.384.335 4.91 1.086a8.55 8.55 0 004.09.914 8.357 8.357 0 003.811-.785L28.586 46H3.1a7.9 7.9 0 006.771 4z"/><path d="M46 52a10.6 10.6 0 01-4.909-1.085c-.135-.06-.28-.115-.418-.174L38.414 53a2 2 0 01-2.828 0l-2.26-2.26c-.141.06-.291.117-.43.178A10.629 10.629 0 0127.99 52a10.592 10.592 0 01-4.906-1.086A8.544 8.544 0 0018.99 50a8.543 8.543 0 00-4.094.915c-1.521.75-3.2 1.121-4.896 1.085h-.14a9.843 9.843 0 01-5.773-1.953A7 7 0 0011 56h34a7 7 0 006.913-5.953A9.827 9.827 0 0146.15 52z"/><path d="M42.586 46H31.414L37 51.586zM55 0H1a1 1 0 00-1 1v14a1 1 0 001 1h54a1 1 0 001-1V1a1 1 0 00-1-1zM11.929 3.372l-4 10a1 1 0 01-1.858 0l-4-10a1 1 0 011.858-.744L7 10.308l3.071-7.68a1 1 0 011.858.744zM20 7a1 1 0 010 2h-5v3h5a1 1 0 010 2h-6a1 1 0 01-1-1V3a1 1 0 011-1h6a1 1 0 010 2h-5v3zm13 3h-1a4 4 0 01-4 4h-1a4 4 0 01-4-4V6a4 4 0 014-4h1a3.971 3.971 0 013.766 2.677 1 1 0 01-1.892.646A1.973 1.973 0 0028 4h-1a2 2 0 00-2 2v4a2 2 0 002 2h1a2 2 0 002-2h-1a1 1 0 010-2h4a1 1 0 010 2zm10.372 3.929a1 1 0 01-1.301-.557L41.123 11h-4.246l-.948 2.372a1 1 0 01-1.858-.744l4-10a1 1 0 011.858 0l4 10a1 1 0 01-.557 1.301zM54 13a1 1 0 01-1.819.573L47 6.172V13a1 1 0 01-2 0V3a1 1 0 011.819-.573L52 9.828V3a1 1 0 012 0z"/><path d="M37.677 9h2.646L39 5.692z"/></svg>