<svg xmlns="http://www.w3.org/2000/svg" xmlns:xlink="http://www.w3.org/1999/xlink" width="279.369" height="122.7"><path fill="#4C2714" d="M240.477 69.258c-.365-5.332-4.132-6.603-5.284-6.867a11.06 11.06 0 00-1.396-.224s.061-7.281.431-15.951c.454-10.678-2.791-16.541-10.866-20.579-3.656-1.828-9.049-1.346-13.545-1.346-2.201 0-4.324.286-6.354.777a5.845 5.845 0 00-.485-.404 7.479 7.479 0 00-4.389-1.404c-.333 0-.677.021-1.052.069-.94.122-1.87.354-2.757.688-.41.154-.978.345-1.689.573-.716.231-1.696.501-2.847.787-1.099.276-2.609.558-4.493.838l-.503.1c-1.743.438-3.222 1.366-4.271 2.684a7.452 7.452 0 00-1.658 4.694c0 1.142.204 2.183.556 3.121l-.106.064c-.375-1.384-.869-2.674-1.534-3.82-1.476-2.544-3.437-4.579-5.825-6.047-2.195-1.349-4.686-2.263-7.41-2.716-4.607-.763-9.134-.756-13.212.03-2.27.437-4.361 1.161-6.227 2.153a15.835 15.835 0 00-3.088 2.159 9.37 9.37 0 00-.618-1.63c-1.23-2.452-3.641-3.915-6.446-3.915-.237 0-.487.006-.934.056l-10.86 2.044a23.511 23.511 0 00-4.469-1.092c-5.652-.83-10.74-.517-14.998.921-2.768.937-5.213 2.249-7.27 3.902-2.183 1.76-3.905 3.881-5.116 6.304a17.649 17.649 0 00-.726 1.69c-.081-.199-.147-.406-.233-.604a20.677 20.677 0 00-4.646-6.697c-.275-.263-.579-.498-.871-.745 4.685-.505 8.549-3.053 10.609-7.008 2.132-4.097 1.965-9.125-.446-13.45C92.511 3.145 87.183 0 81.196 0c-.35 0-.706.012-1.066.033-18.146 1.128-38.413 22.874-46.067 38.141l-.288.571c-.411.813-.799 1.597-1.165 2.351a423.828 423.828 0 00-1.216-3.032 759.413 759.413 0 00-2.334-5.682l-.077-.177c-1.986-4.312-4.641-7.489-7.896-9.442-2.869-1.72-6.521-2.591-10.852-2.591-.568 0-1.152.014-1.841.049a38.907 38.907 0 00-2.948.292c-2.897.405-5.7 2.83-5.427 7.387.3 4.238 2.689 5.659 4.134 6.144.606.199 1.404.368 2.684.562.733.099 1.096.23 1.211.279a.904.904 0 01.278.202c.172.172.448.502.788 1.091.408.706.851 1.596 1.336 2.681a215.178 215.178 0 013.342 7.771 607.225 607.225 0 013.645 9.136c1.24 3.186 2.48 6.386 3.721 9.604a152.96 152.96 0 003.913 9.285l1.398 3.018s3.616.339 4.327.339h5.509c5.917 0 6.342-6.596 6.802-13.724.183-2.67.471-5.644 1.099-8.612a30.711 30.711 0 001.277 5.286c1.141 3.349 2.853 6.337 5.089 8.881 2.306 2.625 5.209 4.704 8.631 6.179 3.359 1.448 7.215 2.183 11.46 2.183 4.696 0 8.963-1.123 12.685-3.337 2.865-1.706 5.337-3.951 7.379-6.603.215.624.453 1.214.733 1.731a14.007 14.007 0 00-4.075 9.934c0 3.184.774 5.989 2.307 8.343 1.469 2.244 3.511 4.046 6.083 5.355 2.2 1.117 4.818 1.91 7.778 2.358 2.634.401 5.562.604 8.705.604 3.989 0 7.701-.379 11.034-1.125 3.527-.794 6.662-2.01 9.322-3.621 1.043-.632 1.978-1.345 2.861-2.095-.029.377-.047.767-.047 1.181 0 1.309.192 2.57.568 3.756l-1.575 14.234 2.826 1.726c2.747 1.678 6.068 2.743 9.834 3.166.974.117 1.99.177 3.014.177 2.229 0 4.346-.311 6.302-.908v.328h16.974l-.006-4.367c1.103 1.867 3.811 4.947 9.668 4.947 2.02 0 3.921-.496 5.654-1.476.139-.079.274-.158.409-.238.597.306 1.216.557 1.856.752 2.075.639 4.378.962 6.841.962 2.75 0 5.259-.413 7.461-1.231.041-.015.076-.039.116-.055v8.915l16.969 1.083v-8.725c.209.009.418.013.627.013 6.448 0 9.814-3.096 11.502-5.693 1.993-3.065 3.003-7.045 3.003-11.832 0-4.185-.766-7.927-2.277-11.126a11.49 11.49 0 00-3.092-3.968 8.74 8.74 0 00.207-1.87c0-.744-.104-1.463-.28-2.152.226.014.438.023.666.039l.417.015c2.477 0 4.671-1.16 6.027-3.192.9-1.356 1.355-2.904 1.352-4.607l-.014-.345z"/><defs><path id="a" d="M143.506 85.02c-1.806.906-2.886 2.337-3.243 4.289a8.354 8.354 0 00-.115 1.464c0 1.753.542 3.247 1.627 4.486 1.086 1.24 2.61 2.115 4.579 2.626l.977.233c1.255.294 2.243.554 2.964.779.72.225 1.324.515 1.813.871s.732.791.732 1.302c0 .79-.356 1.353-1.068 1.685-.715.334-1.729.499-3.047.499-1.284 0-2.816-.246-4.591-.743-1.772-.494-3.133-1.068-4.079-1.72l-.581 5.253c2.108 1.287 4.688 2.1 7.741 2.441.774.093 1.573.14 2.395.14 1.781 0 3.423-.241 4.927-.721 1.504-.48 2.731-1.286 3.685-2.418.953-1.13 1.43-2.618 1.43-4.463 0-1.952-.774-3.571-2.325-4.858-1.549-1.285-3.649-2.2-6.299-2.742-1.503-.278-2.61-.619-3.323-1.023-.714-.402-1.07-.977-1.07-1.72 0-1.1 1.07-1.65 3.208-1.65.698 0 1.519.056 2.464.163 1.039.186 2.058.416 3.058.686 1 .271 1.802.556 2.404.849l.651-5.068c-.976-.541-2.162-1.01-3.556-1.405-1.396-.395-2.93-.594-4.603-.594-2.698-.002-4.948.452-6.755 1.359"/></defs><clipPath id="b"><use xlink:href="#a" overflow="visible"/></clipPath><linearGradient id="c" gradientUnits="userSpaceOnUse" x1="-72.918" y1="273.951" x2="-71.918" y2="273.951" gradientTransform="scale(124.547 -124.547) rotate(-15.945 -1016.56 -127.545)"><stop offset="0" stop-color="#ffbd0d"/><stop offset=".136" stop-color="#fa9b0b"/><stop offset=".3" stop-color="#f57909"/><stop offset=".468" stop-color="#f25e07"/><stop offset=".638" stop-color="#ef4b06"/><stop offset=".814" stop-color="#ee4005"/><stop offset="1" stop-color="#ed3c05"/></linearGradient><path clip-path="url(#b)" fill="url(#c)" d="M140.997 78.33l25.248 7.213-8.119 28.412-25.247-7.214z"/><defs><path id="d" d="M193.679 101.279c-.681-1.285-1.022-3.006-1.022-5.16 0-2.076.313-3.769.94-5.079.628-1.309 1.864-1.964 3.708-1.964 1.736 0 2.945.639 3.626 1.918.683 1.278 1.023 2.995 1.023 5.148 0 2.077-.313 3.773-.942 5.091-.627 1.317-1.863 1.975-3.707 1.975-1.735 0-2.944-.642-3.626-1.929m-29.931-30.612c-.825.618-1.725 1.156-2.654 1.653l.021 35.723h6.555l-.021-16.876c.046-.03.413-.386 1.103-1.068s1.802-1.029 3.336-1.047c1.425 0 2.425.5 2.998 1.5.575 1 .861 2.538.861 4.614v4.812c0 2.557.469 4.637 1.405 6.24.938 1.604 2.669 2.407 5.195 2.407a6.176 6.176 0 003.092-.803c.946-.535 1.736-1.118 2.37-1.754.233-.233.408-.414.557-.57 1.007 1.188 2.145 1.999 3.43 2.395 1.589.487 3.358.732 5.312.732 2.14 0 4.021-.303 5.649-.908 1.627-.603 2.956-1.75 3.986-3.438 1.029-1.689 1.546-4.076 1.546-7.16V95.19c0-3.331-.582-5.847-1.743-7.543-1.163-1.697-2.538-2.789-4.127-3.277-1.587-.488-3.359-.733-5.312-.733-2.138 0-4.021.304-5.647.907-1.627.604-2.957 1.755-3.986 3.452-1.031 1.696-1.547 4.088-1.547 7.171v1.905c0 2.114.261 3.86.729 5.314-.153.116-.306.233-.485.346a3.089 3.089 0 01-1.685.477c-.604 0-1.062-.205-1.371-.616-.311-.409-.519-1.018-.628-1.823-.108-.806-.162-1.898-.162-3.278v-4.091c0-3.207-.612-5.637-1.837-7.287-1.225-1.651-3.246-2.477-6.066-2.477a8.173 8.173 0 00-3.243.663c-1.03.441-1.906.928-2.627 1.453-.72.527-1.081.814-1.081.86V71.997a8.026 8.026 0 01-1.948-3.211 11.198 11.198 0 01-1.975 1.881"/></defs><clipPath id="e"><use xlink:href="#d" overflow="visible"/></clipPath><linearGradient id="f" gradientUnits="userSpaceOnUse" x1="-72.918" y1="273.995" x2="-71.918" y2="273.995" gradientTransform="scale(124.547 -124.547) rotate(-15.945 -1016.24 -127.591)"><stop offset="0" stop-color="#ffbd0d"/><stop offset=".136" stop-color="#fa9b0b"/><stop offset=".3" stop-color="#f57909"/><stop offset=".468" stop-color="#f25e07"/><stop offset=".638" stop-color="#ef4b06"/><stop offset=".814" stop-color="#ee4005"/><stop offset="1" stop-color="#ed3c05"/></linearGradient><path clip-path="url(#e)" fill="url(#f)" d="M164.67 56.267l54.34 15.526-14.1 49.352-54.34-15.527z"/><defs><path id="g" d="M218.9 102.965a10.94 10.94 0 01-1.593-.535c-.441-.193-.662-.298-.662-.313V91.795c.371-.588.93-1.185 1.674-1.79.744-.603 1.711-.905 2.905-.905.729 0 1.396.271 1.999.813.604.542 1.083 1.324 1.44 2.347.356 1.023.535 2.226.535 3.604 0 1.116-.124 2.224-.372 3.324s-.697 2.046-1.348 2.836c-.651.79-1.534 1.185-2.65 1.185a7.631 7.631 0 01-1.928-.244m1.115-18.736c-.883.395-1.612.845-2.185 1.348-.574.504-.969.935-1.186 1.29v-2.952l-6.555.651v32.007l6.555.419v-10.228c.682.544 1.549.987 2.604 1.337 1.053.349 2.13.523 3.231.523 3.314 0 5.693-1.107 7.136-3.325 1.44-2.215 2.161-5.214 2.161-8.995 0-3.425-.593-6.392-1.777-8.902-1.186-2.51-3.546-3.767-7.079-3.767-1.054.001-2.021.199-2.905.594"/></defs><clipPath id="h"><use xlink:href="#g" overflow="visible"/></clipPath><linearGradient id="i" gradientUnits="userSpaceOnUse" x1="-72.918" y1="273.957" x2="-71.918" y2="273.957" gradientTransform="scale(124.547 -124.547) rotate(-15.945 -1016.138 -127.606)"><stop offset="0" stop-color="#ffbd0d"/><stop offset=".136" stop-color="#fa9b0b"/><stop offset=".3" stop-color="#f57909"/><stop offset=".468" stop-color="#f25e07"/><stop offset=".638" stop-color="#ef4b06"/><stop offset=".814" stop-color="#ee4005"/><stop offset="1" stop-color="#ed3c05"/></linearGradient><path clip-path="url(#h)" fill="url(#i)" d="M211.727 77.908l28.86 8.245-10.447 36.568-28.86-8.246z"/><defs><path id="j" d="M62.271 36.688c1.833-2.222 4.099-3.302 6.924-3.302 1.306 0 2.455.244 3.415.726a7.007 7.007 0 012.424 1.975 8.973 8.973 0 011.481 2.928c.334 1.117.504 2.276.507 3.381-.1 1.144-.46 1.913-1.105 2.351-.702.477-1.701.718-2.974.718H59.191c.312-3.729 1.347-6.679 3.08-8.777m5.428-7.836a4.864 4.864 0 01-1.979.227c-1.845.3-3.581.816-5.159 1.604-2.514 1.258-4.693 2.939-6.477 4.998a22.382 22.382 0 00-4.109 7.017c-.947 2.597-1.428 5.251-1.428 7.885 0 2.986.464 5.859 1.378 8.541.92 2.699 2.29 5.096 4.072 7.124 1.793 2.041 4.074 3.667 6.78 4.834 2.705 1.165 5.865 1.756 9.4 1.756 3.746 0 7.117-.876 10.019-2.603 2.885-1.717 5.31-4.112 7.202-7.101.353-.529.449-1.166.28-1.843-.166-.664-.576-1.205-1.212-1.606-.522-.335-1.002-.498-1.464-.498-.404 0-.988.131-1.533.82-1.596 2.566-3.254 4.375-4.929 5.378-1.657.995-3.691 1.501-6.043 1.501-2.373 0-4.422-.425-6.093-1.262a10.9 10.9 0 01-4.098-3.511c-1.073-1.522-1.875-3.359-2.386-5.459-.468-1.922-.728-4.042-.774-6.31h20.939c1.967 0 3.606-.363 4.871-1.077 1.406-.792 2.12-2.392 2.116-4.815-.182-2.213-.696-4.305-1.531-6.218a15.439 15.439 0 00-3.47-5.015c-1.468-1.403-3.297-2.508-5.438-3.284-2.124-.771-4.627-1.161-7.438-1.161-.51.002-1.002.046-1.496.078"/></defs><clipPath id="k"><use xlink:href="#j" overflow="visible"/></clipPath><linearGradient id="l" gradientUnits="userSpaceOnUse" x1="-72.918" y1="273.951" x2="-71.918" y2="273.951" gradientTransform="scale(219.7643 -219.7643) rotate(-6.868 -2320.628 -471.076)"><stop offset="0" stop-color="#9fef26"/><stop offset=".018" stop-color="#9dea21"/><stop offset=".102" stop-color="#95d70f"/><stop offset=".189" stop-color="#91cc04"/><stop offset=".281" stop-color="#8fc800"/><stop offset="1" stop-color="#1d9632"/></linearGradient><path clip-path="url(#k)" fill="url(#l)" d="M49.108 24.11l43.97 5.296-5.793 48.098-43.97-5.296z"/><defs><path id="m" d="M106.479 50.814c-1.622-1.805-2.443-4.48-2.443-7.95 0-3.168.802-5.627 2.386-7.314 1.593-1.696 3.575-2.521 6.063-2.521 2.543 0 4.57.853 6.193 2.607 1.617 1.747 2.436 4.239 2.436 7.406 0 3.408-.807 6.038-2.399 7.816-1.593 1.777-3.602 2.641-6.14 2.641-2.483 0-4.476-.878-6.096-2.685m28.094-22.65l-11.987 2.273c-1.325-.627-2.899-1.079-4.681-1.344-4.703-.688-8.991-.508-12.575.702-2.185.74-4.094 1.757-5.673 3.026-1.596 1.284-2.849 2.823-3.725 4.577a12.6 12.6 0 00-1.328 5.688c0 1.192.158 2.398.47 3.581a11.195 11.195 0 001.625 3.49c.757 1.103 1.786 2.152 3.063 3.117.643.487 1.379.946 2.204 1.377-1.996.385-3.586 1.197-4.749 2.427-1.675 1.774-2.524 3.883-2.524 6.27 0 2.681.809 4.625 2.404 5.777 1.48 1.075 3.343 1.811 5.517 2.185 1.574.301 3.324.485 5.206.547 1.848.059 3.697.104 5.547.134 1.831.03 3.615.119 5.303.266 1.651.142 3.123.429 4.376.856 1.186.403 2.149.998 2.865 1.766.676.726 1.004 1.684 1.004 2.93 0 2.968-1.054 5.084-3.225 6.469-2.249 1.434-5.358 2.16-9.241 2.16-4.219 0-7.348-.431-9.299-1.278-1.771-.769-2.632-2.355-2.632-4.851 0-.788.115-1.456.342-1.984.237-.554.511-1.015.818-1.37.33-.385.618-.691.866-.91.322-.286.652-.639.652-1.093 0-.357-.166-.731-.52-1.178-.279-.348-.658-.696-1.13-1.034a7.092 7.092 0 00-1.648-.851c-.643-.237-1.375-.358-2.176-.358-2.306 0-4.182.856-5.573 2.547-1.357 1.647-2.044 3.563-2.044 5.695 0 2.16.492 4.008 1.459 5.494.963 1.473 2.335 2.672 4.079 3.56 1.704.865 3.792 1.49 6.206 1.856 2.377.361 5.043.545 7.922.545 3.611 0 6.939-.337 9.892-.999 2.98-.671 5.592-1.678 7.765-2.992 2.204-1.336 3.924-2.997 5.114-4.936 1.197-1.954 1.805-4.218 1.805-6.725 0-3.75-1.488-6.702-4.421-8.774-2.853-2.015-7.56-3.036-13.972-3.036h-.003l-12.205-.355c-2.251-.137-3.231-.551-3.656-.877-.554-.419-.822-1.029-.822-1.862 0-1.065.523-1.784 1.644-2.263 1.304-.551 3.473-.831 6.449-.831h3.927c2.089 0 4.191-.328 6.248-.971 2.068-.649 3.945-1.604 5.58-2.839a14.509 14.509 0 003.997-4.61c1.01-1.827 1.521-3.9 1.521-6.159 0-1.579-.38-3.27-1.132-5.025-.505-1.182-1.092-2.218-1.75-3.096l7.316.294c.527 0 1.25-.272 1.688-1.578.262-.79.394-1.649.394-2.556 0-.647-.146-1.269-.436-1.851-.339-.674-.975-1.045-1.793-1.045a2.465 2.465 0 00-.348.022"/></defs><clipPath id="n"><use xlink:href="#m" overflow="visible"/></clipPath><linearGradient id="o" gradientUnits="userSpaceOnUse" x1="-72.918" y1="273.947" x2="-71.918" y2="273.947" gradientTransform="scale(219.7643 -219.7643) rotate(-6.868 -2320.723 -471.072)"><stop offset="0" stop-color="#9fef26"/><stop offset=".018" stop-color="#9dea21"/><stop offset=".102" stop-color="#95d70f"/><stop offset=".189" stop-color="#91cc04"/><stop offset=".281" stop-color="#8fc800"/><stop offset="1" stop-color="#1d9632"/></linearGradient><path clip-path="url(#n)" fill="url(#o)" d="M92.749 22.792l51.891 6.25-8.135 67.532-51.891-6.25z"/><defs><path id="p" d="M151.362 64.765c-.976-1.244-1.448-2.701-1.448-4.452 0-1.333.318-2.485.946-3.427.639-.96 1.61-1.776 2.888-2.427 1.336-.681 3.063-1.261 5.134-1.722 1.9-.421 4.115-.802 6.592-1.13v4.153a11.04 11.04 0 01-.836 4.266c-.554 1.33-1.321 2.477-2.285 3.412a11.334 11.334 0 01-3.394 2.263 9.938 9.938 0 01-3.988.829c-1.498 0-2.679-.578-3.609-1.765m.924-35.485c-1.762.34-3.363.89-4.761 1.634-1.437.767-2.618 1.788-3.513 3.035-.921 1.281-1.389 2.855-1.389 4.674 0 1.817.542 3.495 1.613 4.987 1.126 1.567 2.784 2.362 4.933 2.362 1.369 0 2.479-.362 3.299-1.075.899-.782 1.283-1.35 1.283-1.9 0-.414-.287-.675-.727-1.027a11.258 11.258 0 01-.92-.84c-.304-.302-.59-.706-.851-1.204-.243-.458-.361-.972-.361-1.571 0-1.792.604-3.116 1.846-4.046 1.31-.982 2.71-1.458 4.285-1.458 3.148 0 5.362.71 6.578 2.109 1.243 1.432 1.871 3.475 1.871 6.073v6.387c-.831.085-1.878.162-3.18.234a66.967 66.967 0 00-5.416.541 49.505 49.505 0 00-5.981 1.223c-2.04.547-3.921 1.325-5.588 2.311a13.494 13.494 0 00-4.202 3.873c-1.124 1.608-1.696 3.585-1.696 5.871 0 1.591.324 3.093.963 4.465a11.942 11.942 0 002.521 3.565 11.995 11.995 0 003.712 2.429c2.545 1.075 5.429 1.137 8.827.445a21.422 21.422 0 004.439-1.435c.472-.211.919-.462 1.371-.705.929-.498 1.828-1.035 2.653-1.654a11.154 11.154 0 001.974-1.88 8.03 8.03 0 001.949 3.211c.302.306.632.593.99.858 1.849 1.371 3.979 2.064 6.335 2.064a14.5 14.5 0 001.468-.095 10.865 10.865 0 001.771-.345c.62-.176 1.153-.434 1.586-.765.541-.414.828-.983.828-1.646 0-.604-.072-1.453-.703-1.863-.359-.229-.826-.345-1.38-.345-.744 0-1.358-.154-1.83-.459a4.139 4.139 0 01-1.211-1.168 4.628 4.628 0 01-.655-1.461 5.91 5.91 0 01-.201-1.422v-20.75c0-2.851-.529-5.209-1.572-7.008-1.039-1.789-2.401-3.212-4.049-4.224-1.621-.997-3.483-1.674-5.534-2.016a36.225 36.225 0 00-5.879-.498 29.38 29.38 0 00-5.496.509"/></defs><clipPath id="q"><use xlink:href="#p" overflow="visible"/></clipPath><linearGradient id="r" gradientUnits="userSpaceOnUse" x1="-72.918" y1="273.953" x2="-71.918" y2="273.953" gradientTransform="scale(219.7643 -219.7643) rotate(-6.868 -2320.236 -471.1)"><stop offset="0" stop-color="#9fef26"/><stop offset=".018" stop-color="#9dea21"/><stop offset=".102" stop-color="#95d70f"/><stop offset=".189" stop-color="#91cc04"/><stop offset=".281" stop-color="#8fc800"/><stop offset="1" stop-color="#1d9632"/></linearGradient><path clip-path="url(#q)" fill="url(#r)" d="M140.001 23.861l46.054 5.548-5.85 48.574-46.055-5.547z"/><defs><path id="s" d="M79.966 5.073C63.806 6.076 44.991 26.869 38.23 40.351c-1.467 2.926-6.824 13.146-5.371 16.407-.446-1-.891-2.041-1.336-3.138a419.743 419.743 0 01-2.77-7.004 442.014 442.014 0 00-2.669-6.749 770.904 770.904 0 00-2.319-5.642c-1.545-3.357-3.492-5.743-5.842-7.153-2.352-1.41-5.576-2.015-9.672-1.814a35.321 35.321 0 00-2.569.253c-.705.1-1.025.721-.957 1.863.067.941.252 1.461.554 1.563.303.1.89.218 1.763.353 1.008.134 1.864.352 2.569.653.706.302 1.343.74 1.914 1.31.57.571 1.108 1.295 1.612 2.167a33.865 33.865 0 011.562 3.122 219.788 219.788 0 013.425 7.959 599.522 599.522 0 013.678 9.219c1.242 3.191 2.484 6.396 3.727 9.62a146.124 146.124 0 003.779 8.969h.176c.212.209.503.339.824.339h5.509c1.091 0 1.559-8.158 1.608-8.874.333-4.861.921-9.627 2.557-14.245 3.276-9.253 9.346-18.625 16.943-24.894 4.158-3.431 9.321-6.423 14.438-8.18.245-.084 2.517 1.734 5.177 3.552 2.726 1.862 5.86 3.724 7.645 3.542 6.524-.669 9.365-7.129 6.228-12.757-1.783-3.2-5.226-5.742-9.703-5.742-.245 0-.493.008-.744.023"/></defs><clipPath id="t"><use xlink:href="#s" overflow="visible"/></clipPath><linearGradient id="u" gradientUnits="userSpaceOnUse" x1="-72.918" y1="273.947" x2="-71.918" y2="273.947" gradientTransform="scale(219.7643 -219.7643) rotate(-6.868 -2320.241 -471.1)"><stop offset="0" stop-color="#9fef26"/><stop offset=".018" stop-color="#9dea21"/><stop offset=".102" stop-color="#95d70f"/><stop offset=".189" stop-color="#91cc04"/><stop offset=".281" stop-color="#8fc800"/><stop offset="1" stop-color="#1d9632"/></linearGradient><path clip-path="url(#t)" fill="url(#u)" d="M5.929-5.504l95.648 11.521-9.298 77.184-95.647-11.52z"/><path fill="#4C2714" d="M265.315 9.593c-.44-.193-.877-.384-1.304-.604-.832-.431-1.654-1.034-2.614-1.74l-.715-.521a13.792 13.792 0 00-1.506-.939c-1.698-.925-3.603-.939-5.367-.031-1.082.562-2.11 1.298-3.14 2.25-1.962 1.811-3.513 3.643-4.764 5.639l-.112.187a9.471 9.471 0 00-.653 1.326c-.543 1.352-.595 2.504-.442 3.419-.621 1.658-.46 3.44.48 4.932a20.899 20.899 0 002.011 2.706c1.126 1.275 2.628 1.936 4.193 1.89 1.232.839 2.405 1.59 3.781 2.239.631.298 1.31.488 2.028.569.015.504.027 1.021.039 1.559a46.034 46.034 0 00-2.504 4.305 25.265 25.265 0 00-.445-.274c-2.516-1.502-4.993-2.494-7.579-3.035-3.763-.787-7.604-.164-10.536 1.713-2.006 1.284-4.748 3.409-6.419 6.238-.749 1.267-1.225 2.579-1.419 3.901-.733 5.024-.273 9.584 1.368 13.553l.317.77.578.596c2.342 2.418 4.976 4.293 7.01 5.66 1.518 1.019 3.168 2.087 4.947 2.996 3.408 1.743 7.107 2.66 10.989 2.726a26.375 26.375 0 005.626-.513l.577.212c.796.294 1.593.585 2.41.827 2.169.642 4.383.462 6.399-.521.783-.382 1.585-.714 2.465-1.078a53.717 53.717 0 002.611-1.145c.762-.365 1.396-.767 1.98-1.151a6.09 6.09 0 001.934-2.012c.583-.985.876-2.129.871-3.359.002-.266.01-.885-.19-1.469-.008-.14.054-.557.1-.866.05-.329.098-.656.13-.974.093-.851.203-1.701.323-2.614.265-2.027.538-4.123.585-6.326.039-1.839-.05-3.771-.279-6.076-.252-2.576-.714-5.066-1.169-7.528-.157-.842-.314-1.683-.46-2.527-.816-4.688-1.764-9.301-2.588-13.258-.543-2.605-1.379-4.666-2.63-6.488-1.154-1.677-2.711-3.031-4.756-4.14-.687-.37-1.401-.688-2.161-1.024"/><path fill="#ED6000" d="M263.6 13.968c-.532-.234-1.083-.476-1.613-.751-1.16-.601-2.216-1.376-3.236-2.126-.227-.166-.453-.333-.681-.498a9.32 9.32 0 00-1.007-.623c-.325-.177-.618-.173-.979.015-.728.376-1.396.864-2.124 1.536-1.65 1.522-2.942 3.042-3.948 4.648a5.026 5.026 0 00-.414.809c-.361.9-.241 1.241.611 1.731.025.015.053.028.079.042.14.069-.705.881-.891 1.161-.328.499-.368.831-.144 1.186a16.14 16.14 0 001.558 2.106c.248.281.477.363.764.277.499-.15 1.528-.46 2.16.571 1.217.837 2.329 1.576 3.546 2.15.298.14.642.19 1.08.158a28.388 28.388 0 002.665-.298c.157-.025.385-.043.563.099.177.141.211.363.221.54a169.9 169.9 0 01.232 6.814c.004.288-.074.542-.248.797-1.834 2.69-3.216 5.267-4.225 7.876-.369.957-.631 1.807-.8 2.6l-.047.219-.222.025c-.227.025-.394-.073-.496-.292-.797-1.661-2.104-3.015-3.995-4.145-2.065-1.232-4.076-2.042-6.149-2.475-4.165-.871-7.099.809-10.093 3.585-3.325 3.085-5.162 11.803-1.655 15.409 2.026 2.084 4.385 3.759 6.214 4.987 1.613 1.083 2.991 1.96 4.473 2.717 2.768 1.415 5.776 2.16 8.942 2.213 1.65.028 3.313-.136 4.943-.487.825-.179 1.537.016 2.125.229l.668.245c.69.256 1.405.52 2.12.731 1.047.31 2.067.229 3.032-.241.867-.422 1.767-.796 2.638-1.158.816-.339 1.659-.69 2.466-1.077.44-.211.947-.522 1.436-.843.483-.318.697-.768.694-1.457v-.067a.73.73 0 00-.01-.174c-.303-.962-.164-1.895-.029-2.797.039-.26.078-.52.106-.78.097-.904.217-1.82.333-2.705.249-1.908.507-3.88.548-5.833.034-1.645-.047-3.4-.256-5.521-.237-2.398-.684-4.806-1.116-7.135-.159-.858-.317-1.716-.468-2.575-.8-4.596-1.74-9.175-2.559-13.107-.411-1.978-1.018-3.5-1.904-4.791-.728-1.057-1.751-1.933-3.13-2.679-.573-.312-1.186-.581-1.778-.841"/><defs><path id="v" d="M256.61 11.915a6.254 6.254 0 00-1.116.47 1.527 1.527 0 00-.687.731c-.726 1.64-1.556 3.048-2.535 4.305-.909 1.169-.478 2.316-.073 3.078.053.099.142.236.302.281a.37.37 0 00.292-.039.632.632 0 00.22-.263l.381-.712c.517-.96 1.05-1.951 1.534-2.952.243-.504.509-1.059.769-1.636a5.363 5.363 0 01-.292 1.266c-.196.564-.461 1.118-.719 1.653-.194.406-.395.825-.568 1.254l-.078.192c-.196.474-.396.963-.461 1.511-.094.812.543 1.644 1.337 1.747a.512.512 0 00.339-.061c.194-.115.22-.32.232-.418.005-.037.087-.318.087-.318.193-.658.393-1.339.669-1.972l.153-.347c.325-.748.652-1.495.971-2.246.162-.382.326-.783.461-1.205.169.416.228.834.046 1.301l-.298.765c-.32.818-.651 1.663-.953 2.505-.289.804-.461 1.637-.592 2.346a.552.552 0 00.219.578c.646.519 1.535 1.136 2.682 1.309.526.08 1.119-.049 1.629-.353.396-.236.714-.554.916-.92.133-.237.192-.578-.264-.863l-.216-.135c-.386-.241-.785-.49-1.19-.722-.063-.036-.085-.059-.088-.06 0-.007.003-.035.028-.096l.161-.4c.079-.198.16-.4.247-.601.564.787.896.823 2.083.436a.704.704 0 00.051.442l.029.066c.054.125.121.28.258.412 1.385 1.325 2.858 1.982 4.511 2.008.145.003.282-.007.427-.028-.34.487-.698.945-1.125 1.342-.225.212-.296.42-.244.719.568 3.29 1.19 7.175 1.494 11.047.159 2.049-1.177 1.734-2.207 1.42-.482-.147-.899-.295-1.062-.199a1.58 1.58 0 00-.505.511c-2.168 3.34-1.491 8.493-.458 12.087.325 1.132 2.433 7.662 3.755 7.668a5.592 5.592 0 01-.22-.008l-.077-.003c-1.962-.082-3.663-.498-5.2-1.271-1.954-.985-3.452-2.853-4.588-4.673-1.649-2.644-.76-5.784-2.947-8.246-1.839-2.07-4.56-3.382-7.345-3.448-3.447-.08-6.192 3.013-6.94 6.113-1.702 7.051 6.945 13.941 12.876 15.584 1.491.413 3.102.815 4.778.965 1.016.09 2.107.139 3.212-.108.051-.006.133-.013.233-.07.391-.235.647-.093 1.107.197l.091.056c1.159.723 2.193 1.169 3.252 1.404.603.134 1.23.09 1.918-.135a11.432 11.432 0 003.462-1.824c.963-.744 1.023-1.538.906-2.071-.193-.884-.027-1.727.147-2.621.046-.234.092-.469.131-.703.667-3.975 1.021-7.305 1.115-10.481.07-2.427-.024-4.295-.308-6.057-.064-.4-.131-.799-.196-1.199-.146-.879-.296-1.789-.424-2.685a410.98 410.98 0 01-.234-1.653c-.439-3.113-.894-6.332-1.542-9.47-.453-2.188-1.011-4.165-1.704-6.044-.648-1.756-1.854-3.058-3.684-3.984-.894-.451-1.807-.891-2.688-1.318l-.517-.25c-.579-.28-1.079-.688-1.608-1.119l-.232-.189c-.56-.451-1.121-.897-1.685-1.342a1.573 1.573 0 00-1-.356 2.153 2.153 0 00-.641.105"/></defs><clipPath id="w"><use xlink:href="#v" overflow="visible"/></clipPath><linearGradient id="x" gradientUnits="userSpaceOnUse" x1="-72.918" y1="273.961" x2="-71.918" y2="273.961" gradientTransform="scale(104.0656 -104.0656) rotate(10.023 1529.126 565.334)"><stop offset="0" stop-color="#ffbd0d"/><stop offset=".136" stop-color="#fa9b0b"/><stop offset=".3" stop-color="#f57909"/><stop offset=".468" stop-color="#f25e07"/><stop offset=".638" stop-color="#ef4b06"/><stop offset=".814" stop-color="#ee4005"/><stop offset="1" stop-color="#ed3c05"/></linearGradient><path clip-path="url(#w)" fill="url(#x)" d="M228.95 13.434l43.133-7.623 10.252 58.008-43.133 7.624z"/><defs><path id="y" d="M197.719 28.334a7.168 7.168 0 00-1.595.399c-.468.176-1.113.394-1.929.657-.824.264-1.889.561-3.168.879-1.277.321-2.936.632-4.998.939-.637.16-1.132.456-1.471.88a2.278 2.278 0 00-.521 1.447c0 1.246.396 2.01 1.18 2.269.52.173 1.093.26 1.706.26 1.397 0 2.114.221 2.468.407.481.251.811.578 1.01.997.22.463.331 1.016.331 1.645v24.994c0 .629-.111 1.183-.331 1.646-.197.419-.527.744-1.011.996-.353.186-1.066.406-2.467.406-.656 0-1.181.051-1.608.157-1.028.256-1.21 1.642-1.277 2.192 0 .628.163 1.189.481 1.661.377.568.959.869 1.736.869h.007a94.144 94.144 0 014.694-.222c2.845-.064 6.206-.064 9.118 0 1.446.028 3.041.102 4.79.223.726 0 1.311-.301 1.689-.868.32-.48.482-1.041.481-1.712-.085-1.255-.503-1.978-1.247-2.146a7.02 7.02 0 00-1.548-.154c-1.129 0-1.979-.138-2.527-.415-.504-.249-.844-.573-1.041-.989-.22-.461-.33-1.015-.33-1.644V40.754c.215-.429.586-.932 1.101-1.495.588-.644 1.329-1.284 2.201-1.904.866-.614 1.901-1.138 3.079-1.557 1.901-.681 4.308-.948 6.799-.171a7.168 7.168 0 012.509 1.376c.718.612 1.314 1.413 1.772 2.385.458.968.688 2.152.688 3.52v18.921c0 .766-.016 1.516-.045 2.247-.026.641-.152 1.205-.374 1.675-.199.421-.53.746-1.014.998-.513.271-1.343.406-2.465.406a7.09 7.09 0 00-1.551.154c-.743.169-1.163.893-1.246 2.195 0 .627.163 1.187.481 1.663.377.566.961.867 1.735.867h.009a94.015 94.015 0 014.692-.222 216.57 216.57 0 019.119 0 93.48 93.48 0 014.738.222l.052.001c.726 0 1.31-.301 1.69-.868.318-.48.481-1.041.48-1.713-.086-1.254-.506-1.977-1.247-2.146a7.016 7.016 0 00-1.549-.154c-1.128 0-1.978-.138-2.526-.415-.506-.249-.845-.573-1.041-.989-.22-.461-.331-1.015-.331-1.644V42.818c0-4.165-1.256-7.582-3.734-10.156-2.486-2.579-5.925-3.886-10.218-3.886-1.965 0-3.704.22-5.166.655-1.448.43-2.769.996-3.917 1.68a19.5 19.5 0 00-3.109 2.273c-.568.511-1.136 1.028-1.704 1.553v-4.169c0-.961-.269-1.644-.8-2.033a2.246 2.246 0 00-1.353-.426 2.98 2.98 0 00-.377.025"/></defs><clipPath id="z"><use xlink:href="#y" overflow="visible"/></clipPath><linearGradient id="A" gradientUnits="userSpaceOnUse" x1="-72.918" y1="273.957" x2="-71.918" y2="273.957" gradientTransform="scale(219.7643 -219.7643) rotate(-6.868 -2320.017 -471.11)"><stop offset="0" stop-color="#9fef26"/><stop offset=".018" stop-color="#9dea21"/><stop offset=".102" stop-color="#95d70f"/><stop offset=".189" stop-color="#91cc04"/><stop offset=".281" stop-color="#8fc800"/><stop offset="1" stop-color="#1d9632"/></linearGradient><path clip-path="url(#z)" fill="url(#A)" d="M184.764 22.282l55.226 6.653-5.918 49.128-55.225-6.652z"/></svg>